G04*
G04 #@! TF.GenerationSoftware,Altium Limited,Altium Designer,24.5.2 (23)*
G04*
G04 Layer_Color=65535*
%FSLAX44Y44*%
%MOMM*%
G71*
G04*
G04 #@! TF.SameCoordinates,E9880ABE-0B08-401C-87C3-A205D889D7CA*
G04*
G04*
G04 #@! TF.FilePolarity,Positive*
G04*
G01*
G75*
%ADD10C,0.2540*%
%ADD11C,0.2000*%
%ADD12C,0.1270*%
%ADD13C,0.1501*%
%ADD14R,1.1999X5.0338*%
G36*
X721195Y242889D02*
X688930D01*
Y255948D01*
X721195D01*
Y242889D01*
D02*
G37*
G36*
X300207Y280780D02*
X264945D01*
Y293839D01*
X300207D01*
Y280780D01*
D02*
G37*
G36*
X429837Y380201D02*
X394801D01*
Y393260D01*
X429837D01*
Y380201D01*
D02*
G37*
G36*
X650348Y180780D02*
X615312D01*
Y193839D01*
X650348D01*
Y180780D01*
D02*
G37*
G36*
X429950Y280201D02*
X394688D01*
Y293260D01*
X429950D01*
Y280201D01*
D02*
G37*
G36*
X300094Y380780D02*
X265058D01*
Y393839D01*
X300094D01*
Y380780D01*
D02*
G37*
G36*
X650348D02*
X615312D01*
Y393839D01*
X650348D01*
Y380780D01*
D02*
G37*
G36*
X79865Y180402D02*
X44772D01*
Y193461D01*
X79865D01*
Y180402D01*
D02*
G37*
G36*
X79949Y280402D02*
X44687D01*
Y293461D01*
X79949D01*
Y280402D01*
D02*
G37*
G36*
X300123Y180780D02*
X265030D01*
Y193839D01*
X300123D01*
Y180780D01*
D02*
G37*
G36*
X79836Y380402D02*
X44800D01*
Y393461D01*
X79836D01*
Y380402D01*
D02*
G37*
G36*
X721195Y217552D02*
X688930D01*
Y230484D01*
X721195D01*
Y217552D01*
D02*
G37*
G36*
X429865Y180201D02*
X394773D01*
Y193260D01*
X429865D01*
Y180201D01*
D02*
G37*
G36*
X650348Y280780D02*
X615312D01*
Y293839D01*
X650348D01*
Y280780D01*
D02*
G37*
G36*
X721195Y293816D02*
X688930D01*
Y306621D01*
X721195D01*
Y293816D01*
D02*
G37*
G36*
Y268416D02*
X688908D01*
Y281221D01*
X721195D01*
Y268416D01*
D02*
G37*
%LPC*%
G36*
X696844Y253408D02*
X696520D01*
X696040Y253394D01*
X695829Y253380D01*
X695617Y253351D01*
X695434Y253323D01*
X695265Y253281D01*
X695096Y253253D01*
X694955Y253225D01*
X694828Y253182D01*
X694715Y253154D01*
X694616Y253112D01*
X694532Y253083D01*
X694475Y253069D01*
X694433Y253041D01*
X694405Y253027D01*
X694391D01*
X694038Y252830D01*
X693728Y252604D01*
X693475Y252365D01*
X693249Y252139D01*
X693080Y251928D01*
X692967Y251758D01*
X692925Y251688D01*
X692897Y251646D01*
X692868Y251618D01*
Y251603D01*
X692699Y251237D01*
X692572Y250870D01*
X692474Y250504D01*
X692417Y250166D01*
X692389Y250010D01*
X692375Y249869D01*
X692361Y249743D01*
Y249630D01*
X692347Y249545D01*
Y249418D01*
X692361Y248981D01*
X692417Y248573D01*
X692488Y248206D01*
X692530Y248037D01*
X692587Y247896D01*
X692629Y247755D01*
X692671Y247628D01*
X692699Y247529D01*
X692742Y247445D01*
X692770Y247374D01*
X692798Y247318D01*
X692812Y247290D01*
Y247276D01*
X693009Y246951D01*
X693221Y246669D01*
X693446Y246430D01*
X693658Y246246D01*
X693855Y246091D01*
X694010Y245979D01*
X694067Y245951D01*
X694109Y245922D01*
X694137Y245894D01*
X694151D01*
X694504Y245739D01*
X694870Y245626D01*
X695251Y245542D01*
X695603Y245485D01*
X695772Y245471D01*
X695928Y245457D01*
X696054Y245443D01*
X696181D01*
X696280Y245429D01*
X696407D01*
X696816Y245443D01*
X697182Y245471D01*
X697520Y245513D01*
X697802Y245556D01*
X697915Y245584D01*
X698028Y245598D01*
X698112Y245626D01*
X698197Y245640D01*
X698253Y245654D01*
X698296Y245669D01*
X698324Y245683D01*
X698338D01*
X698648Y245795D01*
X698972Y245951D01*
X699297Y246120D01*
X699593Y246275D01*
X699846Y246430D01*
X699959Y246500D01*
X700044Y246557D01*
X700128Y246599D01*
X700185Y246641D01*
X700213Y246655D01*
X700227Y246669D01*
Y249968D01*
X696534D01*
Y248361D01*
X698141D01*
Y247628D01*
X697972Y247529D01*
X697802Y247445D01*
X697661Y247374D01*
X697534Y247332D01*
X697436Y247290D01*
X697365Y247262D01*
X697309Y247233D01*
X697295D01*
X697027Y247163D01*
X696900Y247149D01*
X696773Y247135D01*
X696675Y247120D01*
X696534D01*
X696238Y247149D01*
X695970Y247205D01*
X695744Y247290D01*
X695561Y247388D01*
X695406Y247487D01*
X695293Y247572D01*
X695237Y247628D01*
X695209Y247656D01*
X695124Y247769D01*
X695053Y247882D01*
X694941Y248164D01*
X694856Y248460D01*
X694800Y248756D01*
X694771Y249024D01*
X694757Y249136D01*
Y249249D01*
X694743Y249334D01*
Y249390D01*
Y249432D01*
Y249447D01*
Y249658D01*
X694757Y249855D01*
X694786Y250039D01*
X694814Y250208D01*
X694856Y250363D01*
X694884Y250504D01*
X694983Y250743D01*
X695068Y250927D01*
X695138Y251068D01*
X695194Y251138D01*
X695209Y251166D01*
X695392Y251350D01*
X695603Y251491D01*
X695815Y251589D01*
X696012Y251646D01*
X696195Y251688D01*
X696336Y251702D01*
X696393Y251716D01*
X696463D01*
X696661Y251702D01*
X696830Y251674D01*
X696971Y251646D01*
X697097Y251603D01*
X697196Y251547D01*
X697281Y251519D01*
X697323Y251491D01*
X697337Y251476D01*
X697450Y251378D01*
X697563Y251279D01*
X697647Y251166D01*
X697718Y251068D01*
X697760Y250969D01*
X697802Y250884D01*
X697831Y250828D01*
Y250814D01*
X700128Y251223D01*
X700044Y251491D01*
X699945Y251730D01*
X699832Y251942D01*
X699734Y252111D01*
X699635Y252252D01*
X699565Y252365D01*
X699508Y252421D01*
X699494Y252449D01*
X699325Y252618D01*
X699156Y252773D01*
X698972Y252900D01*
X698803Y252999D01*
X698662Y253069D01*
X698549Y253126D01*
X698465Y253154D01*
X698451Y253168D01*
X698437D01*
X698310Y253210D01*
X698169Y253253D01*
X697873Y253309D01*
X697549Y253351D01*
X697238Y253380D01*
X696957Y253394D01*
X696844Y253408D01*
D02*
G37*
G36*
X709052Y253281D02*
X706796D01*
Y248995D01*
X703864Y253281D01*
X701651D01*
Y245556D01*
X703892D01*
Y249813D01*
X706796Y245556D01*
X709052D01*
Y253281D01*
D02*
G37*
G36*
X714366D02*
X710659D01*
Y245556D01*
X714197D01*
X714451Y245570D01*
X714691Y245584D01*
X714944Y245612D01*
X715156Y245654D01*
X715353Y245697D01*
X715508Y245725D01*
X715565Y245739D01*
X715607D01*
X715621Y245753D01*
X715635D01*
X715846Y245824D01*
X716044Y245922D01*
X716213Y246021D01*
X716382Y246120D01*
X716509Y246218D01*
X716608Y246303D01*
X716664Y246359D01*
X716692Y246373D01*
X716876Y246557D01*
X717031Y246754D01*
X717172Y246937D01*
X717284Y247120D01*
X717369Y247276D01*
X717425Y247402D01*
X717468Y247487D01*
X717482Y247501D01*
Y247515D01*
X717580Y247797D01*
X717651Y248107D01*
X717707Y248431D01*
X717736Y248728D01*
X717764Y249009D01*
Y249122D01*
X717778Y249235D01*
Y249432D01*
X717764Y249729D01*
X717750Y249996D01*
X717721Y250250D01*
X717679Y250476D01*
X717637Y250659D01*
X717609Y250800D01*
X717595Y250856D01*
Y250898D01*
X717580Y250913D01*
Y250927D01*
X717496Y251180D01*
X717411Y251420D01*
X717313Y251632D01*
X717214Y251815D01*
X717115Y251970D01*
X717045Y252069D01*
X716988Y252139D01*
X716974Y252167D01*
X716805Y252351D01*
X716636Y252520D01*
X716453Y252661D01*
X716284Y252773D01*
X716128Y252872D01*
X716016Y252929D01*
X715931Y252971D01*
X715917Y252985D01*
X715903D01*
X715649Y253083D01*
X715367Y253154D01*
X715085Y253210D01*
X714803Y253239D01*
X714564Y253267D01*
X714465D01*
X714366Y253281D01*
D02*
G37*
%LPD*%
G36*
X713958Y251519D02*
X714240Y251462D01*
X714465Y251392D01*
X714648Y251307D01*
X714789Y251209D01*
X714888Y251138D01*
X714958Y251082D01*
X714973Y251068D01*
X715043Y250969D01*
X715114Y250870D01*
X715212Y250617D01*
X715283Y250335D01*
X715325Y250067D01*
X715367Y249799D01*
Y249686D01*
X715381Y249587D01*
Y249503D01*
Y249447D01*
Y249404D01*
Y249390D01*
X715367Y249066D01*
X715353Y248798D01*
X715325Y248558D01*
X715297Y248375D01*
X715255Y248234D01*
X715226Y248136D01*
X715212Y248065D01*
X715198Y248051D01*
X715128Y247910D01*
X715043Y247783D01*
X714958Y247684D01*
X714874Y247614D01*
X714803Y247543D01*
X714747Y247501D01*
X714705Y247487D01*
X714691Y247473D01*
X714550Y247416D01*
X714395Y247388D01*
X714211Y247360D01*
X714042Y247332D01*
X713873D01*
X713746Y247318D01*
X713041D01*
Y251533D01*
X713633D01*
X713958Y251519D01*
D02*
G37*
%LPC*%
G36*
X296694Y291299D02*
X294820D01*
X290900Y286647D01*
Y284885D01*
X294820D01*
Y283447D01*
X296694D01*
Y284885D01*
X297667D01*
Y286548D01*
X296694D01*
Y291299D01*
D02*
G37*
G36*
X280145Y291172D02*
X275887D01*
Y283447D01*
X278284D01*
Y286576D01*
X278481D01*
X278608Y286562D01*
X278721Y286548D01*
X278819Y286520D01*
X278904Y286492D01*
X278974Y286450D01*
X279031Y286421D01*
X279059Y286407D01*
X279073Y286393D01*
X279144Y286323D01*
X279228Y286238D01*
X279369Y286041D01*
X279426Y285956D01*
X279468Y285872D01*
X279496Y285815D01*
X279510Y285801D01*
X280793Y283447D01*
X283500D01*
X282330Y285674D01*
X282287Y285745D01*
X282245Y285815D01*
X282132Y285984D01*
X282076Y286041D01*
X282034Y286097D01*
X282005Y286139D01*
X281991Y286153D01*
X281907Y286266D01*
X281822Y286351D01*
X281766Y286421D01*
X281709Y286478D01*
X281667Y286520D01*
X281639Y286548D01*
X281611Y286562D01*
X281526Y286619D01*
X281427Y286661D01*
X281230Y286760D01*
X281131Y286788D01*
X281061Y286816D01*
X281004Y286844D01*
X280990D01*
X281174Y286901D01*
X281343Y286943D01*
X281484Y286999D01*
X281611Y287041D01*
X281695Y287084D01*
X281766Y287126D01*
X281808Y287140D01*
X281822Y287154D01*
X281991Y287267D01*
X282146Y287394D01*
X282273Y287521D01*
X282386Y287634D01*
X282470Y287746D01*
X282541Y287831D01*
X282569Y287887D01*
X282583Y287901D01*
X282682Y288085D01*
X282752Y288282D01*
X282795Y288465D01*
X282837Y288634D01*
X282851Y288790D01*
X282865Y288902D01*
Y288987D01*
Y289015D01*
X282851Y289283D01*
X282809Y289523D01*
X282752Y289734D01*
X282682Y289917D01*
X282612Y290072D01*
X282555Y290185D01*
X282513Y290242D01*
X282499Y290270D01*
X282358Y290453D01*
X282203Y290594D01*
X282048Y290721D01*
X281893Y290819D01*
X281766Y290890D01*
X281653Y290932D01*
X281582Y290961D01*
X281554Y290975D01*
X281315Y291045D01*
X281047Y291087D01*
X280765Y291130D01*
X280497Y291144D01*
X280243Y291158D01*
X280145Y291172D01*
D02*
G37*
G36*
X271193D02*
X267485D01*
Y283447D01*
X271024D01*
X271278Y283461D01*
X271517Y283475D01*
X271771Y283503D01*
X271982Y283545D01*
X272180Y283588D01*
X272335Y283616D01*
X272391Y283630D01*
X272433D01*
X272448Y283644D01*
X272462D01*
X272673Y283715D01*
X272871Y283813D01*
X273040Y283912D01*
X273209Y284011D01*
X273336Y284109D01*
X273434Y284194D01*
X273491Y284250D01*
X273519Y284264D01*
X273702Y284448D01*
X273857Y284645D01*
X273998Y284828D01*
X274111Y285012D01*
X274196Y285167D01*
X274252Y285294D01*
X274294Y285378D01*
X274308Y285392D01*
Y285406D01*
X274407Y285688D01*
X274478Y285998D01*
X274534Y286323D01*
X274562Y286619D01*
X274590Y286901D01*
Y287013D01*
X274604Y287126D01*
Y287323D01*
X274590Y287619D01*
X274576Y287887D01*
X274548Y288141D01*
X274506Y288367D01*
X274463Y288550D01*
X274435Y288691D01*
X274421Y288747D01*
Y288790D01*
X274407Y288804D01*
Y288818D01*
X274322Y289072D01*
X274238Y289311D01*
X274139Y289523D01*
X274041Y289706D01*
X273942Y289861D01*
X273871Y289960D01*
X273815Y290030D01*
X273801Y290058D01*
X273632Y290242D01*
X273463Y290411D01*
X273279Y290552D01*
X273110Y290665D01*
X272955Y290763D01*
X272842Y290819D01*
X272758Y290862D01*
X272744Y290876D01*
X272729D01*
X272476Y290975D01*
X272194Y291045D01*
X271912Y291101D01*
X271630Y291130D01*
X271390Y291158D01*
X271292D01*
X271193Y291172D01*
D02*
G37*
G36*
X287249Y291299D02*
X287122D01*
X286826Y291285D01*
X286545Y291257D01*
X286291Y291214D01*
X286051Y291158D01*
X285840Y291087D01*
X285642Y291017D01*
X285459Y290932D01*
X285304Y290862D01*
X285163Y290777D01*
X285036Y290693D01*
X284937Y290622D01*
X284853Y290552D01*
X284782Y290495D01*
X284740Y290453D01*
X284712Y290425D01*
X284698Y290411D01*
X284557Y290228D01*
X284444Y290030D01*
X284331Y289805D01*
X284247Y289565D01*
X284106Y289057D01*
X284007Y288550D01*
X283979Y288310D01*
X283951Y288085D01*
X283937Y287873D01*
X283923Y287690D01*
X283908Y287549D01*
Y287338D01*
X283923Y287013D01*
X283937Y286703D01*
X283965Y286421D01*
X283993Y286182D01*
X284021Y285970D01*
X284035Y285815D01*
X284049Y285759D01*
X284063Y285716D01*
Y285702D01*
Y285688D01*
X284120Y285434D01*
X284190Y285195D01*
X284261Y284998D01*
X284331Y284842D01*
X284388Y284701D01*
X284444Y284617D01*
X284472Y284546D01*
X284486Y284532D01*
X284641Y284321D01*
X284811Y284138D01*
X284966Y283983D01*
X285135Y283856D01*
X285262Y283757D01*
X285375Y283687D01*
X285445Y283644D01*
X285473Y283630D01*
X285713Y283531D01*
X285981Y283447D01*
X286248Y283390D01*
X286502Y283362D01*
X286728Y283334D01*
X286812D01*
X286897Y283320D01*
X287066D01*
X287376Y283334D01*
X287672Y283362D01*
X287940Y283405D01*
X288180Y283475D01*
X288405Y283545D01*
X288603Y283630D01*
X288786Y283715D01*
X288941Y283813D01*
X289082Y283898D01*
X289195Y283983D01*
X289293Y284067D01*
X289378Y284138D01*
X289449Y284208D01*
X289491Y284250D01*
X289505Y284279D01*
X289519Y284293D01*
X289646Y284490D01*
X289759Y284701D01*
X289857Y284941D01*
X289942Y285181D01*
X290069Y285688D01*
X290153Y286196D01*
X290182Y286435D01*
X290196Y286647D01*
X290210Y286844D01*
X290224Y287027D01*
X290238Y287168D01*
Y287366D01*
X290224Y287704D01*
X290210Y288042D01*
X290168Y288339D01*
X290125Y288606D01*
X290083Y288832D01*
X290069Y288930D01*
X290055Y289001D01*
X290041Y289072D01*
X290026Y289114D01*
X290012Y289142D01*
Y289156D01*
X289970Y289325D01*
X289914Y289466D01*
X289872Y289607D01*
X289829Y289720D01*
X289787Y289819D01*
X289745Y289889D01*
X289730Y289931D01*
X289716Y289946D01*
X289561Y290199D01*
X289477Y290312D01*
X289392Y290397D01*
X289322Y290481D01*
X289265Y290538D01*
X289223Y290580D01*
X289209Y290594D01*
X289082Y290707D01*
X288955Y290805D01*
X288814Y290890D01*
X288687Y290961D01*
X288575Y291017D01*
X288476Y291073D01*
X288419Y291087D01*
X288391Y291101D01*
X288194Y291172D01*
X287983Y291214D01*
X287771Y291257D01*
X287574Y291271D01*
X287390Y291285D01*
X287249Y291299D01*
D02*
G37*
%LPD*%
G36*
X294820Y286548D02*
X292733D01*
X294820Y288987D01*
Y286548D01*
D02*
G37*
G36*
X279552Y289593D02*
X279750Y289579D01*
X279905Y289537D01*
X280032Y289508D01*
X280116Y289466D01*
X280187Y289424D01*
X280215Y289410D01*
X280229Y289396D01*
X280314Y289311D01*
X280370Y289227D01*
X280412Y289128D01*
X280441Y289043D01*
X280455Y288959D01*
X280469Y288888D01*
Y288846D01*
Y288832D01*
Y288733D01*
X280441Y288649D01*
X280398Y288508D01*
X280370Y288451D01*
X280342Y288423D01*
X280328Y288395D01*
X280314Y288381D01*
X280257Y288310D01*
X280187Y288254D01*
X280060Y288183D01*
X280004Y288169D01*
X279961Y288155D01*
X279933Y288141D01*
X279919D01*
X279764Y288113D01*
X279623Y288085D01*
X279510Y288071D01*
X279426Y288057D01*
X279369Y288042D01*
X278284D01*
Y289607D01*
X279327D01*
X279552Y289593D01*
D02*
G37*
G36*
X270784Y289410D02*
X271066Y289353D01*
X271292Y289283D01*
X271475Y289198D01*
X271616Y289100D01*
X271714Y289029D01*
X271785Y288973D01*
X271799Y288959D01*
X271870Y288860D01*
X271940Y288761D01*
X272039Y288508D01*
X272109Y288226D01*
X272152Y287958D01*
X272194Y287690D01*
Y287577D01*
X272208Y287479D01*
Y287394D01*
Y287338D01*
Y287295D01*
Y287281D01*
X272194Y286957D01*
X272180Y286689D01*
X272152Y286450D01*
X272123Y286266D01*
X272081Y286125D01*
X272053Y286027D01*
X272039Y285956D01*
X272025Y285942D01*
X271954Y285801D01*
X271870Y285674D01*
X271785Y285576D01*
X271700Y285505D01*
X271630Y285434D01*
X271574Y285392D01*
X271531Y285378D01*
X271517Y285364D01*
X271376Y285308D01*
X271221Y285279D01*
X271038Y285251D01*
X270869Y285223D01*
X270700D01*
X270573Y285209D01*
X269868D01*
Y289424D01*
X270460D01*
X270784Y289410D01*
D02*
G37*
G36*
X287235Y289847D02*
X287390Y289790D01*
X287531Y289706D01*
X287644Y289607D01*
X287729Y289508D01*
X287785Y289424D01*
X287827Y289368D01*
X287841Y289339D01*
X287884Y289227D01*
X287926Y289100D01*
X287968Y288945D01*
X287997Y288790D01*
X288039Y288451D01*
X288081Y288099D01*
X288095Y287789D01*
Y287634D01*
X288109Y287521D01*
Y287408D01*
Y287338D01*
Y287281D01*
Y287267D01*
Y286901D01*
X288095Y286590D01*
X288067Y286323D01*
X288053Y286111D01*
X288025Y285942D01*
X287997Y285829D01*
X287983Y285759D01*
Y285730D01*
X287940Y285561D01*
X287884Y285406D01*
X287827Y285294D01*
X287771Y285181D01*
X287715Y285110D01*
X287672Y285054D01*
X287644Y285026D01*
X287630Y285012D01*
X287531Y284941D01*
X287433Y284885D01*
X287348Y284842D01*
X287249Y284814D01*
X287179Y284800D01*
X287108Y284786D01*
X287052D01*
X286883Y284814D01*
X286728Y284871D01*
X286601Y284955D01*
X286488Y285054D01*
X286404Y285152D01*
X286347Y285237D01*
X286305Y285294D01*
X286291Y285322D01*
X286248Y285434D01*
X286206Y285561D01*
X286178Y285702D01*
X286150Y285857D01*
X286094Y286196D01*
X286065Y286534D01*
X286051Y286844D01*
Y286985D01*
X286037Y287098D01*
Y287197D01*
Y287267D01*
Y287323D01*
Y287338D01*
Y287605D01*
X286051Y287845D01*
X286065Y288057D01*
X286079Y288268D01*
X286094Y288437D01*
X286108Y288606D01*
X286136Y288747D01*
X286164Y288874D01*
X286178Y288987D01*
X286206Y289086D01*
X286220Y289156D01*
X286234Y289212D01*
X286248Y289269D01*
X286263Y289297D01*
X286277Y289325D01*
X286375Y289508D01*
X286502Y289650D01*
X286629Y289748D01*
X286756Y289805D01*
X286869Y289847D01*
X286968Y289861D01*
X287024Y289875D01*
X287052D01*
X287235Y289847D01*
D02*
G37*
%LPC*%
G36*
X427290Y390593D02*
X421017D01*
Y388775D01*
X424823D01*
X424612Y388507D01*
X424414Y388239D01*
X424231Y387971D01*
X424062Y387732D01*
X423907Y387492D01*
X423766Y387266D01*
X423639Y387055D01*
X423526Y386857D01*
X423427Y386674D01*
X423343Y386505D01*
X423272Y386364D01*
X423202Y386251D01*
X423159Y386153D01*
X423131Y386082D01*
X423103Y386040D01*
Y386026D01*
X423004Y385786D01*
X422906Y385532D01*
X422751Y384997D01*
X422610Y384475D01*
X422553Y384221D01*
X422497Y383968D01*
X422455Y383742D01*
X422412Y383531D01*
X422384Y383347D01*
X422356Y383178D01*
X422342Y383051D01*
X422328Y382953D01*
X422314Y382896D01*
Y382868D01*
X424456D01*
X424499Y383362D01*
X424569Y383798D01*
X424626Y384207D01*
X424668Y384376D01*
X424696Y384546D01*
X424724Y384701D01*
X424767Y384828D01*
X424795Y384940D01*
X424809Y385039D01*
X424837Y385109D01*
X424851Y385166D01*
X424865Y385194D01*
Y385208D01*
X425020Y385673D01*
X425190Y386110D01*
X425359Y386505D01*
X425443Y386688D01*
X425528Y386857D01*
X425612Y386998D01*
X425683Y387140D01*
X425739Y387252D01*
X425796Y387351D01*
X425852Y387435D01*
X425880Y387492D01*
X425894Y387520D01*
X425908Y387534D01*
X426120Y387844D01*
X426359Y388140D01*
X426585Y388422D01*
X426811Y388648D01*
X426994Y388845D01*
X427149Y389000D01*
X427205Y389057D01*
X427248Y389099D01*
X427276Y389113D01*
X427290Y389127D01*
Y390593D01*
D02*
G37*
G36*
X410007D02*
X405750D01*
Y382868D01*
X408146D01*
Y385998D01*
X408344D01*
X408470Y385984D01*
X408583Y385969D01*
X408682Y385941D01*
X408767Y385913D01*
X408837Y385871D01*
X408893Y385843D01*
X408922Y385829D01*
X408936Y385814D01*
X409006Y385744D01*
X409091Y385659D01*
X409232Y385462D01*
X409288Y385377D01*
X409330Y385293D01*
X409359Y385236D01*
X409373Y385222D01*
X410656Y382868D01*
X413362D01*
X412192Y385095D01*
X412150Y385166D01*
X412108Y385236D01*
X411995Y385406D01*
X411938Y385462D01*
X411896Y385518D01*
X411868Y385561D01*
X411854Y385575D01*
X411769Y385687D01*
X411685Y385772D01*
X411628Y385843D01*
X411572Y385899D01*
X411530Y385941D01*
X411501Y385969D01*
X411473Y385984D01*
X411389Y386040D01*
X411290Y386082D01*
X411092Y386181D01*
X410994Y386209D01*
X410923Y386237D01*
X410867Y386265D01*
X410853D01*
X411036Y386322D01*
X411205Y386364D01*
X411346Y386421D01*
X411473Y386463D01*
X411558Y386505D01*
X411628Y386547D01*
X411670Y386562D01*
X411685Y386576D01*
X411854Y386688D01*
X412009Y386815D01*
X412136Y386942D01*
X412248Y387055D01*
X412333Y387168D01*
X412403Y387252D01*
X412432Y387309D01*
X412446Y387323D01*
X412545Y387506D01*
X412615Y387703D01*
X412657Y387887D01*
X412700Y388056D01*
X412714Y388211D01*
X412728Y388324D01*
Y388408D01*
Y388436D01*
X412714Y388704D01*
X412671Y388944D01*
X412615Y389155D01*
X412545Y389339D01*
X412474Y389494D01*
X412418Y389607D01*
X412375Y389663D01*
X412361Y389691D01*
X412220Y389874D01*
X412065Y390015D01*
X411910Y390142D01*
X411755Y390241D01*
X411628Y390311D01*
X411515Y390354D01*
X411445Y390382D01*
X411417Y390396D01*
X411177Y390466D01*
X410909Y390509D01*
X410627Y390551D01*
X410359Y390565D01*
X410106Y390579D01*
X410007Y390593D01*
D02*
G37*
G36*
X401055D02*
X397348D01*
Y382868D01*
X400886D01*
X401140Y382882D01*
X401380Y382896D01*
X401633Y382924D01*
X401845Y382967D01*
X402042Y383009D01*
X402197Y383037D01*
X402254Y383051D01*
X402296D01*
X402310Y383065D01*
X402324D01*
X402536Y383136D01*
X402733Y383235D01*
X402902Y383333D01*
X403071Y383432D01*
X403198Y383531D01*
X403297Y383615D01*
X403353Y383672D01*
X403381Y383686D01*
X403565Y383869D01*
X403720Y384066D01*
X403861Y384250D01*
X403974Y384433D01*
X404058Y384588D01*
X404114Y384715D01*
X404157Y384799D01*
X404171Y384813D01*
Y384828D01*
X404269Y385109D01*
X404340Y385420D01*
X404396Y385744D01*
X404425Y386040D01*
X404453Y386322D01*
Y386435D01*
X404467Y386547D01*
Y386745D01*
X404453Y387041D01*
X404439Y387309D01*
X404411Y387562D01*
X404368Y387788D01*
X404326Y387971D01*
X404298Y388112D01*
X404284Y388169D01*
Y388211D01*
X404269Y388225D01*
Y388239D01*
X404185Y388493D01*
X404100Y388732D01*
X404002Y388944D01*
X403903Y389127D01*
X403804Y389282D01*
X403734Y389381D01*
X403677Y389451D01*
X403663Y389480D01*
X403494Y389663D01*
X403325Y389832D01*
X403142Y389973D01*
X402973Y390086D01*
X402818Y390184D01*
X402705Y390241D01*
X402620Y390283D01*
X402606Y390297D01*
X402592D01*
X402338Y390396D01*
X402056Y390466D01*
X401774Y390523D01*
X401492Y390551D01*
X401253Y390579D01*
X401154D01*
X401055Y390593D01*
D02*
G37*
G36*
X417112Y390720D02*
X416985D01*
X416689Y390706D01*
X416407Y390678D01*
X416153Y390635D01*
X415914Y390579D01*
X415702Y390509D01*
X415505Y390438D01*
X415322Y390354D01*
X415167Y390283D01*
X415026Y390199D01*
X414899Y390114D01*
X414800Y390043D01*
X414715Y389973D01*
X414645Y389917D01*
X414603Y389874D01*
X414575Y389846D01*
X414560Y389832D01*
X414419Y389649D01*
X414307Y389451D01*
X414194Y389226D01*
X414109Y388986D01*
X413968Y388479D01*
X413870Y387971D01*
X413841Y387732D01*
X413813Y387506D01*
X413799Y387295D01*
X413785Y387111D01*
X413771Y386970D01*
Y386759D01*
X413785Y386435D01*
X413799Y386124D01*
X413827Y385843D01*
X413856Y385603D01*
X413884Y385392D01*
X413898Y385236D01*
X413912Y385180D01*
X413926Y385138D01*
Y385124D01*
Y385109D01*
X413982Y384856D01*
X414053Y384616D01*
X414123Y384419D01*
X414194Y384264D01*
X414250Y384123D01*
X414307Y384038D01*
X414335Y383968D01*
X414349Y383954D01*
X414504Y383742D01*
X414673Y383559D01*
X414828Y383404D01*
X414997Y383277D01*
X415124Y383178D01*
X415237Y383108D01*
X415308Y383065D01*
X415336Y383051D01*
X415575Y382953D01*
X415843Y382868D01*
X416111Y382812D01*
X416365Y382784D01*
X416590Y382755D01*
X416675D01*
X416759Y382741D01*
X416929D01*
X417239Y382755D01*
X417535Y382784D01*
X417803Y382826D01*
X418042Y382896D01*
X418268Y382967D01*
X418465Y383051D01*
X418648Y383136D01*
X418804Y383235D01*
X418945Y383319D01*
X419057Y383404D01*
X419156Y383488D01*
X419241Y383559D01*
X419311Y383629D01*
X419353Y383672D01*
X419367Y383700D01*
X419381Y383714D01*
X419508Y383911D01*
X419621Y384123D01*
X419720Y384362D01*
X419804Y384602D01*
X419931Y385109D01*
X420016Y385617D01*
X420044Y385857D01*
X420058Y386068D01*
X420072Y386265D01*
X420086Y386449D01*
X420101Y386590D01*
Y386787D01*
X420086Y387125D01*
X420072Y387464D01*
X420030Y387760D01*
X419988Y388028D01*
X419945Y388253D01*
X419931Y388352D01*
X419917Y388422D01*
X419903Y388493D01*
X419889Y388535D01*
X419875Y388563D01*
Y388577D01*
X419833Y388746D01*
X419776Y388887D01*
X419734Y389029D01*
X419692Y389141D01*
X419649Y389240D01*
X419607Y389310D01*
X419593Y389353D01*
X419579Y389367D01*
X419424Y389621D01*
X419339Y389733D01*
X419255Y389818D01*
X419184Y389902D01*
X419128Y389959D01*
X419086Y390001D01*
X419071Y390015D01*
X418945Y390128D01*
X418818Y390227D01*
X418677Y390311D01*
X418550Y390382D01*
X418437Y390438D01*
X418338Y390495D01*
X418282Y390509D01*
X418254Y390523D01*
X418056Y390593D01*
X417845Y390635D01*
X417634Y390678D01*
X417436Y390692D01*
X417253Y390706D01*
X417112Y390720D01*
D02*
G37*
%LPD*%
G36*
X409415Y389014D02*
X409612Y389000D01*
X409767Y388958D01*
X409894Y388930D01*
X409979Y388887D01*
X410049Y388845D01*
X410078Y388831D01*
X410092Y388817D01*
X410176Y388732D01*
X410233Y388648D01*
X410275Y388549D01*
X410303Y388465D01*
X410317Y388380D01*
X410331Y388310D01*
Y388267D01*
Y388253D01*
Y388154D01*
X410303Y388070D01*
X410261Y387929D01*
X410233Y387873D01*
X410204Y387844D01*
X410190Y387816D01*
X410176Y387802D01*
X410120Y387732D01*
X410049Y387675D01*
X409922Y387605D01*
X409866Y387591D01*
X409824Y387576D01*
X409796Y387562D01*
X409781D01*
X409626Y387534D01*
X409485Y387506D01*
X409373Y387492D01*
X409288Y387478D01*
X409232Y387464D01*
X408146D01*
Y389029D01*
X409189D01*
X409415Y389014D01*
D02*
G37*
G36*
X400647Y388831D02*
X400929Y388775D01*
X401154Y388704D01*
X401337Y388620D01*
X401478Y388521D01*
X401577Y388451D01*
X401647Y388394D01*
X401662Y388380D01*
X401732Y388281D01*
X401803Y388183D01*
X401901Y387929D01*
X401972Y387647D01*
X402014Y387379D01*
X402056Y387111D01*
Y386998D01*
X402070Y386900D01*
Y386815D01*
Y386759D01*
Y386717D01*
Y386702D01*
X402056Y386378D01*
X402042Y386110D01*
X402014Y385871D01*
X401986Y385687D01*
X401944Y385546D01*
X401915Y385448D01*
X401901Y385377D01*
X401887Y385363D01*
X401817Y385222D01*
X401732Y385095D01*
X401647Y384997D01*
X401563Y384926D01*
X401492Y384856D01*
X401436Y384813D01*
X401394Y384799D01*
X401380Y384785D01*
X401239Y384729D01*
X401084Y384701D01*
X400900Y384673D01*
X400731Y384644D01*
X400562D01*
X400435Y384630D01*
X399730D01*
Y388845D01*
X400322D01*
X400647Y388831D01*
D02*
G37*
G36*
X417098Y389268D02*
X417253Y389212D01*
X417394Y389127D01*
X417507Y389029D01*
X417591Y388930D01*
X417648Y388845D01*
X417690Y388789D01*
X417704Y388761D01*
X417746Y388648D01*
X417789Y388521D01*
X417831Y388366D01*
X417859Y388211D01*
X417901Y387873D01*
X417944Y387520D01*
X417958Y387210D01*
Y387055D01*
X417972Y386942D01*
Y386829D01*
Y386759D01*
Y386702D01*
Y386688D01*
Y386322D01*
X417958Y386012D01*
X417929Y385744D01*
X417915Y385532D01*
X417887Y385363D01*
X417859Y385251D01*
X417845Y385180D01*
Y385152D01*
X417803Y384983D01*
X417746Y384828D01*
X417690Y384715D01*
X417634Y384602D01*
X417577Y384532D01*
X417535Y384475D01*
X417507Y384447D01*
X417492Y384433D01*
X417394Y384362D01*
X417295Y384306D01*
X417211Y384264D01*
X417112Y384235D01*
X417041Y384221D01*
X416971Y384207D01*
X416915D01*
X416745Y384235D01*
X416590Y384292D01*
X416464Y384376D01*
X416351Y384475D01*
X416266Y384574D01*
X416210Y384658D01*
X416167Y384715D01*
X416153Y384743D01*
X416111Y384856D01*
X416069Y384983D01*
X416040Y385124D01*
X416012Y385279D01*
X415956Y385617D01*
X415928Y385955D01*
X415914Y386265D01*
Y386406D01*
X415900Y386519D01*
Y386618D01*
Y386688D01*
Y386745D01*
Y386759D01*
Y387027D01*
X415914Y387266D01*
X415928Y387478D01*
X415942Y387689D01*
X415956Y387858D01*
X415970Y388028D01*
X415998Y388169D01*
X416026Y388295D01*
X416040Y388408D01*
X416069Y388507D01*
X416083Y388577D01*
X416097Y388634D01*
X416111Y388690D01*
X416125Y388718D01*
X416139Y388746D01*
X416238Y388930D01*
X416365Y389071D01*
X416492Y389170D01*
X416618Y389226D01*
X416731Y389268D01*
X416830Y389282D01*
X416886Y389296D01*
X416915D01*
X417098Y389268D01*
D02*
G37*
%LPC*%
G36*
X644792Y191235D02*
X644608D01*
X644228Y191221D01*
X643889Y191193D01*
X643593Y191151D01*
X643354Y191094D01*
X643156Y191038D01*
X643015Y190996D01*
X642931Y190968D01*
X642917Y190954D01*
X642903D01*
X642677Y190841D01*
X642494Y190714D01*
X642325Y190587D01*
X642198Y190460D01*
X642085Y190347D01*
X642000Y190263D01*
X641958Y190206D01*
X641944Y190178D01*
X641831Y189967D01*
X641732Y189741D01*
X641662Y189516D01*
X641592Y189290D01*
X641549Y189079D01*
X641521Y188923D01*
X641507Y188853D01*
X641493Y188811D01*
Y188783D01*
Y188768D01*
X643650Y188599D01*
X643692Y188825D01*
X643734Y189008D01*
X643791Y189163D01*
X643847Y189290D01*
X643904Y189389D01*
X643946Y189459D01*
X643974Y189487D01*
X643988Y189501D01*
X644101Y189586D01*
X644214Y189657D01*
X644326Y189699D01*
X644425Y189741D01*
X644524Y189755D01*
X644594Y189769D01*
X644665D01*
X644806Y189755D01*
X644932Y189727D01*
X645045Y189685D01*
X645144Y189642D01*
X645229Y189600D01*
X645285Y189558D01*
X645313Y189530D01*
X645327Y189516D01*
X645412Y189417D01*
X645482Y189318D01*
X645525Y189219D01*
X645567Y189121D01*
X645581Y189036D01*
X645595Y188966D01*
Y188923D01*
Y188909D01*
X645581Y188783D01*
X645553Y188670D01*
X645510Y188543D01*
X645468Y188444D01*
X645412Y188346D01*
X645369Y188275D01*
X645341Y188233D01*
X645327Y188219D01*
X645271Y188148D01*
X645200Y188064D01*
X645031Y187894D01*
X644820Y187725D01*
X644622Y187542D01*
X644425Y187387D01*
X644270Y187260D01*
X644200Y187218D01*
X644157Y187176D01*
X644129Y187161D01*
X644115Y187147D01*
X643833Y186936D01*
X643579Y186738D01*
X643340Y186541D01*
X643128Y186358D01*
X642931Y186175D01*
X642762Y186019D01*
X642607Y185864D01*
X642480Y185723D01*
X642367Y185597D01*
X642254Y185484D01*
X642184Y185385D01*
X642113Y185315D01*
X642057Y185244D01*
X642029Y185202D01*
X642014Y185174D01*
X642000Y185160D01*
X641817Y184849D01*
X641662Y184525D01*
X641549Y184229D01*
X641465Y183961D01*
X641394Y183722D01*
X641380Y183623D01*
X641366Y183538D01*
X641352Y183482D01*
X641338Y183426D01*
Y183383D01*
X647794D01*
Y185131D01*
X644425D01*
X644637Y185315D01*
X644792Y185470D01*
X644848Y185512D01*
X644890Y185554D01*
X644918Y185568D01*
X644932Y185583D01*
X645031Y185667D01*
X645158Y185766D01*
X645313Y185864D01*
X645454Y185963D01*
X645595Y186062D01*
X645708Y186146D01*
X645778Y186203D01*
X645807Y186217D01*
X646004Y186358D01*
X646187Y186499D01*
X646356Y186640D01*
X646511Y186767D01*
X646638Y186894D01*
X646765Y187006D01*
X646977Y187218D01*
X647132Y187387D01*
X647230Y187514D01*
X647301Y187598D01*
X647315Y187627D01*
X647456Y187866D01*
X647555Y188106D01*
X647639Y188346D01*
X647682Y188543D01*
X647710Y188726D01*
X647738Y188867D01*
Y188909D01*
Y188952D01*
Y188966D01*
Y188980D01*
X647724Y189219D01*
X647682Y189445D01*
X647625Y189657D01*
X647555Y189826D01*
X647484Y189981D01*
X647428Y190079D01*
X647385Y190150D01*
X647371Y190178D01*
X647230Y190361D01*
X647061Y190531D01*
X646892Y190657D01*
X646737Y190770D01*
X646596Y190855D01*
X646469Y190925D01*
X646399Y190954D01*
X646385Y190968D01*
X646370D01*
X646117Y191052D01*
X645835Y191123D01*
X645539Y191165D01*
X645257Y191207D01*
X645003Y191221D01*
X644890D01*
X644792Y191235D01*
D02*
G37*
G36*
X639167D02*
X637391D01*
X637250Y190968D01*
X637095Y190728D01*
X636940Y190516D01*
X636785Y190347D01*
X636643Y190192D01*
X636531Y190079D01*
X636460Y190023D01*
X636446Y189995D01*
X636432D01*
X636192Y189812D01*
X635910Y189657D01*
X635629Y189516D01*
X635361Y189389D01*
X635121Y189290D01*
X635008Y189248D01*
X634924Y189205D01*
X634839Y189191D01*
X634783Y189163D01*
X634754Y189149D01*
X634740D01*
Y187401D01*
X635008Y187486D01*
X635248Y187556D01*
X635445Y187641D01*
X635629Y187711D01*
X635770Y187768D01*
X635882Y187810D01*
X635939Y187838D01*
X635967Y187852D01*
X636150Y187951D01*
X636333Y188064D01*
X636517Y188176D01*
X636672Y188275D01*
X636799Y188374D01*
X636911Y188444D01*
X636968Y188501D01*
X636996Y188515D01*
Y183383D01*
X639167D01*
Y191235D01*
D02*
G37*
G36*
X630525Y191108D02*
X626268D01*
Y183383D01*
X628665D01*
Y186513D01*
X628862D01*
X628989Y186499D01*
X629102Y186485D01*
X629200Y186457D01*
X629285Y186428D01*
X629355Y186386D01*
X629412Y186358D01*
X629440Y186344D01*
X629454Y186330D01*
X629524Y186259D01*
X629609Y186175D01*
X629750Y185977D01*
X629807Y185893D01*
X629849Y185808D01*
X629877Y185752D01*
X629891Y185738D01*
X631174Y183383D01*
X633881D01*
X632710Y185611D01*
X632668Y185681D01*
X632626Y185752D01*
X632513Y185921D01*
X632457Y185977D01*
X632414Y186034D01*
X632386Y186076D01*
X632372Y186090D01*
X632287Y186203D01*
X632203Y186287D01*
X632147Y186358D01*
X632090Y186414D01*
X632048Y186457D01*
X632020Y186485D01*
X631992Y186499D01*
X631907Y186555D01*
X631808Y186597D01*
X631611Y186696D01*
X631512Y186724D01*
X631442Y186753D01*
X631385Y186781D01*
X631371D01*
X631554Y186837D01*
X631724Y186879D01*
X631865Y186936D01*
X631992Y186978D01*
X632076Y187020D01*
X632147Y187063D01*
X632189Y187077D01*
X632203Y187091D01*
X632372Y187204D01*
X632527Y187330D01*
X632654Y187457D01*
X632767Y187570D01*
X632851Y187683D01*
X632922Y187768D01*
X632950Y187824D01*
X632964Y187838D01*
X633063Y188021D01*
X633133Y188219D01*
X633176Y188402D01*
X633218Y188571D01*
X633232Y188726D01*
X633246Y188839D01*
Y188923D01*
Y188952D01*
X633232Y189219D01*
X633190Y189459D01*
X633133Y189671D01*
X633063Y189854D01*
X632992Y190009D01*
X632936Y190122D01*
X632894Y190178D01*
X632880Y190206D01*
X632739Y190390D01*
X632584Y190531D01*
X632429Y190657D01*
X632273Y190756D01*
X632147Y190827D01*
X632034Y190869D01*
X631963Y190897D01*
X631935Y190911D01*
X631696Y190982D01*
X631428Y191024D01*
X631146Y191066D01*
X630878Y191080D01*
X630624Y191094D01*
X630525Y191108D01*
D02*
G37*
G36*
X621574D02*
X617866D01*
Y183383D01*
X621405D01*
X621658Y183398D01*
X621898Y183412D01*
X622152Y183440D01*
X622363Y183482D01*
X622561Y183524D01*
X622716Y183552D01*
X622772Y183567D01*
X622814D01*
X622828Y183581D01*
X622842D01*
X623054Y183651D01*
X623251Y183750D01*
X623420Y183849D01*
X623590Y183947D01*
X623717Y184046D01*
X623815Y184130D01*
X623872Y184187D01*
X623900Y184201D01*
X624083Y184384D01*
X624238Y184582D01*
X624379Y184765D01*
X624492Y184948D01*
X624576Y185103D01*
X624633Y185230D01*
X624675Y185315D01*
X624689Y185329D01*
Y185343D01*
X624788Y185625D01*
X624858Y185935D01*
X624915Y186259D01*
X624943Y186555D01*
X624971Y186837D01*
Y186950D01*
X624985Y187063D01*
Y187260D01*
X624971Y187556D01*
X624957Y187824D01*
X624929Y188078D01*
X624887Y188303D01*
X624844Y188486D01*
X624816Y188627D01*
X624802Y188684D01*
Y188726D01*
X624788Y188740D01*
Y188754D01*
X624703Y189008D01*
X624619Y189248D01*
X624520Y189459D01*
X624421Y189642D01*
X624323Y189797D01*
X624252Y189896D01*
X624196Y189967D01*
X624182Y189995D01*
X624013Y190178D01*
X623843Y190347D01*
X623660Y190488D01*
X623491Y190601D01*
X623336Y190700D01*
X623223Y190756D01*
X623139Y190798D01*
X623125Y190812D01*
X623110D01*
X622857Y190911D01*
X622575Y190982D01*
X622293Y191038D01*
X622011Y191066D01*
X621771Y191094D01*
X621673D01*
X621574Y191108D01*
D02*
G37*
%LPD*%
G36*
X629933Y189530D02*
X630131Y189516D01*
X630286Y189473D01*
X630413Y189445D01*
X630497Y189403D01*
X630568Y189361D01*
X630596Y189346D01*
X630610Y189332D01*
X630695Y189248D01*
X630751Y189163D01*
X630793Y189065D01*
X630821Y188980D01*
X630835Y188895D01*
X630850Y188825D01*
Y188783D01*
Y188768D01*
Y188670D01*
X630821Y188585D01*
X630779Y188444D01*
X630751Y188388D01*
X630723Y188360D01*
X630709Y188331D01*
X630695Y188317D01*
X630638Y188247D01*
X630568Y188190D01*
X630441Y188120D01*
X630384Y188106D01*
X630342Y188092D01*
X630314Y188078D01*
X630300D01*
X630145Y188050D01*
X630004Y188021D01*
X629891Y188007D01*
X629807Y187993D01*
X629750Y187979D01*
X628665D01*
Y189544D01*
X629708D01*
X629933Y189530D01*
D02*
G37*
G36*
X621165Y189346D02*
X621447Y189290D01*
X621673Y189219D01*
X621856Y189135D01*
X621997Y189036D01*
X622095Y188966D01*
X622166Y188909D01*
X622180Y188895D01*
X622251Y188797D01*
X622321Y188698D01*
X622420Y188444D01*
X622490Y188162D01*
X622532Y187894D01*
X622575Y187627D01*
Y187514D01*
X622589Y187415D01*
Y187330D01*
Y187274D01*
Y187232D01*
Y187218D01*
X622575Y186894D01*
X622561Y186626D01*
X622532Y186386D01*
X622504Y186203D01*
X622462Y186062D01*
X622434Y185963D01*
X622420Y185893D01*
X622406Y185879D01*
X622335Y185738D01*
X622251Y185611D01*
X622166Y185512D01*
X622081Y185441D01*
X622011Y185371D01*
X621954Y185329D01*
X621912Y185315D01*
X621898Y185301D01*
X621757Y185244D01*
X621602Y185216D01*
X621419Y185188D01*
X621250Y185160D01*
X621080D01*
X620953Y185145D01*
X620249D01*
Y189361D01*
X620841D01*
X621165Y189346D01*
D02*
G37*
%LPC*%
G36*
X424083Y290720D02*
X423885D01*
X423533Y290706D01*
X423223Y290664D01*
X422955Y290621D01*
X422715Y290565D01*
X422532Y290495D01*
X422391Y290452D01*
X422307Y290410D01*
X422293Y290396D01*
X422279D01*
X422053Y290269D01*
X421856Y290114D01*
X421686Y289945D01*
X421545Y289790D01*
X421433Y289649D01*
X421348Y289536D01*
X421292Y289466D01*
X421278Y289451D01*
Y289437D01*
X421165Y289198D01*
X421080Y288958D01*
X421010Y288718D01*
X420967Y288507D01*
X420939Y288309D01*
X420925Y288169D01*
Y288042D01*
X420939Y287830D01*
X420953Y287633D01*
X421038Y287281D01*
X421151Y286956D01*
X421278Y286688D01*
X421348Y286576D01*
X421404Y286477D01*
X421461Y286392D01*
X421517Y286308D01*
X421559Y286251D01*
X421602Y286209D01*
X421616Y286195D01*
X421630Y286181D01*
X421771Y286054D01*
X421912Y285941D01*
X422053Y285843D01*
X422208Y285758D01*
X422504Y285631D01*
X422772Y285546D01*
X423012Y285490D01*
X423124Y285476D01*
X423209Y285462D01*
X423279Y285448D01*
X423378D01*
X423575Y285462D01*
X423745Y285476D01*
X423914Y285504D01*
X424041Y285546D01*
X424153Y285575D01*
X424238Y285603D01*
X424294Y285617D01*
X424308Y285631D01*
X424464Y285716D01*
X424604Y285800D01*
X424745Y285899D01*
X424858Y285984D01*
X424971Y286068D01*
X425042Y286139D01*
X425098Y286195D01*
X425112Y286209D01*
X425084Y285984D01*
X425070Y285786D01*
X425042Y285603D01*
X425013Y285434D01*
X424985Y285279D01*
X424957Y285152D01*
X424929Y285025D01*
X424915Y284926D01*
X424886Y284842D01*
X424858Y284771D01*
X424830Y284658D01*
X424802Y284588D01*
X424788Y284574D01*
X424675Y284405D01*
X424548Y284278D01*
X424407Y284193D01*
X424280Y284137D01*
X424168Y284095D01*
X424069Y284080D01*
X424012Y284066D01*
X423984D01*
X423885Y284080D01*
X423787Y284095D01*
X423632Y284165D01*
X423575Y284193D01*
X423533Y284221D01*
X423505Y284235D01*
X423491Y284250D01*
X423420Y284334D01*
X423364Y284433D01*
X423279Y284630D01*
X423251Y284729D01*
X423237Y284813D01*
X423223Y284870D01*
Y284884D01*
X421094Y284602D01*
X421165Y284377D01*
X421249Y284179D01*
X421348Y284010D01*
X421433Y283855D01*
X421503Y283742D01*
X421574Y283643D01*
X421616Y283587D01*
X421630Y283573D01*
X421771Y283432D01*
X421912Y283305D01*
X422067Y283192D01*
X422194Y283108D01*
X422321Y283037D01*
X422419Y282995D01*
X422476Y282967D01*
X422504Y282953D01*
X422715Y282882D01*
X422955Y282826D01*
X423209Y282798D01*
X423434Y282769D01*
X423646Y282755D01*
X423815Y282741D01*
X423970D01*
X424252Y282755D01*
X424520Y282784D01*
X424774Y282826D01*
X424999Y282896D01*
X425225Y282967D01*
X425422Y283051D01*
X425605Y283136D01*
X425760Y283221D01*
X425915Y283305D01*
X426042Y283404D01*
X426141Y283474D01*
X426240Y283545D01*
X426310Y283615D01*
X426353Y283657D01*
X426381Y283686D01*
X426395Y283700D01*
X426550Y283897D01*
X426691Y284109D01*
X426804Y284348D01*
X426902Y284588D01*
X427001Y284842D01*
X427071Y285095D01*
X427170Y285589D01*
X427212Y285828D01*
X427241Y286054D01*
X427255Y286251D01*
X427269Y286420D01*
X427283Y286562D01*
Y286759D01*
X427269Y287266D01*
X427241Y287492D01*
X427212Y287717D01*
X427184Y287915D01*
X427156Y288112D01*
X427114Y288281D01*
X427071Y288436D01*
X427029Y288577D01*
X427001Y288690D01*
X426959Y288803D01*
X426931Y288888D01*
X426902Y288958D01*
X426874Y289000D01*
X426860Y289028D01*
Y289043D01*
X426691Y289353D01*
X426508Y289606D01*
X426324Y289832D01*
X426141Y290001D01*
X425972Y290142D01*
X425845Y290241D01*
X425760Y290297D01*
X425746Y290311D01*
X425732D01*
X425450Y290452D01*
X425154Y290551D01*
X424844Y290621D01*
X424548Y290664D01*
X424294Y290706D01*
X424182D01*
X424083Y290720D01*
D02*
G37*
G36*
X410014Y290593D02*
X405757D01*
Y282868D01*
X408153D01*
Y285998D01*
X408351D01*
X408478Y285984D01*
X408590Y285969D01*
X408689Y285941D01*
X408774Y285913D01*
X408844Y285871D01*
X408900Y285843D01*
X408929Y285828D01*
X408943Y285814D01*
X409013Y285744D01*
X409098Y285659D01*
X409239Y285462D01*
X409295Y285377D01*
X409337Y285293D01*
X409366Y285236D01*
X409380Y285222D01*
X410663Y282868D01*
X413369D01*
X412199Y285095D01*
X412157Y285166D01*
X412114Y285236D01*
X412002Y285406D01*
X411945Y285462D01*
X411903Y285518D01*
X411875Y285561D01*
X411861Y285575D01*
X411776Y285688D01*
X411692Y285772D01*
X411635Y285843D01*
X411579Y285899D01*
X411537Y285941D01*
X411508Y285969D01*
X411480Y285984D01*
X411396Y286040D01*
X411297Y286082D01*
X411100Y286181D01*
X411001Y286209D01*
X410930Y286237D01*
X410874Y286266D01*
X410860D01*
X411043Y286322D01*
X411212Y286364D01*
X411353Y286420D01*
X411480Y286463D01*
X411565Y286505D01*
X411635Y286547D01*
X411678Y286562D01*
X411692Y286576D01*
X411861Y286688D01*
X412016Y286815D01*
X412143Y286942D01*
X412256Y287055D01*
X412340Y287168D01*
X412411Y287252D01*
X412439Y287309D01*
X412453Y287323D01*
X412551Y287506D01*
X412622Y287703D01*
X412664Y287887D01*
X412707Y288056D01*
X412721Y288211D01*
X412735Y288324D01*
Y288408D01*
Y288436D01*
X412721Y288704D01*
X412678Y288944D01*
X412622Y289155D01*
X412551Y289339D01*
X412481Y289494D01*
X412425Y289606D01*
X412382Y289663D01*
X412368Y289691D01*
X412227Y289874D01*
X412072Y290015D01*
X411917Y290142D01*
X411762Y290241D01*
X411635Y290311D01*
X411522Y290354D01*
X411452Y290382D01*
X411424Y290396D01*
X411184Y290466D01*
X410916Y290509D01*
X410634Y290551D01*
X410367Y290565D01*
X410113Y290579D01*
X410014Y290593D01*
D02*
G37*
G36*
X401063D02*
X397355D01*
Y282868D01*
X400893D01*
X401147Y282882D01*
X401387Y282896D01*
X401641Y282924D01*
X401852Y282967D01*
X402049Y283009D01*
X402204Y283037D01*
X402261Y283051D01*
X402303D01*
X402317Y283065D01*
X402331D01*
X402543Y283136D01*
X402740Y283235D01*
X402909Y283333D01*
X403078Y283432D01*
X403205Y283531D01*
X403304Y283615D01*
X403360Y283672D01*
X403388Y283686D01*
X403572Y283869D01*
X403727Y284066D01*
X403868Y284250D01*
X403981Y284433D01*
X404065Y284588D01*
X404122Y284715D01*
X404164Y284799D01*
X404178Y284813D01*
Y284828D01*
X404277Y285110D01*
X404347Y285420D01*
X404403Y285744D01*
X404432Y286040D01*
X404460Y286322D01*
Y286435D01*
X404474Y286547D01*
Y286745D01*
X404460Y287041D01*
X404446Y287309D01*
X404418Y287562D01*
X404375Y287788D01*
X404333Y287971D01*
X404305Y288112D01*
X404291Y288169D01*
Y288211D01*
X404277Y288225D01*
Y288239D01*
X404192Y288493D01*
X404107Y288732D01*
X404009Y288944D01*
X403910Y289127D01*
X403811Y289282D01*
X403741Y289381D01*
X403685Y289451D01*
X403670Y289480D01*
X403501Y289663D01*
X403332Y289832D01*
X403149Y289973D01*
X402980Y290086D01*
X402825Y290184D01*
X402712Y290241D01*
X402627Y290283D01*
X402613Y290297D01*
X402599D01*
X402345Y290396D01*
X402063Y290466D01*
X401781Y290523D01*
X401499Y290551D01*
X401260Y290579D01*
X401161D01*
X401063Y290593D01*
D02*
G37*
G36*
X417119Y290720D02*
X416992D01*
X416696Y290706D01*
X416414Y290678D01*
X416160Y290636D01*
X415921Y290579D01*
X415709Y290509D01*
X415512Y290438D01*
X415329Y290354D01*
X415174Y290283D01*
X415033Y290198D01*
X414906Y290114D01*
X414807Y290044D01*
X414723Y289973D01*
X414652Y289917D01*
X414610Y289874D01*
X414581Y289846D01*
X414567Y289832D01*
X414426Y289649D01*
X414314Y289451D01*
X414201Y289226D01*
X414116Y288986D01*
X413975Y288479D01*
X413877Y287971D01*
X413848Y287732D01*
X413820Y287506D01*
X413806Y287295D01*
X413792Y287111D01*
X413778Y286970D01*
Y286759D01*
X413792Y286435D01*
X413806Y286124D01*
X413834Y285843D01*
X413863Y285603D01*
X413891Y285392D01*
X413905Y285236D01*
X413919Y285180D01*
X413933Y285138D01*
Y285124D01*
Y285110D01*
X413989Y284856D01*
X414060Y284616D01*
X414130Y284419D01*
X414201Y284264D01*
X414257Y284123D01*
X414314Y284038D01*
X414342Y283968D01*
X414356Y283954D01*
X414511Y283742D01*
X414680Y283559D01*
X414835Y283404D01*
X415004Y283277D01*
X415131Y283178D01*
X415244Y283108D01*
X415315Y283065D01*
X415343Y283051D01*
X415582Y282953D01*
X415850Y282868D01*
X416118Y282812D01*
X416372Y282784D01*
X416597Y282755D01*
X416682D01*
X416767Y282741D01*
X416936D01*
X417246Y282755D01*
X417542Y282784D01*
X417810Y282826D01*
X418049Y282896D01*
X418275Y282967D01*
X418472Y283051D01*
X418656Y283136D01*
X418811Y283235D01*
X418952Y283319D01*
X419064Y283404D01*
X419163Y283488D01*
X419248Y283559D01*
X419318Y283629D01*
X419360Y283672D01*
X419375Y283700D01*
X419389Y283714D01*
X419515Y283911D01*
X419628Y284123D01*
X419727Y284362D01*
X419812Y284602D01*
X419938Y285110D01*
X420023Y285617D01*
X420051Y285857D01*
X420065Y286068D01*
X420079Y286266D01*
X420093Y286449D01*
X420107Y286590D01*
Y286787D01*
X420093Y287125D01*
X420079Y287464D01*
X420037Y287760D01*
X419995Y288028D01*
X419953Y288253D01*
X419938Y288352D01*
X419924Y288422D01*
X419910Y288493D01*
X419896Y288535D01*
X419882Y288563D01*
Y288577D01*
X419840Y288746D01*
X419783Y288888D01*
X419741Y289028D01*
X419699Y289141D01*
X419656Y289240D01*
X419614Y289310D01*
X419600Y289353D01*
X419586Y289367D01*
X419431Y289621D01*
X419346Y289733D01*
X419262Y289818D01*
X419191Y289902D01*
X419135Y289959D01*
X419093Y290001D01*
X419078Y290015D01*
X418952Y290128D01*
X418825Y290227D01*
X418684Y290311D01*
X418557Y290382D01*
X418444Y290438D01*
X418345Y290495D01*
X418289Y290509D01*
X418261Y290523D01*
X418064Y290593D01*
X417852Y290636D01*
X417641Y290678D01*
X417443Y290692D01*
X417260Y290706D01*
X417119Y290720D01*
D02*
G37*
%LPD*%
G36*
X424111Y289367D02*
X424252Y289324D01*
X424379Y289268D01*
X424492Y289198D01*
X424576Y289127D01*
X424647Y289071D01*
X424689Y289028D01*
X424703Y289014D01*
X424816Y288873D01*
X424886Y288718D01*
X424943Y288549D01*
X424985Y288394D01*
X425013Y288253D01*
X425027Y288140D01*
Y288070D01*
Y288056D01*
Y288042D01*
X425013Y287830D01*
X424985Y287633D01*
X424929Y287464D01*
X424886Y287337D01*
X424830Y287238D01*
X424774Y287154D01*
X424745Y287111D01*
X424731Y287097D01*
X424619Y286984D01*
X424492Y286914D01*
X424365Y286857D01*
X424252Y286815D01*
X424139Y286787D01*
X424055Y286773D01*
X423984D01*
X423829Y286787D01*
X423688Y286829D01*
X423561Y286886D01*
X423448Y286942D01*
X423364Y286999D01*
X423308Y287055D01*
X423265Y287097D01*
X423251Y287111D01*
X423153Y287252D01*
X423082Y287407D01*
X423040Y287577D01*
X423012Y287732D01*
X422983Y287873D01*
X422969Y287985D01*
Y288070D01*
Y288098D01*
X422983Y288324D01*
X423012Y288521D01*
X423054Y288676D01*
X423110Y288817D01*
X423153Y288916D01*
X423195Y289000D01*
X423223Y289043D01*
X423237Y289057D01*
X423350Y289169D01*
X423463Y289240D01*
X423590Y289296D01*
X423702Y289339D01*
X423787Y289367D01*
X423871Y289381D01*
X423942D01*
X424111Y289367D01*
D02*
G37*
G36*
X409422Y289014D02*
X409619Y289000D01*
X409774Y288958D01*
X409901Y288930D01*
X409986Y288888D01*
X410056Y288845D01*
X410085Y288831D01*
X410099Y288817D01*
X410183Y288732D01*
X410240Y288648D01*
X410282Y288549D01*
X410310Y288465D01*
X410324Y288380D01*
X410338Y288309D01*
Y288267D01*
Y288253D01*
Y288155D01*
X410310Y288070D01*
X410268Y287929D01*
X410240Y287873D01*
X410211Y287844D01*
X410197Y287816D01*
X410183Y287802D01*
X410127Y287732D01*
X410056Y287675D01*
X409930Y287605D01*
X409873Y287591D01*
X409831Y287577D01*
X409803Y287562D01*
X409789D01*
X409633Y287534D01*
X409492Y287506D01*
X409380Y287492D01*
X409295Y287478D01*
X409239Y287464D01*
X408153D01*
Y289028D01*
X409197D01*
X409422Y289014D01*
D02*
G37*
G36*
X400654Y288831D02*
X400936Y288775D01*
X401161Y288704D01*
X401344Y288620D01*
X401485Y288521D01*
X401584Y288451D01*
X401655Y288394D01*
X401669Y288380D01*
X401739Y288281D01*
X401810Y288183D01*
X401908Y287929D01*
X401979Y287647D01*
X402021Y287379D01*
X402063Y287111D01*
Y286999D01*
X402077Y286900D01*
Y286815D01*
Y286759D01*
Y286717D01*
Y286702D01*
X402063Y286378D01*
X402049Y286110D01*
X402021Y285871D01*
X401993Y285688D01*
X401951Y285546D01*
X401922Y285448D01*
X401908Y285377D01*
X401894Y285363D01*
X401824Y285222D01*
X401739Y285095D01*
X401655Y284997D01*
X401570Y284926D01*
X401499Y284856D01*
X401443Y284813D01*
X401401Y284799D01*
X401387Y284785D01*
X401246Y284729D01*
X401091Y284701D01*
X400907Y284673D01*
X400738Y284644D01*
X400569D01*
X400442Y284630D01*
X399737D01*
Y288845D01*
X400330D01*
X400654Y288831D01*
D02*
G37*
G36*
X417105Y289268D02*
X417260Y289212D01*
X417401Y289127D01*
X417514Y289028D01*
X417598Y288930D01*
X417655Y288845D01*
X417697Y288789D01*
X417711Y288761D01*
X417753Y288648D01*
X417796Y288521D01*
X417838Y288366D01*
X417866Y288211D01*
X417908Y287873D01*
X417951Y287520D01*
X417965Y287210D01*
Y287055D01*
X417979Y286942D01*
Y286829D01*
Y286759D01*
Y286702D01*
Y286688D01*
Y286322D01*
X417965Y286012D01*
X417937Y285744D01*
X417923Y285532D01*
X417894Y285363D01*
X417866Y285250D01*
X417852Y285180D01*
Y285152D01*
X417810Y284983D01*
X417753Y284828D01*
X417697Y284715D01*
X417641Y284602D01*
X417584Y284531D01*
X417542Y284475D01*
X417514Y284447D01*
X417500Y284433D01*
X417401Y284362D01*
X417302Y284306D01*
X417218Y284264D01*
X417119Y284235D01*
X417048Y284221D01*
X416978Y284207D01*
X416922D01*
X416753Y284235D01*
X416597Y284292D01*
X416470Y284377D01*
X416358Y284475D01*
X416273Y284574D01*
X416217Y284658D01*
X416175Y284715D01*
X416160Y284743D01*
X416118Y284856D01*
X416076Y284983D01*
X416048Y285124D01*
X416019Y285279D01*
X415963Y285617D01*
X415935Y285955D01*
X415921Y286266D01*
Y286406D01*
X415907Y286519D01*
Y286618D01*
Y286688D01*
Y286745D01*
Y286759D01*
Y287027D01*
X415921Y287266D01*
X415935Y287478D01*
X415949Y287689D01*
X415963Y287858D01*
X415977Y288028D01*
X416005Y288169D01*
X416034Y288295D01*
X416048Y288408D01*
X416076Y288507D01*
X416090Y288577D01*
X416104Y288634D01*
X416118Y288690D01*
X416132Y288718D01*
X416146Y288746D01*
X416245Y288930D01*
X416372Y289071D01*
X416499Y289169D01*
X416626Y289226D01*
X416738Y289268D01*
X416837Y289282D01*
X416893Y289296D01*
X416922D01*
X417105Y289268D01*
D02*
G37*
%LPC*%
G36*
X294538Y391299D02*
X294354D01*
X293974Y391285D01*
X293635Y391256D01*
X293339Y391214D01*
X293100Y391158D01*
X292902Y391101D01*
X292761Y391059D01*
X292677Y391031D01*
X292663Y391017D01*
X292649D01*
X292423Y390904D01*
X292240Y390777D01*
X292071Y390650D01*
X291944Y390523D01*
X291831Y390411D01*
X291746Y390326D01*
X291704Y390270D01*
X291690Y390242D01*
X291577Y390030D01*
X291479Y389805D01*
X291408Y389579D01*
X291338Y389353D01*
X291295Y389142D01*
X291267Y388987D01*
X291253Y388916D01*
X291239Y388874D01*
Y388846D01*
Y388832D01*
X293396Y388663D01*
X293438Y388888D01*
X293480Y389072D01*
X293537Y389227D01*
X293593Y389353D01*
X293650Y389452D01*
X293692Y389523D01*
X293720Y389551D01*
X293734Y389565D01*
X293847Y389650D01*
X293960Y389720D01*
X294072Y389762D01*
X294171Y389805D01*
X294270Y389819D01*
X294340Y389833D01*
X294411D01*
X294552Y389819D01*
X294678Y389790D01*
X294791Y389748D01*
X294890Y389706D01*
X294975Y389664D01*
X295031Y389621D01*
X295059Y389593D01*
X295073Y389579D01*
X295158Y389480D01*
X295228Y389382D01*
X295271Y389283D01*
X295313Y389184D01*
X295327Y389100D01*
X295341Y389029D01*
Y388987D01*
Y388973D01*
X295327Y388846D01*
X295299Y388733D01*
X295257Y388606D01*
X295214Y388508D01*
X295158Y388409D01*
X295116Y388339D01*
X295087Y388296D01*
X295073Y388282D01*
X295017Y388212D01*
X294946Y388127D01*
X294777Y387958D01*
X294566Y387789D01*
X294368Y387605D01*
X294171Y387450D01*
X294016Y387323D01*
X293946Y387281D01*
X293903Y387239D01*
X293875Y387225D01*
X293861Y387211D01*
X293579Y386999D01*
X293325Y386802D01*
X293086Y386604D01*
X292874Y386421D01*
X292677Y386238D01*
X292508Y386083D01*
X292353Y385928D01*
X292226Y385787D01*
X292113Y385660D01*
X292000Y385547D01*
X291930Y385449D01*
X291859Y385378D01*
X291803Y385308D01*
X291775Y385265D01*
X291761Y385237D01*
X291746Y385223D01*
X291563Y384913D01*
X291408Y384589D01*
X291295Y384293D01*
X291211Y384025D01*
X291140Y383785D01*
X291126Y383686D01*
X291112Y383602D01*
X291098Y383545D01*
X291084Y383489D01*
Y383447D01*
X297540D01*
Y385195D01*
X294171D01*
X294382Y385378D01*
X294538Y385533D01*
X294594Y385575D01*
X294636Y385618D01*
X294664Y385632D01*
X294678Y385646D01*
X294777Y385731D01*
X294904Y385829D01*
X295059Y385928D01*
X295200Y386027D01*
X295341Y386125D01*
X295454Y386210D01*
X295524Y386266D01*
X295553Y386280D01*
X295750Y386421D01*
X295933Y386562D01*
X296102Y386703D01*
X296257Y386830D01*
X296384Y386957D01*
X296511Y387070D01*
X296723Y387281D01*
X296878Y387450D01*
X296976Y387577D01*
X297047Y387662D01*
X297061Y387690D01*
X297202Y387930D01*
X297301Y388169D01*
X297385Y388409D01*
X297427Y388606D01*
X297456Y388790D01*
X297484Y388931D01*
Y388973D01*
Y389015D01*
Y389029D01*
Y389043D01*
X297470Y389283D01*
X297427Y389509D01*
X297371Y389720D01*
X297301Y389889D01*
X297230Y390044D01*
X297174Y390143D01*
X297131Y390213D01*
X297117Y390242D01*
X296976Y390425D01*
X296807Y390594D01*
X296638Y390721D01*
X296483Y390834D01*
X296342Y390918D01*
X296215Y390989D01*
X296145Y391017D01*
X296131Y391031D01*
X296116D01*
X295863Y391116D01*
X295581Y391186D01*
X295285Y391228D01*
X295003Y391271D01*
X294749Y391285D01*
X294636D01*
X294538Y391299D01*
D02*
G37*
G36*
X280271Y391172D02*
X276014D01*
Y383447D01*
X278411D01*
Y386576D01*
X278608D01*
X278735Y386562D01*
X278848Y386548D01*
X278946Y386520D01*
X279031Y386492D01*
X279101Y386450D01*
X279158Y386421D01*
X279186Y386407D01*
X279200Y386393D01*
X279270Y386323D01*
X279355Y386238D01*
X279496Y386041D01*
X279552Y385956D01*
X279595Y385872D01*
X279623Y385815D01*
X279637Y385801D01*
X280920Y383447D01*
X283626D01*
X282456Y385674D01*
X282414Y385745D01*
X282372Y385815D01*
X282259Y385984D01*
X282203Y386041D01*
X282160Y386097D01*
X282132Y386139D01*
X282118Y386153D01*
X282034Y386266D01*
X281949Y386351D01*
X281893Y386421D01*
X281836Y386478D01*
X281794Y386520D01*
X281766Y386548D01*
X281737Y386562D01*
X281653Y386619D01*
X281554Y386661D01*
X281357Y386760D01*
X281258Y386788D01*
X281188Y386816D01*
X281131Y386844D01*
X281117D01*
X281301Y386901D01*
X281470Y386943D01*
X281611Y386999D01*
X281737Y387042D01*
X281822Y387084D01*
X281893Y387126D01*
X281935Y387140D01*
X281949Y387154D01*
X282118Y387267D01*
X282273Y387394D01*
X282400Y387521D01*
X282513Y387634D01*
X282597Y387746D01*
X282668Y387831D01*
X282696Y387887D01*
X282710Y387901D01*
X282809Y388085D01*
X282879Y388282D01*
X282922Y388465D01*
X282964Y388634D01*
X282978Y388790D01*
X282992Y388902D01*
Y388987D01*
Y389015D01*
X282978Y389283D01*
X282936Y389523D01*
X282879Y389734D01*
X282809Y389917D01*
X282738Y390072D01*
X282682Y390185D01*
X282640Y390242D01*
X282626Y390270D01*
X282485Y390453D01*
X282330Y390594D01*
X282174Y390721D01*
X282019Y390820D01*
X281893Y390890D01*
X281780Y390932D01*
X281709Y390961D01*
X281681Y390975D01*
X281441Y391045D01*
X281174Y391087D01*
X280892Y391130D01*
X280624Y391144D01*
X280370Y391158D01*
X280271Y391172D01*
D02*
G37*
G36*
X271320D02*
X267612D01*
Y383447D01*
X271151D01*
X271404Y383461D01*
X271644Y383475D01*
X271898Y383503D01*
X272109Y383545D01*
X272307Y383588D01*
X272462Y383616D01*
X272518Y383630D01*
X272560D01*
X272574Y383644D01*
X272589D01*
X272800Y383715D01*
X272997Y383813D01*
X273167Y383912D01*
X273336Y384011D01*
X273463Y384109D01*
X273561Y384194D01*
X273618Y384250D01*
X273646Y384264D01*
X273829Y384448D01*
X273984Y384645D01*
X274125Y384828D01*
X274238Y385012D01*
X274322Y385167D01*
X274379Y385294D01*
X274421Y385378D01*
X274435Y385392D01*
Y385406D01*
X274534Y385688D01*
X274604Y385998D01*
X274661Y386323D01*
X274689Y386619D01*
X274717Y386901D01*
Y387013D01*
X274731Y387126D01*
Y387323D01*
X274717Y387620D01*
X274703Y387887D01*
X274675Y388141D01*
X274633Y388367D01*
X274590Y388550D01*
X274562Y388691D01*
X274548Y388747D01*
Y388790D01*
X274534Y388804D01*
Y388818D01*
X274449Y389072D01*
X274365Y389311D01*
X274266Y389523D01*
X274167Y389706D01*
X274069Y389861D01*
X273998Y389960D01*
X273942Y390030D01*
X273928Y390058D01*
X273759Y390242D01*
X273589Y390411D01*
X273406Y390552D01*
X273237Y390664D01*
X273082Y390763D01*
X272969Y390820D01*
X272885Y390862D01*
X272871Y390876D01*
X272856D01*
X272603Y390975D01*
X272321Y391045D01*
X272039Y391101D01*
X271757Y391130D01*
X271517Y391158D01*
X271418D01*
X271320Y391172D01*
D02*
G37*
G36*
X287376Y391299D02*
X287249D01*
X286953Y391285D01*
X286671Y391256D01*
X286418Y391214D01*
X286178Y391158D01*
X285967Y391087D01*
X285769Y391017D01*
X285586Y390932D01*
X285431Y390862D01*
X285290Y390777D01*
X285163Y390693D01*
X285064Y390622D01*
X284980Y390552D01*
X284909Y390495D01*
X284867Y390453D01*
X284839Y390425D01*
X284825Y390411D01*
X284684Y390228D01*
X284571Y390030D01*
X284458Y389805D01*
X284374Y389565D01*
X284233Y389057D01*
X284134Y388550D01*
X284106Y388310D01*
X284078Y388085D01*
X284063Y387873D01*
X284049Y387690D01*
X284035Y387549D01*
Y387338D01*
X284049Y387013D01*
X284063Y386703D01*
X284092Y386421D01*
X284120Y386182D01*
X284148Y385970D01*
X284162Y385815D01*
X284176Y385759D01*
X284190Y385716D01*
Y385702D01*
Y385688D01*
X284247Y385434D01*
X284317Y385195D01*
X284388Y384997D01*
X284458Y384842D01*
X284515Y384701D01*
X284571Y384617D01*
X284599Y384546D01*
X284613Y384532D01*
X284768Y384321D01*
X284937Y384138D01*
X285093Y383983D01*
X285262Y383856D01*
X285389Y383757D01*
X285501Y383686D01*
X285572Y383644D01*
X285600Y383630D01*
X285840Y383531D01*
X286108Y383447D01*
X286375Y383390D01*
X286629Y383362D01*
X286855Y383334D01*
X286939D01*
X287024Y383320D01*
X287193D01*
X287503Y383334D01*
X287799Y383362D01*
X288067Y383405D01*
X288307Y383475D01*
X288532Y383545D01*
X288730Y383630D01*
X288913Y383715D01*
X289068Y383813D01*
X289209Y383898D01*
X289322Y383983D01*
X289420Y384067D01*
X289505Y384138D01*
X289575Y384208D01*
X289618Y384250D01*
X289632Y384278D01*
X289646Y384293D01*
X289773Y384490D01*
X289886Y384701D01*
X289984Y384941D01*
X290069Y385181D01*
X290196Y385688D01*
X290280Y386196D01*
X290308Y386435D01*
X290323Y386647D01*
X290337Y386844D01*
X290351Y387027D01*
X290365Y387168D01*
Y387366D01*
X290351Y387704D01*
X290337Y388042D01*
X290294Y388339D01*
X290252Y388606D01*
X290210Y388832D01*
X290196Y388931D01*
X290182Y389001D01*
X290168Y389072D01*
X290153Y389114D01*
X290139Y389142D01*
Y389156D01*
X290097Y389325D01*
X290041Y389466D01*
X289998Y389607D01*
X289956Y389720D01*
X289914Y389819D01*
X289872Y389889D01*
X289857Y389931D01*
X289843Y389945D01*
X289688Y390199D01*
X289604Y390312D01*
X289519Y390397D01*
X289449Y390481D01*
X289392Y390538D01*
X289350Y390580D01*
X289336Y390594D01*
X289209Y390707D01*
X289082Y390805D01*
X288941Y390890D01*
X288814Y390961D01*
X288701Y391017D01*
X288603Y391073D01*
X288546Y391087D01*
X288518Y391101D01*
X288321Y391172D01*
X288109Y391214D01*
X287898Y391256D01*
X287701Y391271D01*
X287517Y391285D01*
X287376Y391299D01*
D02*
G37*
%LPD*%
G36*
X279679Y389593D02*
X279877Y389579D01*
X280032Y389537D01*
X280159Y389509D01*
X280243Y389466D01*
X280314Y389424D01*
X280342Y389410D01*
X280356Y389396D01*
X280441Y389311D01*
X280497Y389227D01*
X280539Y389128D01*
X280567Y389043D01*
X280581Y388959D01*
X280596Y388888D01*
Y388846D01*
Y388832D01*
Y388733D01*
X280567Y388649D01*
X280525Y388508D01*
X280497Y388451D01*
X280469Y388423D01*
X280455Y388395D01*
X280441Y388381D01*
X280384Y388310D01*
X280314Y388254D01*
X280187Y388183D01*
X280130Y388169D01*
X280088Y388155D01*
X280060Y388141D01*
X280046D01*
X279891Y388113D01*
X279750Y388085D01*
X279637Y388071D01*
X279552Y388056D01*
X279496Y388042D01*
X278411D01*
Y389607D01*
X279454D01*
X279679Y389593D01*
D02*
G37*
G36*
X270911Y389410D02*
X271193Y389353D01*
X271418Y389283D01*
X271602Y389198D01*
X271743Y389100D01*
X271841Y389029D01*
X271912Y388973D01*
X271926Y388959D01*
X271996Y388860D01*
X272067Y388761D01*
X272166Y388508D01*
X272236Y388226D01*
X272278Y387958D01*
X272321Y387690D01*
Y387577D01*
X272335Y387478D01*
Y387394D01*
Y387338D01*
Y387295D01*
Y387281D01*
X272321Y386957D01*
X272307Y386689D01*
X272278Y386450D01*
X272250Y386266D01*
X272208Y386125D01*
X272180Y386027D01*
X272166Y385956D01*
X272152Y385942D01*
X272081Y385801D01*
X271996Y385674D01*
X271912Y385575D01*
X271827Y385505D01*
X271757Y385434D01*
X271700Y385392D01*
X271658Y385378D01*
X271644Y385364D01*
X271503Y385308D01*
X271348Y385279D01*
X271165Y385251D01*
X270996Y385223D01*
X270826D01*
X270700Y385209D01*
X269995D01*
Y389424D01*
X270587D01*
X270911Y389410D01*
D02*
G37*
G36*
X287362Y389847D02*
X287517Y389790D01*
X287658Y389706D01*
X287771Y389607D01*
X287856Y389509D01*
X287912Y389424D01*
X287954Y389367D01*
X287968Y389339D01*
X288011Y389227D01*
X288053Y389100D01*
X288095Y388945D01*
X288123Y388790D01*
X288166Y388451D01*
X288208Y388099D01*
X288222Y387789D01*
Y387634D01*
X288236Y387521D01*
Y387408D01*
Y387338D01*
Y387281D01*
Y387267D01*
Y386901D01*
X288222Y386590D01*
X288194Y386323D01*
X288180Y386111D01*
X288152Y385942D01*
X288123Y385829D01*
X288109Y385759D01*
Y385731D01*
X288067Y385561D01*
X288011Y385406D01*
X287954Y385294D01*
X287898Y385181D01*
X287841Y385110D01*
X287799Y385054D01*
X287771Y385026D01*
X287757Y385012D01*
X287658Y384941D01*
X287560Y384885D01*
X287475Y384842D01*
X287376Y384814D01*
X287306Y384800D01*
X287235Y384786D01*
X287179D01*
X287010Y384814D01*
X286855Y384871D01*
X286728Y384955D01*
X286615Y385054D01*
X286530Y385153D01*
X286474Y385237D01*
X286432Y385294D01*
X286418Y385322D01*
X286375Y385434D01*
X286333Y385561D01*
X286305Y385702D01*
X286277Y385857D01*
X286220Y386196D01*
X286192Y386534D01*
X286178Y386844D01*
Y386985D01*
X286164Y387098D01*
Y387197D01*
Y387267D01*
Y387323D01*
Y387338D01*
Y387605D01*
X286178Y387845D01*
X286192Y388056D01*
X286206Y388268D01*
X286220Y388437D01*
X286234Y388606D01*
X286263Y388747D01*
X286291Y388874D01*
X286305Y388987D01*
X286333Y389086D01*
X286347Y389156D01*
X286361Y389212D01*
X286375Y389269D01*
X286390Y389297D01*
X286404Y389325D01*
X286502Y389509D01*
X286629Y389650D01*
X286756Y389748D01*
X286883Y389805D01*
X286996Y389847D01*
X287094Y389861D01*
X287151Y389875D01*
X287179D01*
X287362Y389847D01*
D02*
G37*
%LPC*%
G36*
X630511Y391172D02*
X626254D01*
Y383447D01*
X628651D01*
Y386576D01*
X628848D01*
X628975Y386562D01*
X629087Y386548D01*
X629186Y386520D01*
X629271Y386492D01*
X629341Y386450D01*
X629398Y386421D01*
X629426Y386407D01*
X629440Y386393D01*
X629510Y386323D01*
X629595Y386238D01*
X629736Y386041D01*
X629792Y385956D01*
X629835Y385872D01*
X629863Y385815D01*
X629877Y385801D01*
X631160Y383447D01*
X633866D01*
X632696Y385674D01*
X632654Y385745D01*
X632612Y385815D01*
X632499Y385984D01*
X632443Y386041D01*
X632400Y386097D01*
X632372Y386139D01*
X632358Y386153D01*
X632273Y386266D01*
X632189Y386351D01*
X632132Y386421D01*
X632076Y386478D01*
X632034Y386520D01*
X632006Y386548D01*
X631977Y386562D01*
X631893Y386619D01*
X631794Y386661D01*
X631597Y386760D01*
X631498Y386788D01*
X631428Y386816D01*
X631371Y386844D01*
X631357D01*
X631540Y386901D01*
X631710Y386943D01*
X631851Y386999D01*
X631977Y387042D01*
X632062Y387084D01*
X632132Y387126D01*
X632175Y387140D01*
X632189Y387154D01*
X632358Y387267D01*
X632513Y387394D01*
X632640Y387521D01*
X632753Y387634D01*
X632837Y387746D01*
X632908Y387831D01*
X632936Y387887D01*
X632950Y387901D01*
X633049Y388085D01*
X633119Y388282D01*
X633162Y388465D01*
X633204Y388634D01*
X633218Y388790D01*
X633232Y388902D01*
Y388987D01*
Y389015D01*
X633218Y389283D01*
X633176Y389523D01*
X633119Y389734D01*
X633049Y389917D01*
X632978Y390072D01*
X632922Y390185D01*
X632880Y390242D01*
X632865Y390270D01*
X632724Y390453D01*
X632570Y390594D01*
X632414Y390721D01*
X632259Y390820D01*
X632132Y390890D01*
X632020Y390932D01*
X631949Y390961D01*
X631921Y390975D01*
X631681Y391045D01*
X631413Y391087D01*
X631132Y391130D01*
X630864Y391144D01*
X630610Y391158D01*
X630511Y391172D01*
D02*
G37*
G36*
X621560D02*
X617852D01*
Y383447D01*
X621391D01*
X621644Y383461D01*
X621884Y383475D01*
X622138Y383503D01*
X622349Y383545D01*
X622547Y383588D01*
X622702Y383616D01*
X622758Y383630D01*
X622800D01*
X622814Y383644D01*
X622828D01*
X623040Y383715D01*
X623237Y383813D01*
X623406Y383912D01*
X623576Y384011D01*
X623703Y384109D01*
X623801Y384194D01*
X623857Y384250D01*
X623886Y384264D01*
X624069Y384448D01*
X624224Y384645D01*
X624365Y384828D01*
X624478Y385012D01*
X624562Y385167D01*
X624619Y385294D01*
X624661Y385378D01*
X624675Y385392D01*
Y385406D01*
X624774Y385688D01*
X624844Y385998D01*
X624901Y386323D01*
X624929Y386619D01*
X624957Y386901D01*
Y387013D01*
X624971Y387126D01*
Y387323D01*
X624957Y387620D01*
X624943Y387887D01*
X624915Y388141D01*
X624873Y388367D01*
X624830Y388550D01*
X624802Y388691D01*
X624788Y388747D01*
Y388790D01*
X624774Y388804D01*
Y388818D01*
X624689Y389072D01*
X624605Y389311D01*
X624506Y389523D01*
X624407Y389706D01*
X624309Y389861D01*
X624238Y389960D01*
X624182Y390030D01*
X624168Y390058D01*
X623998Y390242D01*
X623829Y390411D01*
X623646Y390552D01*
X623477Y390664D01*
X623322Y390763D01*
X623209Y390820D01*
X623125Y390862D01*
X623110Y390876D01*
X623096D01*
X622842Y390975D01*
X622561Y391045D01*
X622279Y391101D01*
X621997Y391130D01*
X621757Y391158D01*
X621658D01*
X621560Y391172D01*
D02*
G37*
G36*
X644665Y391299D02*
X644510D01*
X644087Y391285D01*
X643720Y391228D01*
X643396Y391144D01*
X643128Y391059D01*
X643015Y391017D01*
X642917Y390975D01*
X642818Y390932D01*
X642747Y390890D01*
X642691Y390862D01*
X642649Y390834D01*
X642635Y390820D01*
X642621D01*
X642466Y390707D01*
X642325Y390580D01*
X642198Y390439D01*
X642099Y390312D01*
X642014Y390185D01*
X641944Y390044D01*
X641831Y389805D01*
X641761Y389579D01*
X641747Y389480D01*
X641732Y389396D01*
X641718Y389339D01*
Y389283D01*
Y389255D01*
Y389241D01*
X641732Y389029D01*
X641761Y388832D01*
X641817Y388649D01*
X641873Y388493D01*
X641930Y388367D01*
X641986Y388282D01*
X642014Y388212D01*
X642029Y388198D01*
X642127Y388085D01*
X642240Y387972D01*
X642367Y387873D01*
X642480Y387775D01*
X642592Y387704D01*
X642677Y387648D01*
X642733Y387620D01*
X642762Y387605D01*
X642536Y387507D01*
X642325Y387380D01*
X642169Y387267D01*
X642029Y387140D01*
X641916Y387042D01*
X641845Y386957D01*
X641803Y386901D01*
X641789Y386872D01*
X641690Y386689D01*
X641606Y386492D01*
X641549Y386309D01*
X641521Y386125D01*
X641493Y385956D01*
X641479Y385829D01*
Y385716D01*
X641493Y385463D01*
X641535Y385223D01*
X641578Y385012D01*
X641648Y384828D01*
X641704Y384673D01*
X641747Y384561D01*
X641789Y384490D01*
X641803Y384462D01*
X641944Y384264D01*
X642099Y384095D01*
X642268Y383940D01*
X642423Y383827D01*
X642564Y383729D01*
X642677Y383658D01*
X642762Y383616D01*
X642790Y383602D01*
X643058Y383503D01*
X643368Y383433D01*
X643678Y383390D01*
X643988Y383362D01*
X644256Y383334D01*
X644369D01*
X644481Y383320D01*
X644918D01*
X645144Y383334D01*
X645356Y383362D01*
X645539Y383390D01*
X645694Y383405D01*
X645807Y383433D01*
X645877Y383447D01*
X645905D01*
X646117Y383503D01*
X646314Y383560D01*
X646469Y383630D01*
X646610Y383686D01*
X646723Y383757D01*
X646807Y383799D01*
X646864Y383827D01*
X646878Y383842D01*
X647019Y383954D01*
X647146Y384081D01*
X647259Y384208D01*
X647357Y384335D01*
X647442Y384448D01*
X647498Y384532D01*
X647526Y384589D01*
X647541Y384617D01*
X647625Y384814D01*
X647696Y384997D01*
X647738Y385181D01*
X647780Y385350D01*
X647794Y385491D01*
X647808Y385604D01*
Y385702D01*
X647794Y385928D01*
X647766Y386125D01*
X647710Y386323D01*
X647653Y386478D01*
X647597Y386619D01*
X647541Y386717D01*
X647512Y386774D01*
X647498Y386802D01*
X647371Y386985D01*
X647216Y387140D01*
X647061Y387281D01*
X646906Y387394D01*
X646765Y387478D01*
X646652Y387549D01*
X646582Y387591D01*
X646568Y387605D01*
X646554D01*
X646723Y387718D01*
X646864Y387845D01*
X646991Y387944D01*
X647089Y388042D01*
X647160Y388127D01*
X647216Y388198D01*
X647244Y388240D01*
X647259Y388254D01*
X647357Y388423D01*
X647428Y388592D01*
X647484Y388761D01*
X647512Y388916D01*
X647541Y389043D01*
X647555Y389142D01*
Y389198D01*
Y389227D01*
X647541Y389396D01*
X647526Y389551D01*
X647442Y389833D01*
X647315Y390087D01*
X647188Y390298D01*
X647047Y390467D01*
X646920Y390594D01*
X646836Y390679D01*
X646822Y390707D01*
X646807D01*
X646652Y390805D01*
X646497Y390904D01*
X646131Y391045D01*
X645750Y391158D01*
X645384Y391228D01*
X645200Y391256D01*
X645045Y391271D01*
X644890Y391285D01*
X644763D01*
X644665Y391299D01*
D02*
G37*
G36*
X637616D02*
X637489D01*
X637193Y391285D01*
X636911Y391256D01*
X636658Y391214D01*
X636418Y391158D01*
X636207Y391087D01*
X636009Y391017D01*
X635826Y390932D01*
X635671Y390862D01*
X635530Y390777D01*
X635403Y390693D01*
X635304Y390622D01*
X635220Y390552D01*
X635149Y390495D01*
X635107Y390453D01*
X635079Y390425D01*
X635065Y390411D01*
X634924Y390228D01*
X634811Y390030D01*
X634698Y389805D01*
X634613Y389565D01*
X634473Y389057D01*
X634374Y388550D01*
X634346Y388310D01*
X634318Y388085D01*
X634303Y387873D01*
X634289Y387690D01*
X634275Y387549D01*
Y387338D01*
X634289Y387013D01*
X634303Y386703D01*
X634332Y386421D01*
X634360Y386182D01*
X634388Y385970D01*
X634402Y385815D01*
X634416Y385759D01*
X634430Y385716D01*
Y385702D01*
Y385688D01*
X634487Y385434D01*
X634557Y385195D01*
X634628Y384997D01*
X634698Y384842D01*
X634754Y384701D01*
X634811Y384617D01*
X634839Y384546D01*
X634853Y384532D01*
X635008Y384321D01*
X635177Y384138D01*
X635332Y383983D01*
X635502Y383856D01*
X635629Y383757D01*
X635741Y383686D01*
X635812Y383644D01*
X635840Y383630D01*
X636080Y383531D01*
X636348Y383447D01*
X636615Y383390D01*
X636869Y383362D01*
X637095Y383334D01*
X637179D01*
X637264Y383320D01*
X637433D01*
X637743Y383334D01*
X638039Y383362D01*
X638307Y383405D01*
X638547Y383475D01*
X638772Y383545D01*
X638969Y383630D01*
X639153Y383715D01*
X639308Y383813D01*
X639449Y383898D01*
X639562Y383983D01*
X639660Y384067D01*
X639745Y384138D01*
X639815Y384208D01*
X639858Y384250D01*
X639872Y384278D01*
X639886Y384293D01*
X640013Y384490D01*
X640126Y384701D01*
X640224Y384941D01*
X640309Y385181D01*
X640436Y385688D01*
X640520Y386196D01*
X640548Y386435D01*
X640563Y386647D01*
X640577Y386844D01*
X640591Y387027D01*
X640605Y387168D01*
Y387366D01*
X640591Y387704D01*
X640577Y388042D01*
X640534Y388339D01*
X640492Y388606D01*
X640450Y388832D01*
X640436Y388931D01*
X640422Y389001D01*
X640407Y389072D01*
X640393Y389114D01*
X640379Y389142D01*
Y389156D01*
X640337Y389325D01*
X640281Y389466D01*
X640238Y389607D01*
X640196Y389720D01*
X640154Y389819D01*
X640111Y389889D01*
X640097Y389931D01*
X640083Y389945D01*
X639928Y390199D01*
X639843Y390312D01*
X639759Y390397D01*
X639688Y390481D01*
X639632Y390538D01*
X639590Y390580D01*
X639576Y390594D01*
X639449Y390707D01*
X639322Y390805D01*
X639181Y390890D01*
X639054Y390961D01*
X638941Y391017D01*
X638843Y391073D01*
X638786Y391087D01*
X638758Y391101D01*
X638561Y391172D01*
X638349Y391214D01*
X638138Y391256D01*
X637940Y391271D01*
X637757Y391285D01*
X637616Y391299D01*
D02*
G37*
%LPD*%
G36*
X629919Y389593D02*
X630117Y389579D01*
X630272Y389537D01*
X630398Y389509D01*
X630483Y389466D01*
X630554Y389424D01*
X630582Y389410D01*
X630596Y389396D01*
X630681Y389311D01*
X630737Y389227D01*
X630779Y389128D01*
X630807Y389043D01*
X630821Y388959D01*
X630835Y388888D01*
Y388846D01*
Y388832D01*
Y388733D01*
X630807Y388649D01*
X630765Y388508D01*
X630737Y388451D01*
X630709Y388423D01*
X630695Y388395D01*
X630681Y388381D01*
X630624Y388310D01*
X630554Y388254D01*
X630427Y388183D01*
X630370Y388169D01*
X630328Y388155D01*
X630300Y388141D01*
X630286D01*
X630131Y388113D01*
X629990Y388085D01*
X629877Y388071D01*
X629792Y388056D01*
X629736Y388042D01*
X628651D01*
Y389607D01*
X629694D01*
X629919Y389593D01*
D02*
G37*
G36*
X621151Y389410D02*
X621433Y389353D01*
X621658Y389283D01*
X621842Y389198D01*
X621983Y389100D01*
X622081Y389029D01*
X622152Y388973D01*
X622166Y388959D01*
X622236Y388860D01*
X622307Y388761D01*
X622406Y388508D01*
X622476Y388226D01*
X622518Y387958D01*
X622561Y387690D01*
Y387577D01*
X622575Y387478D01*
Y387394D01*
Y387338D01*
Y387295D01*
Y387281D01*
X622561Y386957D01*
X622547Y386689D01*
X622518Y386450D01*
X622490Y386266D01*
X622448Y386125D01*
X622420Y386027D01*
X622406Y385956D01*
X622391Y385942D01*
X622321Y385801D01*
X622236Y385674D01*
X622152Y385575D01*
X622067Y385505D01*
X621997Y385434D01*
X621940Y385392D01*
X621898Y385378D01*
X621884Y385364D01*
X621743Y385308D01*
X621588Y385279D01*
X621405Y385251D01*
X621236Y385223D01*
X621066D01*
X620939Y385209D01*
X620235D01*
Y389424D01*
X620827D01*
X621151Y389410D01*
D02*
G37*
G36*
X644763Y389974D02*
X644876Y389945D01*
X644989Y389903D01*
X645088Y389861D01*
X645158Y389819D01*
X645214Y389776D01*
X645243Y389748D01*
X645257Y389734D01*
X645341Y389635D01*
X645398Y389523D01*
X645454Y389424D01*
X645482Y389311D01*
X645496Y389227D01*
X645510Y389156D01*
Y389100D01*
Y389086D01*
X645496Y388945D01*
X645468Y388832D01*
X645440Y388719D01*
X645398Y388634D01*
X645341Y388564D01*
X645313Y388508D01*
X645285Y388479D01*
X645271Y388465D01*
X645172Y388395D01*
X645073Y388339D01*
X644975Y388296D01*
X644876Y388268D01*
X644778Y388254D01*
X644721Y388240D01*
X644651D01*
X644495Y388254D01*
X644369Y388282D01*
X644256Y388310D01*
X644157Y388367D01*
X644073Y388409D01*
X644016Y388437D01*
X643988Y388465D01*
X643974Y388479D01*
X643889Y388578D01*
X643833Y388677D01*
X643791Y388790D01*
X643763Y388888D01*
X643748Y388973D01*
X643734Y389043D01*
Y389100D01*
Y389114D01*
X643748Y389255D01*
X643777Y389367D01*
X643805Y389480D01*
X643861Y389565D01*
X643904Y389635D01*
X643932Y389692D01*
X643960Y389720D01*
X643974Y389734D01*
X644073Y389819D01*
X644185Y389875D01*
X644284Y389931D01*
X644397Y389960D01*
X644481Y389974D01*
X644552Y389988D01*
X644622D01*
X644763Y389974D01*
D02*
G37*
G36*
X644778Y386957D02*
X644904Y386915D01*
X645031Y386858D01*
X645130Y386802D01*
X645229Y386745D01*
X645285Y386689D01*
X645327Y386647D01*
X645341Y386633D01*
X645440Y386506D01*
X645525Y386365D01*
X645581Y386224D01*
X645609Y386097D01*
X645637Y385984D01*
X645651Y385886D01*
Y385829D01*
Y385801D01*
X645637Y385618D01*
X645609Y385463D01*
X645553Y385322D01*
X645496Y385195D01*
X645440Y385096D01*
X645384Y385026D01*
X645356Y384983D01*
X645341Y384969D01*
X645229Y384856D01*
X645102Y384786D01*
X644989Y384730D01*
X644876Y384687D01*
X644778Y384659D01*
X644707Y384645D01*
X644637D01*
X644495Y384659D01*
X644355Y384687D01*
X644242Y384744D01*
X644143Y384800D01*
X644044Y384856D01*
X643988Y384913D01*
X643946Y384941D01*
X643932Y384955D01*
X643833Y385082D01*
X643748Y385223D01*
X643692Y385364D01*
X643664Y385505D01*
X643636Y385618D01*
X643622Y385716D01*
Y385773D01*
Y385801D01*
X643636Y385998D01*
X643664Y386153D01*
X643720Y386309D01*
X643777Y386421D01*
X643819Y386520D01*
X643875Y386590D01*
X643904Y386633D01*
X643918Y386647D01*
X644030Y386760D01*
X644157Y386830D01*
X644270Y386886D01*
X644383Y386929D01*
X644481Y386957D01*
X644552Y386971D01*
X644622D01*
X644778Y386957D01*
D02*
G37*
G36*
X637602Y389847D02*
X637757Y389790D01*
X637898Y389706D01*
X638011Y389607D01*
X638096Y389509D01*
X638152Y389424D01*
X638194Y389367D01*
X638208Y389339D01*
X638251Y389227D01*
X638293Y389100D01*
X638335Y388945D01*
X638363Y388790D01*
X638406Y388451D01*
X638448Y388099D01*
X638462Y387789D01*
Y387634D01*
X638476Y387521D01*
Y387408D01*
Y387338D01*
Y387281D01*
Y387267D01*
Y386901D01*
X638462Y386590D01*
X638434Y386323D01*
X638420Y386111D01*
X638391Y385942D01*
X638363Y385829D01*
X638349Y385759D01*
Y385731D01*
X638307Y385561D01*
X638251Y385406D01*
X638194Y385294D01*
X638138Y385181D01*
X638081Y385110D01*
X638039Y385054D01*
X638011Y385026D01*
X637997Y385012D01*
X637898Y384941D01*
X637799Y384885D01*
X637715Y384842D01*
X637616Y384814D01*
X637546Y384800D01*
X637475Y384786D01*
X637419D01*
X637250Y384814D01*
X637095Y384871D01*
X636968Y384955D01*
X636855Y385054D01*
X636770Y385153D01*
X636714Y385237D01*
X636672Y385294D01*
X636658Y385322D01*
X636615Y385434D01*
X636573Y385561D01*
X636545Y385702D01*
X636517Y385857D01*
X636460Y386196D01*
X636432Y386534D01*
X636418Y386844D01*
Y386985D01*
X636404Y387098D01*
Y387197D01*
Y387267D01*
Y387323D01*
Y387338D01*
Y387605D01*
X636418Y387845D01*
X636432Y388056D01*
X636446Y388268D01*
X636460Y388437D01*
X636474Y388606D01*
X636502Y388747D01*
X636531Y388874D01*
X636545Y388987D01*
X636573Y389086D01*
X636587Y389156D01*
X636601Y389212D01*
X636615Y389269D01*
X636629Y389297D01*
X636643Y389325D01*
X636742Y389509D01*
X636869Y389650D01*
X636996Y389748D01*
X637123Y389805D01*
X637236Y389847D01*
X637334Y389861D01*
X637391Y389875D01*
X637419D01*
X637602Y389847D01*
D02*
G37*
%LPC*%
G36*
X76937Y190794D02*
X71834D01*
X71157Y186635D01*
X72976Y186367D01*
X73074Y186466D01*
X73159Y186551D01*
X73243Y186621D01*
X73314Y186678D01*
X73370Y186720D01*
X73413Y186748D01*
X73441Y186776D01*
X73455D01*
X73568Y186833D01*
X73680Y186861D01*
X73864Y186917D01*
X73948D01*
X74005Y186931D01*
X74061D01*
X74230Y186917D01*
X74399Y186875D01*
X74526Y186833D01*
X74639Y186776D01*
X74738Y186706D01*
X74794Y186663D01*
X74836Y186621D01*
X74851Y186607D01*
X74949Y186466D01*
X75020Y186311D01*
X75076Y186142D01*
X75104Y185973D01*
X75132Y185832D01*
X75146Y185705D01*
Y185620D01*
Y185606D01*
Y185592D01*
X75132Y185352D01*
X75104Y185155D01*
X75048Y184986D01*
X75006Y184845D01*
X74949Y184732D01*
X74893Y184662D01*
X74865Y184605D01*
X74851Y184591D01*
X74738Y184478D01*
X74611Y184394D01*
X74484Y184338D01*
X74371Y184295D01*
X74258Y184267D01*
X74174Y184253D01*
X74103D01*
X73962Y184267D01*
X73821Y184295D01*
X73695Y184338D01*
X73596Y184394D01*
X73511Y184436D01*
X73455Y184478D01*
X73413Y184507D01*
X73398Y184521D01*
X73300Y184634D01*
X73229Y184760D01*
X73159Y184887D01*
X73117Y185014D01*
X73088Y185127D01*
X73060Y185226D01*
X73046Y185282D01*
Y185310D01*
X70875Y185070D01*
X70932Y184873D01*
X71002Y184690D01*
X71058Y184535D01*
X71129Y184408D01*
X71171Y184295D01*
X71213Y184225D01*
X71242Y184168D01*
X71256Y184154D01*
X71453Y183901D01*
X71552Y183788D01*
X71651Y183703D01*
X71749Y183619D01*
X71820Y183562D01*
X71862Y183520D01*
X71876Y183506D01*
X72186Y183323D01*
X72341Y183252D01*
X72496Y183196D01*
X72623Y183139D01*
X72722Y183111D01*
X72778Y183097D01*
X72806Y183083D01*
X73018Y183041D01*
X73243Y182998D01*
X73469Y182970D01*
X73666Y182956D01*
X73850D01*
X73991Y182942D01*
X74117D01*
X74498Y182956D01*
X74836Y182998D01*
X75146Y183055D01*
X75400Y183125D01*
X75598Y183181D01*
X75682Y183210D01*
X75739Y183238D01*
X75795Y183266D01*
X75837Y183280D01*
X75851Y183294D01*
X75866D01*
X76105Y183449D01*
X76317Y183619D01*
X76500Y183788D01*
X76655Y183957D01*
X76768Y184112D01*
X76852Y184239D01*
X76909Y184323D01*
X76923Y184338D01*
Y184352D01*
X77050Y184605D01*
X77148Y184873D01*
X77205Y185113D01*
X77261Y185324D01*
X77289Y185522D01*
X77303Y185663D01*
Y185790D01*
X77289Y185987D01*
X77275Y186170D01*
X77191Y186508D01*
X77078Y186819D01*
X76937Y187072D01*
X76796Y187270D01*
X76740Y187354D01*
X76683Y187425D01*
X76641Y187481D01*
X76599Y187523D01*
X76584Y187537D01*
X76570Y187552D01*
X76429Y187679D01*
X76288Y187791D01*
X76133Y187876D01*
X75978Y187960D01*
X75668Y188087D01*
X75358Y188172D01*
X75104Y188214D01*
X74991Y188242D01*
X74893D01*
X74808Y188256D01*
X74695D01*
X74442Y188242D01*
X74329Y188228D01*
X74230Y188214D01*
X74132Y188200D01*
X74061Y188186D01*
X74019Y188172D01*
X74005D01*
X73751Y188101D01*
X73624Y188059D01*
X73511Y188017D01*
X73427Y187974D01*
X73342Y187946D01*
X73300Y187932D01*
X73286Y187918D01*
X73469Y189074D01*
X76937D01*
Y190794D01*
D02*
G37*
G36*
X59992D02*
X55735D01*
Y183069D01*
X58131D01*
Y186198D01*
X58329D01*
X58456Y186184D01*
X58569Y186170D01*
X58667Y186142D01*
X58752Y186114D01*
X58822Y186071D01*
X58879Y186043D01*
X58907Y186029D01*
X58921Y186015D01*
X58991Y185944D01*
X59076Y185860D01*
X59217Y185663D01*
X59273Y185578D01*
X59316Y185493D01*
X59344Y185437D01*
X59358Y185423D01*
X60641Y183069D01*
X63347D01*
X62177Y185296D01*
X62135Y185367D01*
X62093Y185437D01*
X61980Y185606D01*
X61923Y185663D01*
X61881Y185719D01*
X61853Y185761D01*
X61839Y185775D01*
X61754Y185888D01*
X61670Y185973D01*
X61613Y186043D01*
X61557Y186100D01*
X61515Y186142D01*
X61487Y186170D01*
X61458Y186184D01*
X61374Y186241D01*
X61275Y186283D01*
X61078Y186381D01*
X60979Y186410D01*
X60909Y186438D01*
X60852Y186466D01*
X60838D01*
X61021Y186523D01*
X61191Y186565D01*
X61332Y186621D01*
X61458Y186663D01*
X61543Y186706D01*
X61613Y186748D01*
X61656Y186762D01*
X61670Y186776D01*
X61839Y186889D01*
X61994Y187016D01*
X62121Y187143D01*
X62234Y187256D01*
X62318Y187368D01*
X62389Y187453D01*
X62417Y187509D01*
X62431Y187523D01*
X62530Y187707D01*
X62600Y187904D01*
X62642Y188087D01*
X62685Y188256D01*
X62699Y188412D01*
X62713Y188524D01*
Y188609D01*
Y188637D01*
X62699Y188905D01*
X62657Y189145D01*
X62600Y189356D01*
X62530Y189539D01*
X62459Y189694D01*
X62403Y189807D01*
X62361Y189863D01*
X62347Y189892D01*
X62206Y190075D01*
X62050Y190216D01*
X61895Y190343D01*
X61740Y190441D01*
X61613Y190512D01*
X61501Y190554D01*
X61430Y190582D01*
X61402Y190597D01*
X61162Y190667D01*
X60894Y190709D01*
X60613Y190752D01*
X60345Y190766D01*
X60091Y190780D01*
X59992Y190794D01*
D02*
G37*
G36*
X51041D02*
X47333D01*
Y183069D01*
X50872D01*
X51125Y183083D01*
X51365Y183097D01*
X51619Y183125D01*
X51830Y183167D01*
X52028Y183210D01*
X52182Y183238D01*
X52239Y183252D01*
X52281D01*
X52295Y183266D01*
X52309D01*
X52521Y183337D01*
X52718Y183435D01*
X52887Y183534D01*
X53057Y183633D01*
X53183Y183731D01*
X53282Y183816D01*
X53338Y183872D01*
X53367Y183886D01*
X53550Y184070D01*
X53705Y184267D01*
X53846Y184450D01*
X53959Y184634D01*
X54043Y184789D01*
X54100Y184916D01*
X54142Y185000D01*
X54156Y185014D01*
Y185028D01*
X54255Y185310D01*
X54325Y185620D01*
X54382Y185944D01*
X54410Y186241D01*
X54438Y186523D01*
Y186635D01*
X54452Y186748D01*
Y186945D01*
X54438Y187241D01*
X54424Y187509D01*
X54396Y187763D01*
X54353Y187989D01*
X54311Y188172D01*
X54283Y188313D01*
X54269Y188369D01*
Y188412D01*
X54255Y188426D01*
Y188440D01*
X54170Y188694D01*
X54086Y188933D01*
X53987Y189145D01*
X53888Y189328D01*
X53790Y189483D01*
X53719Y189582D01*
X53663Y189652D01*
X53649Y189680D01*
X53479Y189863D01*
X53310Y190033D01*
X53127Y190174D01*
X52958Y190286D01*
X52803Y190385D01*
X52690Y190441D01*
X52605Y190484D01*
X52591Y190498D01*
X52577D01*
X52323Y190597D01*
X52042Y190667D01*
X51760Y190723D01*
X51478Y190752D01*
X51238Y190780D01*
X51139D01*
X51041Y190794D01*
D02*
G37*
G36*
X67097Y190921D02*
X66970D01*
X66674Y190907D01*
X66392Y190879D01*
X66139Y190836D01*
X65899Y190780D01*
X65687Y190709D01*
X65490Y190639D01*
X65307Y190554D01*
X65152Y190484D01*
X65011Y190399D01*
X64884Y190315D01*
X64785Y190244D01*
X64701Y190174D01*
X64630Y190117D01*
X64588Y190075D01*
X64560Y190047D01*
X64546Y190033D01*
X64405Y189849D01*
X64292Y189652D01*
X64179Y189426D01*
X64095Y189187D01*
X63953Y188679D01*
X63855Y188172D01*
X63827Y187932D01*
X63798Y187707D01*
X63784Y187495D01*
X63770Y187312D01*
X63756Y187171D01*
Y186959D01*
X63770Y186635D01*
X63784Y186325D01*
X63812Y186043D01*
X63841Y185804D01*
X63869Y185592D01*
X63883Y185437D01*
X63897Y185381D01*
X63911Y185338D01*
Y185324D01*
Y185310D01*
X63968Y185056D01*
X64038Y184817D01*
X64109Y184619D01*
X64179Y184464D01*
X64236Y184323D01*
X64292Y184239D01*
X64320Y184168D01*
X64334Y184154D01*
X64489Y183943D01*
X64658Y183759D01*
X64813Y183604D01*
X64983Y183478D01*
X65110Y183379D01*
X65222Y183308D01*
X65293Y183266D01*
X65321Y183252D01*
X65561Y183153D01*
X65828Y183069D01*
X66096Y183012D01*
X66350Y182984D01*
X66576Y182956D01*
X66660D01*
X66745Y182942D01*
X66914D01*
X67224Y182956D01*
X67520Y182984D01*
X67788Y183027D01*
X68028Y183097D01*
X68253Y183167D01*
X68450Y183252D01*
X68634Y183337D01*
X68789Y183435D01*
X68930Y183520D01*
X69043Y183604D01*
X69141Y183689D01*
X69226Y183759D01*
X69296Y183830D01*
X69339Y183872D01*
X69353Y183901D01*
X69367Y183915D01*
X69494Y184112D01*
X69606Y184323D01*
X69705Y184563D01*
X69790Y184803D01*
X69917Y185310D01*
X70001Y185818D01*
X70029Y186057D01*
X70043Y186269D01*
X70058Y186466D01*
X70072Y186649D01*
X70086Y186790D01*
Y186988D01*
X70072Y187326D01*
X70058Y187664D01*
X70015Y187960D01*
X69973Y188228D01*
X69931Y188454D01*
X69917Y188552D01*
X69903Y188623D01*
X69888Y188694D01*
X69874Y188736D01*
X69860Y188764D01*
Y188778D01*
X69818Y188947D01*
X69762Y189088D01*
X69719Y189229D01*
X69677Y189342D01*
X69635Y189441D01*
X69592Y189511D01*
X69578Y189553D01*
X69564Y189568D01*
X69409Y189821D01*
X69324Y189934D01*
X69240Y190019D01*
X69169Y190103D01*
X69113Y190159D01*
X69071Y190202D01*
X69057Y190216D01*
X68930Y190329D01*
X68803Y190427D01*
X68662Y190512D01*
X68535Y190582D01*
X68422Y190639D01*
X68324Y190695D01*
X68267Y190709D01*
X68239Y190723D01*
X68042Y190794D01*
X67830Y190836D01*
X67619Y190879D01*
X67421Y190893D01*
X67238Y190907D01*
X67097Y190921D01*
D02*
G37*
%LPD*%
G36*
X59400Y189215D02*
X59598Y189201D01*
X59753Y189159D01*
X59879Y189130D01*
X59964Y189088D01*
X60035Y189046D01*
X60063Y189032D01*
X60077Y189018D01*
X60161Y188933D01*
X60218Y188848D01*
X60260Y188750D01*
X60288Y188665D01*
X60302Y188581D01*
X60317Y188510D01*
Y188468D01*
Y188454D01*
Y188355D01*
X60288Y188270D01*
X60246Y188130D01*
X60218Y188073D01*
X60190Y188045D01*
X60175Y188017D01*
X60161Y188003D01*
X60105Y187932D01*
X60035Y187876D01*
X59908Y187805D01*
X59851Y187791D01*
X59809Y187777D01*
X59781Y187763D01*
X59767D01*
X59612Y187735D01*
X59471Y187707D01*
X59358Y187693D01*
X59273Y187679D01*
X59217Y187664D01*
X58131D01*
Y189229D01*
X59175D01*
X59400Y189215D01*
D02*
G37*
G36*
X50632Y189032D02*
X50914Y188975D01*
X51139Y188905D01*
X51323Y188820D01*
X51464Y188722D01*
X51562Y188651D01*
X51633Y188595D01*
X51647Y188581D01*
X51717Y188482D01*
X51788Y188383D01*
X51887Y188130D01*
X51957Y187848D01*
X51999Y187580D01*
X52042Y187312D01*
Y187199D01*
X52056Y187101D01*
Y187016D01*
Y186959D01*
Y186917D01*
Y186903D01*
X52042Y186579D01*
X52028Y186311D01*
X51999Y186071D01*
X51971Y185888D01*
X51929Y185747D01*
X51901Y185648D01*
X51887Y185578D01*
X51872Y185564D01*
X51802Y185423D01*
X51717Y185296D01*
X51633Y185197D01*
X51548Y185127D01*
X51478Y185056D01*
X51421Y185014D01*
X51379Y185000D01*
X51365Y184986D01*
X51224Y184930D01*
X51069Y184901D01*
X50886Y184873D01*
X50716Y184845D01*
X50547D01*
X50420Y184831D01*
X49715D01*
Y189046D01*
X50308D01*
X50632Y189032D01*
D02*
G37*
G36*
X67083Y189469D02*
X67238Y189412D01*
X67379Y189328D01*
X67492Y189229D01*
X67576Y189130D01*
X67633Y189046D01*
X67675Y188990D01*
X67689Y188961D01*
X67731Y188848D01*
X67774Y188722D01*
X67816Y188567D01*
X67844Y188412D01*
X67887Y188073D01*
X67929Y187721D01*
X67943Y187411D01*
Y187256D01*
X67957Y187143D01*
Y187030D01*
Y186959D01*
Y186903D01*
Y186889D01*
Y186523D01*
X67943Y186212D01*
X67915Y185944D01*
X67901Y185733D01*
X67873Y185564D01*
X67844Y185451D01*
X67830Y185381D01*
Y185352D01*
X67788Y185183D01*
X67731Y185028D01*
X67675Y184916D01*
X67619Y184803D01*
X67562Y184732D01*
X67520Y184676D01*
X67492Y184648D01*
X67478Y184634D01*
X67379Y184563D01*
X67280Y184507D01*
X67196Y184464D01*
X67097Y184436D01*
X67027Y184422D01*
X66956Y184408D01*
X66900D01*
X66731Y184436D01*
X66576Y184492D01*
X66449Y184577D01*
X66336Y184676D01*
X66251Y184774D01*
X66195Y184859D01*
X66153Y184916D01*
X66139Y184944D01*
X66096Y185056D01*
X66054Y185183D01*
X66026Y185324D01*
X65998Y185479D01*
X65941Y185818D01*
X65913Y186156D01*
X65899Y186466D01*
Y186607D01*
X65885Y186720D01*
Y186819D01*
Y186889D01*
Y186945D01*
Y186959D01*
Y187227D01*
X65899Y187467D01*
X65913Y187679D01*
X65927Y187890D01*
X65941Y188059D01*
X65955Y188228D01*
X65984Y188369D01*
X66012Y188496D01*
X66026Y188609D01*
X66054Y188708D01*
X66068Y188778D01*
X66082Y188834D01*
X66096Y188891D01*
X66110Y188919D01*
X66125Y188947D01*
X66223Y189130D01*
X66350Y189271D01*
X66477Y189370D01*
X66604Y189426D01*
X66716Y189469D01*
X66815Y189483D01*
X66872Y189497D01*
X66900D01*
X67083Y189469D01*
D02*
G37*
%LPC*%
G36*
X74167Y290921D02*
X74026D01*
X73561Y290893D01*
X73349Y290879D01*
X73152Y290836D01*
X72969Y290794D01*
X72799Y290752D01*
X72644Y290709D01*
X72517Y290667D01*
X72391Y290611D01*
X72278Y290568D01*
X72193Y290526D01*
X72123Y290484D01*
X72052Y290441D01*
X72010Y290427D01*
X71996Y290399D01*
X71982D01*
X71728Y290188D01*
X71531Y289948D01*
X71361Y289694D01*
X71235Y289455D01*
X71136Y289243D01*
X71108Y289145D01*
X71066Y289060D01*
X71051Y289004D01*
X71037Y288947D01*
X71023Y288919D01*
Y288905D01*
X73053Y288552D01*
X73095Y288750D01*
X73138Y288919D01*
X73194Y289046D01*
X73236Y289159D01*
X73293Y289243D01*
X73321Y289300D01*
X73349Y289328D01*
X73363Y289342D01*
X73462Y289426D01*
X73561Y289483D01*
X73659Y289525D01*
X73758Y289553D01*
X73857Y289568D01*
X73927Y289582D01*
X73983D01*
X74124Y289568D01*
X74237Y289553D01*
X74336Y289511D01*
X74421Y289483D01*
X74491Y289441D01*
X74533Y289398D01*
X74562Y289384D01*
X74576Y289370D01*
X74646Y289286D01*
X74703Y289187D01*
X74731Y289102D01*
X74759Y289004D01*
X74773Y288933D01*
X74787Y288863D01*
Y288820D01*
Y288806D01*
X74773Y288679D01*
X74745Y288552D01*
X74688Y288440D01*
X74646Y288355D01*
X74590Y288270D01*
X74533Y288214D01*
X74505Y288186D01*
X74491Y288172D01*
X74378Y288087D01*
X74265Y288031D01*
X74139Y287974D01*
X74040Y287946D01*
X73941Y287932D01*
X73857Y287918D01*
X73702D01*
X73603Y287932D01*
X73504D01*
X73406Y286410D01*
X73561Y286452D01*
X73702Y286480D01*
X73814Y286508D01*
X73913Y286523D01*
X73998Y286537D01*
X74096D01*
X74265Y286523D01*
X74421Y286494D01*
X74547Y286438D01*
X74660Y286396D01*
X74745Y286339D01*
X74801Y286283D01*
X74844Y286255D01*
X74858Y286241D01*
X74956Y286114D01*
X75027Y285987D01*
X75069Y285846D01*
X75111Y285719D01*
X75125Y285592D01*
X75139Y285493D01*
Y285437D01*
Y285409D01*
X75125Y285226D01*
X75097Y285056D01*
X75041Y284901D01*
X74998Y284789D01*
X74942Y284690D01*
X74886Y284619D01*
X74858Y284577D01*
X74844Y284563D01*
X74731Y284464D01*
X74618Y284380D01*
X74491Y284323D01*
X74378Y284295D01*
X74280Y284267D01*
X74195Y284253D01*
X74124D01*
X73969Y284267D01*
X73843Y284295D01*
X73716Y284323D01*
X73617Y284380D01*
X73547Y284422D01*
X73476Y284450D01*
X73448Y284478D01*
X73434Y284492D01*
X73349Y284605D01*
X73265Y284746D01*
X73152Y285042D01*
X73109Y285183D01*
X73081Y285296D01*
X73053Y285367D01*
Y285395D01*
X70910Y285099D01*
X70995Y284845D01*
X71094Y284605D01*
X71178Y284408D01*
X71277Y284225D01*
X71361Y284084D01*
X71432Y283985D01*
X71488Y283929D01*
X71502Y283901D01*
X71658Y283731D01*
X71827Y283590D01*
X71996Y283463D01*
X72151Y283365D01*
X72292Y283280D01*
X72405Y283224D01*
X72475Y283196D01*
X72503Y283181D01*
X72757Y283097D01*
X73025Y283041D01*
X73307Y282998D01*
X73575Y282970D01*
X73800Y282956D01*
X73913D01*
X73998Y282942D01*
X74167D01*
X74547Y282956D01*
X74900Y282998D01*
X75196Y283041D01*
X75450Y283111D01*
X75647Y283167D01*
X75732Y283196D01*
X75788Y283210D01*
X75844Y283238D01*
X75887Y283252D01*
X75901Y283266D01*
X75915D01*
X76154Y283407D01*
X76352Y283562D01*
X76521Y283717D01*
X76676Y283872D01*
X76789Y284013D01*
X76859Y284126D01*
X76916Y284196D01*
X76930Y284225D01*
X77057Y284464D01*
X77141Y284690D01*
X77212Y284901D01*
X77254Y285113D01*
X77282Y285282D01*
X77296Y285409D01*
Y285522D01*
X77282Y285719D01*
X77268Y285888D01*
X77226Y286043D01*
X77184Y286184D01*
X77141Y286283D01*
X77113Y286367D01*
X77085Y286424D01*
X77071Y286438D01*
X76986Y286579D01*
X76887Y286706D01*
X76789Y286819D01*
X76690Y286903D01*
X76606Y286974D01*
X76535Y287030D01*
X76493Y287058D01*
X76479Y287072D01*
X76380Y287129D01*
X76267Y287171D01*
X76056Y287256D01*
X75957Y287284D01*
X75873Y287312D01*
X75816Y287326D01*
X75802D01*
X75999Y287439D01*
X76169Y287566D01*
X76310Y287693D01*
X76422Y287791D01*
X76507Y287890D01*
X76563Y287960D01*
X76606Y288017D01*
X76620Y288031D01*
X76718Y288186D01*
X76789Y288341D01*
X76831Y288496D01*
X76873Y288637D01*
X76887Y288750D01*
X76902Y288848D01*
Y288905D01*
Y288933D01*
X76887Y289088D01*
X76873Y289243D01*
X76803Y289525D01*
X76690Y289765D01*
X76563Y289962D01*
X76436Y290131D01*
X76338Y290258D01*
X76253Y290329D01*
X76239Y290357D01*
X76225D01*
X76084Y290456D01*
X75943Y290540D01*
X75591Y290681D01*
X75238Y290780D01*
X74872Y290850D01*
X74703Y290879D01*
X74547Y290893D01*
X74406Y290907D01*
X74280D01*
X74167Y290921D01*
D02*
G37*
G36*
X59999Y290794D02*
X55742D01*
Y283069D01*
X58138D01*
Y286198D01*
X58336D01*
X58463Y286184D01*
X58576Y286170D01*
X58674Y286142D01*
X58759Y286114D01*
X58829Y286071D01*
X58886Y286043D01*
X58914Y286029D01*
X58928Y286015D01*
X58998Y285944D01*
X59083Y285860D01*
X59224Y285663D01*
X59280Y285578D01*
X59323Y285493D01*
X59351Y285437D01*
X59365Y285423D01*
X60648Y283069D01*
X63354D01*
X62184Y285296D01*
X62142Y285367D01*
X62100Y285437D01*
X61987Y285606D01*
X61931Y285663D01*
X61888Y285719D01*
X61860Y285761D01*
X61846Y285775D01*
X61761Y285888D01*
X61677Y285973D01*
X61620Y286043D01*
X61564Y286100D01*
X61522Y286142D01*
X61494Y286170D01*
X61465Y286184D01*
X61381Y286241D01*
X61282Y286283D01*
X61085Y286381D01*
X60986Y286410D01*
X60916Y286438D01*
X60859Y286466D01*
X60845D01*
X61028Y286523D01*
X61198Y286565D01*
X61339Y286621D01*
X61465Y286663D01*
X61550Y286706D01*
X61620Y286748D01*
X61663Y286762D01*
X61677Y286776D01*
X61846Y286889D01*
X62001Y287016D01*
X62128Y287143D01*
X62241Y287256D01*
X62325Y287368D01*
X62396Y287453D01*
X62424Y287509D01*
X62438Y287523D01*
X62537Y287707D01*
X62607Y287904D01*
X62650Y288087D01*
X62692Y288256D01*
X62706Y288412D01*
X62720Y288524D01*
Y288609D01*
Y288637D01*
X62706Y288905D01*
X62664Y289145D01*
X62607Y289356D01*
X62537Y289539D01*
X62466Y289694D01*
X62410Y289807D01*
X62368Y289863D01*
X62354Y289892D01*
X62213Y290075D01*
X62057Y290216D01*
X61902Y290343D01*
X61747Y290441D01*
X61620Y290512D01*
X61508Y290554D01*
X61437Y290583D01*
X61409Y290597D01*
X61169Y290667D01*
X60901Y290709D01*
X60620Y290752D01*
X60352Y290766D01*
X60098Y290780D01*
X59999Y290794D01*
D02*
G37*
G36*
X51048D02*
X47340D01*
Y283069D01*
X50879D01*
X51132Y283083D01*
X51372Y283097D01*
X51626Y283125D01*
X51837Y283167D01*
X52035Y283210D01*
X52190Y283238D01*
X52246Y283252D01*
X52288D01*
X52302Y283266D01*
X52316D01*
X52528Y283337D01*
X52725Y283435D01*
X52894Y283534D01*
X53064Y283633D01*
X53190Y283731D01*
X53289Y283816D01*
X53345Y283872D01*
X53374Y283886D01*
X53557Y284070D01*
X53712Y284267D01*
X53853Y284450D01*
X53966Y284634D01*
X54050Y284789D01*
X54107Y284916D01*
X54149Y285000D01*
X54163Y285014D01*
Y285028D01*
X54262Y285310D01*
X54332Y285620D01*
X54389Y285944D01*
X54417Y286241D01*
X54445Y286523D01*
Y286635D01*
X54459Y286748D01*
Y286945D01*
X54445Y287241D01*
X54431Y287509D01*
X54403Y287763D01*
X54360Y287989D01*
X54318Y288172D01*
X54290Y288313D01*
X54276Y288369D01*
Y288412D01*
X54262Y288426D01*
Y288440D01*
X54177Y288694D01*
X54093Y288933D01*
X53994Y289145D01*
X53895Y289328D01*
X53797Y289483D01*
X53726Y289582D01*
X53670Y289652D01*
X53656Y289680D01*
X53486Y289863D01*
X53317Y290033D01*
X53134Y290174D01*
X52965Y290286D01*
X52810Y290385D01*
X52697Y290441D01*
X52613Y290484D01*
X52598Y290498D01*
X52584D01*
X52331Y290597D01*
X52049Y290667D01*
X51767Y290723D01*
X51485Y290752D01*
X51245Y290780D01*
X51146D01*
X51048Y290794D01*
D02*
G37*
G36*
X67104Y290921D02*
X66977D01*
X66681Y290907D01*
X66399Y290879D01*
X66146Y290836D01*
X65906Y290780D01*
X65694Y290709D01*
X65497Y290639D01*
X65314Y290554D01*
X65159Y290484D01*
X65018Y290399D01*
X64891Y290315D01*
X64792Y290244D01*
X64708Y290174D01*
X64637Y290117D01*
X64595Y290075D01*
X64567Y290047D01*
X64553Y290033D01*
X64412Y289849D01*
X64299Y289652D01*
X64186Y289426D01*
X64102Y289187D01*
X63961Y288679D01*
X63862Y288172D01*
X63834Y287932D01*
X63805Y287707D01*
X63791Y287495D01*
X63777Y287312D01*
X63763Y287171D01*
Y286959D01*
X63777Y286635D01*
X63791Y286325D01*
X63820Y286043D01*
X63848Y285804D01*
X63876Y285592D01*
X63890Y285437D01*
X63904Y285381D01*
X63918Y285338D01*
Y285324D01*
Y285310D01*
X63975Y285056D01*
X64045Y284817D01*
X64116Y284619D01*
X64186Y284464D01*
X64243Y284323D01*
X64299Y284239D01*
X64327Y284168D01*
X64341Y284154D01*
X64496Y283943D01*
X64665Y283759D01*
X64820Y283604D01*
X64990Y283478D01*
X65117Y283379D01*
X65229Y283308D01*
X65300Y283266D01*
X65328Y283252D01*
X65568Y283153D01*
X65835Y283069D01*
X66103Y283012D01*
X66357Y282984D01*
X66583Y282956D01*
X66667D01*
X66752Y282942D01*
X66921D01*
X67231Y282956D01*
X67527Y282984D01*
X67795Y283027D01*
X68035Y283097D01*
X68260Y283167D01*
X68457Y283252D01*
X68641Y283337D01*
X68796Y283435D01*
X68937Y283520D01*
X69050Y283604D01*
X69148Y283689D01*
X69233Y283759D01*
X69303Y283830D01*
X69346Y283872D01*
X69360Y283901D01*
X69374Y283915D01*
X69501Y284112D01*
X69613Y284323D01*
X69712Y284563D01*
X69797Y284803D01*
X69924Y285310D01*
X70008Y285818D01*
X70036Y286057D01*
X70051Y286269D01*
X70065Y286466D01*
X70079Y286649D01*
X70093Y286790D01*
Y286988D01*
X70079Y287326D01*
X70065Y287664D01*
X70022Y287960D01*
X69980Y288228D01*
X69938Y288454D01*
X69924Y288552D01*
X69910Y288623D01*
X69895Y288694D01*
X69881Y288736D01*
X69867Y288764D01*
Y288778D01*
X69825Y288947D01*
X69769Y289088D01*
X69726Y289229D01*
X69684Y289342D01*
X69642Y289441D01*
X69599Y289511D01*
X69585Y289553D01*
X69571Y289568D01*
X69416Y289821D01*
X69331Y289934D01*
X69247Y290019D01*
X69177Y290103D01*
X69120Y290159D01*
X69078Y290202D01*
X69064Y290216D01*
X68937Y290329D01*
X68810Y290427D01*
X68669Y290512D01*
X68542Y290583D01*
X68429Y290639D01*
X68331Y290695D01*
X68274Y290709D01*
X68246Y290723D01*
X68049Y290794D01*
X67837Y290836D01*
X67626Y290879D01*
X67428Y290893D01*
X67245Y290907D01*
X67104Y290921D01*
D02*
G37*
%LPD*%
G36*
X59407Y289215D02*
X59605Y289201D01*
X59760Y289159D01*
X59886Y289130D01*
X59971Y289088D01*
X60042Y289046D01*
X60070Y289032D01*
X60084Y289018D01*
X60168Y288933D01*
X60225Y288848D01*
X60267Y288750D01*
X60295Y288665D01*
X60310Y288581D01*
X60324Y288510D01*
Y288468D01*
Y288454D01*
Y288355D01*
X60295Y288270D01*
X60253Y288130D01*
X60225Y288073D01*
X60197Y288045D01*
X60183Y288017D01*
X60168Y288003D01*
X60112Y287932D01*
X60042Y287876D01*
X59915Y287805D01*
X59858Y287791D01*
X59816Y287777D01*
X59788Y287763D01*
X59774D01*
X59619Y287735D01*
X59478Y287707D01*
X59365Y287693D01*
X59280Y287679D01*
X59224Y287664D01*
X58138D01*
Y289229D01*
X59182D01*
X59407Y289215D01*
D02*
G37*
G36*
X50639Y289032D02*
X50921Y288975D01*
X51146Y288905D01*
X51330Y288820D01*
X51471Y288722D01*
X51569Y288651D01*
X51640Y288595D01*
X51654Y288581D01*
X51724Y288482D01*
X51795Y288383D01*
X51894Y288130D01*
X51964Y287848D01*
X52006Y287580D01*
X52049Y287312D01*
Y287199D01*
X52063Y287101D01*
Y287016D01*
Y286959D01*
Y286917D01*
Y286903D01*
X52049Y286579D01*
X52035Y286311D01*
X52006Y286071D01*
X51978Y285888D01*
X51936Y285747D01*
X51908Y285648D01*
X51894Y285578D01*
X51879Y285564D01*
X51809Y285423D01*
X51724Y285296D01*
X51640Y285197D01*
X51555Y285127D01*
X51485Y285056D01*
X51428Y285014D01*
X51386Y285000D01*
X51372Y284986D01*
X51231Y284930D01*
X51076Y284901D01*
X50893Y284873D01*
X50724Y284845D01*
X50554D01*
X50427Y284831D01*
X49723D01*
Y289046D01*
X50315D01*
X50639Y289032D01*
D02*
G37*
G36*
X67090Y289469D02*
X67245Y289412D01*
X67386Y289328D01*
X67499Y289229D01*
X67583Y289130D01*
X67640Y289046D01*
X67682Y288990D01*
X67696Y288961D01*
X67739Y288848D01*
X67781Y288722D01*
X67823Y288567D01*
X67851Y288412D01*
X67894Y288073D01*
X67936Y287721D01*
X67950Y287411D01*
Y287256D01*
X67964Y287143D01*
Y287030D01*
Y286959D01*
Y286903D01*
Y286889D01*
Y286523D01*
X67950Y286212D01*
X67922Y285944D01*
X67908Y285733D01*
X67880Y285564D01*
X67851Y285451D01*
X67837Y285381D01*
Y285352D01*
X67795Y285183D01*
X67739Y285028D01*
X67682Y284916D01*
X67626Y284803D01*
X67569Y284732D01*
X67527Y284676D01*
X67499Y284648D01*
X67485Y284634D01*
X67386Y284563D01*
X67288Y284507D01*
X67203Y284464D01*
X67104Y284436D01*
X67034Y284422D01*
X66963Y284408D01*
X66907D01*
X66738Y284436D01*
X66583Y284492D01*
X66456Y284577D01*
X66343Y284676D01*
X66258Y284774D01*
X66202Y284859D01*
X66160Y284916D01*
X66146Y284944D01*
X66103Y285056D01*
X66061Y285183D01*
X66033Y285324D01*
X66005Y285479D01*
X65948Y285818D01*
X65920Y286156D01*
X65906Y286466D01*
Y286607D01*
X65892Y286720D01*
Y286819D01*
Y286889D01*
Y286945D01*
Y286959D01*
Y287227D01*
X65906Y287467D01*
X65920Y287679D01*
X65934Y287890D01*
X65948Y288059D01*
X65962Y288228D01*
X65991Y288369D01*
X66019Y288496D01*
X66033Y288609D01*
X66061Y288708D01*
X66075Y288778D01*
X66089Y288834D01*
X66103Y288891D01*
X66117Y288919D01*
X66132Y288947D01*
X66230Y289130D01*
X66357Y289271D01*
X66484Y289370D01*
X66611Y289426D01*
X66724Y289469D01*
X66822Y289483D01*
X66879Y289497D01*
X66907D01*
X67090Y289469D01*
D02*
G37*
%LPC*%
G36*
X294678Y191299D02*
X294524D01*
X294242Y191285D01*
X293974Y191257D01*
X293720Y191214D01*
X293480Y191144D01*
X293269Y191073D01*
X293071Y190989D01*
X292888Y190904D01*
X292719Y190819D01*
X292578Y190721D01*
X292451Y190636D01*
X292338Y190552D01*
X292240Y190481D01*
X292169Y190411D01*
X292127Y190368D01*
X292099Y190340D01*
X292085Y190326D01*
X291930Y190129D01*
X291803Y189917D01*
X291676Y189678D01*
X291577Y189438D01*
X291493Y189184D01*
X291422Y188930D01*
X291323Y188437D01*
X291281Y188197D01*
X291253Y187972D01*
X291239Y187775D01*
X291225Y187605D01*
X291211Y187464D01*
Y186999D01*
X291225Y186760D01*
X291253Y186520D01*
X291281Y186308D01*
X291309Y186097D01*
X291338Y185914D01*
X291380Y185730D01*
X291422Y185575D01*
X291450Y185434D01*
X291493Y185322D01*
X291521Y185209D01*
X291563Y185124D01*
X291577Y185054D01*
X291605Y185012D01*
X291619Y184983D01*
Y184969D01*
X291789Y184673D01*
X291972Y184405D01*
X292169Y184194D01*
X292338Y184025D01*
X292508Y183884D01*
X292635Y183785D01*
X292719Y183729D01*
X292733Y183715D01*
X292747D01*
X293029Y183588D01*
X293339Y183489D01*
X293650Y183419D01*
X293946Y183376D01*
X294199Y183348D01*
X294312Y183334D01*
X294411Y183320D01*
X294608D01*
X294946Y183334D01*
X295257Y183362D01*
X295538Y183419D01*
X295764Y183475D01*
X295947Y183531D01*
X296088Y183588D01*
X296173Y183616D01*
X296201Y183630D01*
X296427Y183771D01*
X296638Y183912D01*
X296807Y184081D01*
X296948Y184236D01*
X297061Y184377D01*
X297146Y184490D01*
X297202Y184561D01*
X297216Y184589D01*
X297343Y184828D01*
X297427Y185068D01*
X297498Y185308D01*
X297540Y185519D01*
X297568Y185716D01*
X297582Y185857D01*
Y185984D01*
X297568Y186196D01*
X297554Y186393D01*
X297470Y186745D01*
X297357Y187070D01*
X297230Y187338D01*
X297160Y187450D01*
X297089Y187549D01*
X297033Y187648D01*
X296976Y187718D01*
X296934Y187775D01*
X296892Y187817D01*
X296878Y187831D01*
X296864Y187845D01*
X296723Y187972D01*
X296582Y188099D01*
X296441Y188197D01*
X296286Y188282D01*
X295990Y188409D01*
X295708Y188493D01*
X295468Y188550D01*
X295369Y188564D01*
X295271Y188578D01*
X295200Y188592D01*
X295101D01*
X294918Y188578D01*
X294735Y188564D01*
X294580Y188536D01*
X294439Y188493D01*
X294326Y188451D01*
X294242Y188423D01*
X294185Y188409D01*
X294171Y188395D01*
X294016Y188324D01*
X293875Y188226D01*
X293748Y188127D01*
X293621Y188042D01*
X293523Y187958D01*
X293452Y187887D01*
X293396Y187831D01*
X293382Y187817D01*
X293396Y188042D01*
X293424Y188240D01*
X293452Y188423D01*
X293466Y188592D01*
X293494Y188747D01*
X293523Y188874D01*
X293551Y188987D01*
X293579Y189100D01*
X293593Y189184D01*
X293621Y189255D01*
X293664Y189353D01*
X293678Y189424D01*
X293692Y189438D01*
X293804Y189621D01*
X293946Y189748D01*
X294072Y189847D01*
X294213Y189903D01*
X294326Y189946D01*
X294425Y189960D01*
X294481Y189974D01*
X294509D01*
X294608Y189960D01*
X294707Y189946D01*
X294862Y189875D01*
X294918Y189833D01*
X294960Y189804D01*
X294975Y189790D01*
X294989Y189776D01*
X295059Y189692D01*
X295116Y189607D01*
X295214Y189396D01*
X295242Y189311D01*
X295271Y189227D01*
X295285Y189170D01*
Y189156D01*
X297413Y189410D01*
X297329Y189635D01*
X297244Y189847D01*
X297160Y190016D01*
X297061Y190171D01*
X296990Y190284D01*
X296920Y190382D01*
X296878Y190439D01*
X296864Y190453D01*
X296723Y190594D01*
X296582Y190721D01*
X296427Y190834D01*
X296286Y190918D01*
X296159Y190989D01*
X296060Y191031D01*
X296004Y191059D01*
X295975Y191073D01*
X295764Y191144D01*
X295524Y191200D01*
X295285Y191242D01*
X295045Y191271D01*
X294848Y191285D01*
X294678Y191299D01*
D02*
G37*
G36*
X280229Y191172D02*
X275972D01*
Y183447D01*
X278368D01*
Y186576D01*
X278566D01*
X278692Y186562D01*
X278805Y186548D01*
X278904Y186520D01*
X278989Y186492D01*
X279059Y186450D01*
X279115Y186421D01*
X279144Y186407D01*
X279158Y186393D01*
X279228Y186323D01*
X279313Y186238D01*
X279454Y186041D01*
X279510Y185956D01*
X279552Y185872D01*
X279581Y185815D01*
X279595Y185801D01*
X280878Y183447D01*
X283584D01*
X282414Y185674D01*
X282372Y185745D01*
X282330Y185815D01*
X282217Y185984D01*
X282160Y186041D01*
X282118Y186097D01*
X282090Y186139D01*
X282076Y186153D01*
X281991Y186266D01*
X281907Y186351D01*
X281850Y186421D01*
X281794Y186478D01*
X281752Y186520D01*
X281723Y186548D01*
X281695Y186562D01*
X281611Y186619D01*
X281512Y186661D01*
X281315Y186760D01*
X281216Y186788D01*
X281145Y186816D01*
X281089Y186844D01*
X281075D01*
X281258Y186901D01*
X281427Y186943D01*
X281568Y186999D01*
X281695Y187041D01*
X281780Y187084D01*
X281850Y187126D01*
X281893Y187140D01*
X281907Y187154D01*
X282076Y187267D01*
X282231Y187394D01*
X282358Y187521D01*
X282470Y187634D01*
X282555Y187746D01*
X282626Y187831D01*
X282654Y187887D01*
X282668Y187901D01*
X282767Y188085D01*
X282837Y188282D01*
X282879Y188465D01*
X282922Y188634D01*
X282936Y188790D01*
X282950Y188902D01*
Y188987D01*
Y189015D01*
X282936Y189283D01*
X282893Y189523D01*
X282837Y189734D01*
X282767Y189917D01*
X282696Y190072D01*
X282640Y190185D01*
X282597Y190242D01*
X282583Y190270D01*
X282442Y190453D01*
X282287Y190594D01*
X282132Y190721D01*
X281977Y190819D01*
X281850Y190890D01*
X281737Y190932D01*
X281667Y190961D01*
X281639Y190975D01*
X281399Y191045D01*
X281131Y191087D01*
X280849Y191130D01*
X280581Y191144D01*
X280328Y191158D01*
X280229Y191172D01*
D02*
G37*
G36*
X271278D02*
X267570D01*
Y183447D01*
X271108D01*
X271362Y183461D01*
X271602Y183475D01*
X271856Y183503D01*
X272067Y183545D01*
X272264Y183588D01*
X272419Y183616D01*
X272476Y183630D01*
X272518D01*
X272532Y183644D01*
X272546D01*
X272758Y183715D01*
X272955Y183813D01*
X273124Y183912D01*
X273293Y184011D01*
X273420Y184109D01*
X273519Y184194D01*
X273575Y184250D01*
X273603Y184264D01*
X273787Y184448D01*
X273942Y184645D01*
X274083Y184828D01*
X274196Y185012D01*
X274280Y185167D01*
X274337Y185294D01*
X274379Y185378D01*
X274393Y185392D01*
Y185406D01*
X274492Y185688D01*
X274562Y185998D01*
X274618Y186323D01*
X274647Y186619D01*
X274675Y186901D01*
Y187013D01*
X274689Y187126D01*
Y187323D01*
X274675Y187619D01*
X274661Y187887D01*
X274633Y188141D01*
X274590Y188367D01*
X274548Y188550D01*
X274520Y188691D01*
X274506Y188747D01*
Y188790D01*
X274492Y188804D01*
Y188818D01*
X274407Y189072D01*
X274322Y189311D01*
X274224Y189523D01*
X274125Y189706D01*
X274026Y189861D01*
X273956Y189960D01*
X273900Y190030D01*
X273885Y190058D01*
X273716Y190242D01*
X273547Y190411D01*
X273364Y190552D01*
X273195Y190665D01*
X273040Y190763D01*
X272927Y190819D01*
X272842Y190862D01*
X272828Y190876D01*
X272814D01*
X272560Y190975D01*
X272278Y191045D01*
X271996Y191101D01*
X271714Y191130D01*
X271475Y191158D01*
X271376D01*
X271278Y191172D01*
D02*
G37*
G36*
X287334Y191299D02*
X287207D01*
X286911Y191285D01*
X286629Y191257D01*
X286375Y191214D01*
X286136Y191158D01*
X285924Y191087D01*
X285727Y191017D01*
X285544Y190932D01*
X285389Y190862D01*
X285248Y190777D01*
X285121Y190693D01*
X285022Y190622D01*
X284937Y190552D01*
X284867Y190495D01*
X284825Y190453D01*
X284797Y190425D01*
X284782Y190411D01*
X284641Y190228D01*
X284529Y190030D01*
X284416Y189804D01*
X284331Y189565D01*
X284190Y189057D01*
X284092Y188550D01*
X284063Y188310D01*
X284035Y188085D01*
X284021Y187873D01*
X284007Y187690D01*
X283993Y187549D01*
Y187338D01*
X284007Y187013D01*
X284021Y186703D01*
X284049Y186421D01*
X284078Y186182D01*
X284106Y185970D01*
X284120Y185815D01*
X284134Y185759D01*
X284148Y185716D01*
Y185702D01*
Y185688D01*
X284205Y185434D01*
X284275Y185195D01*
X284345Y184998D01*
X284416Y184842D01*
X284472Y184701D01*
X284529Y184617D01*
X284557Y184546D01*
X284571Y184532D01*
X284726Y184321D01*
X284895Y184138D01*
X285050Y183983D01*
X285219Y183856D01*
X285346Y183757D01*
X285459Y183686D01*
X285530Y183644D01*
X285558Y183630D01*
X285797Y183531D01*
X286065Y183447D01*
X286333Y183390D01*
X286587Y183362D01*
X286812Y183334D01*
X286897D01*
X286982Y183320D01*
X287151D01*
X287461Y183334D01*
X287757Y183362D01*
X288025Y183405D01*
X288264Y183475D01*
X288490Y183545D01*
X288687Y183630D01*
X288871Y183715D01*
X289026Y183813D01*
X289167Y183898D01*
X289279Y183983D01*
X289378Y184067D01*
X289463Y184138D01*
X289533Y184208D01*
X289575Y184250D01*
X289590Y184279D01*
X289604Y184293D01*
X289730Y184490D01*
X289843Y184701D01*
X289942Y184941D01*
X290026Y185181D01*
X290153Y185688D01*
X290238Y186196D01*
X290266Y186435D01*
X290280Y186647D01*
X290294Y186844D01*
X290308Y187027D01*
X290323Y187168D01*
Y187366D01*
X290308Y187704D01*
X290294Y188042D01*
X290252Y188339D01*
X290210Y188606D01*
X290168Y188832D01*
X290153Y188930D01*
X290139Y189001D01*
X290125Y189072D01*
X290111Y189114D01*
X290097Y189142D01*
Y189156D01*
X290055Y189325D01*
X289998Y189466D01*
X289956Y189607D01*
X289914Y189720D01*
X289872Y189819D01*
X289829Y189889D01*
X289815Y189931D01*
X289801Y189946D01*
X289646Y190199D01*
X289561Y190312D01*
X289477Y190397D01*
X289406Y190481D01*
X289350Y190538D01*
X289308Y190580D01*
X289293Y190594D01*
X289167Y190707D01*
X289040Y190805D01*
X288899Y190890D01*
X288772Y190961D01*
X288659Y191017D01*
X288560Y191073D01*
X288504Y191087D01*
X288476Y191101D01*
X288279Y191172D01*
X288067Y191214D01*
X287856Y191257D01*
X287658Y191271D01*
X287475Y191285D01*
X287334Y191299D01*
D02*
G37*
%LPD*%
G36*
X294664Y187253D02*
X294805Y187211D01*
X294932Y187154D01*
X295045Y187098D01*
X295130Y187027D01*
X295186Y186971D01*
X295228Y186929D01*
X295242Y186915D01*
X295341Y186774D01*
X295426Y186619D01*
X295482Y186450D01*
X295510Y186294D01*
X295538Y186153D01*
X295553Y186041D01*
Y185956D01*
Y185942D01*
Y185928D01*
X295538Y185702D01*
X295510Y185505D01*
X295454Y185350D01*
X295412Y185209D01*
X295355Y185110D01*
X295299Y185026D01*
X295271Y184983D01*
X295257Y184969D01*
X295144Y184871D01*
X295031Y184786D01*
X294904Y184730D01*
X294805Y184701D01*
X294707Y184673D01*
X294622Y184659D01*
X294552D01*
X294382Y184673D01*
X294227Y184715D01*
X294101Y184772D01*
X293988Y184842D01*
X293889Y184899D01*
X293819Y184955D01*
X293776Y184998D01*
X293762Y185012D01*
X293664Y185152D01*
X293579Y185308D01*
X293523Y185477D01*
X293494Y185632D01*
X293466Y185773D01*
X293452Y185886D01*
Y185956D01*
Y185984D01*
X293466Y186210D01*
X293494Y186393D01*
X293551Y186562D01*
X293607Y186689D01*
X293650Y186788D01*
X293706Y186872D01*
X293734Y186915D01*
X293748Y186929D01*
X293875Y187041D01*
X294002Y187126D01*
X294129Y187183D01*
X294242Y187225D01*
X294354Y187253D01*
X294439Y187267D01*
X294509D01*
X294664Y187253D01*
D02*
G37*
G36*
X279637Y189593D02*
X279834Y189579D01*
X279989Y189537D01*
X280116Y189508D01*
X280201Y189466D01*
X280271Y189424D01*
X280300Y189410D01*
X280314Y189396D01*
X280398Y189311D01*
X280455Y189227D01*
X280497Y189128D01*
X280525Y189043D01*
X280539Y188959D01*
X280553Y188888D01*
Y188846D01*
Y188832D01*
Y188733D01*
X280525Y188649D01*
X280483Y188508D01*
X280455Y188451D01*
X280427Y188423D01*
X280412Y188395D01*
X280398Y188381D01*
X280342Y188310D01*
X280271Y188254D01*
X280145Y188183D01*
X280088Y188169D01*
X280046Y188155D01*
X280018Y188141D01*
X280004D01*
X279848Y188113D01*
X279708Y188085D01*
X279595Y188071D01*
X279510Y188057D01*
X279454Y188042D01*
X278368D01*
Y189607D01*
X279412D01*
X279637Y189593D01*
D02*
G37*
G36*
X270869Y189410D02*
X271151Y189353D01*
X271376Y189283D01*
X271560Y189198D01*
X271700Y189100D01*
X271799Y189029D01*
X271870Y188973D01*
X271884Y188959D01*
X271954Y188860D01*
X272025Y188761D01*
X272123Y188508D01*
X272194Y188226D01*
X272236Y187958D01*
X272278Y187690D01*
Y187577D01*
X272292Y187479D01*
Y187394D01*
Y187338D01*
Y187295D01*
Y187281D01*
X272278Y186957D01*
X272264Y186689D01*
X272236Y186450D01*
X272208Y186266D01*
X272166Y186125D01*
X272137Y186027D01*
X272123Y185956D01*
X272109Y185942D01*
X272039Y185801D01*
X271954Y185674D01*
X271870Y185575D01*
X271785Y185505D01*
X271714Y185434D01*
X271658Y185392D01*
X271616Y185378D01*
X271602Y185364D01*
X271461Y185308D01*
X271306Y185279D01*
X271122Y185251D01*
X270953Y185223D01*
X270784D01*
X270657Y185209D01*
X269952D01*
Y189424D01*
X270544D01*
X270869Y189410D01*
D02*
G37*
G36*
X287320Y189847D02*
X287475Y189790D01*
X287616Y189706D01*
X287729Y189607D01*
X287813Y189508D01*
X287870Y189424D01*
X287912Y189368D01*
X287926Y189339D01*
X287968Y189227D01*
X288011Y189100D01*
X288053Y188945D01*
X288081Y188790D01*
X288123Y188451D01*
X288166Y188099D01*
X288180Y187789D01*
Y187634D01*
X288194Y187521D01*
Y187408D01*
Y187338D01*
Y187281D01*
Y187267D01*
Y186901D01*
X288180Y186590D01*
X288152Y186323D01*
X288137Y186111D01*
X288109Y185942D01*
X288081Y185829D01*
X288067Y185759D01*
Y185730D01*
X288025Y185561D01*
X287968Y185406D01*
X287912Y185294D01*
X287856Y185181D01*
X287799Y185110D01*
X287757Y185054D01*
X287729Y185026D01*
X287715Y185012D01*
X287616Y184941D01*
X287517Y184885D01*
X287433Y184842D01*
X287334Y184814D01*
X287264Y184800D01*
X287193Y184786D01*
X287137D01*
X286968Y184814D01*
X286812Y184871D01*
X286686Y184955D01*
X286573Y185054D01*
X286488Y185152D01*
X286432Y185237D01*
X286390Y185294D01*
X286375Y185322D01*
X286333Y185434D01*
X286291Y185561D01*
X286263Y185702D01*
X286234Y185857D01*
X286178Y186196D01*
X286150Y186534D01*
X286136Y186844D01*
Y186985D01*
X286122Y187098D01*
Y187197D01*
Y187267D01*
Y187323D01*
Y187338D01*
Y187605D01*
X286136Y187845D01*
X286150Y188057D01*
X286164Y188268D01*
X286178Y188437D01*
X286192Y188606D01*
X286220Y188747D01*
X286248Y188874D01*
X286263Y188987D01*
X286291Y189086D01*
X286305Y189156D01*
X286319Y189212D01*
X286333Y189269D01*
X286347Y189297D01*
X286361Y189325D01*
X286460Y189508D01*
X286587Y189650D01*
X286714Y189748D01*
X286841Y189804D01*
X286953Y189847D01*
X287052Y189861D01*
X287108Y189875D01*
X287137D01*
X287320Y189847D01*
D02*
G37*
%LPC*%
G36*
X76570Y390921D02*
X74794D01*
X74653Y390653D01*
X74498Y390413D01*
X74343Y390202D01*
X74188Y390033D01*
X74047Y389878D01*
X73934Y389765D01*
X73864Y389708D01*
X73850Y389680D01*
X73836D01*
X73596Y389497D01*
X73314Y389342D01*
X73032Y389201D01*
X72764Y389074D01*
X72524Y388975D01*
X72412Y388933D01*
X72327Y388891D01*
X72243Y388877D01*
X72186Y388848D01*
X72158Y388834D01*
X72144D01*
Y387086D01*
X72412Y387171D01*
X72651Y387242D01*
X72849Y387326D01*
X73032Y387397D01*
X73173Y387453D01*
X73286Y387495D01*
X73342Y387523D01*
X73370Y387537D01*
X73554Y387636D01*
X73737Y387749D01*
X73920Y387862D01*
X74075Y387960D01*
X74202Y388059D01*
X74315Y388130D01*
X74371Y388186D01*
X74399Y388200D01*
Y383069D01*
X76570D01*
Y390921D01*
D02*
G37*
G36*
X60725Y390794D02*
X56468D01*
Y383069D01*
X58864D01*
Y386198D01*
X59062D01*
X59189Y386184D01*
X59302Y386170D01*
X59400Y386142D01*
X59485Y386114D01*
X59555Y386071D01*
X59612Y386043D01*
X59640Y386029D01*
X59654Y386015D01*
X59724Y385945D01*
X59809Y385860D01*
X59950Y385663D01*
X60006Y385578D01*
X60049Y385493D01*
X60077Y385437D01*
X60091Y385423D01*
X61374Y383069D01*
X64080D01*
X62910Y385296D01*
X62868Y385367D01*
X62826Y385437D01*
X62713Y385606D01*
X62657Y385663D01*
X62614Y385719D01*
X62586Y385761D01*
X62572Y385775D01*
X62487Y385888D01*
X62403Y385973D01*
X62347Y386043D01*
X62290Y386100D01*
X62248Y386142D01*
X62220Y386170D01*
X62191Y386184D01*
X62107Y386241D01*
X62008Y386283D01*
X61811Y386381D01*
X61712Y386410D01*
X61642Y386438D01*
X61585Y386466D01*
X61571D01*
X61754Y386522D01*
X61923Y386565D01*
X62064Y386621D01*
X62191Y386664D01*
X62276Y386706D01*
X62347Y386748D01*
X62389Y386762D01*
X62403Y386776D01*
X62572Y386889D01*
X62727Y387016D01*
X62854Y387143D01*
X62967Y387256D01*
X63051Y387368D01*
X63122Y387453D01*
X63150Y387509D01*
X63164Y387523D01*
X63263Y387707D01*
X63333Y387904D01*
X63376Y388087D01*
X63418Y388256D01*
X63432Y388411D01*
X63446Y388524D01*
Y388609D01*
Y388637D01*
X63432Y388905D01*
X63390Y389145D01*
X63333Y389356D01*
X63263Y389539D01*
X63192Y389694D01*
X63136Y389807D01*
X63094Y389864D01*
X63080Y389892D01*
X62938Y390075D01*
X62783Y390216D01*
X62628Y390343D01*
X62473Y390442D01*
X62347Y390512D01*
X62234Y390554D01*
X62163Y390583D01*
X62135Y390597D01*
X61895Y390667D01*
X61627Y390709D01*
X61346Y390752D01*
X61078Y390766D01*
X60824Y390780D01*
X60725Y390794D01*
D02*
G37*
G36*
X51774D02*
X48066D01*
Y383069D01*
X51604D01*
X51858Y383083D01*
X52098Y383097D01*
X52352Y383125D01*
X52563Y383167D01*
X52761Y383210D01*
X52916Y383238D01*
X52972Y383252D01*
X53014D01*
X53028Y383266D01*
X53042D01*
X53254Y383337D01*
X53451Y383435D01*
X53620Y383534D01*
X53790Y383633D01*
X53917Y383731D01*
X54015Y383816D01*
X54071Y383872D01*
X54100Y383886D01*
X54283Y384070D01*
X54438Y384267D01*
X54579Y384450D01*
X54692Y384633D01*
X54776Y384789D01*
X54833Y384916D01*
X54875Y385000D01*
X54889Y385014D01*
Y385028D01*
X54988Y385310D01*
X55058Y385620D01*
X55115Y385945D01*
X55143Y386241D01*
X55171Y386522D01*
Y386635D01*
X55185Y386748D01*
Y386945D01*
X55171Y387242D01*
X55157Y387509D01*
X55129Y387763D01*
X55086Y387989D01*
X55044Y388172D01*
X55016Y388313D01*
X55002Y388369D01*
Y388411D01*
X54988Y388426D01*
Y388440D01*
X54903Y388694D01*
X54819Y388933D01*
X54720Y389145D01*
X54621Y389328D01*
X54523Y389483D01*
X54452Y389582D01*
X54396Y389652D01*
X54382Y389680D01*
X54212Y389864D01*
X54043Y390033D01*
X53860Y390174D01*
X53691Y390286D01*
X53536Y390385D01*
X53423Y390442D01*
X53338Y390484D01*
X53324Y390498D01*
X53310D01*
X53057Y390597D01*
X52775Y390667D01*
X52493Y390723D01*
X52211Y390752D01*
X51971Y390780D01*
X51872D01*
X51774Y390794D01*
D02*
G37*
G36*
X67830Y390921D02*
X67703D01*
X67407Y390907D01*
X67125Y390878D01*
X66872Y390836D01*
X66632Y390780D01*
X66420Y390709D01*
X66223Y390639D01*
X66040Y390554D01*
X65885Y390484D01*
X65744Y390399D01*
X65617Y390315D01*
X65518Y390244D01*
X65434Y390174D01*
X65363Y390117D01*
X65321Y390075D01*
X65293Y390047D01*
X65279Y390033D01*
X65138Y389849D01*
X65025Y389652D01*
X64912Y389426D01*
X64827Y389187D01*
X64687Y388679D01*
X64588Y388172D01*
X64560Y387932D01*
X64531Y387707D01*
X64517Y387495D01*
X64503Y387312D01*
X64489Y387171D01*
Y386959D01*
X64503Y386635D01*
X64517Y386325D01*
X64546Y386043D01*
X64574Y385804D01*
X64602Y385592D01*
X64616Y385437D01*
X64630Y385381D01*
X64644Y385338D01*
Y385324D01*
Y385310D01*
X64701Y385056D01*
X64771Y384817D01*
X64842Y384619D01*
X64912Y384464D01*
X64969Y384323D01*
X65025Y384239D01*
X65053Y384168D01*
X65067Y384154D01*
X65222Y383943D01*
X65391Y383759D01*
X65546Y383604D01*
X65716Y383478D01*
X65842Y383379D01*
X65955Y383308D01*
X66026Y383266D01*
X66054Y383252D01*
X66294Y383153D01*
X66561Y383069D01*
X66829Y383012D01*
X67083Y382984D01*
X67309Y382956D01*
X67393D01*
X67478Y382942D01*
X67647D01*
X67957Y382956D01*
X68253Y382984D01*
X68521Y383027D01*
X68761Y383097D01*
X68986Y383167D01*
X69184Y383252D01*
X69367Y383337D01*
X69522Y383435D01*
X69663Y383520D01*
X69776Y383604D01*
X69874Y383689D01*
X69959Y383759D01*
X70029Y383830D01*
X70072Y383872D01*
X70086Y383900D01*
X70100Y383915D01*
X70227Y384112D01*
X70339Y384323D01*
X70438Y384563D01*
X70523Y384803D01*
X70650Y385310D01*
X70734Y385818D01*
X70762Y386057D01*
X70777Y386269D01*
X70791Y386466D01*
X70805Y386649D01*
X70819Y386790D01*
Y386988D01*
X70805Y387326D01*
X70791Y387664D01*
X70748Y387960D01*
X70706Y388228D01*
X70664Y388454D01*
X70650Y388553D01*
X70635Y388623D01*
X70621Y388694D01*
X70607Y388736D01*
X70593Y388764D01*
Y388778D01*
X70551Y388947D01*
X70494Y389088D01*
X70452Y389229D01*
X70410Y389342D01*
X70368Y389441D01*
X70325Y389511D01*
X70311Y389553D01*
X70297Y389567D01*
X70142Y389821D01*
X70058Y389934D01*
X69973Y390019D01*
X69903Y390103D01*
X69846Y390159D01*
X69804Y390202D01*
X69790Y390216D01*
X69663Y390329D01*
X69536Y390427D01*
X69395Y390512D01*
X69268Y390583D01*
X69155Y390639D01*
X69057Y390695D01*
X69000Y390709D01*
X68972Y390723D01*
X68775Y390794D01*
X68563Y390836D01*
X68352Y390878D01*
X68154Y390893D01*
X67971Y390907D01*
X67830Y390921D01*
D02*
G37*
%LPD*%
G36*
X60133Y389215D02*
X60331Y389201D01*
X60486Y389159D01*
X60613Y389131D01*
X60697Y389088D01*
X60768Y389046D01*
X60796Y389032D01*
X60810Y389018D01*
X60894Y388933D01*
X60951Y388848D01*
X60993Y388750D01*
X61021Y388665D01*
X61035Y388581D01*
X61049Y388510D01*
Y388468D01*
Y388454D01*
Y388355D01*
X61021Y388270D01*
X60979Y388130D01*
X60951Y388073D01*
X60923Y388045D01*
X60909Y388017D01*
X60894Y388003D01*
X60838Y387932D01*
X60768Y387876D01*
X60641Y387805D01*
X60584Y387791D01*
X60542Y387777D01*
X60514Y387763D01*
X60500D01*
X60345Y387735D01*
X60204Y387707D01*
X60091Y387693D01*
X60006Y387678D01*
X59950Y387664D01*
X58864D01*
Y389229D01*
X59908D01*
X60133Y389215D01*
D02*
G37*
G36*
X51365Y389032D02*
X51647Y388975D01*
X51872Y388905D01*
X52056Y388820D01*
X52197Y388722D01*
X52295Y388651D01*
X52366Y388595D01*
X52380Y388581D01*
X52450Y388482D01*
X52521Y388383D01*
X52620Y388130D01*
X52690Y387848D01*
X52732Y387580D01*
X52775Y387312D01*
Y387199D01*
X52789Y387100D01*
Y387016D01*
Y386959D01*
Y386917D01*
Y386903D01*
X52775Y386579D01*
X52761Y386311D01*
X52732Y386071D01*
X52704Y385888D01*
X52662Y385747D01*
X52634Y385648D01*
X52620Y385578D01*
X52605Y385564D01*
X52535Y385423D01*
X52450Y385296D01*
X52366Y385197D01*
X52281Y385127D01*
X52211Y385056D01*
X52154Y385014D01*
X52112Y385000D01*
X52098Y384986D01*
X51957Y384930D01*
X51802Y384901D01*
X51619Y384873D01*
X51449Y384845D01*
X51280D01*
X51153Y384831D01*
X50449D01*
Y389046D01*
X51041D01*
X51365Y389032D01*
D02*
G37*
G36*
X67816Y389469D02*
X67971Y389412D01*
X68112Y389328D01*
X68225Y389229D01*
X68309Y389131D01*
X68366Y389046D01*
X68408Y388989D01*
X68422Y388961D01*
X68465Y388848D01*
X68507Y388722D01*
X68549Y388567D01*
X68577Y388411D01*
X68620Y388073D01*
X68662Y387721D01*
X68676Y387411D01*
Y387256D01*
X68690Y387143D01*
Y387030D01*
Y386959D01*
Y386903D01*
Y386889D01*
Y386522D01*
X68676Y386212D01*
X68648Y385945D01*
X68634Y385733D01*
X68605Y385564D01*
X68577Y385451D01*
X68563Y385381D01*
Y385353D01*
X68521Y385183D01*
X68465Y385028D01*
X68408Y384916D01*
X68352Y384803D01*
X68295Y384732D01*
X68253Y384676D01*
X68225Y384648D01*
X68211Y384633D01*
X68112Y384563D01*
X68014Y384507D01*
X67929Y384464D01*
X67830Y384436D01*
X67760Y384422D01*
X67689Y384408D01*
X67633D01*
X67464Y384436D01*
X67309Y384493D01*
X67182Y384577D01*
X67069Y384676D01*
X66984Y384775D01*
X66928Y384859D01*
X66886Y384916D01*
X66872Y384944D01*
X66829Y385056D01*
X66787Y385183D01*
X66759Y385324D01*
X66731Y385479D01*
X66674Y385818D01*
X66646Y386156D01*
X66632Y386466D01*
Y386607D01*
X66618Y386720D01*
Y386819D01*
Y386889D01*
Y386945D01*
Y386959D01*
Y387227D01*
X66632Y387467D01*
X66646Y387678D01*
X66660Y387890D01*
X66674Y388059D01*
X66688Y388228D01*
X66716Y388369D01*
X66745Y388496D01*
X66759Y388609D01*
X66787Y388708D01*
X66801Y388778D01*
X66815Y388834D01*
X66829Y388891D01*
X66843Y388919D01*
X66858Y388947D01*
X66956Y389131D01*
X67083Y389271D01*
X67210Y389370D01*
X67337Y389426D01*
X67450Y389469D01*
X67548Y389483D01*
X67605Y389497D01*
X67633D01*
X67816Y389469D01*
D02*
G37*
%LPC*%
G36*
X716326Y227817D02*
X713901D01*
X712181Y222249D01*
X710447Y227817D01*
X707952D01*
X710870Y220092D01*
X713450D01*
X716326Y227817D01*
D02*
G37*
G36*
X706740Y227944D02*
X704865D01*
X700946Y223292D01*
Y221530D01*
X704865D01*
Y220092D01*
X706740D01*
Y221530D01*
X707713D01*
Y223194D01*
X706740D01*
Y227944D01*
D02*
G37*
G36*
X697253D02*
X697069D01*
X696689Y227930D01*
X696350Y227902D01*
X696054Y227860D01*
X695815Y227803D01*
X695617Y227747D01*
X695476Y227705D01*
X695392Y227677D01*
X695378Y227662D01*
X695364D01*
X695138Y227550D01*
X694955Y227423D01*
X694786Y227296D01*
X694659Y227169D01*
X694546Y227056D01*
X694461Y226972D01*
X694419Y226915D01*
X694405Y226887D01*
X694292Y226676D01*
X694194Y226450D01*
X694123Y226224D01*
X694053Y225999D01*
X694010Y225788D01*
X693982Y225632D01*
X693968Y225562D01*
X693954Y225520D01*
Y225492D01*
Y225477D01*
X696111Y225308D01*
X696153Y225534D01*
X696195Y225717D01*
X696252Y225872D01*
X696308Y225999D01*
X696365Y226098D01*
X696407Y226168D01*
X696435Y226196D01*
X696449Y226210D01*
X696562Y226295D01*
X696675Y226366D01*
X696787Y226408D01*
X696886Y226450D01*
X696985Y226464D01*
X697055Y226478D01*
X697126D01*
X697267Y226464D01*
X697394Y226436D01*
X697506Y226394D01*
X697605Y226351D01*
X697690Y226309D01*
X697746Y226267D01*
X697774Y226239D01*
X697788Y226224D01*
X697873Y226126D01*
X697943Y226027D01*
X697986Y225928D01*
X698028Y225830D01*
X698042Y225745D01*
X698056Y225675D01*
Y225632D01*
Y225618D01*
X698042Y225492D01*
X698014Y225379D01*
X697972Y225252D01*
X697929Y225153D01*
X697873Y225054D01*
X697831Y224984D01*
X697802Y224942D01*
X697788Y224928D01*
X697732Y224857D01*
X697661Y224772D01*
X697492Y224603D01*
X697281Y224434D01*
X697083Y224251D01*
X696886Y224096D01*
X696731Y223969D01*
X696661Y223927D01*
X696618Y223884D01*
X696590Y223870D01*
X696576Y223856D01*
X696294Y223645D01*
X696040Y223447D01*
X695801Y223250D01*
X695589Y223067D01*
X695392Y222883D01*
X695223Y222729D01*
X695068Y222573D01*
X694941Y222432D01*
X694828Y222306D01*
X694715Y222193D01*
X694645Y222094D01*
X694574Y222024D01*
X694518Y221953D01*
X694490Y221911D01*
X694475Y221883D01*
X694461Y221868D01*
X694278Y221558D01*
X694123Y221234D01*
X694010Y220938D01*
X693926Y220670D01*
X693855Y220431D01*
X693841Y220332D01*
X693827Y220247D01*
X693813Y220191D01*
X693799Y220135D01*
Y220092D01*
X700255D01*
Y221840D01*
X696886D01*
X697097Y222024D01*
X697253Y222179D01*
X697309Y222221D01*
X697351Y222263D01*
X697380Y222277D01*
X697394Y222292D01*
X697492Y222376D01*
X697619Y222475D01*
X697774Y222573D01*
X697915Y222672D01*
X698056Y222771D01*
X698169Y222855D01*
X698239Y222912D01*
X698268Y222926D01*
X698465Y223067D01*
X698648Y223208D01*
X698817Y223349D01*
X698972Y223476D01*
X699099Y223603D01*
X699226Y223715D01*
X699438Y223927D01*
X699593Y224096D01*
X699691Y224223D01*
X699762Y224307D01*
X699776Y224335D01*
X699917Y224575D01*
X700016Y224815D01*
X700100Y225054D01*
X700143Y225252D01*
X700171Y225435D01*
X700199Y225576D01*
Y225618D01*
Y225661D01*
Y225675D01*
Y225689D01*
X700185Y225928D01*
X700143Y226154D01*
X700086Y226366D01*
X700016Y226535D01*
X699945Y226690D01*
X699889Y226788D01*
X699846Y226859D01*
X699832Y226887D01*
X699691Y227070D01*
X699522Y227239D01*
X699353Y227366D01*
X699198Y227479D01*
X699057Y227564D01*
X698930Y227634D01*
X698860Y227662D01*
X698846Y227677D01*
X698831D01*
X698578Y227761D01*
X698296Y227832D01*
X698000Y227874D01*
X697718Y227916D01*
X697464Y227930D01*
X697351D01*
X697253Y227944D01*
D02*
G37*
%LPD*%
G36*
X704865Y223194D02*
X702779D01*
X704865Y225632D01*
Y223194D01*
D02*
G37*
%LPC*%
G36*
X426571Y190657D02*
X424795D01*
X424654Y190389D01*
X424499Y190149D01*
X424344Y189938D01*
X424189Y189769D01*
X424048Y189613D01*
X423935Y189501D01*
X423864Y189444D01*
X423850Y189416D01*
X423836D01*
X423596Y189233D01*
X423315Y189078D01*
X423033Y188937D01*
X422765Y188810D01*
X422525Y188711D01*
X422412Y188669D01*
X422328Y188627D01*
X422243Y188613D01*
X422187Y188584D01*
X422159Y188570D01*
X422145D01*
Y186822D01*
X422412Y186907D01*
X422652Y186977D01*
X422849Y187062D01*
X423033Y187132D01*
X423174Y187189D01*
X423286Y187231D01*
X423343Y187259D01*
X423371Y187273D01*
X423554Y187372D01*
X423737Y187485D01*
X423921Y187598D01*
X424076Y187696D01*
X424203Y187795D01*
X424315Y187866D01*
X424372Y187922D01*
X424400Y187936D01*
Y182805D01*
X426571D01*
Y190657D01*
D02*
G37*
G36*
X419367D02*
X417591D01*
X417450Y190389D01*
X417295Y190149D01*
X417140Y189938D01*
X416985Y189769D01*
X416844Y189613D01*
X416731Y189501D01*
X416661Y189444D01*
X416647Y189416D01*
X416633D01*
X416393Y189233D01*
X416111Y189078D01*
X415829Y188937D01*
X415561Y188810D01*
X415322Y188711D01*
X415209Y188669D01*
X415124Y188627D01*
X415040Y188613D01*
X414983Y188584D01*
X414955Y188570D01*
X414941D01*
Y186822D01*
X415209Y186907D01*
X415448Y186977D01*
X415646Y187062D01*
X415829Y187132D01*
X415970Y187189D01*
X416083Y187231D01*
X416139Y187259D01*
X416167Y187273D01*
X416351Y187372D01*
X416534Y187485D01*
X416717Y187598D01*
X416872Y187696D01*
X416999Y187795D01*
X417112Y187866D01*
X417168Y187922D01*
X417197Y187936D01*
Y182805D01*
X419367D01*
Y190657D01*
D02*
G37*
G36*
X410726Y190530D02*
X406469D01*
Y182805D01*
X408865D01*
Y185934D01*
X409062D01*
X409189Y185920D01*
X409302Y185906D01*
X409401Y185878D01*
X409485Y185850D01*
X409556Y185807D01*
X409612Y185779D01*
X409641Y185765D01*
X409655Y185751D01*
X409725Y185681D01*
X409810Y185596D01*
X409951Y185399D01*
X410007Y185314D01*
X410049Y185229D01*
X410078Y185173D01*
X410092Y185159D01*
X411374Y182805D01*
X414081D01*
X412911Y185032D01*
X412869Y185103D01*
X412826Y185173D01*
X412714Y185342D01*
X412657Y185399D01*
X412615Y185455D01*
X412587Y185497D01*
X412573Y185511D01*
X412488Y185624D01*
X412403Y185709D01*
X412347Y185779D01*
X412291Y185835D01*
X412248Y185878D01*
X412220Y185906D01*
X412192Y185920D01*
X412108Y185977D01*
X412009Y186019D01*
X411811Y186117D01*
X411713Y186146D01*
X411642Y186174D01*
X411586Y186202D01*
X411572D01*
X411755Y186258D01*
X411924Y186301D01*
X412065Y186357D01*
X412192Y186399D01*
X412277Y186442D01*
X412347Y186484D01*
X412389Y186498D01*
X412403Y186512D01*
X412573Y186625D01*
X412728Y186752D01*
X412855Y186879D01*
X412967Y186992D01*
X413052Y187104D01*
X413122Y187189D01*
X413151Y187245D01*
X413165Y187259D01*
X413263Y187443D01*
X413334Y187640D01*
X413376Y187823D01*
X413419Y187992D01*
X413433Y188147D01*
X413447Y188260D01*
Y188345D01*
Y188373D01*
X413433Y188641D01*
X413390Y188881D01*
X413334Y189092D01*
X413263Y189275D01*
X413193Y189430D01*
X413137Y189543D01*
X413094Y189599D01*
X413080Y189628D01*
X412939Y189811D01*
X412784Y189952D01*
X412629Y190079D01*
X412474Y190177D01*
X412347Y190248D01*
X412234Y190290D01*
X412164Y190318D01*
X412136Y190333D01*
X411896Y190403D01*
X411628Y190445D01*
X411346Y190487D01*
X411078Y190502D01*
X410825Y190516D01*
X410726Y190530D01*
D02*
G37*
G36*
X401774D02*
X398067D01*
Y182805D01*
X401605D01*
X401859Y182819D01*
X402099Y182833D01*
X402352Y182861D01*
X402564Y182903D01*
X402761Y182946D01*
X402916Y182974D01*
X402973Y182988D01*
X403015D01*
X403029Y183002D01*
X403043D01*
X403255Y183072D01*
X403452Y183171D01*
X403621Y183270D01*
X403790Y183368D01*
X403917Y183467D01*
X404016Y183552D01*
X404072Y183608D01*
X404100Y183622D01*
X404284Y183806D01*
X404439Y184003D01*
X404580Y184186D01*
X404692Y184369D01*
X404777Y184524D01*
X404833Y184651D01*
X404876Y184736D01*
X404890Y184750D01*
Y184764D01*
X404989Y185046D01*
X405059Y185356D01*
X405115Y185681D01*
X405144Y185977D01*
X405172Y186258D01*
Y186371D01*
X405186Y186484D01*
Y186681D01*
X405172Y186977D01*
X405158Y187245D01*
X405130Y187499D01*
X405087Y187724D01*
X405045Y187908D01*
X405017Y188049D01*
X405003Y188105D01*
Y188147D01*
X404989Y188162D01*
Y188176D01*
X404904Y188429D01*
X404819Y188669D01*
X404721Y188881D01*
X404622Y189064D01*
X404523Y189219D01*
X404453Y189317D01*
X404396Y189388D01*
X404382Y189416D01*
X404213Y189599D01*
X404044Y189769D01*
X403861Y189910D01*
X403692Y190022D01*
X403536Y190121D01*
X403424Y190177D01*
X403339Y190220D01*
X403325Y190234D01*
X403311D01*
X403057Y190333D01*
X402775Y190403D01*
X402493Y190459D01*
X402211Y190487D01*
X401972Y190516D01*
X401873D01*
X401774Y190530D01*
D02*
G37*
%LPD*%
G36*
X410134Y188951D02*
X410331Y188937D01*
X410486Y188895D01*
X410613Y188866D01*
X410698Y188824D01*
X410768Y188782D01*
X410797Y188768D01*
X410811Y188754D01*
X410895Y188669D01*
X410951Y188584D01*
X410994Y188486D01*
X411022Y188401D01*
X411036Y188317D01*
X411050Y188246D01*
Y188204D01*
Y188190D01*
Y188091D01*
X411022Y188006D01*
X410980Y187866D01*
X410951Y187809D01*
X410923Y187781D01*
X410909Y187753D01*
X410895Y187739D01*
X410839Y187668D01*
X410768Y187612D01*
X410641Y187541D01*
X410585Y187527D01*
X410543Y187513D01*
X410514Y187499D01*
X410500D01*
X410345Y187471D01*
X410204Y187443D01*
X410092Y187428D01*
X410007Y187414D01*
X409951Y187400D01*
X408865D01*
Y188965D01*
X409908D01*
X410134Y188951D01*
D02*
G37*
G36*
X401366Y188768D02*
X401647Y188711D01*
X401873Y188641D01*
X402056Y188556D01*
X402197Y188458D01*
X402296Y188387D01*
X402366Y188331D01*
X402381Y188317D01*
X402451Y188218D01*
X402522Y188119D01*
X402620Y187866D01*
X402691Y187584D01*
X402733Y187316D01*
X402775Y187048D01*
Y186935D01*
X402789Y186836D01*
Y186752D01*
Y186695D01*
Y186653D01*
Y186639D01*
X402775Y186315D01*
X402761Y186047D01*
X402733Y185807D01*
X402705Y185624D01*
X402663Y185483D01*
X402634Y185384D01*
X402620Y185314D01*
X402606Y185300D01*
X402536Y185159D01*
X402451Y185032D01*
X402366Y184933D01*
X402282Y184863D01*
X402211Y184792D01*
X402155Y184750D01*
X402113Y184736D01*
X402099Y184722D01*
X401958Y184666D01*
X401803Y184637D01*
X401619Y184609D01*
X401450Y184581D01*
X401281D01*
X401154Y184567D01*
X400449D01*
Y188782D01*
X401041D01*
X401366Y188768D01*
D02*
G37*
%LPC*%
G36*
X639153Y291299D02*
X637377D01*
X637236Y291031D01*
X637080Y290791D01*
X636925Y290580D01*
X636770Y290411D01*
X636629Y290256D01*
X636517Y290143D01*
X636446Y290086D01*
X636432Y290058D01*
X636418D01*
X636178Y289875D01*
X635896Y289720D01*
X635614Y289579D01*
X635347Y289452D01*
X635107Y289353D01*
X634994Y289311D01*
X634910Y289269D01*
X634825Y289255D01*
X634769Y289227D01*
X634740Y289212D01*
X634726D01*
Y287464D01*
X634994Y287549D01*
X635234Y287619D01*
X635431Y287704D01*
X635614Y287775D01*
X635755Y287831D01*
X635868Y287873D01*
X635925Y287901D01*
X635953Y287916D01*
X636136Y288014D01*
X636319Y288127D01*
X636502Y288240D01*
X636658Y288339D01*
X636785Y288437D01*
X636897Y288508D01*
X636954Y288564D01*
X636982Y288578D01*
Y283447D01*
X639153D01*
Y291299D01*
D02*
G37*
G36*
X630511Y291172D02*
X626254D01*
Y283447D01*
X628651D01*
Y286576D01*
X628848D01*
X628975Y286562D01*
X629087Y286548D01*
X629186Y286520D01*
X629271Y286492D01*
X629341Y286450D01*
X629398Y286421D01*
X629426Y286407D01*
X629440Y286393D01*
X629510Y286323D01*
X629595Y286238D01*
X629736Y286041D01*
X629792Y285956D01*
X629835Y285872D01*
X629863Y285815D01*
X629877Y285801D01*
X631160Y283447D01*
X633866D01*
X632696Y285674D01*
X632654Y285745D01*
X632612Y285815D01*
X632499Y285984D01*
X632443Y286041D01*
X632400Y286097D01*
X632372Y286139D01*
X632358Y286153D01*
X632273Y286266D01*
X632189Y286351D01*
X632132Y286421D01*
X632076Y286478D01*
X632034Y286520D01*
X632006Y286548D01*
X631977Y286562D01*
X631893Y286619D01*
X631794Y286661D01*
X631597Y286760D01*
X631498Y286788D01*
X631428Y286816D01*
X631371Y286844D01*
X631357D01*
X631540Y286901D01*
X631710Y286943D01*
X631851Y286999D01*
X631977Y287041D01*
X632062Y287084D01*
X632132Y287126D01*
X632175Y287140D01*
X632189Y287154D01*
X632358Y287267D01*
X632513Y287394D01*
X632640Y287521D01*
X632753Y287634D01*
X632837Y287746D01*
X632908Y287831D01*
X632936Y287887D01*
X632950Y287901D01*
X633049Y288085D01*
X633119Y288282D01*
X633162Y288465D01*
X633204Y288634D01*
X633218Y288790D01*
X633232Y288902D01*
Y288987D01*
Y289015D01*
X633218Y289283D01*
X633176Y289523D01*
X633119Y289734D01*
X633049Y289917D01*
X632978Y290072D01*
X632922Y290185D01*
X632880Y290242D01*
X632865Y290270D01*
X632724Y290453D01*
X632570Y290594D01*
X632414Y290721D01*
X632259Y290819D01*
X632132Y290890D01*
X632020Y290932D01*
X631949Y290961D01*
X631921Y290975D01*
X631681Y291045D01*
X631413Y291087D01*
X631132Y291130D01*
X630864Y291144D01*
X630610Y291158D01*
X630511Y291172D01*
D02*
G37*
G36*
X621560D02*
X617852D01*
Y283447D01*
X621391D01*
X621644Y283461D01*
X621884Y283475D01*
X622138Y283503D01*
X622349Y283545D01*
X622547Y283588D01*
X622702Y283616D01*
X622758Y283630D01*
X622800D01*
X622814Y283644D01*
X622828D01*
X623040Y283715D01*
X623237Y283813D01*
X623406Y283912D01*
X623576Y284011D01*
X623703Y284109D01*
X623801Y284194D01*
X623857Y284250D01*
X623886Y284264D01*
X624069Y284448D01*
X624224Y284645D01*
X624365Y284828D01*
X624478Y285012D01*
X624562Y285167D01*
X624619Y285294D01*
X624661Y285378D01*
X624675Y285392D01*
Y285406D01*
X624774Y285688D01*
X624844Y285998D01*
X624901Y286323D01*
X624929Y286619D01*
X624957Y286901D01*
Y287013D01*
X624971Y287126D01*
Y287323D01*
X624957Y287619D01*
X624943Y287887D01*
X624915Y288141D01*
X624873Y288367D01*
X624830Y288550D01*
X624802Y288691D01*
X624788Y288747D01*
Y288790D01*
X624774Y288804D01*
Y288818D01*
X624689Y289072D01*
X624605Y289311D01*
X624506Y289523D01*
X624407Y289706D01*
X624309Y289861D01*
X624238Y289960D01*
X624182Y290030D01*
X624168Y290058D01*
X623998Y290242D01*
X623829Y290411D01*
X623646Y290552D01*
X623477Y290665D01*
X623322Y290763D01*
X623209Y290819D01*
X623125Y290862D01*
X623110Y290876D01*
X623096D01*
X622842Y290975D01*
X622561Y291045D01*
X622279Y291101D01*
X621997Y291130D01*
X621757Y291158D01*
X621658D01*
X621560Y291172D01*
D02*
G37*
G36*
X644820Y291299D02*
X644693D01*
X644397Y291285D01*
X644115Y291257D01*
X643861Y291214D01*
X643622Y291158D01*
X643410Y291087D01*
X643213Y291017D01*
X643029Y290932D01*
X642874Y290862D01*
X642733Y290777D01*
X642607Y290693D01*
X642508Y290622D01*
X642423Y290552D01*
X642353Y290495D01*
X642310Y290453D01*
X642282Y290425D01*
X642268Y290411D01*
X642127Y290228D01*
X642014Y290030D01*
X641902Y289805D01*
X641817Y289565D01*
X641676Y289057D01*
X641578Y288550D01*
X641549Y288310D01*
X641521Y288085D01*
X641507Y287873D01*
X641493Y287690D01*
X641479Y287549D01*
Y287338D01*
X641493Y287013D01*
X641507Y286703D01*
X641535Y286421D01*
X641563Y286182D01*
X641592Y285970D01*
X641606Y285815D01*
X641620Y285759D01*
X641634Y285716D01*
Y285702D01*
Y285688D01*
X641690Y285434D01*
X641761Y285195D01*
X641831Y284998D01*
X641902Y284842D01*
X641958Y284701D01*
X642014Y284617D01*
X642043Y284546D01*
X642057Y284532D01*
X642212Y284321D01*
X642381Y284138D01*
X642536Y283983D01*
X642705Y283856D01*
X642832Y283757D01*
X642945Y283687D01*
X643015Y283644D01*
X643044Y283630D01*
X643283Y283531D01*
X643551Y283447D01*
X643819Y283390D01*
X644073Y283362D01*
X644298Y283334D01*
X644383D01*
X644467Y283320D01*
X644637D01*
X644947Y283334D01*
X645243Y283362D01*
X645510Y283405D01*
X645750Y283475D01*
X645976Y283545D01*
X646173Y283630D01*
X646356Y283715D01*
X646511Y283813D01*
X646652Y283898D01*
X646765Y283983D01*
X646864Y284067D01*
X646948Y284138D01*
X647019Y284208D01*
X647061Y284250D01*
X647075Y284279D01*
X647089Y284293D01*
X647216Y284490D01*
X647329Y284701D01*
X647428Y284941D01*
X647512Y285181D01*
X647639Y285688D01*
X647724Y286196D01*
X647752Y286435D01*
X647766Y286647D01*
X647780Y286844D01*
X647794Y287027D01*
X647808Y287168D01*
Y287366D01*
X647794Y287704D01*
X647780Y288042D01*
X647738Y288339D01*
X647696Y288606D01*
X647653Y288832D01*
X647639Y288930D01*
X647625Y289001D01*
X647611Y289072D01*
X647597Y289114D01*
X647583Y289142D01*
Y289156D01*
X647541Y289325D01*
X647484Y289466D01*
X647442Y289607D01*
X647400Y289720D01*
X647357Y289819D01*
X647315Y289889D01*
X647301Y289931D01*
X647287Y289946D01*
X647132Y290199D01*
X647047Y290312D01*
X646963Y290397D01*
X646892Y290481D01*
X646836Y290538D01*
X646793Y290580D01*
X646779Y290594D01*
X646652Y290707D01*
X646525Y290805D01*
X646385Y290890D01*
X646258Y290961D01*
X646145Y291017D01*
X646046Y291073D01*
X645990Y291087D01*
X645962Y291101D01*
X645764Y291172D01*
X645553Y291214D01*
X645341Y291257D01*
X645144Y291271D01*
X644961Y291285D01*
X644820Y291299D01*
D02*
G37*
%LPD*%
G36*
X629919Y289593D02*
X630117Y289579D01*
X630272Y289537D01*
X630398Y289508D01*
X630483Y289466D01*
X630554Y289424D01*
X630582Y289410D01*
X630596Y289396D01*
X630681Y289311D01*
X630737Y289227D01*
X630779Y289128D01*
X630807Y289043D01*
X630821Y288959D01*
X630835Y288888D01*
Y288846D01*
Y288832D01*
Y288733D01*
X630807Y288649D01*
X630765Y288508D01*
X630737Y288451D01*
X630709Y288423D01*
X630695Y288395D01*
X630681Y288381D01*
X630624Y288310D01*
X630554Y288254D01*
X630427Y288183D01*
X630370Y288169D01*
X630328Y288155D01*
X630300Y288141D01*
X630286D01*
X630131Y288113D01*
X629990Y288085D01*
X629877Y288071D01*
X629792Y288057D01*
X629736Y288042D01*
X628651D01*
Y289607D01*
X629694D01*
X629919Y289593D01*
D02*
G37*
G36*
X621151Y289410D02*
X621433Y289353D01*
X621658Y289283D01*
X621842Y289198D01*
X621983Y289100D01*
X622081Y289029D01*
X622152Y288973D01*
X622166Y288959D01*
X622236Y288860D01*
X622307Y288761D01*
X622406Y288508D01*
X622476Y288226D01*
X622518Y287958D01*
X622561Y287690D01*
Y287577D01*
X622575Y287479D01*
Y287394D01*
Y287338D01*
Y287295D01*
Y287281D01*
X622561Y286957D01*
X622547Y286689D01*
X622518Y286450D01*
X622490Y286266D01*
X622448Y286125D01*
X622420Y286027D01*
X622406Y285956D01*
X622391Y285942D01*
X622321Y285801D01*
X622236Y285674D01*
X622152Y285576D01*
X622067Y285505D01*
X621997Y285434D01*
X621940Y285392D01*
X621898Y285378D01*
X621884Y285364D01*
X621743Y285308D01*
X621588Y285279D01*
X621405Y285251D01*
X621236Y285223D01*
X621066D01*
X620939Y285209D01*
X620235D01*
Y289424D01*
X620827D01*
X621151Y289410D01*
D02*
G37*
G36*
X644806Y289847D02*
X644961Y289790D01*
X645102Y289706D01*
X645214Y289607D01*
X645299Y289508D01*
X645356Y289424D01*
X645398Y289368D01*
X645412Y289339D01*
X645454Y289227D01*
X645496Y289100D01*
X645539Y288945D01*
X645567Y288790D01*
X645609Y288451D01*
X645651Y288099D01*
X645666Y287789D01*
Y287634D01*
X645680Y287521D01*
Y287408D01*
Y287338D01*
Y287281D01*
Y287267D01*
Y286901D01*
X645666Y286590D01*
X645637Y286323D01*
X645623Y286111D01*
X645595Y285942D01*
X645567Y285829D01*
X645553Y285759D01*
Y285730D01*
X645510Y285561D01*
X645454Y285406D01*
X645398Y285294D01*
X645341Y285181D01*
X645285Y285110D01*
X645243Y285054D01*
X645214Y285026D01*
X645200Y285012D01*
X645102Y284941D01*
X645003Y284885D01*
X644918Y284842D01*
X644820Y284814D01*
X644749Y284800D01*
X644679Y284786D01*
X644622D01*
X644453Y284814D01*
X644298Y284871D01*
X644171Y284955D01*
X644059Y285054D01*
X643974Y285152D01*
X643918Y285237D01*
X643875Y285294D01*
X643861Y285322D01*
X643819Y285434D01*
X643777Y285561D01*
X643748Y285702D01*
X643720Y285857D01*
X643664Y286196D01*
X643636Y286534D01*
X643622Y286844D01*
Y286985D01*
X643607Y287098D01*
Y287197D01*
Y287267D01*
Y287323D01*
Y287338D01*
Y287605D01*
X643622Y287845D01*
X643636Y288057D01*
X643650Y288268D01*
X643664Y288437D01*
X643678Y288606D01*
X643706Y288747D01*
X643734Y288874D01*
X643748Y288987D01*
X643777Y289086D01*
X643791Y289156D01*
X643805Y289212D01*
X643819Y289269D01*
X643833Y289297D01*
X643847Y289325D01*
X643946Y289508D01*
X644073Y289650D01*
X644200Y289748D01*
X644326Y289805D01*
X644439Y289847D01*
X644538Y289861D01*
X644594Y289875D01*
X644622D01*
X644806Y289847D01*
D02*
G37*
%LPC*%
G36*
X715057Y304081D02*
X712802D01*
Y299795D01*
X709869Y304081D01*
X707656D01*
Y296356D01*
X709898D01*
Y300613D01*
X712802Y296356D01*
X715057D01*
Y304081D01*
D02*
G37*
G36*
X705936D02*
X703540D01*
Y296356D01*
X705936D01*
Y304081D01*
D02*
G37*
G36*
X698775D02*
X695068D01*
Y296356D01*
X698606D01*
X698860Y296370D01*
X699099Y296384D01*
X699353Y296412D01*
X699565Y296454D01*
X699762Y296497D01*
X699917Y296525D01*
X699973Y296539D01*
X700016D01*
X700030Y296553D01*
X700044D01*
X700255Y296624D01*
X700453Y296722D01*
X700622Y296821D01*
X700791Y296920D01*
X700918Y297018D01*
X701016Y297103D01*
X701073Y297159D01*
X701101Y297173D01*
X701284Y297357D01*
X701439Y297554D01*
X701580Y297737D01*
X701693Y297920D01*
X701778Y298076D01*
X701834Y298202D01*
X701876Y298287D01*
X701890Y298301D01*
Y298315D01*
X701989Y298597D01*
X702060Y298907D01*
X702116Y299231D01*
X702144Y299528D01*
X702172Y299809D01*
Y299922D01*
X702187Y300035D01*
Y300232D01*
X702172Y300529D01*
X702158Y300796D01*
X702130Y301050D01*
X702088Y301276D01*
X702046Y301459D01*
X702017Y301600D01*
X702003Y301656D01*
Y301698D01*
X701989Y301713D01*
Y301727D01*
X701905Y301980D01*
X701820Y302220D01*
X701721Y302432D01*
X701623Y302615D01*
X701524Y302770D01*
X701453Y302869D01*
X701397Y302939D01*
X701383Y302967D01*
X701214Y303151D01*
X701045Y303320D01*
X700861Y303461D01*
X700692Y303573D01*
X700537Y303672D01*
X700424Y303729D01*
X700340Y303771D01*
X700326Y303785D01*
X700312D01*
X700058Y303883D01*
X699776Y303954D01*
X699494Y304010D01*
X699212Y304039D01*
X698972Y304067D01*
X698874D01*
X698775Y304081D01*
D02*
G37*
%LPD*%
G36*
X698366Y302319D02*
X698648Y302262D01*
X698874Y302192D01*
X699057Y302107D01*
X699198Y302009D01*
X699297Y301938D01*
X699367Y301882D01*
X699381Y301868D01*
X699452Y301769D01*
X699522Y301670D01*
X699621Y301417D01*
X699691Y301135D01*
X699734Y300867D01*
X699776Y300599D01*
Y300486D01*
X699790Y300387D01*
Y300303D01*
Y300247D01*
Y300204D01*
Y300190D01*
X699776Y299866D01*
X699762Y299598D01*
X699734Y299358D01*
X699706Y299175D01*
X699663Y299034D01*
X699635Y298936D01*
X699621Y298865D01*
X699607Y298851D01*
X699536Y298710D01*
X699452Y298583D01*
X699367Y298484D01*
X699283Y298414D01*
X699212Y298343D01*
X699156Y298301D01*
X699113Y298287D01*
X699099Y298273D01*
X698958Y298216D01*
X698803Y298188D01*
X698620Y298160D01*
X698451Y298132D01*
X698282D01*
X698155Y298118D01*
X697450D01*
Y302333D01*
X698042D01*
X698366Y302319D01*
D02*
G37*
%LPC*%
G36*
X718655Y278681D02*
X716399D01*
Y274395D01*
X713467Y278681D01*
X711254D01*
Y270956D01*
X713495D01*
Y275213D01*
X716399Y270956D01*
X718655D01*
Y278681D01*
D02*
G37*
G36*
X709534D02*
X707138D01*
Y270956D01*
X709534D01*
Y278681D01*
D02*
G37*
G36*
X702373D02*
X698665D01*
Y270956D01*
X702204D01*
X702457Y270970D01*
X702697Y270984D01*
X702951Y271012D01*
X703162Y271054D01*
X703360Y271097D01*
X703515Y271125D01*
X703571Y271139D01*
X703613D01*
X703627Y271153D01*
X703642D01*
X703853Y271224D01*
X704050Y271322D01*
X704219Y271421D01*
X704389Y271520D01*
X704516Y271618D01*
X704614Y271703D01*
X704670Y271759D01*
X704699Y271773D01*
X704882Y271957D01*
X705037Y272154D01*
X705178Y272337D01*
X705291Y272521D01*
X705375Y272676D01*
X705432Y272803D01*
X705474Y272887D01*
X705488Y272901D01*
Y272915D01*
X705587Y273197D01*
X705657Y273507D01*
X705714Y273832D01*
X705742Y274128D01*
X705770Y274410D01*
Y274522D01*
X705784Y274635D01*
Y274832D01*
X705770Y275128D01*
X705756Y275396D01*
X705728Y275650D01*
X705686Y275876D01*
X705643Y276059D01*
X705615Y276200D01*
X705601Y276256D01*
Y276299D01*
X705587Y276313D01*
Y276327D01*
X705502Y276580D01*
X705418Y276820D01*
X705319Y277032D01*
X705220Y277215D01*
X705122Y277370D01*
X705051Y277469D01*
X704995Y277539D01*
X704981Y277567D01*
X704811Y277750D01*
X704642Y277920D01*
X704459Y278061D01*
X704290Y278173D01*
X704135Y278272D01*
X704022Y278328D01*
X703938Y278371D01*
X703923Y278385D01*
X703909D01*
X703656Y278484D01*
X703374Y278554D01*
X703092Y278610D01*
X702810Y278639D01*
X702570Y278667D01*
X702471D01*
X702373Y278681D01*
D02*
G37*
G36*
X697354D02*
X691448D01*
Y270956D01*
X693844D01*
Y274114D01*
X696847D01*
Y275678D01*
X693844D01*
Y277017D01*
X697354D01*
Y278681D01*
D02*
G37*
%LPD*%
G36*
X701964Y276919D02*
X702246Y276862D01*
X702471Y276792D01*
X702655Y276707D01*
X702796Y276609D01*
X702894Y276538D01*
X702965Y276482D01*
X702979Y276468D01*
X703049Y276369D01*
X703120Y276270D01*
X703219Y276017D01*
X703289Y275735D01*
X703331Y275467D01*
X703374Y275199D01*
Y275086D01*
X703388Y274988D01*
Y274903D01*
Y274846D01*
Y274804D01*
Y274790D01*
X703374Y274466D01*
X703360Y274198D01*
X703331Y273958D01*
X703303Y273775D01*
X703261Y273634D01*
X703233Y273535D01*
X703219Y273465D01*
X703204Y273451D01*
X703134Y273310D01*
X703049Y273183D01*
X702965Y273084D01*
X702880Y273014D01*
X702810Y272943D01*
X702753Y272901D01*
X702711Y272887D01*
X702697Y272873D01*
X702556Y272817D01*
X702401Y272788D01*
X702218Y272760D01*
X702048Y272732D01*
X701879D01*
X701752Y272718D01*
X701048D01*
Y276933D01*
X701640D01*
X701964Y276919D01*
D02*
G37*
D10*
X45063Y362059D02*
X59276D01*
Y336659D02*
Y362059D01*
X45063Y336658D02*
X59276D01*
X45063Y162059D02*
X59276D01*
Y136659D02*
Y162059D01*
X45063Y136658D02*
X59276D01*
X45063Y236658D02*
X59276D01*
Y236659D02*
Y262059D01*
X45063D02*
X59276D01*
X395064Y361859D02*
X409277D01*
Y336459D02*
Y361859D01*
X395064Y336458D02*
X409277D01*
X395064Y161859D02*
X409277D01*
Y136459D02*
Y161859D01*
X395064Y136458D02*
X409277D01*
X395064Y236458D02*
X409277D01*
Y236459D02*
Y261859D01*
X395064D02*
X409277D01*
X285070Y261909D02*
X299283D01*
X285070Y236509D02*
Y261909D01*
Y236509D02*
X299283D01*
X285070Y136509D02*
X299283D01*
X285070Y136509D02*
Y161909D01*
X299283D01*
X285070Y336508D02*
X299283D01*
X285070Y336509D02*
Y361909D01*
X299283D01*
X635070D02*
X649283D01*
X635070Y336509D02*
Y361909D01*
Y336508D02*
X649283D01*
X635070Y161909D02*
X649283D01*
X635070Y136509D02*
Y161909D01*
Y136509D02*
X649283D01*
X635070Y236509D02*
X649283D01*
X635070Y236509D02*
Y261909D01*
X649283D01*
D11*
X303892Y123809D02*
Y200009D01*
Y123809D02*
X329292D01*
Y200009D01*
X303892D02*
X329292D01*
X303892Y223888D02*
Y300088D01*
Y223888D02*
X329292D01*
Y300088D01*
X303892D02*
X329292D01*
X653892Y223809D02*
Y300009D01*
Y223809D02*
X679292D01*
Y300009D01*
X653892D02*
X679292D01*
X653892Y123809D02*
Y200009D01*
Y123809D02*
X679292D01*
Y200009D01*
X653892D02*
X679292D01*
X653892Y323809D02*
Y400009D01*
Y323809D02*
X679292D01*
Y400009D01*
X653892D02*
X679292D01*
X365055Y223759D02*
Y299959D01*
Y223759D02*
X390455D01*
Y299959D01*
X365055D02*
X390455D01*
X365055Y123759D02*
Y199959D01*
Y123759D02*
X390455D01*
Y199959D01*
X365055D02*
X390455D01*
X365055Y323231D02*
Y399431D01*
Y323231D02*
X390455D01*
Y399431D01*
X365055D02*
X390455D01*
X15054Y223959D02*
Y300159D01*
Y223959D02*
X40454D01*
Y300159D01*
X15054D02*
X40454D01*
X15054Y323232D02*
Y399431D01*
Y323232D02*
X40454D01*
Y399431D01*
X15054D02*
X40454D01*
X15054Y123959D02*
Y200159D01*
Y123959D02*
X40454D01*
Y200159D01*
X15054D02*
X40454D01*
X303892Y323757D02*
Y399957D01*
Y323757D02*
X329292D01*
Y399957D01*
X303892D02*
X329292D01*
X725870Y211318D02*
X751270D01*
X725870D02*
Y312918D01*
X751270Y211318D02*
Y312918D01*
X725870D02*
X751270D01*
D12*
X191063Y95173D02*
X192333Y93903D01*
X193603Y95173D01*
X191063D02*
X193603D01*
X197767Y32344D02*
Y82482D01*
X146767Y32344D02*
Y82482D01*
X152201Y429718D02*
X153471Y428448D01*
X150932D02*
X152201Y429718D01*
X150932Y428448D02*
X153471D01*
X146768Y441138D02*
Y491276D01*
X197768Y441138D02*
Y491276D01*
X496767Y32344D02*
Y82482D01*
X547767Y32344D02*
Y82482D01*
X541063Y95173D02*
X543603D01*
X542333Y93903D02*
X543603Y95173D01*
X541063D02*
X542333Y93903D01*
X502202Y429718D02*
X503472Y428448D01*
X500932D02*
X502202Y429718D01*
X500932Y428448D02*
X503472D01*
X496768Y441138D02*
Y491276D01*
X547768Y441138D02*
Y491276D01*
D13*
X103267Y386872D02*
X153267D01*
Y336873D02*
Y386872D01*
X103348Y336954D02*
X153188D01*
X103267Y336873D02*
Y386872D01*
Y286873D02*
X153267D01*
Y236873D02*
Y286873D01*
X103348Y236954D02*
X153188D01*
X103267Y236873D02*
Y286873D01*
Y186873D02*
X153267D01*
Y136873D02*
Y186873D01*
X103348Y136954D02*
X153188D01*
X103267Y136873D02*
Y186873D01*
X203267D02*
X253267D01*
Y136873D02*
Y186873D01*
X203348Y136954D02*
X253188D01*
X203267Y136873D02*
Y186873D01*
Y286873D02*
X253267D01*
Y236873D02*
Y286873D01*
X203348Y236954D02*
X253188D01*
X203267Y236873D02*
Y286873D01*
Y386872D02*
X253267D01*
Y336873D02*
Y386872D01*
X203348Y336954D02*
X253188D01*
X203267Y336873D02*
Y386872D01*
X553267Y186873D02*
X603267D01*
Y136873D02*
Y186873D01*
X553348Y136954D02*
X603188D01*
X553267Y136873D02*
Y186873D01*
X453267Y136873D02*
Y186873D01*
X453348Y136954D02*
X503188D01*
X503267Y136873D02*
Y186873D01*
X453267D02*
X503267D01*
X453267Y336873D02*
Y386872D01*
X453348Y336954D02*
X503188D01*
X503267Y336873D02*
Y386872D01*
X453267D02*
X503267D01*
X453267Y236873D02*
Y286873D01*
X453348Y236954D02*
X503188D01*
X503267Y236873D02*
Y286873D01*
X453267D02*
X503267D01*
X553267Y236873D02*
Y286873D01*
X553348Y236954D02*
X603188D01*
X603267Y236873D02*
Y286873D01*
X553267D02*
X603267D01*
X553267Y336873D02*
Y386872D01*
X553348Y336954D02*
X603188D01*
X603267Y336873D02*
Y386872D01*
X553267D02*
X603267D01*
D14*
X97268Y362042D02*
D03*
Y262041D02*
D03*
Y162041D02*
D03*
X197268D02*
D03*
Y262041D02*
D03*
Y362042D02*
D03*
X547268Y162041D02*
D03*
X447268D02*
D03*
Y362042D02*
D03*
Y262041D02*
D03*
X547268D02*
D03*
Y362042D02*
D03*
M02*
