M48
;Layer_Color=9474304
;FILE_FORMAT=4:4
METRIC,LZ
;TYPE=PLATED
T01F00S00C0.3000
T02F00S00C0.5200
T03F00S00C0.9000
T04F00S00C0.9500
;TYPE=NON_PLATED
T05F00S00C3.1000
%
T01
X00625995Y0001637
Y00024752
Y00033134
X00635528
Y00024752
Y0001637
X00691388Y00085344
X00616672Y00033134
Y00024752
Y0001637
X0053243Y00018542
X00512267
X00490007Y0002997
X0047401Y0002997
X00456692Y00033516
X00447159
X00437836
X00401658Y00033134
Y00024752
Y0001637
X00392126
Y00024752
Y00033134
X00382803
Y00024752
Y0001637
X00386443Y00087502
Y00095884
Y00104266
X00395976
Y00095884
X00395766Y00087502
X00405299
Y00095884
Y00104266
X00441477Y00087884
X004508
X00460231Y00087986
X00501505Y00096888
Y00107302
X00568663Y00126606
X00342254Y00085344
X00280162Y00068694
X00270629
X00261306
Y00033134
Y00024752
Y0001637
X00270629
Y00024752
Y00033134
X00280162
Y00024752
Y0001637
X00220525Y0003041
X00182365Y00018542
X00162203
X00140007Y0002997
X00124005Y0002997
X00096711Y00033134
Y00024752
Y0001637
X00087178
Y00024752
Y00033134
X00077855
Y00024752
Y0001637
X0010668Y00086614
Y00096126
Y00105524
X00151505Y00107302
Y00096888
X00218663Y00126606
X0017399Y00127368
X00218663Y00226685
X0021864Y00326531
X00192166Y00424498
X00183642Y0045452
X00218751Y00454475
X00218752Y0049365
X00204528
X00182267Y00507968
X00162105
X0012401Y0049321
X00112776Y00468284
X0009271Y00416928
X00253074Y00438175
X00262397
X0027193
X00442598Y00441148
X0047401
X00490008
X00490008Y00401448
X0047401
X00544808Y00395908
X00554131
X00563663
X00582754Y00438175
X00592077
X0060161
X00568752Y0049365
X00554528
X00542544Y00468284
X00532267Y00510508
X00512105
X0047401Y0049321
X00459416Y00315734
X00568663Y00326606
Y00226606
X0052399Y00127368
T02
X00570524Y00030344
T03
X00027754Y00136659
Y00162059
Y00187459
Y00236659
Y00262059
Y00287459
Y00335932
Y00361331
Y00386731
X00316592Y00387257
Y00361857
Y00336457
Y00287388
Y00261988
Y00236588
Y00187309
Y00161909
Y00136509
X00377755Y00136459
Y00161859
Y00187259
Y00236459
Y00261859
Y00287259
Y00335931
Y00361331
Y00386731
X00666592Y00387309
Y00361909
Y00336509
Y00287309
Y00261909
Y00236509
Y00187309
Y00161909
Y00136509
T04
X0073857Y00224018
Y00249418
Y00274818
Y00300218
T05
X0073377Y00032118
X0003
Y00492118
X0073377
M30
