G04*
G04 #@! TF.GenerationSoftware,Altium Limited,Altium Designer,24.5.2 (23)*
G04*
G04 Layer_Color=16711935*
%FSLAX44Y44*%
%MOMM*%
G71*
G04*
G04 #@! TF.SameCoordinates,E9880ABE-0B08-401C-87C3-A205D889D7CA*
G04*
G04*
G04 #@! TF.FilePolarity,Negative*
G04*
G01*
G75*
%ADD21C,0.2032*%
%ADD22R,1.7032X1.7032*%
%ADD23C,1.7032*%
%ADD24C,1.2032*%
%ADD25C,1.8032*%
%ADD26R,1.8032X1.8032*%
%ADD27C,0.8032*%
%ADD46R,1.9812X1.7272*%
%ADD47R,1.0090X0.8820*%
%ADD48R,0.9652X1.0922*%
%ADD49R,1.0922X0.9652*%
%ADD50R,0.7450X0.5672*%
D21*
X733770Y32118D02*
D03*
Y492118D02*
D03*
X30000D02*
D03*
Y32118D02*
D03*
D22*
X316592Y187309D02*
D03*
Y287388D02*
D03*
X666592Y287309D02*
D03*
Y187309D02*
D03*
Y387309D02*
D03*
X377755Y287259D02*
D03*
Y187259D02*
D03*
Y386731D02*
D03*
X27754Y287459D02*
D03*
Y386731D02*
D03*
Y187459D02*
D03*
X316592Y387257D02*
D03*
D23*
Y161909D02*
D03*
Y136509D02*
D03*
Y261988D02*
D03*
Y236588D02*
D03*
X666592Y261909D02*
D03*
Y236509D02*
D03*
Y161909D02*
D03*
Y136509D02*
D03*
Y361909D02*
D03*
Y336509D02*
D03*
X377755Y261859D02*
D03*
Y236459D02*
D03*
Y161859D02*
D03*
Y136459D02*
D03*
Y361331D02*
D03*
Y335931D02*
D03*
X27754Y262059D02*
D03*
Y236659D02*
D03*
Y361331D02*
D03*
Y335932D02*
D03*
Y162059D02*
D03*
Y136659D02*
D03*
X316592Y361857D02*
D03*
Y336457D02*
D03*
D24*
X570524Y30344D02*
D03*
D25*
X738570Y300218D02*
D03*
Y274818D02*
D03*
Y249418D02*
D03*
D26*
Y224018D02*
D03*
D27*
X532267Y510508D02*
D03*
X512105D02*
D03*
X182365Y18542D02*
D03*
X162203D02*
D03*
X192166Y424498D02*
D03*
X271930Y438175D02*
D03*
X262397D02*
D03*
X501505Y96888D02*
D03*
Y107302D02*
D03*
X405299Y104266D02*
D03*
X386443D02*
D03*
X395976D02*
D03*
X405299Y95884D02*
D03*
X386443D02*
D03*
X395976D02*
D03*
X450800Y87884D02*
D03*
X441477D02*
D03*
X395766Y87502D02*
D03*
X405299D02*
D03*
X386443D02*
D03*
X87178Y16370D02*
D03*
X96711D02*
D03*
X77855D02*
D03*
Y24752D02*
D03*
X96711D02*
D03*
X87178D02*
D03*
X77855Y33134D02*
D03*
X96711D02*
D03*
X87178D02*
D03*
X625995Y16370D02*
D03*
X635528D02*
D03*
X616672D02*
D03*
Y24752D02*
D03*
X635528D02*
D03*
X625995D02*
D03*
X616672Y33134D02*
D03*
X635528D02*
D03*
X625995D02*
D03*
X392126Y16370D02*
D03*
X401658D02*
D03*
X382803D02*
D03*
Y24752D02*
D03*
X401658D02*
D03*
X392126D02*
D03*
X382803Y33134D02*
D03*
X401658D02*
D03*
X392126D02*
D03*
X437836Y33516D02*
D03*
X456692D02*
D03*
X447159D02*
D03*
X261306Y68694D02*
D03*
X280162D02*
D03*
X270629D02*
D03*
Y33134D02*
D03*
X280162D02*
D03*
X261306D02*
D03*
X270629Y24752D02*
D03*
X280162D02*
D03*
X261306D02*
D03*
Y16370D02*
D03*
X280162D02*
D03*
X270629D02*
D03*
X106680Y96126D02*
D03*
Y105524D02*
D03*
Y86614D02*
D03*
X151505Y107302D02*
D03*
Y96888D02*
D03*
X592077Y438175D02*
D03*
X601610D02*
D03*
X563663Y395908D02*
D03*
X554131D02*
D03*
X253074Y438175D02*
D03*
X544808Y395908D02*
D03*
X460231Y87986D02*
D03*
X582754Y438175D02*
D03*
X442598Y441148D02*
D03*
X523990Y127368D02*
D03*
X173990Y127368D02*
D03*
X92710Y416928D02*
D03*
X459416Y315734D02*
D03*
X691388Y85344D02*
D03*
X342254Y85344D02*
D03*
X218751Y454475D02*
D03*
X183642Y454520D02*
D03*
X112776Y468284D02*
D03*
X542544D02*
D03*
X474010Y441148D02*
D03*
Y401448D02*
D03*
X490008D02*
D03*
X490008Y441148D02*
D03*
X568663Y126606D02*
D03*
Y226606D02*
D03*
Y326606D02*
D03*
X218640Y326531D02*
D03*
X218663Y226685D02*
D03*
Y126606D02*
D03*
X140007Y29970D02*
D03*
X124005Y29970D02*
D03*
X220525Y30410D02*
D03*
X182267Y507968D02*
D03*
X124010Y493210D02*
D03*
X218752Y493650D02*
D03*
X204528D02*
D03*
X162105Y507968D02*
D03*
X512267Y18542D02*
D03*
X532430D02*
D03*
X568752Y493650D02*
D03*
X554528D02*
D03*
X474010Y493210D02*
D03*
X490007Y29970D02*
D03*
X474010Y29970D02*
D03*
D46*
X442598Y463204D02*
D03*
Y488604D02*
D03*
X551197Y66385D02*
D03*
Y40985D02*
D03*
X92598Y488604D02*
D03*
Y463204D02*
D03*
X201197Y40985D02*
D03*
Y66385D02*
D03*
D47*
X182270Y37175D02*
D03*
Y52415D02*
D03*
X162267Y468284D02*
D03*
Y483524D02*
D03*
X532430Y37175D02*
D03*
Y52415D02*
D03*
X512268Y483524D02*
D03*
Y468284D02*
D03*
D48*
X292972Y336457D02*
D03*
X277732D02*
D03*
X50520Y236659D02*
D03*
X65760D02*
D03*
X292972Y236588D02*
D03*
X277732D02*
D03*
X401473Y236459D02*
D03*
X416713D02*
D03*
X401473Y336457D02*
D03*
X416713D02*
D03*
X642690Y336509D02*
D03*
X627450D02*
D03*
X642690Y236509D02*
D03*
X627450D02*
D03*
X642690Y136509D02*
D03*
X627450D02*
D03*
X50520Y136659D02*
D03*
X65760D02*
D03*
X292972Y136509D02*
D03*
X277732D02*
D03*
X401473Y136459D02*
D03*
X416713D02*
D03*
X50520Y335932D02*
D03*
X65760D02*
D03*
D49*
X124010Y483524D02*
D03*
Y468284D02*
D03*
X204527Y468284D02*
D03*
Y483524D02*
D03*
X490008Y40097D02*
D03*
Y55337D02*
D03*
X554528Y483524D02*
D03*
Y468284D02*
D03*
X568752Y483524D02*
D03*
Y468284D02*
D03*
X140008Y55337D02*
D03*
Y40097D02*
D03*
X220755Y54574D02*
D03*
Y39334D02*
D03*
X124005Y55336D02*
D03*
Y40096D02*
D03*
X474010D02*
D03*
Y55336D02*
D03*
Y468284D02*
D03*
Y483524D02*
D03*
X218751Y468284D02*
D03*
Y483524D02*
D03*
D50*
X182430Y475777D02*
D03*
Y485175D02*
D03*
X512105Y43017D02*
D03*
Y52415D02*
D03*
X532430Y485175D02*
D03*
Y475777D02*
D03*
X162106Y43018D02*
D03*
Y52416D02*
D03*
M02*
