G04*
G04 #@! TF.GenerationSoftware,Altium Limited,Altium Designer,24.5.2 (23)*
G04*
G04 Layer_Physical_Order=1*
G04 Layer_Color=255*
%FSLAX44Y44*%
%MOMM*%
G71*
G04*
G04 #@! TF.SameCoordinates,E9880ABE-0B08-401C-87C3-A205D889D7CA*
G04*
G04*
G04 #@! TF.FilePolarity,Positive*
G04*
G01*
G75*
%ADD15R,0.7000X1.3000*%
%ADD16R,1.0000X3.5001*%
%ADD17R,1.2700X3.5001*%
%ADD28C,0.7620*%
%ADD29C,0.6350*%
%ADD30C,0.5080*%
%ADD31C,0.3810*%
%ADD32C,1.2700*%
%ADD33C,1.0160*%
%ADD34R,1.5000X1.5000*%
%ADD35C,1.5000*%
%ADD36C,1.0000*%
%ADD37C,1.6000*%
%ADD38R,1.6000X1.6000*%
%ADD39C,0.6000*%
G36*
X296893Y444776D02*
X297635Y444776D01*
X299089Y444487D01*
X300459Y443919D01*
X301692Y443096D01*
X302741Y442047D01*
X303565Y440814D01*
X304132Y439444D01*
X304421Y437990D01*
X304421Y437248D01*
X304421Y437248D01*
X304422Y422445D01*
Y421777D01*
X304161Y420465D01*
X303649Y419230D01*
X302906Y418119D01*
X301961Y417173D01*
X300849Y416431D01*
X299614Y415919D01*
X298303Y415658D01*
X196814D01*
X196036Y415643D01*
X194506Y415917D01*
X193058Y416484D01*
X191748Y417323D01*
X190627Y418401D01*
X189738Y419677D01*
X189116Y421102D01*
X188783Y422621D01*
X188768Y423398D01*
Y423398D01*
Y444776D01*
X296893Y444776D01*
D02*
G37*
G36*
X646893D02*
X647635Y444776D01*
X649089Y444487D01*
X650459Y443919D01*
X651692Y443096D01*
X652741Y442047D01*
X653565Y440814D01*
X654132Y439444D01*
X654421Y437990D01*
X654421Y437248D01*
X654421Y437248D01*
Y413490D01*
Y412828D01*
X654163Y411529D01*
X653656Y410306D01*
X652921Y409205D01*
X651985Y408269D01*
X650884Y407533D01*
X649661Y407027D01*
X648362Y406768D01*
X572770D01*
X572008Y406693D01*
X570599Y406110D01*
X569521Y405032D01*
X568938Y403623D01*
X568863Y402861D01*
X568863Y393971D01*
X568863Y392980D01*
X568104Y391148D01*
X566702Y389747D01*
X564871Y388988D01*
X563880Y388988D01*
X542717D01*
X540905Y389739D01*
X539518Y391126D01*
X538768Y392938D01*
Y393919D01*
Y444776D01*
X646893Y444776D01*
D02*
G37*
G36*
X574632Y383583D02*
X575163Y383365D01*
X575618Y383014D01*
X575968Y382560D01*
X576187Y382029D01*
X576263Y381460D01*
Y365658D01*
X576189Y365130D01*
X575989Y364632D01*
X575674Y364201D01*
X575280Y363873D01*
X575277D01*
X575262Y363858D01*
X575247Y363845D01*
X574803Y363446D01*
X574795Y363443D01*
X574787Y363433D01*
X574777Y363423D01*
Y363416D01*
X574457Y362908D01*
X574449Y362905D01*
X574447Y362892D01*
X574439Y362880D01*
X574442Y362872D01*
X574274Y362298D01*
X574269Y362293D01*
Y362278D01*
X574267Y362265D01*
X574269Y362257D01*
Y361658D01*
X574267Y361653D01*
X574269Y361640D01*
Y361625D01*
X574274Y361620D01*
X574442Y361043D01*
X574439Y361036D01*
X574447Y361026D01*
X574449Y361013D01*
X574457Y361008D01*
X574777Y360502D01*
Y360495D01*
X574787Y360484D01*
X574795Y360472D01*
X574803D01*
X575247Y360073D01*
X575262Y360058D01*
X575277Y360045D01*
X575684Y359692D01*
X576001Y359235D01*
X576197Y358712D01*
X576263Y358158D01*
Y342359D01*
X576187Y341790D01*
X575968Y341259D01*
X575618Y340802D01*
X575163Y340454D01*
X574632Y340233D01*
X574063Y340159D01*
X563662D01*
X562943Y340256D01*
X562275Y340535D01*
X561701Y340980D01*
X561262Y341559D01*
X560741Y342295D01*
Y342303D01*
X560731Y342313D01*
X560721Y342323D01*
X560716Y342326D01*
X560063Y342918D01*
X560060Y342925D01*
X560048Y342933D01*
X560035Y342943D01*
X560030Y342941D01*
X559263Y343377D01*
X559260Y343383D01*
X559245Y343388D01*
X559232Y343395D01*
X559225Y343393D01*
X558381Y343652D01*
X558361Y343660D01*
X558343Y343665D01*
X557749Y343837D01*
X557190Y344155D01*
X556723Y344589D01*
X556365Y345122D01*
X556141Y345722D01*
X556062Y346359D01*
Y377759D01*
X556161Y378363D01*
X556398Y378930D01*
X556758Y379428D01*
X557223Y379827D01*
X557767Y380108D01*
X558343Y380253D01*
X558364Y380258D01*
X558381Y380263D01*
X559250Y380515D01*
X559255Y380512D01*
X559270Y380520D01*
X559283Y380525D01*
X559288Y380530D01*
X560081Y380965D01*
X560086D01*
X560096Y380975D01*
X560111Y380982D01*
Y380987D01*
X560792Y381584D01*
X560797D01*
X560807Y381597D01*
X560817Y381607D01*
Y381612D01*
X561363Y382359D01*
X561787Y382902D01*
X562339Y383319D01*
X562979Y383576D01*
X563662Y383659D01*
X574063D01*
X574632Y383583D01*
D02*
G37*
G36*
X474632D02*
X475163Y383365D01*
X475618Y383014D01*
X475968Y382560D01*
X476187Y382029D01*
X476263Y381460D01*
Y365658D01*
X476189Y365130D01*
X475989Y364632D01*
X475674Y364201D01*
X475280Y363873D01*
X475277D01*
X475262Y363858D01*
X475247Y363845D01*
X474803Y363446D01*
X474795Y363443D01*
X474787Y363433D01*
X474777Y363423D01*
Y363416D01*
X474457Y362908D01*
X474449Y362905D01*
X474447Y362892D01*
X474439Y362880D01*
X474442Y362872D01*
X474274Y362298D01*
X474269Y362293D01*
Y362278D01*
X474267Y362265D01*
X474269Y362257D01*
Y361658D01*
X474267Y361653D01*
X474269Y361640D01*
Y361625D01*
X474274Y361620D01*
X474442Y361043D01*
X474439Y361036D01*
X474447Y361026D01*
X474449Y361013D01*
X474457Y361008D01*
X474777Y360502D01*
Y360495D01*
X474787Y360484D01*
X474795Y360472D01*
X474803D01*
X475247Y360073D01*
X475262Y360058D01*
X475277Y360045D01*
X475684Y359692D01*
X476001Y359235D01*
X476197Y358712D01*
X476263Y358158D01*
Y342359D01*
X476187Y341790D01*
X475968Y341259D01*
X475618Y340802D01*
X475163Y340454D01*
X474632Y340233D01*
X474063Y340159D01*
X463662D01*
X462943Y340256D01*
X462275Y340535D01*
X461701Y340980D01*
X461262Y341559D01*
X460741Y342295D01*
Y342303D01*
X460731Y342313D01*
X460721Y342323D01*
X460716Y342326D01*
X460063Y342918D01*
X460060Y342925D01*
X460048Y342933D01*
X460035Y342943D01*
X460030Y342941D01*
X459263Y343377D01*
X459260Y343383D01*
X459245Y343388D01*
X459232Y343395D01*
X459225Y343393D01*
X458381Y343652D01*
X458361Y343660D01*
X458343Y343665D01*
X457749Y343837D01*
X457190Y344155D01*
X456723Y344589D01*
X456365Y345122D01*
X456141Y345722D01*
X456062Y346359D01*
Y377759D01*
X456161Y378363D01*
X456398Y378930D01*
X456758Y379428D01*
X457223Y379827D01*
X457767Y380108D01*
X458343Y380253D01*
X458364Y380258D01*
X458381Y380263D01*
X459250Y380515D01*
X459255Y380512D01*
X459270Y380520D01*
X459283Y380525D01*
X459288Y380530D01*
X460081Y380965D01*
X460086D01*
X460096Y380975D01*
X460111Y380982D01*
Y380987D01*
X460792Y381584D01*
X460797D01*
X460807Y381597D01*
X460817Y381607D01*
Y381612D01*
X461363Y382359D01*
X461787Y382902D01*
X462339Y383319D01*
X462979Y383576D01*
X463662Y383659D01*
X474063D01*
X474632Y383583D01*
D02*
G37*
G36*
X124632D02*
X125163Y383365D01*
X125618Y383014D01*
X125968Y382560D01*
X126187Y382029D01*
X126263Y381460D01*
Y365658D01*
X126189Y365130D01*
X125989Y364632D01*
X125674Y364201D01*
X125280Y363873D01*
X125277D01*
X125262Y363858D01*
X125247Y363845D01*
X124803Y363446D01*
X124795Y363443D01*
X124787Y363433D01*
X124777Y363423D01*
Y363416D01*
X124457Y362908D01*
X124449Y362905D01*
X124447Y362892D01*
X124439Y362880D01*
X124442Y362872D01*
X124274Y362298D01*
X124269Y362293D01*
Y362278D01*
X124267Y362265D01*
X124269Y362257D01*
Y361658D01*
X124267Y361653D01*
X124269Y361640D01*
Y361625D01*
X124274Y361620D01*
X124442Y361043D01*
X124439Y361036D01*
X124447Y361026D01*
X124449Y361013D01*
X124457Y361008D01*
X124777Y360502D01*
Y360495D01*
X124787Y360484D01*
X124795Y360472D01*
X124803D01*
X125247Y360073D01*
X125262Y360058D01*
X125277Y360045D01*
X125684Y359692D01*
X126001Y359235D01*
X126197Y358712D01*
X126263Y358158D01*
Y342359D01*
X126187Y341790D01*
X125968Y341259D01*
X125618Y340802D01*
X125163Y340454D01*
X124632Y340233D01*
X124063Y340159D01*
X113662D01*
X112943Y340256D01*
X112275Y340535D01*
X111701Y340980D01*
X111262Y341559D01*
X110741Y342295D01*
Y342303D01*
X110731Y342313D01*
X110721Y342323D01*
X110716Y342326D01*
X110063Y342918D01*
X110060Y342925D01*
X110048Y342933D01*
X110035Y342943D01*
X110030Y342941D01*
X109263Y343377D01*
X109260Y343383D01*
X109245Y343388D01*
X109232Y343395D01*
X109225Y343393D01*
X108381Y343652D01*
X108361Y343660D01*
X108343Y343665D01*
X107749Y343837D01*
X107190Y344155D01*
X106723Y344589D01*
X106365Y345122D01*
X106141Y345722D01*
X106062Y346359D01*
Y377759D01*
X106161Y378363D01*
X106398Y378930D01*
X106758Y379428D01*
X107223Y379827D01*
X107767Y380108D01*
X108343Y380253D01*
X108364Y380258D01*
X108381Y380263D01*
X109250Y380515D01*
X109255Y380512D01*
X109270Y380520D01*
X109283Y380525D01*
X109288Y380530D01*
X110081Y380965D01*
X110086D01*
X110096Y380975D01*
X110111Y380982D01*
Y380987D01*
X110792Y381584D01*
X110797D01*
X110807Y381597D01*
X110817Y381607D01*
Y381612D01*
X111363Y382359D01*
X111788Y382902D01*
X112339Y383319D01*
X112979Y383576D01*
X113662Y383659D01*
X124063D01*
X124632Y383583D01*
D02*
G37*
G36*
X459675Y447082D02*
X461219Y446443D01*
X462608Y445514D01*
X463790Y444333D01*
X464718Y442943D01*
X465358Y441399D01*
X465479Y440791D01*
X465684Y438927D01*
Y438924D01*
X465684Y438924D01*
X465684Y438924D01*
Y399293D01*
X465968Y399292D01*
X466223D01*
X466481Y398330D01*
X467544Y396487D01*
X469049Y394983D01*
X470891Y393919D01*
X472946Y393368D01*
X475074D01*
X477129Y393919D01*
X478971Y394983D01*
X480476Y396487D01*
X480836Y397111D01*
X483182D01*
X483542Y396487D01*
X485046Y394983D01*
X486889Y393919D01*
X488944Y393368D01*
X491071D01*
X493126Y393919D01*
X494969Y394983D01*
X496473Y396487D01*
X497537Y398330D01*
X497795Y399292D01*
X502097D01*
X513941D01*
Y328777D01*
X513955Y328672D01*
X513618Y326976D01*
X512598Y325449D01*
X511071Y324429D01*
X509375Y324092D01*
X509270Y324106D01*
X459461D01*
X457306Y323822D01*
X455298Y322990D01*
X453574Y321667D01*
X453528Y321621D01*
X452205Y319897D01*
X451373Y317889D01*
X451089Y315734D01*
X451373Y313579D01*
X452205Y311571D01*
X453528Y309846D01*
X455252Y308523D01*
X457261Y307691D01*
X459416Y307408D01*
X459761Y307453D01*
X509270D01*
Y307422D01*
X513436Y307832D01*
X517442Y309047D01*
X521134Y311021D01*
X524246Y313574D01*
X524371Y313676D01*
X525521Y315078D01*
X576131D01*
X577998Y315851D01*
X579427Y317280D01*
X580201Y319147D01*
Y320158D01*
Y399292D01*
X654012Y399292D01*
Y374729D01*
X659573D01*
X660117Y372697D01*
X658868Y371976D01*
X656526Y369634D01*
X654870Y366765D01*
X654012Y363566D01*
Y360253D01*
X654870Y357054D01*
X656526Y354185D01*
X658868Y351843D01*
X661560Y350289D01*
X661736Y349209D01*
X661560Y348130D01*
X658868Y346576D01*
X656526Y344234D01*
X654870Y341365D01*
X654012Y338166D01*
Y334853D01*
X654870Y331654D01*
X656526Y328785D01*
X658868Y326443D01*
X661736Y324787D01*
X664936Y323929D01*
X668248D01*
X671448Y324787D01*
X674316Y326443D01*
X676659Y328785D01*
X678315Y331654D01*
X679172Y334853D01*
Y338166D01*
X678315Y341365D01*
X676659Y344234D01*
X674316Y346576D01*
X671624Y348130D01*
X671448Y349209D01*
X671624Y350289D01*
X674316Y351843D01*
X676659Y354185D01*
X678315Y357054D01*
X679172Y360253D01*
Y363566D01*
X678315Y366765D01*
X676659Y369634D01*
X674316Y371976D01*
X673067Y372697D01*
X673611Y374729D01*
X679172D01*
Y399292D01*
X757428Y399292D01*
X757428Y116192D01*
X698942D01*
X698711Y116446D01*
X698698Y118404D01*
Y180962D01*
X698753D01*
X698251Y184774D01*
X696780Y188326D01*
X694439Y191377D01*
X691389Y193717D01*
X687837Y195189D01*
X684025Y195690D01*
Y195636D01*
X679172D01*
Y199889D01*
X654012D01*
Y174729D01*
X659573D01*
X660117Y172697D01*
X658868Y171976D01*
X656526Y169634D01*
X654870Y166765D01*
X654012Y163566D01*
Y160253D01*
X654870Y157054D01*
X656526Y154185D01*
X658868Y151843D01*
X661560Y150288D01*
X661736Y149209D01*
X661560Y148130D01*
X658868Y146576D01*
X656526Y144234D01*
X654870Y141365D01*
X654012Y138166D01*
Y134853D01*
X654870Y131654D01*
X656526Y128785D01*
X658868Y126443D01*
X661736Y124787D01*
X664936Y123929D01*
X668248D01*
X671448Y124787D01*
X674316Y126443D01*
X676659Y128785D01*
X678315Y131654D01*
X679172Y134853D01*
Y138166D01*
X678315Y141365D01*
X676659Y144234D01*
X674316Y146576D01*
X671624Y148130D01*
X671448Y149209D01*
X671624Y150288D01*
X674316Y151843D01*
X676659Y154185D01*
X678315Y157054D01*
X679172Y160253D01*
Y163566D01*
X678315Y166765D01*
X676659Y169634D01*
X674316Y171976D01*
X673067Y172697D01*
X673611Y174729D01*
X679172D01*
Y178983D01*
X682046D01*
Y116446D01*
X680034Y116192D01*
X580994D01*
X579818Y118224D01*
X580201Y119147D01*
Y120158D01*
Y184000D01*
Y185010D01*
X579427Y186877D01*
X577998Y188306D01*
X576131Y189080D01*
X549980D01*
X548113Y188306D01*
X546684Y186877D01*
X545910Y185010D01*
Y184000D01*
Y120158D01*
Y119147D01*
X546293Y118224D01*
X545117Y116192D01*
X362096D01*
Y177415D01*
X363238Y178371D01*
X365175Y177606D01*
Y174679D01*
X370736D01*
X371280Y172647D01*
X370031Y171925D01*
X367688Y169583D01*
X366032Y166714D01*
X365175Y163515D01*
Y160202D01*
X366032Y157003D01*
X367688Y154134D01*
X370031Y151792D01*
X372723Y150238D01*
X372899Y149159D01*
X372723Y148080D01*
X370031Y146525D01*
X367688Y144183D01*
X366032Y141314D01*
X365175Y138115D01*
Y134802D01*
X366032Y131603D01*
X367688Y128734D01*
X370031Y126392D01*
X372899Y124736D01*
X376099Y123879D01*
X379411D01*
X382611Y124736D01*
X385479Y126392D01*
X387821Y128734D01*
X389478Y131603D01*
X390335Y134802D01*
Y138115D01*
X389478Y141314D01*
X387821Y144183D01*
X385479Y146525D01*
X384341Y147182D01*
X383755Y149846D01*
X384093Y150330D01*
X445504D01*
Y139635D01*
X446278Y137768D01*
X447706Y136339D01*
X449574Y135566D01*
X475725D01*
X477592Y136339D01*
X479021Y137768D01*
X479794Y139635D01*
Y140646D01*
Y184000D01*
Y185010D01*
X479021Y186877D01*
X477592Y188306D01*
X475725Y189080D01*
X449574D01*
X447706Y188306D01*
X446278Y186877D01*
X445504Y185010D01*
Y173387D01*
X391832D01*
X390335Y174679D01*
X390335Y175419D01*
Y199839D01*
X365175D01*
Y196246D01*
X363410Y195600D01*
Y195600D01*
X359902Y195255D01*
X356529Y194231D01*
X353420Y192570D01*
X350695Y190333D01*
X348459Y187609D01*
X346797Y184500D01*
X345774Y181126D01*
X345429Y177618D01*
X345444D01*
Y116192D01*
X301346D01*
X299981Y117698D01*
X300202Y119940D01*
X300172D01*
Y177479D01*
X300841Y178314D01*
X301677Y178983D01*
X304012D01*
Y174729D01*
X309573D01*
X310117Y172697D01*
X308868Y171976D01*
X306526Y169634D01*
X304869Y166765D01*
X304012Y163566D01*
Y160253D01*
X304869Y157054D01*
X306526Y154185D01*
X308868Y151843D01*
X311560Y150288D01*
X311736Y149209D01*
X311560Y148130D01*
X308868Y146576D01*
X306526Y144234D01*
X304869Y141365D01*
X304012Y138166D01*
Y134853D01*
X304869Y131654D01*
X306526Y128785D01*
X308868Y126443D01*
X311736Y124787D01*
X314936Y123929D01*
X318248D01*
X321448Y124787D01*
X324316Y126443D01*
X326659Y128785D01*
X328315Y131654D01*
X329172Y134853D01*
Y138166D01*
X328315Y141365D01*
X326659Y144234D01*
X324316Y146576D01*
X321624Y148130D01*
X321448Y149209D01*
X321624Y150288D01*
X324316Y151843D01*
X326659Y154185D01*
X328315Y157054D01*
X329172Y160253D01*
Y163566D01*
X328315Y166765D01*
X326659Y169634D01*
X324316Y171976D01*
X323067Y172697D01*
X323611Y174729D01*
X329172D01*
Y199889D01*
X304012D01*
Y195636D01*
X301376D01*
Y195650D01*
X297890Y195307D01*
X294537Y194290D01*
X291448Y192639D01*
X288739Y190416D01*
X286517Y187708D01*
X284865Y184618D01*
X283848Y181266D01*
X283505Y177779D01*
X283520D01*
Y119940D01*
X283531Y119856D01*
X283217Y118279D01*
X282277Y116872D01*
X281260Y116192D01*
X230994D01*
X229818Y118224D01*
X230201Y119147D01*
Y120158D01*
Y184000D01*
Y185010D01*
X229427Y186877D01*
X227998Y188306D01*
X226131Y189080D01*
X199980D01*
X198113Y188306D01*
X196684Y186877D01*
X195910Y185010D01*
Y184000D01*
Y120158D01*
Y119147D01*
X196293Y118224D01*
X195117Y116192D01*
X130302D01*
X130302Y384837D01*
X130198Y385895D01*
X129389Y387849D01*
X127893Y389345D01*
X126733Y389825D01*
X125939Y390154D01*
X124881Y390258D01*
X124881Y390258D01*
X124881Y390258D01*
X124881Y390258D01*
X104140Y390258D01*
X103073Y390153D01*
X101102Y389337D01*
X99594Y387828D01*
X98777Y385857D01*
X98673Y384791D01*
Y376288D01*
X52070D01*
X50944Y376288D01*
X48736Y376727D01*
X46656Y377589D01*
X44784Y378840D01*
X43192Y380432D01*
X41941Y382304D01*
X41079Y384384D01*
X40640Y386592D01*
X40640Y387718D01*
Y413118D01*
X40640Y414369D01*
X41128Y416823D01*
X42085Y419134D01*
X43475Y421214D01*
X45244Y422983D01*
X47324Y424373D01*
X49636Y425330D01*
X52089Y425818D01*
X53340Y425818D01*
X53340Y425818D01*
X144005Y425818D01*
X144819D01*
X146415Y425501D01*
X147919Y424878D01*
X149272Y423974D01*
X150423Y422823D01*
X151327Y421469D01*
X151950Y419966D01*
X152268Y418369D01*
Y407618D01*
X152308Y406802D01*
X152626Y405201D01*
X153251Y403693D01*
X154157Y402336D01*
X155312Y401182D01*
X156669Y400275D01*
X158177Y399651D01*
X159778Y399332D01*
X160594Y399292D01*
X172094D01*
X172267Y399275D01*
Y399292D01*
X304012D01*
Y374677D01*
X309573D01*
X310117Y372645D01*
X308868Y371923D01*
X306526Y369581D01*
X304869Y366713D01*
X304012Y363513D01*
Y360201D01*
X304869Y357001D01*
X306526Y354133D01*
X308868Y351791D01*
X311560Y350236D01*
X311736Y349157D01*
X311560Y348078D01*
X308868Y346524D01*
X306526Y344181D01*
X304869Y341313D01*
X304012Y338113D01*
Y334801D01*
X304869Y331601D01*
X306526Y328733D01*
X308868Y326390D01*
X311736Y324734D01*
X314936Y323877D01*
X318248D01*
X321448Y324734D01*
X324316Y326390D01*
X326659Y328733D01*
X328315Y331601D01*
X329172Y334801D01*
Y338113D01*
X328315Y341313D01*
X326659Y344181D01*
X324316Y346524D01*
X321624Y348078D01*
X321448Y349157D01*
X321624Y350236D01*
X324316Y351791D01*
X326659Y354133D01*
X328315Y357001D01*
X329172Y360201D01*
Y363513D01*
X328315Y366713D01*
X326659Y369581D01*
X324316Y371923D01*
X323067Y372645D01*
X323611Y374677D01*
X329172D01*
Y399292D01*
X365175D01*
Y374151D01*
X370736D01*
X371280Y372119D01*
X370031Y371397D01*
X367688Y369055D01*
X366032Y366186D01*
X365175Y362987D01*
Y359674D01*
X366032Y356475D01*
X367688Y353606D01*
X370031Y351264D01*
X372723Y349710D01*
X372899Y348631D01*
X372723Y347552D01*
X370031Y345997D01*
X367688Y343655D01*
X366032Y340786D01*
X365175Y337587D01*
Y334274D01*
X366032Y331075D01*
X367688Y328206D01*
X370031Y325864D01*
X372899Y324208D01*
X376099Y323351D01*
X379411D01*
X382611Y324208D01*
X385479Y325864D01*
X387821Y328206D01*
X389478Y331075D01*
X390335Y334274D01*
Y337587D01*
X389478Y340786D01*
X387821Y343655D01*
X385479Y345997D01*
X384341Y346654D01*
X383755Y349318D01*
X384093Y349802D01*
X445504D01*
Y339635D01*
X446278Y337768D01*
X447706Y336339D01*
X449574Y335566D01*
X475725D01*
X477592Y336339D01*
X479021Y337768D01*
X479794Y339635D01*
Y340646D01*
Y384000D01*
Y385010D01*
X479021Y386877D01*
X477592Y388306D01*
X475725Y389080D01*
X449574D01*
X447706Y388306D01*
X446278Y386877D01*
X445504Y385010D01*
Y372859D01*
X391832D01*
X390335Y374151D01*
X390335Y374891D01*
Y399292D01*
Y440940D01*
Y442226D01*
X391320Y444604D01*
X393139Y446423D01*
X395038Y447210D01*
X459032D01*
X459675Y447082D01*
D02*
G37*
G36*
X124632Y283583D02*
X125163Y283365D01*
X125618Y283014D01*
X125968Y282560D01*
X126187Y282029D01*
X126263Y281460D01*
Y265658D01*
X126189Y265130D01*
X125989Y264632D01*
X125674Y264200D01*
X125280Y263873D01*
X125277D01*
X125262Y263858D01*
X125247Y263845D01*
X124803Y263446D01*
X124795Y263444D01*
X124787Y263433D01*
X124777Y263423D01*
Y263416D01*
X124457Y262908D01*
X124449Y262905D01*
X124447Y262892D01*
X124439Y262880D01*
X124442Y262872D01*
X124274Y262298D01*
X124269Y262293D01*
Y262278D01*
X124267Y262265D01*
X124269Y262257D01*
Y261658D01*
X124267Y261653D01*
X124269Y261640D01*
Y261625D01*
X124274Y261620D01*
X124442Y261043D01*
X124439Y261036D01*
X124447Y261026D01*
X124449Y261013D01*
X124457Y261008D01*
X124777Y260502D01*
Y260495D01*
X124787Y260484D01*
X124795Y260472D01*
X124803D01*
X125247Y260073D01*
X125262Y260058D01*
X125277Y260045D01*
X125684Y259692D01*
X126001Y259235D01*
X126197Y258711D01*
X126263Y258158D01*
Y242359D01*
X126187Y241790D01*
X125968Y241259D01*
X125618Y240802D01*
X125163Y240454D01*
X124632Y240233D01*
X124063Y240159D01*
X113662D01*
X112943Y240256D01*
X112275Y240535D01*
X111701Y240980D01*
X111262Y241559D01*
X110741Y242295D01*
Y242303D01*
X110731Y242313D01*
X110721Y242323D01*
X110716Y242326D01*
X110063Y242918D01*
X110060Y242925D01*
X110048Y242933D01*
X110035Y242943D01*
X110030Y242941D01*
X109263Y243377D01*
X109260Y243383D01*
X109245Y243388D01*
X109232Y243395D01*
X109225Y243393D01*
X108381Y243652D01*
X108361Y243659D01*
X108343Y243665D01*
X107749Y243837D01*
X107190Y244155D01*
X106723Y244589D01*
X106365Y245123D01*
X106141Y245722D01*
X106062Y246360D01*
Y277759D01*
X106161Y278363D01*
X106398Y278930D01*
X106758Y279428D01*
X107223Y279827D01*
X107767Y280109D01*
X108343Y280253D01*
X108364Y280258D01*
X108381Y280263D01*
X109250Y280515D01*
X109255Y280512D01*
X109270Y280520D01*
X109283Y280525D01*
X109288Y280530D01*
X110081Y280965D01*
X110086D01*
X110096Y280975D01*
X110111Y280982D01*
Y280987D01*
X110792Y281584D01*
X110797D01*
X110807Y281597D01*
X110817Y281607D01*
Y281612D01*
X111363Y282359D01*
X111788Y282903D01*
X112339Y283319D01*
X112979Y283576D01*
X113662Y283659D01*
X124063D01*
X124632Y283583D01*
D02*
G37*
G36*
X574632Y183583D02*
X575163Y183365D01*
X575618Y183014D01*
X575968Y182560D01*
X576187Y182029D01*
X576263Y181460D01*
Y165658D01*
X576189Y165130D01*
X575989Y164632D01*
X575674Y164200D01*
X575280Y163873D01*
X575277D01*
X575262Y163858D01*
X575247Y163845D01*
X574803Y163446D01*
X574795Y163444D01*
X574787Y163433D01*
X574777Y163423D01*
Y163416D01*
X574457Y162908D01*
X574449Y162905D01*
X574447Y162892D01*
X574439Y162880D01*
X574442Y162872D01*
X574274Y162298D01*
X574269Y162293D01*
Y162278D01*
X574267Y162265D01*
X574269Y162257D01*
Y161658D01*
X574267Y161653D01*
X574269Y161640D01*
Y161625D01*
X574274Y161620D01*
X574442Y161043D01*
X574439Y161036D01*
X574447Y161026D01*
X574449Y161013D01*
X574457Y161008D01*
X574777Y160502D01*
Y160495D01*
X574787Y160484D01*
X574795Y160472D01*
X574803D01*
X575247Y160073D01*
X575262Y160058D01*
X575277Y160045D01*
X575684Y159692D01*
X576001Y159235D01*
X576197Y158712D01*
X576263Y158158D01*
Y142359D01*
X576187Y141790D01*
X575968Y141259D01*
X575618Y140802D01*
X575163Y140454D01*
X574632Y140233D01*
X574063Y140159D01*
X563662D01*
X562943Y140256D01*
X562275Y140535D01*
X561701Y140980D01*
X561262Y141559D01*
X560741Y142296D01*
Y142303D01*
X560731Y142313D01*
X560721Y142323D01*
X560716Y142326D01*
X560063Y142918D01*
X560060Y142925D01*
X560048Y142933D01*
X560035Y142943D01*
X560030Y142941D01*
X559263Y143378D01*
X559260Y143383D01*
X559245Y143388D01*
X559232Y143395D01*
X559225Y143393D01*
X558381Y143652D01*
X558361Y143659D01*
X558343Y143665D01*
X557749Y143837D01*
X557190Y144155D01*
X556723Y144589D01*
X556365Y145122D01*
X556141Y145722D01*
X556062Y146360D01*
Y177759D01*
X556161Y178363D01*
X556398Y178930D01*
X556758Y179428D01*
X557223Y179827D01*
X557767Y180109D01*
X558343Y180253D01*
X558364Y180258D01*
X558381Y180263D01*
X559250Y180515D01*
X559255Y180512D01*
X559270Y180520D01*
X559283Y180525D01*
X559288Y180530D01*
X560081Y180965D01*
X560086D01*
X560096Y180975D01*
X560111Y180982D01*
Y180987D01*
X560792Y181584D01*
X560797D01*
X560807Y181597D01*
X560817Y181607D01*
Y181612D01*
X561363Y182359D01*
X561787Y182903D01*
X562339Y183319D01*
X562979Y183576D01*
X563662Y183659D01*
X574063D01*
X574632Y183583D01*
D02*
G37*
G36*
X474632D02*
X475163Y183365D01*
X475618Y183014D01*
X475968Y182560D01*
X476187Y182029D01*
X476263Y181460D01*
Y165658D01*
X476189Y165130D01*
X475989Y164632D01*
X475674Y164200D01*
X475280Y163873D01*
X475277D01*
X475262Y163858D01*
X475247Y163845D01*
X474803Y163446D01*
X474795Y163444D01*
X474787Y163433D01*
X474777Y163423D01*
Y163416D01*
X474457Y162908D01*
X474449Y162905D01*
X474447Y162892D01*
X474439Y162880D01*
X474442Y162872D01*
X474274Y162298D01*
X474269Y162293D01*
Y162278D01*
X474267Y162265D01*
X474269Y162257D01*
Y161658D01*
X474267Y161653D01*
X474269Y161640D01*
Y161625D01*
X474274Y161620D01*
X474442Y161043D01*
X474439Y161036D01*
X474447Y161026D01*
X474449Y161013D01*
X474457Y161008D01*
X474777Y160502D01*
Y160495D01*
X474787Y160484D01*
X474795Y160472D01*
X474803D01*
X475247Y160073D01*
X475262Y160058D01*
X475277Y160045D01*
X475684Y159692D01*
X476001Y159235D01*
X476197Y158712D01*
X476263Y158158D01*
Y142359D01*
X476187Y141790D01*
X475968Y141259D01*
X475618Y140802D01*
X475163Y140454D01*
X474632Y140233D01*
X474063Y140159D01*
X463662D01*
X462943Y140256D01*
X462275Y140535D01*
X461701Y140980D01*
X461262Y141559D01*
X460741Y142296D01*
Y142303D01*
X460731Y142313D01*
X460721Y142323D01*
X460716Y142326D01*
X460063Y142918D01*
X460060Y142925D01*
X460048Y142933D01*
X460035Y142943D01*
X460030Y142941D01*
X459263Y143378D01*
X459260Y143383D01*
X459245Y143388D01*
X459232Y143395D01*
X459225Y143393D01*
X458381Y143652D01*
X458361Y143659D01*
X458343Y143665D01*
X457749Y143837D01*
X457190Y144155D01*
X456723Y144589D01*
X456365Y145122D01*
X456141Y145722D01*
X456062Y146360D01*
Y177759D01*
X456161Y178363D01*
X456398Y178930D01*
X456758Y179428D01*
X457223Y179827D01*
X457767Y180109D01*
X458343Y180253D01*
X458364Y180258D01*
X458381Y180263D01*
X459250Y180515D01*
X459255Y180512D01*
X459270Y180520D01*
X459283Y180525D01*
X459288Y180530D01*
X460081Y180965D01*
X460086D01*
X460096Y180975D01*
X460111Y180982D01*
Y180987D01*
X460792Y181584D01*
X460797D01*
X460807Y181597D01*
X460817Y181607D01*
Y181612D01*
X461363Y182359D01*
X461787Y182903D01*
X462339Y183319D01*
X462979Y183576D01*
X463662Y183659D01*
X474063D01*
X474632Y183583D01*
D02*
G37*
G36*
X224632D02*
X225163Y183365D01*
X225618Y183014D01*
X225968Y182560D01*
X226187Y182029D01*
X226263Y181460D01*
Y165658D01*
X226189Y165130D01*
X225989Y164632D01*
X225674Y164200D01*
X225280Y163873D01*
X225278D01*
X225262Y163858D01*
X225247Y163845D01*
X224802Y163446D01*
X224795Y163444D01*
X224787Y163433D01*
X224777Y163423D01*
Y163416D01*
X224457Y162908D01*
X224449Y162905D01*
X224447Y162892D01*
X224439Y162880D01*
X224442Y162872D01*
X224274Y162298D01*
X224269Y162293D01*
Y162278D01*
X224266Y162265D01*
X224269Y162257D01*
Y161658D01*
X224266Y161653D01*
X224269Y161640D01*
Y161625D01*
X224274Y161620D01*
X224442Y161043D01*
X224439Y161036D01*
X224447Y161026D01*
X224449Y161013D01*
X224457Y161008D01*
X224777Y160502D01*
Y160495D01*
X224787Y160484D01*
X224795Y160472D01*
X224802D01*
X225247Y160073D01*
X225262Y160058D01*
X225278Y160045D01*
X225684Y159692D01*
X226001Y159235D01*
X226197Y158712D01*
X226263Y158158D01*
Y142359D01*
X226187Y141790D01*
X225968Y141259D01*
X225618Y140802D01*
X225163Y140454D01*
X224632Y140233D01*
X224063Y140159D01*
X213662D01*
X212943Y140256D01*
X212275Y140535D01*
X211701Y140980D01*
X211262Y141559D01*
X210741Y142296D01*
Y142303D01*
X210731Y142313D01*
X210721Y142323D01*
X210716Y142326D01*
X210063Y142918D01*
X210060Y142925D01*
X210048Y142933D01*
X210035Y142943D01*
X210030Y142941D01*
X209263Y143378D01*
X209260Y143383D01*
X209245Y143388D01*
X209232Y143395D01*
X209225Y143393D01*
X208381Y143652D01*
X208361Y143659D01*
X208343Y143665D01*
X207749Y143837D01*
X207190Y144155D01*
X206723Y144589D01*
X206365Y145122D01*
X206141Y145722D01*
X206062Y146360D01*
Y177759D01*
X206161Y178363D01*
X206398Y178930D01*
X206758Y179428D01*
X207223Y179827D01*
X207767Y180109D01*
X208343Y180253D01*
X208364Y180258D01*
X208381Y180263D01*
X209250Y180515D01*
X209255Y180512D01*
X209270Y180520D01*
X209283Y180525D01*
X209288Y180530D01*
X210081Y180965D01*
X210086D01*
X210096Y180975D01*
X210111Y180982D01*
Y180987D01*
X210792Y181584D01*
X210797D01*
X210807Y181597D01*
X210817Y181607D01*
Y181612D01*
X211363Y182359D01*
X211787Y182903D01*
X212339Y183319D01*
X212979Y183576D01*
X213662Y183659D01*
X224063D01*
X224632Y183583D01*
D02*
G37*
G36*
X124632D02*
X125163Y183365D01*
X125618Y183014D01*
X125968Y182560D01*
X126187Y182029D01*
X126263Y181460D01*
Y165658D01*
X126189Y165130D01*
X125989Y164632D01*
X125674Y164200D01*
X125280Y163873D01*
X125277D01*
X125262Y163858D01*
X125247Y163845D01*
X124803Y163446D01*
X124795Y163444D01*
X124787Y163433D01*
X124777Y163423D01*
Y163416D01*
X124457Y162908D01*
X124449Y162905D01*
X124447Y162892D01*
X124439Y162880D01*
X124442Y162872D01*
X124274Y162298D01*
X124269Y162293D01*
Y162278D01*
X124267Y162265D01*
X124269Y162257D01*
Y161658D01*
X124267Y161653D01*
X124269Y161640D01*
Y161625D01*
X124274Y161620D01*
X124442Y161043D01*
X124439Y161036D01*
X124447Y161026D01*
X124449Y161013D01*
X124457Y161008D01*
X124777Y160502D01*
Y160495D01*
X124787Y160484D01*
X124795Y160472D01*
X124803D01*
X125247Y160073D01*
X125262Y160058D01*
X125277Y160045D01*
X125684Y159692D01*
X126001Y159235D01*
X126197Y158712D01*
X126263Y158158D01*
Y142359D01*
X126187Y141790D01*
X125968Y141259D01*
X125618Y140802D01*
X125163Y140454D01*
X124632Y140233D01*
X124063Y140159D01*
X113662D01*
X112943Y140256D01*
X112275Y140535D01*
X111701Y140980D01*
X111262Y141559D01*
X110741Y142296D01*
Y142303D01*
X110731Y142313D01*
X110721Y142323D01*
X110716Y142326D01*
X110063Y142918D01*
X110060Y142925D01*
X110048Y142933D01*
X110035Y142943D01*
X110030Y142941D01*
X109263Y143378D01*
X109260Y143383D01*
X109245Y143388D01*
X109232Y143395D01*
X109225Y143393D01*
X108381Y143652D01*
X108361Y143659D01*
X108343Y143665D01*
X107749Y143837D01*
X107190Y144155D01*
X106723Y144589D01*
X106365Y145122D01*
X106141Y145722D01*
X106062Y146360D01*
Y177759D01*
X106161Y178363D01*
X106398Y178930D01*
X106758Y179428D01*
X107223Y179827D01*
X107767Y180109D01*
X108343Y180253D01*
X108364Y180258D01*
X108381Y180263D01*
X109250Y180515D01*
X109255Y180512D01*
X109270Y180520D01*
X109283Y180525D01*
X109288Y180530D01*
X110081Y180965D01*
X110086D01*
X110096Y180975D01*
X110111Y180982D01*
Y180987D01*
X110792Y181584D01*
X110797D01*
X110807Y181597D01*
X110817Y181607D01*
Y181612D01*
X111363Y182359D01*
X111788Y182903D01*
X112339Y183319D01*
X112979Y183576D01*
X113662Y183659D01*
X124063D01*
X124632Y183583D01*
D02*
G37*
G36*
X505767Y78844D02*
X368262D01*
X367036Y78844D01*
X364770Y79783D01*
X363035Y81518D01*
X362096Y83784D01*
X362096Y85010D01*
Y112128D01*
X505767D01*
X505767Y78844D01*
D02*
G37*
G36*
X150941Y112128D02*
X151901Y112128D01*
X153675Y111394D01*
X155033Y110036D01*
X155767Y108262D01*
X155767Y107302D01*
X155767Y107302D01*
Y78844D01*
X94760D01*
X93504Y79094D01*
X92321Y79584D01*
X91257Y80295D01*
X90351Y81201D01*
X89640Y82265D01*
X89150Y83448D01*
X88900Y84704D01*
Y85344D01*
Y105524D01*
X88900Y106175D01*
X89154Y107451D01*
X89652Y108652D01*
X90374Y109734D01*
X91294Y110654D01*
X92376Y111377D01*
X93578Y111875D01*
X94854Y112128D01*
X95504D01*
X95504Y112128D01*
X150941Y112128D01*
D02*
G37*
G36*
X758591Y52276D02*
X756667Y51623D01*
X756403Y51967D01*
X753619Y54751D01*
X750495Y57148D01*
X747085Y59117D01*
X743447Y60624D01*
X739643Y61643D01*
X735739Y62157D01*
X731801D01*
X727897Y61643D01*
X724094Y60624D01*
X720456Y59117D01*
X717046Y57148D01*
X713922Y54751D01*
X711137Y51967D01*
X708740Y48843D01*
X706771Y45433D01*
X705265Y41795D01*
X704245Y37991D01*
X703731Y34087D01*
Y30150D01*
X704245Y26246D01*
X705265Y22442D01*
X706771Y18804D01*
X708740Y15394D01*
X711137Y12270D01*
X713922Y9485D01*
X715381Y8365D01*
X715739Y5575D01*
X715433Y5179D01*
X48337D01*
X48032Y5575D01*
X48389Y8365D01*
X49849Y9485D01*
X52633Y12270D01*
X55030Y15394D01*
X56999Y18804D01*
X58506Y22442D01*
X59525Y26246D01*
X60039Y30150D01*
Y34087D01*
X59525Y37991D01*
X58506Y41795D01*
X56999Y45433D01*
X55030Y48843D01*
X52633Y51967D01*
X49849Y54751D01*
X46725Y57148D01*
X45807Y57678D01*
X46351Y59710D01*
X176017D01*
Y59656D01*
X179804Y60155D01*
X183333Y61616D01*
X186362Y63941D01*
X188687Y66971D01*
X190149Y70500D01*
X190579Y73764D01*
X200847D01*
Y77018D01*
X342254D01*
X342697Y77076D01*
X345807D01*
X345830Y76846D01*
X347073Y72747D01*
X349092Y68969D01*
X351810Y65658D01*
X355121Y62941D01*
X358899Y60921D01*
X362998Y59678D01*
X367261Y59258D01*
Y59292D01*
X526812D01*
Y59245D01*
X530391Y59716D01*
X533726Y61098D01*
X536590Y63295D01*
X538788Y66160D01*
X540169Y69495D01*
X540641Y73074D01*
X542387Y73764D01*
X550847D01*
Y77018D01*
X691388D01*
X691831Y77076D01*
X758591D01*
Y52276D01*
D02*
G37*
%LPC*%
G36*
X226131Y389080D02*
X199980D01*
X198113Y388306D01*
X196684Y386877D01*
X195910Y385010D01*
Y384000D01*
Y320158D01*
Y319147D01*
X196684Y317280D01*
X198113Y315851D01*
X199980Y315078D01*
X226131D01*
X227998Y315851D01*
X229427Y317280D01*
X230201Y319147D01*
Y320158D01*
Y384000D01*
Y385010D01*
X229427Y386877D01*
X227998Y388306D01*
X226131Y389080D01*
D02*
G37*
G36*
X740292Y313298D02*
X736848D01*
X733521Y312407D01*
X730539Y310685D01*
X728104Y308250D01*
X726382Y305267D01*
X725490Y301940D01*
Y298496D01*
X726382Y295170D01*
X728104Y292187D01*
X730539Y289752D01*
X732375Y288692D01*
Y286345D01*
X730539Y285285D01*
X728104Y282850D01*
X726382Y279867D01*
X725490Y276540D01*
Y273096D01*
X726382Y269770D01*
X728104Y266787D01*
X730539Y264352D01*
X732375Y263291D01*
Y260945D01*
X730539Y259885D01*
X728104Y257450D01*
X726382Y254467D01*
X725490Y251140D01*
Y247696D01*
X726382Y244370D01*
X728104Y241387D01*
X730539Y238952D01*
X733521Y237230D01*
X736848Y236338D01*
X740292D01*
X743619Y237230D01*
X746601Y238952D01*
X749037Y241387D01*
X750759Y244370D01*
X751650Y247696D01*
Y251140D01*
X750759Y254467D01*
X749037Y257450D01*
X746601Y259885D01*
X744765Y260945D01*
Y263291D01*
X746601Y264352D01*
X749037Y266787D01*
X750759Y269770D01*
X751650Y273096D01*
Y276540D01*
X750759Y279867D01*
X749037Y282850D01*
X746601Y285285D01*
X744765Y286345D01*
Y288692D01*
X746601Y289752D01*
X749037Y292187D01*
X750759Y295170D01*
X751650Y298496D01*
Y301940D01*
X750759Y305267D01*
X749037Y308250D01*
X746601Y310685D01*
X743619Y312407D01*
X740292Y313298D01*
D02*
G37*
G36*
X390335Y299839D02*
X365175D01*
Y274679D01*
X370736D01*
X371280Y272647D01*
X370031Y271925D01*
X367688Y269583D01*
X366032Y266714D01*
X365175Y263515D01*
Y260202D01*
X366032Y257003D01*
X367688Y254134D01*
X370031Y251792D01*
X372723Y250238D01*
X372899Y249159D01*
X372723Y248079D01*
X370031Y246525D01*
X367688Y244183D01*
X366032Y241314D01*
X365175Y238115D01*
Y234802D01*
X366032Y231603D01*
X367688Y228734D01*
X370031Y226392D01*
X372899Y224736D01*
X376099Y223879D01*
X379411D01*
X382611Y224736D01*
X385479Y226392D01*
X387821Y228734D01*
X389478Y231603D01*
X390335Y234802D01*
Y238115D01*
X389478Y241314D01*
X387821Y244183D01*
X385479Y246525D01*
X384341Y247182D01*
X383755Y249846D01*
X384093Y250330D01*
X445504D01*
Y239635D01*
X446278Y237768D01*
X447706Y236339D01*
X449574Y235566D01*
X475725D01*
X477592Y236339D01*
X479021Y237768D01*
X479794Y239635D01*
Y240646D01*
Y284000D01*
Y285010D01*
X479021Y286877D01*
X477592Y288306D01*
X475725Y289080D01*
X449574D01*
X447706Y288306D01*
X446278Y286877D01*
X445504Y285010D01*
Y273387D01*
X391832D01*
X390335Y274679D01*
X390335Y275419D01*
Y299839D01*
D02*
G37*
G36*
X329172Y299968D02*
X304012D01*
Y274808D01*
X309573D01*
X310117Y272776D01*
X308868Y272055D01*
X306526Y269713D01*
X304869Y266844D01*
X304012Y263645D01*
Y260332D01*
X304869Y257133D01*
X306526Y254264D01*
X308868Y251922D01*
X311560Y250367D01*
X311736Y249288D01*
X311560Y248209D01*
X308868Y246655D01*
X306526Y244313D01*
X304869Y241444D01*
X304012Y238244D01*
Y234932D01*
X304869Y231733D01*
X306526Y228864D01*
X308868Y226522D01*
X311736Y224866D01*
X314936Y224008D01*
X318248D01*
X321448Y224866D01*
X324316Y226522D01*
X326659Y228864D01*
X328315Y231733D01*
X329172Y234932D01*
Y238244D01*
X328315Y241444D01*
X326659Y244313D01*
X324316Y246655D01*
X321624Y248209D01*
X321448Y249288D01*
X321624Y250367D01*
X324316Y251922D01*
X326659Y254264D01*
X328315Y257133D01*
X329172Y260332D01*
Y263645D01*
X328315Y266844D01*
X326659Y269713D01*
X324316Y272055D01*
X323067Y272776D01*
X323611Y274808D01*
X329172D01*
Y299968D01*
D02*
G37*
G36*
X679172Y299889D02*
X654012D01*
Y274729D01*
X659573D01*
X660117Y272697D01*
X658868Y271976D01*
X656526Y269634D01*
X654870Y266765D01*
X654012Y263566D01*
Y260253D01*
X654870Y257054D01*
X656526Y254185D01*
X658868Y251843D01*
X661560Y250289D01*
X661736Y249209D01*
X661560Y248130D01*
X658868Y246576D01*
X656526Y244234D01*
X654870Y241365D01*
X654012Y238166D01*
Y234853D01*
X654870Y231654D01*
X656526Y228785D01*
X658868Y226443D01*
X661736Y224787D01*
X664936Y223929D01*
X668248D01*
X671448Y224787D01*
X674316Y226443D01*
X676659Y228785D01*
X678315Y231654D01*
X679172Y234853D01*
Y238166D01*
X678315Y241365D01*
X676659Y244234D01*
X674316Y246576D01*
X671624Y248130D01*
X671448Y249209D01*
X671624Y250289D01*
X674316Y251843D01*
X676659Y254185D01*
X678315Y257054D01*
X679172Y260253D01*
Y263566D01*
X678315Y266765D01*
X676659Y269634D01*
X674316Y271976D01*
X673067Y272697D01*
X673611Y274729D01*
X679172D01*
Y299889D01*
D02*
G37*
G36*
X576131Y289080D02*
X549980D01*
X548113Y288306D01*
X546684Y286877D01*
X545910Y285010D01*
Y284000D01*
Y220158D01*
Y219147D01*
X546684Y217280D01*
X548113Y215851D01*
X549980Y215078D01*
X576131D01*
X577998Y215851D01*
X579427Y217280D01*
X580201Y219147D01*
Y220158D01*
Y284000D01*
Y285010D01*
X579427Y286877D01*
X577998Y288306D01*
X576131Y289080D01*
D02*
G37*
G36*
X226131D02*
X199980D01*
X198113Y288306D01*
X196684Y286877D01*
X195910Y285010D01*
Y284000D01*
Y220158D01*
Y219147D01*
X196684Y217280D01*
X198113Y215851D01*
X199980Y215078D01*
X226131D01*
X227998Y215851D01*
X229427Y217280D01*
X230201Y219147D01*
Y220158D01*
Y284000D01*
Y285010D01*
X229427Y286877D01*
X227998Y288306D01*
X226131Y289080D01*
D02*
G37*
%LPD*%
G36*
X224632Y383583D02*
X225163Y383365D01*
X225618Y383014D01*
X225968Y382560D01*
X226187Y382029D01*
X226263Y381460D01*
Y365658D01*
X226189Y365130D01*
X225989Y364632D01*
X225674Y364201D01*
X225280Y363873D01*
X225278D01*
X225262Y363858D01*
X225247Y363845D01*
X224802Y363446D01*
X224795Y363443D01*
X224787Y363433D01*
X224777Y363423D01*
Y363416D01*
X224457Y362908D01*
X224449Y362905D01*
X224447Y362892D01*
X224439Y362880D01*
X224442Y362872D01*
X224274Y362298D01*
X224269Y362293D01*
Y362278D01*
X224266Y362265D01*
X224269Y362257D01*
Y361658D01*
X224266Y361653D01*
X224269Y361640D01*
Y361625D01*
X224274Y361620D01*
X224442Y361043D01*
X224439Y361036D01*
X224447Y361026D01*
X224449Y361013D01*
X224457Y361008D01*
X224777Y360502D01*
Y360495D01*
X224787Y360484D01*
X224795Y360472D01*
X224802D01*
X225247Y360073D01*
X225262Y360058D01*
X225278Y360045D01*
X225684Y359692D01*
X226001Y359235D01*
X226197Y358712D01*
X226263Y358158D01*
Y342359D01*
X226187Y341790D01*
X225968Y341259D01*
X225618Y340802D01*
X225163Y340454D01*
X224632Y340233D01*
X224063Y340159D01*
X213662D01*
X212943Y340256D01*
X212275Y340535D01*
X211701Y340980D01*
X211262Y341559D01*
X210741Y342295D01*
Y342303D01*
X210731Y342313D01*
X210721Y342323D01*
X210716Y342326D01*
X210063Y342918D01*
X210060Y342925D01*
X210048Y342933D01*
X210035Y342943D01*
X210030Y342941D01*
X209263Y343377D01*
X209260Y343383D01*
X209245Y343388D01*
X209232Y343395D01*
X209225Y343393D01*
X208381Y343652D01*
X208361Y343660D01*
X208343Y343665D01*
X207749Y343837D01*
X207190Y344155D01*
X206723Y344589D01*
X206365Y345122D01*
X206141Y345722D01*
X206062Y346359D01*
Y377759D01*
X206161Y378363D01*
X206398Y378930D01*
X206758Y379428D01*
X207223Y379827D01*
X207767Y380108D01*
X208343Y380253D01*
X208364Y380258D01*
X208381Y380263D01*
X209250Y380515D01*
X209255Y380512D01*
X209270Y380520D01*
X209283Y380525D01*
X209288Y380530D01*
X210081Y380965D01*
X210086D01*
X210096Y380975D01*
X210111Y380982D01*
Y380987D01*
X210792Y381584D01*
X210797D01*
X210807Y381597D01*
X210817Y381607D01*
Y381612D01*
X211363Y382359D01*
X211787Y382902D01*
X212339Y383319D01*
X212979Y383576D01*
X213662Y383659D01*
X224063D01*
X224632Y383583D01*
D02*
G37*
G36*
X474632Y283583D02*
X475163Y283365D01*
X475618Y283014D01*
X475968Y282560D01*
X476187Y282029D01*
X476263Y281460D01*
Y265658D01*
X476189Y265130D01*
X475989Y264632D01*
X475674Y264200D01*
X475280Y263873D01*
X475277D01*
X475262Y263858D01*
X475247Y263845D01*
X474803Y263446D01*
X474795Y263444D01*
X474787Y263433D01*
X474777Y263423D01*
Y263416D01*
X474457Y262908D01*
X474449Y262905D01*
X474447Y262892D01*
X474439Y262880D01*
X474442Y262872D01*
X474274Y262298D01*
X474269Y262293D01*
Y262278D01*
X474267Y262265D01*
X474269Y262257D01*
Y261658D01*
X474267Y261653D01*
X474269Y261640D01*
Y261625D01*
X474274Y261620D01*
X474442Y261043D01*
X474439Y261036D01*
X474447Y261026D01*
X474449Y261013D01*
X474457Y261008D01*
X474777Y260502D01*
Y260495D01*
X474787Y260484D01*
X474795Y260472D01*
X474803D01*
X475247Y260073D01*
X475262Y260058D01*
X475277Y260045D01*
X475684Y259692D01*
X476001Y259235D01*
X476197Y258711D01*
X476263Y258158D01*
Y242359D01*
X476187Y241790D01*
X475968Y241259D01*
X475618Y240802D01*
X475163Y240454D01*
X474632Y240233D01*
X474063Y240159D01*
X463662D01*
X462943Y240256D01*
X462275Y240535D01*
X461701Y240980D01*
X461262Y241559D01*
X460741Y242295D01*
Y242303D01*
X460731Y242313D01*
X460721Y242323D01*
X460716Y242326D01*
X460063Y242918D01*
X460060Y242925D01*
X460048Y242933D01*
X460035Y242943D01*
X460030Y242941D01*
X459263Y243377D01*
X459260Y243383D01*
X459245Y243388D01*
X459232Y243395D01*
X459225Y243393D01*
X458381Y243652D01*
X458361Y243659D01*
X458343Y243665D01*
X457749Y243837D01*
X457190Y244155D01*
X456723Y244589D01*
X456365Y245123D01*
X456141Y245722D01*
X456062Y246360D01*
Y277759D01*
X456161Y278363D01*
X456398Y278930D01*
X456758Y279428D01*
X457223Y279827D01*
X457767Y280109D01*
X458343Y280253D01*
X458364Y280258D01*
X458381Y280263D01*
X459250Y280515D01*
X459255Y280512D01*
X459270Y280520D01*
X459283Y280525D01*
X459288Y280530D01*
X460081Y280965D01*
X460086D01*
X460096Y280975D01*
X460111Y280982D01*
Y280987D01*
X460792Y281584D01*
X460797D01*
X460807Y281597D01*
X460817Y281607D01*
Y281612D01*
X461363Y282359D01*
X461787Y282903D01*
X462339Y283319D01*
X462979Y283576D01*
X463662Y283659D01*
X474063D01*
X474632Y283583D01*
D02*
G37*
G36*
X574632D02*
X575163Y283365D01*
X575618Y283014D01*
X575968Y282560D01*
X576187Y282029D01*
X576263Y281460D01*
Y265658D01*
X576189Y265130D01*
X575989Y264632D01*
X575674Y264200D01*
X575280Y263873D01*
X575277D01*
X575262Y263858D01*
X575247Y263845D01*
X574803Y263446D01*
X574795Y263444D01*
X574787Y263433D01*
X574777Y263423D01*
Y263416D01*
X574457Y262908D01*
X574449Y262905D01*
X574447Y262892D01*
X574439Y262880D01*
X574442Y262872D01*
X574274Y262298D01*
X574269Y262293D01*
Y262278D01*
X574267Y262265D01*
X574269Y262257D01*
Y261658D01*
X574267Y261653D01*
X574269Y261640D01*
Y261625D01*
X574274Y261620D01*
X574442Y261043D01*
X574439Y261036D01*
X574447Y261026D01*
X574449Y261013D01*
X574457Y261008D01*
X574777Y260502D01*
Y260495D01*
X574787Y260484D01*
X574795Y260472D01*
X574803D01*
X575247Y260073D01*
X575262Y260058D01*
X575277Y260045D01*
X575684Y259692D01*
X576001Y259235D01*
X576197Y258711D01*
X576263Y258158D01*
Y242359D01*
X576187Y241790D01*
X575968Y241259D01*
X575618Y240802D01*
X575163Y240454D01*
X574632Y240233D01*
X574063Y240159D01*
X563662D01*
X562943Y240256D01*
X562275Y240535D01*
X561701Y240980D01*
X561262Y241559D01*
X560741Y242295D01*
Y242303D01*
X560731Y242313D01*
X560721Y242323D01*
X560716Y242326D01*
X560063Y242918D01*
X560060Y242925D01*
X560048Y242933D01*
X560035Y242943D01*
X560030Y242941D01*
X559263Y243377D01*
X559260Y243383D01*
X559245Y243388D01*
X559232Y243395D01*
X559225Y243393D01*
X558381Y243652D01*
X558361Y243659D01*
X558343Y243665D01*
X557749Y243837D01*
X557190Y244155D01*
X556723Y244589D01*
X556365Y245123D01*
X556141Y245722D01*
X556062Y246360D01*
Y277759D01*
X556161Y278363D01*
X556398Y278930D01*
X556758Y279428D01*
X557223Y279827D01*
X557767Y280109D01*
X558343Y280253D01*
X558364Y280258D01*
X558381Y280263D01*
X559250Y280515D01*
X559255Y280512D01*
X559270Y280520D01*
X559283Y280525D01*
X559288Y280530D01*
X560081Y280965D01*
X560086D01*
X560096Y280975D01*
X560111Y280982D01*
Y280987D01*
X560792Y281584D01*
X560797D01*
X560807Y281597D01*
X560817Y281607D01*
Y281612D01*
X561363Y282359D01*
X561787Y282903D01*
X562339Y283319D01*
X562979Y283576D01*
X563662Y283659D01*
X574063D01*
X574632Y283583D01*
D02*
G37*
G36*
X224632D02*
X225163Y283365D01*
X225618Y283014D01*
X225968Y282560D01*
X226187Y282029D01*
X226263Y281460D01*
Y265658D01*
X226189Y265130D01*
X225989Y264632D01*
X225674Y264200D01*
X225280Y263873D01*
X225278D01*
X225262Y263858D01*
X225247Y263845D01*
X224802Y263446D01*
X224795Y263444D01*
X224787Y263433D01*
X224777Y263423D01*
Y263416D01*
X224457Y262908D01*
X224449Y262905D01*
X224447Y262892D01*
X224439Y262880D01*
X224442Y262872D01*
X224274Y262298D01*
X224269Y262293D01*
Y262278D01*
X224266Y262265D01*
X224269Y262257D01*
Y261658D01*
X224266Y261653D01*
X224269Y261640D01*
Y261625D01*
X224274Y261620D01*
X224442Y261043D01*
X224439Y261036D01*
X224447Y261026D01*
X224449Y261013D01*
X224457Y261008D01*
X224777Y260502D01*
Y260495D01*
X224787Y260484D01*
X224795Y260472D01*
X224802D01*
X225247Y260073D01*
X225262Y260058D01*
X225278Y260045D01*
X225684Y259692D01*
X226001Y259235D01*
X226197Y258711D01*
X226263Y258158D01*
Y242359D01*
X226187Y241790D01*
X225968Y241259D01*
X225618Y240802D01*
X225163Y240454D01*
X224632Y240233D01*
X224063Y240159D01*
X213662D01*
X212943Y240256D01*
X212275Y240535D01*
X211701Y240980D01*
X211262Y241559D01*
X210741Y242295D01*
Y242303D01*
X210731Y242313D01*
X210721Y242323D01*
X210716Y242326D01*
X210063Y242918D01*
X210060Y242925D01*
X210048Y242933D01*
X210035Y242943D01*
X210030Y242941D01*
X209263Y243377D01*
X209260Y243383D01*
X209245Y243388D01*
X209232Y243395D01*
X209225Y243393D01*
X208381Y243652D01*
X208361Y243659D01*
X208343Y243665D01*
X207749Y243837D01*
X207190Y244155D01*
X206723Y244589D01*
X206365Y245123D01*
X206141Y245722D01*
X206062Y246360D01*
Y277759D01*
X206161Y278363D01*
X206398Y278930D01*
X206758Y279428D01*
X207223Y279827D01*
X207767Y280109D01*
X208343Y280253D01*
X208364Y280258D01*
X208381Y280263D01*
X209250Y280515D01*
X209255Y280512D01*
X209270Y280520D01*
X209283Y280525D01*
X209288Y280530D01*
X210081Y280965D01*
X210086D01*
X210096Y280975D01*
X210111Y280982D01*
Y280987D01*
X210792Y281584D01*
X210797D01*
X210807Y281597D01*
X210817Y281607D01*
Y281612D01*
X211363Y282359D01*
X211787Y282903D01*
X212339Y283319D01*
X212979Y283576D01*
X213662Y283659D01*
X224063D01*
X224632Y283583D01*
D02*
G37*
%LPC*%
G36*
X516169Y55455D02*
X514137Y55402D01*
X479639Y55402D01*
Y55451D01*
X476181Y54995D01*
X472958Y53660D01*
X470190Y51537D01*
X468066Y48769D01*
X466731Y45546D01*
X466276Y42087D01*
X466324D01*
Y32505D01*
X465930Y31034D01*
Y28907D01*
X466481Y26851D01*
X467545Y25009D01*
X469049Y23505D01*
X470891Y22441D01*
X472946Y21890D01*
X475074D01*
X477129Y22441D01*
X478971Y23505D01*
X480476Y25009D01*
X480835Y25632D01*
X483182D01*
X483541Y25009D01*
X485046Y23505D01*
X486888Y22441D01*
X488943Y21890D01*
X491071D01*
X491655Y22047D01*
X493687Y20506D01*
Y18764D01*
X504187D01*
Y17478D01*
X504738Y15423D01*
X505802Y13581D01*
X507306Y12076D01*
X509149Y11013D01*
X511204Y10462D01*
X513331D01*
X515386Y11013D01*
X517229Y12076D01*
X518733Y13581D01*
X519797Y15423D01*
X520347Y17478D01*
Y18764D01*
X524350D01*
Y17478D01*
X524901Y15423D01*
X525964Y13581D01*
X527469Y12076D01*
X529311Y11013D01*
X531366Y10462D01*
X533494D01*
X535549Y11013D01*
X537391Y12076D01*
X538895Y13581D01*
X539959Y15423D01*
X540510Y17478D01*
Y18764D01*
X550847D01*
Y22659D01*
X563955D01*
X564335Y22278D01*
X566633Y20951D01*
X569197Y20264D01*
X571851D01*
X574415Y20951D01*
X576713Y22278D01*
X578590Y24155D01*
X579917Y26454D01*
X580604Y29017D01*
Y31671D01*
X579917Y34235D01*
X578590Y36534D01*
X576713Y38410D01*
X574415Y39737D01*
X571851Y40424D01*
X569197D01*
X566633Y39737D01*
X564335Y38410D01*
X563955Y38030D01*
X550847D01*
Y41924D01*
X529966D01*
X529534Y45199D01*
X528152Y48536D01*
X525953Y51402D01*
X523087Y53601D01*
X519750Y54983D01*
X516258Y55443D01*
X516169Y55455D01*
D02*
G37*
G36*
X166169Y55455D02*
Y55402D01*
X166169Y55402D01*
X130001D01*
Y55454D01*
X126447Y54986D01*
X123134Y53614D01*
X120290Y51431D01*
X118107Y48587D01*
X116735Y45275D01*
X116267Y41720D01*
X116319D01*
Y32505D01*
X115925Y31034D01*
Y28907D01*
X116476Y26851D01*
X117539Y25009D01*
X119044Y23505D01*
X120886Y22441D01*
X122941Y21890D01*
X125069D01*
X127124Y22441D01*
X128966Y23505D01*
X130471Y25009D01*
X130833Y25636D01*
X133179D01*
X133541Y25009D01*
X135046Y23505D01*
X136888Y22441D01*
X138943Y21890D01*
X141071D01*
X141655Y22047D01*
X143687Y20505D01*
Y18764D01*
X154123D01*
Y17478D01*
X154674Y15423D01*
X155737Y13581D01*
X157242Y12076D01*
X159084Y11013D01*
X161139Y10462D01*
X163267D01*
X165322Y11013D01*
X167164Y12076D01*
X168668Y13581D01*
X169732Y15423D01*
X170283Y17478D01*
Y18764D01*
X174285D01*
Y17478D01*
X174836Y15423D01*
X175900Y13581D01*
X177404Y12076D01*
X179247Y11013D01*
X181302Y10462D01*
X183429D01*
X185484Y11013D01*
X187327Y12076D01*
X188831Y13581D01*
X189895Y15423D01*
X190445Y17478D01*
Y18764D01*
X200847D01*
Y22659D01*
X218236D01*
X219461Y22330D01*
X221589D01*
X223644Y22881D01*
X225486Y23945D01*
X226991Y25449D01*
X228054Y27292D01*
X228605Y29346D01*
Y31474D01*
X228054Y33529D01*
X226991Y35371D01*
X225486Y36876D01*
X223644Y37940D01*
X221589Y38490D01*
X219461D01*
X217744Y38030D01*
X200847D01*
Y41924D01*
X179965D01*
X179534Y45199D01*
X178152Y48536D01*
X175953Y51402D01*
X173087Y53601D01*
X169750Y54983D01*
X166169Y55455D01*
D02*
G37*
%LPD*%
D15*
X192267Y30344D02*
D03*
X182267D02*
D03*
X172267D02*
D03*
X162267D02*
D03*
X152267D02*
D03*
Y85344D02*
D03*
X162267D02*
D03*
X172267D02*
D03*
X182267D02*
D03*
X192267D02*
D03*
X152268Y493276D02*
D03*
X162267D02*
D03*
X172267D02*
D03*
X182267D02*
D03*
X192267D02*
D03*
Y438276D02*
D03*
X182267D02*
D03*
X172267D02*
D03*
X162267D02*
D03*
X152268D02*
D03*
X542267Y85344D02*
D03*
X532267D02*
D03*
X522267D02*
D03*
X512267D02*
D03*
X502267D02*
D03*
Y30344D02*
D03*
X512267D02*
D03*
X522267D02*
D03*
X532267D02*
D03*
X542267D02*
D03*
X502268Y493276D02*
D03*
X512268D02*
D03*
X522267D02*
D03*
X532267D02*
D03*
X542267D02*
D03*
Y438276D02*
D03*
X532267D02*
D03*
X522268D02*
D03*
X512268D02*
D03*
X502268D02*
D03*
D16*
X118663Y361859D02*
D03*
Y261859D02*
D03*
Y161859D02*
D03*
X218663D02*
D03*
Y261859D02*
D03*
Y361859D02*
D03*
X568663Y161859D02*
D03*
X468663D02*
D03*
Y361859D02*
D03*
Y261859D02*
D03*
X568663D02*
D03*
Y361859D02*
D03*
D17*
X142613Y361762D02*
D03*
Y261762D02*
D03*
Y161762D02*
D03*
X242613D02*
D03*
Y261762D02*
D03*
Y361762D02*
D03*
X592613Y161762D02*
D03*
X492613D02*
D03*
Y361762D02*
D03*
Y261762D02*
D03*
X592613D02*
D03*
Y361762D02*
D03*
D28*
X148973Y407618D02*
G03*
X139663Y416928I-9310J0D01*
G01*
X147043Y384000D02*
G03*
X148973Y385930I0J1930D01*
G01*
Y407618D01*
X92710Y416928D02*
X139663D01*
D29*
X509270Y315779D02*
G03*
X522268Y328777I0J12997D01*
G01*
X502268Y447104D02*
G03*
X493835Y455536I-8433J0D01*
G01*
X391581D02*
G03*
X377755Y441710I0J-13826D01*
G01*
X279209Y107302D02*
G03*
X291846Y119940I0J12637D01*
G01*
X180694Y107302D02*
G03*
X172267Y98875I0J-8427D01*
G01*
X666592Y443366D02*
G03*
X654421Y455536I-12171J0D01*
G01*
X520700D02*
G03*
X512268Y447104I0J-8433D01*
G01*
X301376Y187309D02*
G03*
X291846Y177779I0J-9530D01*
G01*
X530694Y107302D02*
G03*
X522267Y98875I0J-8427D01*
G01*
X681228Y107302D02*
G03*
X690372Y116446I0J9144D01*
G01*
Y180962D02*
G03*
X684025Y187309I-6347J0D01*
G01*
X162267Y417618D02*
G03*
X172267Y407618I10000J0D01*
G01*
X40417Y438276D02*
G03*
X27754Y425614I0J-12663D01*
G01*
X18694Y455785D02*
G03*
X7431Y444521I0J-11264D01*
G01*
X7431Y294719D02*
G03*
X10466Y288771I7344J-0D01*
G01*
X10466D02*
G03*
X14533Y287459I4047J5585D01*
G01*
X172267Y448200D02*
G03*
X164682Y455785I-7585J0D01*
G01*
X7431Y79903D02*
G03*
X19297Y68036I11867J0D01*
G01*
X176017D02*
G03*
X182267Y74286I0J6250D01*
G01*
X15766Y187459D02*
G03*
X7431Y179124I0J-8336D01*
G01*
X353770Y81109D02*
G03*
X367261Y67618I13491J0D01*
G01*
X526812D02*
G03*
X532267Y73074I0J5456D01*
G01*
X363410Y187259D02*
G03*
X353770Y177618I0J-9640D01*
G01*
X316594Y399955D02*
G03*
X308931Y407618I-7663J0D01*
G01*
X106680Y85344D02*
X152267D01*
Y96888D01*
X192267Y438276D02*
X232653D01*
X542267Y393368D02*
Y438276D01*
X502267Y85344D02*
Y101968D01*
X460333Y85344D02*
X502267D01*
X542267Y438276D02*
X582653D01*
X192267Y424599D02*
Y438276D01*
X459461Y315779D02*
X509270D01*
X502268Y438276D02*
Y447104D01*
X391581Y455536D02*
X493835D01*
X377755Y386731D02*
Y441710D01*
X180694Y107302D02*
X279209D01*
X172267Y85344D02*
Y98875D01*
X459416Y315734D02*
X459461Y315779D01*
X522268Y328777D02*
Y438276D01*
X542267Y85344D02*
X691388D01*
X192267Y85344D02*
X342254D01*
X520700Y455536D02*
X654421D01*
X666592Y387309D02*
Y443366D01*
X512268Y438276D02*
Y447104D01*
X291846Y119940D02*
Y177779D01*
X301376Y187309D02*
X316592D01*
X522267Y85344D02*
Y98875D01*
X530694Y107302D02*
X681228D01*
X690372Y116446D02*
Y180962D01*
X666592Y187309D02*
X684025D01*
X162267Y417618D02*
Y438276D01*
X172267Y407618D02*
X308931D01*
X27754Y386731D02*
Y425614D01*
X40417Y438276D02*
X152268D01*
X7431Y294733D02*
Y444521D01*
X18694Y455785D02*
X164682D01*
X14533Y287459D02*
X27754D01*
X7431Y294719D02*
X7431Y294733D01*
X172267Y438477D02*
Y448200D01*
X19297Y68036D02*
X176017D01*
X7431Y79903D02*
Y179124D01*
X182267Y74286D02*
Y85344D01*
X15766Y187459D02*
X27754D01*
X367261Y67618D02*
X526812D01*
X353770Y81109D02*
Y177618D01*
X532267Y73074D02*
Y85344D01*
X363410Y187259D02*
X377755D01*
X316594Y387257D02*
Y399955D01*
X316592Y387257D02*
X316594D01*
D30*
X522491Y484223D02*
G03*
X528590Y478125I6098J0D01*
G01*
X561356D02*
G03*
X568975Y485745I0J7620D01*
G01*
X210988Y477672D02*
G03*
X218752Y485436I0J7764D01*
G01*
X172267Y483627D02*
G03*
X178222Y477672I5955J0D01*
G01*
X522267Y41618D02*
G03*
X516208Y47716I-6098J0D01*
G01*
X479639Y47716D02*
G03*
X474010Y42087I0J-5629D01*
G01*
X516208Y47716D02*
G03*
X516169Y47716I-39J-6098D01*
G01*
X460786Y361331D02*
G03*
X461364Y361908I0J578D01*
G01*
X460786Y261859D02*
G03*
X461364Y262436I0J578D01*
G01*
X460786Y161859D02*
G03*
X461364Y162436I0J578D01*
G01*
X130001Y47716D02*
G03*
X124005Y41720I0J-5996D01*
G01*
X172267Y41618D02*
G03*
X166169Y47716I-6098J0D01*
G01*
X528590Y478125D02*
X561356D01*
X568975Y485745D02*
Y493427D01*
X522491Y484223D02*
Y493053D01*
X218752Y485436D02*
Y493650D01*
X178222Y477672D02*
X210988D01*
X172267Y483627D02*
Y493276D01*
X479639Y47716D02*
X516169Y47716D01*
X474010Y29970D02*
Y42087D01*
X124005Y29970D02*
Y41720D01*
X130001Y47716D02*
X166169D01*
X172267Y30344D02*
Y41618D01*
X124010Y493276D02*
X152268D01*
X192267Y30344D02*
X220525D01*
X474010Y493276D02*
X502268D01*
X542267Y30344D02*
X570525D01*
X542267D02*
X570524D01*
X522267D02*
Y41618D01*
D31*
X532349Y18401D02*
Y19637D01*
Y30263D01*
Y19637D02*
X532430Y19556D01*
X532267Y30344D02*
X532349Y30263D01*
X162267Y18542D02*
Y30344D01*
X182349Y18525D02*
X182365Y18542D01*
X490008Y401448D02*
Y441148D01*
X183642Y454520D02*
X218751D01*
Y454475D02*
Y454520D01*
X112776Y468284D02*
X542544D01*
X474010Y401448D02*
Y441148D01*
X140007Y29970D02*
X151893Y29970D01*
X152267Y30344D01*
X182267Y30344D02*
X182349Y30263D01*
Y18590D02*
Y30263D01*
X162105Y507968D02*
X162186Y507887D01*
Y493358D02*
Y507887D01*
Y493358D02*
X162267Y493276D01*
X182267D02*
Y507968D01*
X192267Y493276D02*
X192642Y493650D01*
X204528D01*
X490007Y29970D02*
X501893Y29970D01*
X502267Y30344D01*
X512186Y493358D02*
X512268Y493276D01*
X542642Y493650D02*
X554528D01*
X542267Y493276D02*
X542642Y493650D01*
X512267Y18542D02*
Y30344D01*
X512186Y493358D02*
Y507887D01*
X512105Y507968D02*
X512186Y507887D01*
X532267Y493276D02*
Y507968D01*
D32*
X568663Y126606D02*
Y149723D01*
Y226606D02*
Y249723D01*
Y326606D02*
Y349723D01*
X218663Y326606D02*
Y349723D01*
Y226606D02*
Y249723D01*
Y126606D02*
Y149723D01*
X377755Y361331D02*
X460786D01*
X377755Y261859D02*
X460786D01*
X377755Y161859D02*
X460786D01*
X27754Y162059D02*
X110786D01*
X27754Y262059D02*
X110786D01*
X27754Y361331D02*
X110786D01*
D33*
X460786Y361331D02*
X465825D01*
X460786Y261859D02*
X465825D01*
X460786Y161859D02*
X465825D01*
D34*
X316592Y187309D02*
D03*
Y287388D02*
D03*
X666592Y287309D02*
D03*
Y187309D02*
D03*
Y387309D02*
D03*
X377755Y287259D02*
D03*
Y187259D02*
D03*
Y386731D02*
D03*
X27754Y287459D02*
D03*
Y386731D02*
D03*
Y187459D02*
D03*
X316592Y387257D02*
D03*
D35*
Y161909D02*
D03*
Y136509D02*
D03*
Y261988D02*
D03*
Y236588D02*
D03*
X666592Y261909D02*
D03*
Y236509D02*
D03*
Y161909D02*
D03*
Y136509D02*
D03*
Y361909D02*
D03*
Y336509D02*
D03*
X377755Y261859D02*
D03*
Y236459D02*
D03*
Y161859D02*
D03*
Y136459D02*
D03*
Y361331D02*
D03*
Y335931D02*
D03*
X27754Y262059D02*
D03*
Y236659D02*
D03*
Y361331D02*
D03*
Y335932D02*
D03*
Y162059D02*
D03*
Y136659D02*
D03*
X316592Y361857D02*
D03*
Y336457D02*
D03*
D36*
X570524Y30344D02*
D03*
D37*
X738570Y300218D02*
D03*
Y274818D02*
D03*
Y249418D02*
D03*
D38*
Y224018D02*
D03*
D39*
X532267Y510508D02*
D03*
X512105D02*
D03*
X182365Y18542D02*
D03*
X162203D02*
D03*
X192166Y424498D02*
D03*
X271930Y438175D02*
D03*
X262397D02*
D03*
X501505Y96888D02*
D03*
Y107302D02*
D03*
X405299Y104266D02*
D03*
X386443D02*
D03*
X395976D02*
D03*
X405299Y95884D02*
D03*
X386443D02*
D03*
X395976D02*
D03*
X450800Y87884D02*
D03*
X441477D02*
D03*
X395766Y87502D02*
D03*
X405299D02*
D03*
X386443D02*
D03*
X87178Y16370D02*
D03*
X96711D02*
D03*
X77855D02*
D03*
Y24752D02*
D03*
X96711D02*
D03*
X87178D02*
D03*
X77855Y33134D02*
D03*
X96711D02*
D03*
X87178D02*
D03*
X625995Y16370D02*
D03*
X635528D02*
D03*
X616672D02*
D03*
Y24752D02*
D03*
X635528D02*
D03*
X625995D02*
D03*
X616672Y33134D02*
D03*
X635528D02*
D03*
X625995D02*
D03*
X392126Y16370D02*
D03*
X401658D02*
D03*
X382803D02*
D03*
Y24752D02*
D03*
X401658D02*
D03*
X392126D02*
D03*
X382803Y33134D02*
D03*
X401658D02*
D03*
X392126D02*
D03*
X437836Y33516D02*
D03*
X456692D02*
D03*
X447159D02*
D03*
X261306Y68694D02*
D03*
X280162D02*
D03*
X270629D02*
D03*
Y33134D02*
D03*
X280162D02*
D03*
X261306D02*
D03*
X270629Y24752D02*
D03*
X280162D02*
D03*
X261306D02*
D03*
Y16370D02*
D03*
X280162D02*
D03*
X270629D02*
D03*
X106680Y96126D02*
D03*
Y105524D02*
D03*
Y86614D02*
D03*
X151505Y107302D02*
D03*
Y96888D02*
D03*
X592077Y438175D02*
D03*
X601610D02*
D03*
X563663Y395908D02*
D03*
X554131D02*
D03*
X253074Y438175D02*
D03*
X544808Y395908D02*
D03*
X460231Y87986D02*
D03*
X582754Y438175D02*
D03*
X442598Y441148D02*
D03*
X523990Y127368D02*
D03*
X173990Y127368D02*
D03*
X92710Y416928D02*
D03*
X459416Y315734D02*
D03*
X691388Y85344D02*
D03*
X342254Y85344D02*
D03*
X218751Y454475D02*
D03*
X183642Y454520D02*
D03*
X112776Y468284D02*
D03*
X542544D02*
D03*
X474010Y441148D02*
D03*
Y401448D02*
D03*
X490008D02*
D03*
X490008Y441148D02*
D03*
X568663Y126606D02*
D03*
Y226606D02*
D03*
Y326606D02*
D03*
X218640Y326531D02*
D03*
X218663Y226685D02*
D03*
Y126606D02*
D03*
X140007Y29970D02*
D03*
X124005Y29970D02*
D03*
X220525Y30410D02*
D03*
X182267Y507968D02*
D03*
X124010Y493210D02*
D03*
X218752Y493650D02*
D03*
X204528D02*
D03*
X162105Y507968D02*
D03*
X512267Y18542D02*
D03*
X532430D02*
D03*
X568752Y493650D02*
D03*
X554528D02*
D03*
X474010Y493210D02*
D03*
X490007Y29970D02*
D03*
X474010Y29970D02*
D03*
M02*
