G04*
G04 #@! TF.GenerationSoftware,Altium Limited,Altium Designer,24.5.2 (23)*
G04*
G04 Layer_Physical_Order=2*
G04 Layer_Color=16711680*
%FSLAX44Y44*%
%MOMM*%
G71*
G04*
G04 #@! TF.SameCoordinates,E9880ABE-0B08-401C-87C3-A205D889D7CA*
G04*
G04*
G04 #@! TF.FilePolarity,Positive*
G04*
G01*
G75*
%ADD28C,0.7620*%
%ADD29C,0.6350*%
%ADD30C,0.5080*%
%ADD31C,0.3810*%
%ADD32C,1.2700*%
%ADD34R,1.5000X1.5000*%
%ADD35C,1.5000*%
%ADD36C,1.0000*%
%ADD37C,1.6000*%
%ADD38R,1.6000X1.6000*%
%ADD39C,0.6000*%
%ADD40R,1.7780X1.5240*%
%ADD41R,0.8890X0.7620*%
%ADD42R,0.7620X0.8890*%
%ADD43R,0.6350X0.4572*%
%ADD44R,0.3338X2.7213*%
%ADD45R,4.7932X0.3702*%
G36*
X524514Y512789D02*
X524188Y511572D01*
Y509445D01*
X524663Y507670D01*
Y492541D01*
X524175D01*
Y477809D01*
X539022D01*
X539425Y475814D01*
X537583Y474750D01*
X536078Y473246D01*
X535015Y471403D01*
X534464Y469348D01*
Y467220D01*
X535015Y465165D01*
X536078Y463323D01*
X537583Y461819D01*
X539425Y460755D01*
X541480Y460204D01*
X543608D01*
X543859Y460272D01*
X545003Y459394D01*
Y459394D01*
X561707D01*
Y451068D01*
X561695D01*
X561477Y449972D01*
X560856Y449044D01*
X559927Y448423D01*
X558832Y448205D01*
Y448193D01*
X493965D01*
X493126Y448677D01*
X491071Y449228D01*
X488944D01*
X486889Y448677D01*
X485046Y447613D01*
X483542Y446109D01*
X483182Y445485D01*
X482910Y445437D01*
X481055Y446409D01*
Y459394D01*
X483535D01*
Y474634D01*
Y492414D01*
X482090D01*
Y494274D01*
X481539Y496329D01*
X480476Y498172D01*
X478971Y499676D01*
X477129Y500740D01*
X476636Y500872D01*
X476903Y502904D01*
X504501D01*
Y492414D01*
X502743D01*
Y474634D01*
X521793D01*
Y492414D01*
X519872D01*
Y508276D01*
X520185Y509445D01*
Y511572D01*
X519859Y512789D01*
X521085Y514821D01*
X523288D01*
X524514Y512789D01*
D02*
G37*
G36*
X711959Y512789D02*
X711137Y511967D01*
X708740Y508843D01*
X706771Y505433D01*
X705265Y501795D01*
X704245Y497991D01*
X703731Y494087D01*
Y490149D01*
X704245Y486245D01*
X705265Y482442D01*
X706771Y478804D01*
X708740Y475394D01*
X711137Y472270D01*
X713922Y469486D01*
X717046Y467088D01*
X720456Y465120D01*
X724094Y463613D01*
X727897Y462593D01*
X731801Y462080D01*
X735739D01*
X739643Y462593D01*
X743447Y463613D01*
X747085Y465120D01*
X750495Y467088D01*
X753619Y469486D01*
X756403Y472270D01*
X756667Y472613D01*
X758591Y471960D01*
Y52276D01*
X756667Y51623D01*
X756403Y51967D01*
X753619Y54751D01*
X750495Y57148D01*
X747085Y59117D01*
X743447Y60624D01*
X739643Y61643D01*
X735739Y62157D01*
X731801D01*
X727897Y61643D01*
X724094Y60624D01*
X720456Y59117D01*
X717046Y57148D01*
X713922Y54751D01*
X711137Y51967D01*
X708740Y48843D01*
X706771Y45433D01*
X705265Y41795D01*
X704245Y37991D01*
X703731Y34087D01*
Y30150D01*
X704245Y26246D01*
X705265Y22442D01*
X706771Y18804D01*
X708740Y15394D01*
X711137Y12270D01*
X713922Y9485D01*
X715381Y8365D01*
X715739Y5575D01*
X715433Y5179D01*
X48337D01*
X48032Y5575D01*
X48389Y8365D01*
X49849Y9485D01*
X52633Y12270D01*
X55030Y15394D01*
X56999Y18804D01*
X58506Y22442D01*
X59525Y26246D01*
X60039Y30150D01*
Y34087D01*
X59525Y37991D01*
X58506Y41795D01*
X56999Y45433D01*
X55030Y48843D01*
X52633Y51967D01*
X49849Y54751D01*
X46725Y57148D01*
X43314Y59117D01*
X39676Y60624D01*
X35873Y61643D01*
X31969Y62157D01*
X28031D01*
X24127Y61643D01*
X20324Y60624D01*
X16686Y59117D01*
X13276Y57148D01*
X10152Y54751D01*
X7367Y51967D01*
X7104Y51623D01*
X5179Y52276D01*
Y471960D01*
X7104Y472613D01*
X7367Y472270D01*
X10152Y469486D01*
X13276Y467088D01*
X16686Y465120D01*
X20324Y463613D01*
X24127Y462593D01*
X28031Y462080D01*
X31969D01*
X35873Y462593D01*
X39676Y463613D01*
X43314Y465120D01*
X46725Y467088D01*
X49849Y469486D01*
X52633Y472270D01*
X55030Y475394D01*
X56999Y478804D01*
X58506Y482442D01*
X59525Y486245D01*
X60039Y490149D01*
Y494087D01*
X59525Y497991D01*
X58506Y501795D01*
X56999Y505433D01*
X55030Y508843D01*
X52633Y511967D01*
X51811Y512789D01*
X52653Y514821D01*
X90926D01*
X91461Y513802D01*
X91587Y512789D01*
X89495Y511072D01*
X87545Y508696D01*
X86096Y505986D01*
X85204Y503045D01*
X85033Y501304D01*
X78628D01*
Y475904D01*
Y450504D01*
X83632D01*
Y416928D01*
X83937Y414608D01*
X84833Y412445D01*
X86258Y410588D01*
X88115Y409163D01*
X90278Y408267D01*
X92598Y407962D01*
X94919Y408267D01*
X97082Y409163D01*
X98939Y410588D01*
X100364Y412445D01*
X101259Y414608D01*
X101565Y416928D01*
Y450504D01*
X106568D01*
Y460359D01*
X108600Y461365D01*
X109657Y460755D01*
X111712Y460204D01*
X113840D01*
X114485Y459709D01*
Y459394D01*
X116965D01*
Y64226D01*
X114480D01*
Y46446D01*
Y31206D01*
X115793D01*
X115925Y31034D01*
Y28907D01*
X116476Y26851D01*
X117539Y25009D01*
X119044Y23505D01*
X120886Y22441D01*
X122941Y21890D01*
X125069D01*
X127124Y22441D01*
X128966Y23505D01*
X130471Y25009D01*
X130833Y25636D01*
X133179D01*
X133541Y25009D01*
X135046Y23505D01*
X136888Y22441D01*
X138943Y21890D01*
X141071D01*
X143126Y22441D01*
X144968Y23505D01*
X146473Y25009D01*
X147536Y26851D01*
X148087Y28907D01*
Y31034D01*
X148220Y31207D01*
X149533D01*
Y46447D01*
Y64227D01*
X147054D01*
Y418144D01*
X146999Y418556D01*
Y445473D01*
X147028D01*
X147178Y446228D01*
X147606Y446868D01*
X148246Y447296D01*
X149001Y447446D01*
Y447475D01*
X179685D01*
X180523Y446991D01*
X182578Y446440D01*
X184706D01*
X186761Y446991D01*
X188603Y448055D01*
X190108Y449559D01*
X191171Y451402D01*
X191722Y453457D01*
Y455584D01*
X191171Y457639D01*
X190108Y459482D01*
X188603Y460986D01*
X186761Y462050D01*
X184706Y462600D01*
X182578D01*
X180523Y462050D01*
X179685Y461566D01*
X149001D01*
Y461583D01*
X145858Y461273D01*
X142836Y460357D01*
X140051Y458868D01*
X137610Y456865D01*
X135606Y454423D01*
X134118Y451638D01*
X133201Y448616D01*
X133087Y447460D01*
X131055Y447560D01*
Y459394D01*
X133535D01*
Y474634D01*
Y492414D01*
X132090D01*
Y494274D01*
X131539Y496329D01*
X130476Y498172D01*
X130397Y498251D01*
X131238Y500283D01*
X154501D01*
Y492414D01*
X152743D01*
Y474634D01*
X171793D01*
Y492414D01*
X169872D01*
Y505737D01*
X170185Y506905D01*
Y509032D01*
X169634Y511087D01*
X168652Y512789D01*
X168813Y513395D01*
X169553Y514821D01*
X174819D01*
X175560Y513395D01*
X175721Y512789D01*
X174738Y511087D01*
X174188Y509032D01*
Y506905D01*
X174663Y505130D01*
Y492541D01*
X174175D01*
Y477809D01*
X190685D01*
Y492541D01*
X190035D01*
Y505737D01*
X190347Y506905D01*
Y509032D01*
X189797Y511087D01*
X188814Y512789D01*
X188975Y513395D01*
X189716Y514821D01*
X437834D01*
X438795Y512789D01*
X437558Y511282D01*
X436102Y508557D01*
X435205Y505601D01*
X434902Y502526D01*
X433377Y501304D01*
X428628D01*
Y475904D01*
Y450504D01*
X433632D01*
Y441148D01*
X433937Y438827D01*
X434833Y436665D01*
X436258Y434807D01*
X438115Y433382D01*
X440277Y432487D01*
X442598Y432181D01*
X444919Y432487D01*
X447082Y433382D01*
X448939Y434807D01*
X450364Y436665D01*
X451259Y438827D01*
X451565Y441148D01*
Y450504D01*
X456568D01*
Y475904D01*
Y501304D01*
X457612Y502904D01*
X471117D01*
X471384Y500872D01*
X470891Y500740D01*
X469049Y499676D01*
X467544Y498172D01*
X466481Y496329D01*
X465930Y494274D01*
Y492414D01*
X464485D01*
Y474634D01*
Y459394D01*
X466965D01*
Y445105D01*
X466481Y444267D01*
X465930Y442212D01*
Y440084D01*
X466481Y438029D01*
X467544Y436187D01*
X469049Y434682D01*
X470891Y433619D01*
X472946Y433068D01*
X475074D01*
X477129Y433619D01*
X478971Y434682D01*
X480476Y436187D01*
X480836Y436810D01*
X483182D01*
X483542Y436187D01*
X485046Y434682D01*
X486889Y433619D01*
X488944Y433068D01*
X491071D01*
X493126Y433619D01*
X493965Y434103D01*
X558832D01*
Y434081D01*
X562146Y434408D01*
X565332Y435374D01*
X568269Y436944D01*
X570843Y439057D01*
X572956Y441631D01*
X574526Y444567D01*
X575492Y447754D01*
X575819Y451068D01*
X575797D01*
Y459394D01*
X578277D01*
Y474634D01*
Y492414D01*
X576964D01*
X576832Y492587D01*
Y494714D01*
X576281Y496769D01*
X575218Y498612D01*
X573713Y500116D01*
X571871Y501180D01*
X569816Y501730D01*
X567688D01*
X565633Y501180D01*
X563791Y500116D01*
X562954Y499280D01*
X561640Y498832D01*
X560326Y499280D01*
X559489Y500116D01*
X557647Y501180D01*
X555592Y501730D01*
X553464D01*
X551409Y501180D01*
X549567Y500116D01*
X548062Y498612D01*
X546999Y496769D01*
X546448Y494714D01*
Y492587D01*
X546316Y492414D01*
X545003D01*
Y478094D01*
X543953Y476793D01*
X541892Y476723D01*
X540685Y478294D01*
Y492541D01*
X540034D01*
Y508276D01*
X540348Y509445D01*
Y511572D01*
X540022Y512789D01*
X541247Y514821D01*
X711118D01*
X711959Y512789D01*
D02*
G37*
%LPC*%
G36*
X219816Y501730D02*
X217688D01*
X215633Y501180D01*
X213791Y500116D01*
X212954Y499280D01*
X211640Y498832D01*
X210326Y499280D01*
X209489Y500116D01*
X207647Y501180D01*
X205592Y501730D01*
X203464D01*
X201409Y501180D01*
X199567Y500116D01*
X198062Y498612D01*
X196999Y496769D01*
X196448Y494714D01*
Y492587D01*
X196315Y492414D01*
X195002D01*
Y474634D01*
Y459394D01*
X197481D01*
Y423062D01*
X197448D01*
X197822Y419265D01*
X198929Y415615D01*
X200727Y412251D01*
X203147Y409302D01*
X206096Y406882D01*
X209460Y405084D01*
X213110Y403977D01*
X216906Y403603D01*
Y403636D01*
X465067D01*
X465930Y402512D01*
Y400385D01*
X466481Y398330D01*
X466965Y397491D01*
Y326598D01*
X466878Y326555D01*
X464933Y325820D01*
X462399Y326870D01*
X459416Y327262D01*
X456432Y326870D01*
X453651Y325718D01*
X451264Y323886D01*
X449431Y321498D01*
X448280Y318718D01*
X447887Y315734D01*
Y301828D01*
X447899Y301735D01*
X447684Y300653D01*
X447018Y299656D01*
X446022Y298990D01*
X444939Y298775D01*
X444846Y298787D01*
X390335D01*
Y299839D01*
X365175D01*
Y274679D01*
X370736D01*
X371280Y272647D01*
X370031Y271925D01*
X367688Y269583D01*
X366032Y266714D01*
X365175Y263515D01*
Y260202D01*
X366032Y257003D01*
X367688Y254134D01*
X370031Y251792D01*
X372723Y250238D01*
X372899Y249159D01*
X372723Y248079D01*
X370031Y246525D01*
X367688Y244183D01*
X366032Y241314D01*
X365175Y238115D01*
Y234802D01*
X366032Y231603D01*
X367688Y228734D01*
X370031Y226392D01*
X372899Y224736D01*
X376099Y223879D01*
X379411D01*
X382611Y224736D01*
X385479Y226392D01*
X387219Y228132D01*
X392583D01*
Y226934D01*
X410363D01*
Y245984D01*
X392583D01*
Y244785D01*
X387219D01*
X385479Y246525D01*
X382787Y248079D01*
X382611Y249159D01*
X382787Y250238D01*
X385479Y251792D01*
X387821Y254134D01*
X389478Y257003D01*
X390335Y260202D01*
Y263515D01*
X389478Y266714D01*
X387821Y269583D01*
X385479Y271925D01*
X384229Y272647D01*
X384774Y274679D01*
X390335D01*
Y275730D01*
X444846D01*
Y275703D01*
X449943Y276205D01*
X454844Y277691D01*
X459361Y280106D01*
X463320Y283355D01*
X464933Y285320D01*
X466965Y284593D01*
Y64226D01*
X464485D01*
Y46446D01*
Y31206D01*
X465798D01*
X465930Y31034D01*
Y28907D01*
X466037Y28508D01*
X464800Y26896D01*
X430582D01*
X429527Y27483D01*
X428939Y28538D01*
Y47051D01*
X429004D01*
X428506Y50838D01*
X427044Y54368D01*
X424718Y57398D01*
X421688Y59724D01*
X418158Y61186D01*
X414371Y61684D01*
Y61620D01*
X230280D01*
Y63464D01*
X215167D01*
Y79085D01*
X187227D01*
Y75352D01*
X184719D01*
Y75369D01*
X184051Y75502D01*
X183485Y75880D01*
X183106Y76446D01*
X182974Y77114D01*
X182957D01*
Y127368D01*
X182651Y129689D01*
X181756Y131852D01*
X180331Y133709D01*
X178473Y135134D01*
X176311Y136030D01*
X173990Y136335D01*
X171669Y136030D01*
X169507Y135134D01*
X167650Y133709D01*
X166225Y131852D01*
X165329Y129689D01*
X165023Y127368D01*
Y77114D01*
X165005D01*
X165384Y73268D01*
X166506Y69570D01*
X168328Y66162D01*
X170779Y63175D01*
X173767Y60723D01*
X177175Y58901D01*
X180873Y57779D01*
X184719Y57400D01*
Y57419D01*
X187227D01*
Y46065D01*
X172745D01*
Y28285D01*
X174584D01*
Y20719D01*
X174285Y19606D01*
Y17478D01*
X174836Y15423D01*
X175900Y13581D01*
X177404Y12076D01*
X179247Y11013D01*
X181302Y10462D01*
X183429D01*
X185484Y11013D01*
X187327Y12076D01*
X188831Y13581D01*
X189895Y15423D01*
X190445Y17478D01*
Y19606D01*
X189955Y21434D01*
Y28285D01*
X212729D01*
X212996Y27292D01*
X214059Y25449D01*
X215564Y23945D01*
X217406Y22881D01*
X219461Y22330D01*
X221589D01*
X223644Y22881D01*
X225486Y23945D01*
X226991Y25449D01*
X228054Y27292D01*
X228605Y29346D01*
Y30444D01*
X230280D01*
Y47529D01*
X414371D01*
Y47496D01*
X414686Y47366D01*
X414816Y47051D01*
X414849D01*
Y27810D01*
X414837D01*
X415125Y24880D01*
X415980Y22063D01*
X417368Y19467D01*
X419235Y17192D01*
X421511Y15324D01*
X424107Y13936D01*
X426924Y13082D01*
X429854Y12793D01*
Y12805D01*
X495310D01*
Y12743D01*
X499009Y13230D01*
X502456Y14658D01*
X502900Y14999D01*
X505368Y14332D01*
X505802Y13581D01*
X507306Y12076D01*
X509149Y11013D01*
X511204Y10462D01*
X513331D01*
X515386Y11013D01*
X517229Y12076D01*
X518733Y13581D01*
X519797Y15423D01*
X520347Y17478D01*
Y19606D01*
X519872Y21380D01*
Y35651D01*
X520360D01*
Y50383D01*
X512686D01*
X512186Y50449D01*
X511687Y50383D01*
X511325D01*
X509577Y51068D01*
X509190Y54006D01*
X508056Y56744D01*
X506252Y59094D01*
X503902Y60898D01*
X501164Y62032D01*
X499533Y62247D01*
Y64227D01*
X497053D01*
X497053Y397491D01*
X497537Y398330D01*
X498088Y400385D01*
Y402512D01*
X498950Y403636D01*
X709092D01*
X709102Y403638D01*
X710482Y403363D01*
X711660Y402576D01*
X712448Y401398D01*
X712722Y400017D01*
X712721Y400008D01*
Y284705D01*
X712700D01*
X713025Y281398D01*
X713990Y278217D01*
X715557Y275286D01*
X717665Y272717D01*
X720234Y270609D01*
X723165Y269042D01*
X726346Y268077D01*
X727420Y267972D01*
X728104Y266787D01*
X730539Y264352D01*
X733521Y262630D01*
X736848Y261738D01*
X740292D01*
X743619Y262630D01*
X746601Y264352D01*
X749037Y266787D01*
X750759Y269770D01*
X751650Y273096D01*
Y276540D01*
X750759Y279867D01*
X749037Y282850D01*
X746601Y285285D01*
X744765Y286345D01*
Y288692D01*
X746601Y289752D01*
X749037Y292187D01*
X750759Y295170D01*
X751650Y298496D01*
Y301940D01*
X750759Y305267D01*
X749037Y308250D01*
X746601Y310685D01*
X745615Y311254D01*
Y403949D01*
X745663D01*
X745233Y408311D01*
X743961Y412505D01*
X741895Y416371D01*
X739114Y419759D01*
X735726Y422539D01*
X731861Y424605D01*
X727667Y425878D01*
X723305Y426307D01*
Y426260D01*
X227999D01*
Y426285D01*
X227166Y426451D01*
X226459Y426922D01*
X225987Y427629D01*
X225821Y428462D01*
X225796D01*
Y450518D01*
X226280Y451356D01*
X226831Y453411D01*
Y455539D01*
X226343Y457362D01*
X226522Y457927D01*
X227588Y459394D01*
X228276D01*
Y474634D01*
Y492414D01*
X226965D01*
X226832Y492587D01*
Y494714D01*
X226281Y496769D01*
X225218Y498612D01*
X223713Y500116D01*
X221871Y501180D01*
X219816Y501730D01*
D02*
G37*
G36*
X679172Y399889D02*
X654012D01*
Y375470D01*
X654012Y374729D01*
X652515Y373438D01*
X582598D01*
Y373462D01*
X577625Y372972D01*
X572844Y371522D01*
X568438Y369167D01*
X564576Y365997D01*
X561406Y362135D01*
X559051Y357729D01*
X557600Y352947D01*
X557111Y347975D01*
X557135D01*
Y326606D01*
X557528Y323623D01*
X558679Y320842D01*
X560511Y318454D01*
X562899Y316622D01*
X565680Y315471D01*
X568663Y315078D01*
X571647Y315471D01*
X574428Y316622D01*
X576815Y318454D01*
X578647Y320842D01*
X579799Y323623D01*
X580192Y326606D01*
Y347975D01*
X580185Y348030D01*
X580358Y348903D01*
X580884Y349689D01*
X581670Y350215D01*
X582542Y350388D01*
X582598Y350381D01*
X660254D01*
X660592Y349896D01*
X660006Y347233D01*
X658868Y346576D01*
X657128Y344836D01*
X651580D01*
Y346034D01*
X633800D01*
Y326984D01*
X651580D01*
Y328183D01*
X657128D01*
X658868Y326443D01*
X661736Y324787D01*
X664936Y323929D01*
X668248D01*
X671448Y324787D01*
X674316Y326443D01*
X676659Y328785D01*
X678315Y331654D01*
X679172Y334853D01*
Y338166D01*
X678315Y341365D01*
X676659Y344234D01*
X674316Y346576D01*
X671624Y348130D01*
X671448Y349209D01*
X671624Y350289D01*
X674316Y351843D01*
X676659Y354185D01*
X678315Y357054D01*
X679172Y360253D01*
Y363566D01*
X678315Y366765D01*
X676659Y369634D01*
X674316Y371976D01*
X673067Y372697D01*
X673611Y374729D01*
X679172D01*
Y399889D01*
D02*
G37*
G36*
X329172Y399837D02*
X304012D01*
Y375394D01*
X304012Y374677D01*
X302525Y373362D01*
X232574D01*
Y373386D01*
X227602Y372897D01*
X222821Y371446D01*
X218414Y369091D01*
X214552Y365921D01*
X211383Y362059D01*
X209027Y357653D01*
X207577Y352872D01*
X207087Y347899D01*
X207111D01*
Y326531D01*
X207504Y323547D01*
X208656Y320766D01*
X210488Y318379D01*
X212876Y316546D01*
X215656Y315395D01*
X218640Y315002D01*
X221624Y315395D01*
X224404Y316546D01*
X226792Y318379D01*
X228624Y320766D01*
X229776Y323547D01*
X230169Y326531D01*
Y347899D01*
X230161Y347954D01*
X230335Y348827D01*
X230860Y349613D01*
X231647Y350139D01*
X232519Y350312D01*
X232574Y350305D01*
X310239D01*
X310562Y349840D01*
X309969Y347159D01*
X308868Y346524D01*
X307128Y344783D01*
X301862D01*
Y345982D01*
X284082D01*
Y326932D01*
X301862D01*
Y328131D01*
X307128D01*
X308868Y326390D01*
X311736Y324734D01*
X314936Y323877D01*
X318248D01*
X321448Y324734D01*
X324316Y326390D01*
X326659Y328733D01*
X328315Y331601D01*
X329172Y334801D01*
Y338113D01*
X328315Y341313D01*
X326659Y344181D01*
X324316Y346524D01*
X321624Y348078D01*
X321448Y349157D01*
X321624Y350236D01*
X324316Y351791D01*
X326659Y354133D01*
X328315Y357001D01*
X329172Y360201D01*
Y363513D01*
X328315Y366713D01*
X326659Y369581D01*
X324316Y371923D01*
X323067Y372645D01*
X323611Y374677D01*
X329172D01*
Y399837D01*
D02*
G37*
G36*
X390335Y399311D02*
X365175D01*
Y374151D01*
X370736D01*
X371280Y372119D01*
X370031Y371397D01*
X367688Y369055D01*
X366032Y366186D01*
X365175Y362987D01*
Y359674D01*
X366032Y356475D01*
X367688Y353606D01*
X370031Y351264D01*
X372723Y349710D01*
X372899Y348631D01*
X372723Y347552D01*
X370031Y345997D01*
X367688Y343655D01*
X366032Y340786D01*
X365175Y337587D01*
Y334274D01*
X366032Y331075D01*
X367688Y328206D01*
X370031Y325864D01*
X372899Y324208D01*
X376099Y323351D01*
X379411D01*
X382611Y324208D01*
X385479Y325864D01*
X387746Y328131D01*
X392583D01*
Y326932D01*
X410363D01*
Y345982D01*
X392583D01*
Y344783D01*
X386693D01*
X385479Y345997D01*
X382787Y347552D01*
X382611Y348631D01*
X382787Y349710D01*
X385479Y351264D01*
X387821Y353606D01*
X389478Y356475D01*
X390335Y359674D01*
Y362987D01*
X389478Y366186D01*
X387821Y369055D01*
X385479Y371397D01*
X384229Y372119D01*
X384774Y374151D01*
X390335D01*
Y399311D01*
D02*
G37*
G36*
X40334Y399311D02*
X15174D01*
Y374152D01*
X20735D01*
X21279Y372120D01*
X20030Y371398D01*
X17688Y369056D01*
X16031Y366187D01*
X15174Y362988D01*
Y359675D01*
X16031Y356476D01*
X17688Y353607D01*
X20030Y351265D01*
X22722Y349711D01*
X22898Y348632D01*
X22722Y347552D01*
X20030Y345998D01*
X17688Y343656D01*
X16031Y340787D01*
X15174Y337588D01*
Y334275D01*
X16031Y331076D01*
X17688Y328207D01*
X20030Y325865D01*
X22898Y324209D01*
X26098Y323352D01*
X29410D01*
X32610Y324209D01*
X35478Y325865D01*
X37219Y327605D01*
X41630D01*
Y326407D01*
X59410D01*
Y345457D01*
X41630D01*
Y344258D01*
X37219D01*
X35478Y345998D01*
X32786Y347552D01*
X32610Y348632D01*
X32786Y349711D01*
X35478Y351265D01*
X37821Y353607D01*
X39477Y356476D01*
X40334Y359675D01*
Y362988D01*
X39477Y366187D01*
X37821Y369056D01*
X35478Y371398D01*
X34229Y372120D01*
X34773Y374152D01*
X40334D01*
Y399311D01*
D02*
G37*
G36*
Y300039D02*
X15174D01*
Y274879D01*
X20735D01*
X21279Y272847D01*
X20030Y272126D01*
X17688Y269783D01*
X16031Y266915D01*
X15174Y263715D01*
Y260403D01*
X16031Y257204D01*
X17688Y254335D01*
X20030Y251993D01*
X22722Y250438D01*
X22898Y249359D01*
X22722Y248280D01*
X20030Y246726D01*
X17688Y244384D01*
X16031Y241515D01*
X15174Y238315D01*
Y235003D01*
X16031Y231803D01*
X17688Y228935D01*
X20030Y226593D01*
X22898Y224937D01*
X26098Y224079D01*
X29410D01*
X32610Y224937D01*
X35478Y226593D01*
X37219Y228333D01*
X41630D01*
Y227134D01*
X59410D01*
Y246184D01*
X41630D01*
Y244986D01*
X37219D01*
X35478Y246726D01*
X32786Y248280D01*
X32610Y249359D01*
X32786Y250438D01*
X35478Y251993D01*
X37821Y254335D01*
X39477Y257204D01*
X40334Y260403D01*
Y263715D01*
X39477Y266915D01*
X37821Y269783D01*
X35478Y272126D01*
X34229Y272847D01*
X34773Y274879D01*
X40334D01*
Y300039D01*
D02*
G37*
G36*
X751650Y237098D02*
X725490D01*
Y210938D01*
X751650D01*
Y237098D01*
D02*
G37*
G36*
X679172Y199889D02*
X654012D01*
Y175470D01*
X654012Y174729D01*
X652515Y173438D01*
X582598D01*
Y173462D01*
X577625Y172972D01*
X572844Y171522D01*
X568438Y169167D01*
X564576Y165997D01*
X561406Y162135D01*
X559051Y157729D01*
X557600Y152947D01*
X557111Y147975D01*
X557135D01*
Y126606D01*
X557528Y123623D01*
X558679Y120842D01*
X560511Y118454D01*
X562899Y116622D01*
X565680Y115471D01*
X568663Y115078D01*
X571647Y115471D01*
X574428Y116622D01*
X576815Y118454D01*
X578647Y120842D01*
X579799Y123623D01*
X580192Y126606D01*
Y147975D01*
X580185Y148030D01*
X580358Y148903D01*
X580884Y149689D01*
X581670Y150215D01*
X582542Y150388D01*
X582598Y150381D01*
X660254D01*
X660592Y149896D01*
X660006Y147233D01*
X658868Y146576D01*
X657128Y144836D01*
X651580D01*
Y146034D01*
X633800D01*
Y126984D01*
X651580D01*
Y128183D01*
X657128D01*
X658868Y126443D01*
X661736Y124787D01*
X664936Y123929D01*
X668248D01*
X671448Y124787D01*
X674316Y126443D01*
X676659Y128785D01*
X678315Y131654D01*
X679172Y134853D01*
Y138166D01*
X678315Y141365D01*
X676659Y144234D01*
X674316Y146576D01*
X671624Y148130D01*
X671448Y149209D01*
X671624Y150288D01*
X674316Y151843D01*
X676659Y154185D01*
X678315Y157054D01*
X679172Y160253D01*
Y163566D01*
X678315Y166765D01*
X676659Y169634D01*
X674316Y171976D01*
X673067Y172697D01*
X673611Y174729D01*
X679172D01*
Y199889D01*
D02*
G37*
G36*
X329172D02*
X304012D01*
Y175470D01*
X304012Y174729D01*
X302515Y173438D01*
X232598D01*
Y173462D01*
X227625Y172972D01*
X222844Y171522D01*
X218438Y169167D01*
X214576Y165997D01*
X211406Y162135D01*
X209051Y157729D01*
X207600Y152947D01*
X207111Y147975D01*
X207135D01*
Y126606D01*
X207528Y123623D01*
X208679Y120842D01*
X210511Y118454D01*
X212899Y116622D01*
X215679Y115471D01*
X218663Y115078D01*
X221647Y115471D01*
X224428Y116622D01*
X226815Y118454D01*
X228647Y120842D01*
X229799Y123623D01*
X230192Y126606D01*
Y147975D01*
X230185Y148030D01*
X230358Y148903D01*
X230884Y149689D01*
X231670Y150215D01*
X232542Y150388D01*
X232598Y150381D01*
X310254D01*
X310592Y149896D01*
X310006Y147233D01*
X308868Y146576D01*
X307128Y144836D01*
X301862D01*
Y146034D01*
X284082D01*
Y126984D01*
X301862D01*
Y128183D01*
X307128D01*
X308868Y126443D01*
X311736Y124787D01*
X314936Y123929D01*
X318248D01*
X321448Y124787D01*
X324316Y126443D01*
X326659Y128785D01*
X328315Y131654D01*
X329172Y134853D01*
Y138166D01*
X328315Y141365D01*
X326659Y144234D01*
X324316Y146576D01*
X321624Y148130D01*
X321448Y149209D01*
X321624Y150288D01*
X324316Y151843D01*
X326659Y154185D01*
X328315Y157054D01*
X329172Y160253D01*
Y163566D01*
X328315Y166765D01*
X326659Y169634D01*
X324316Y171976D01*
X323067Y172697D01*
X323611Y174729D01*
X329172D01*
Y199889D01*
D02*
G37*
G36*
X40334Y200039D02*
X15174D01*
Y174879D01*
X20735D01*
X21279Y172847D01*
X20030Y172126D01*
X17688Y169783D01*
X16031Y166915D01*
X15174Y163715D01*
Y160403D01*
X16031Y157204D01*
X17688Y154335D01*
X20030Y151993D01*
X22722Y150438D01*
X22898Y149359D01*
X22722Y148280D01*
X20030Y146726D01*
X17688Y144383D01*
X16031Y141515D01*
X15174Y138315D01*
Y135003D01*
X16031Y131804D01*
X17688Y128935D01*
X20030Y126593D01*
X22898Y124937D01*
X26098Y124079D01*
X29410D01*
X32610Y124937D01*
X35478Y126593D01*
X37219Y128333D01*
X41630D01*
Y127134D01*
X59410D01*
Y146184D01*
X41630D01*
Y144986D01*
X37219D01*
X35478Y146726D01*
X32786Y148280D01*
X32610Y149359D01*
X32786Y150438D01*
X35478Y151993D01*
X37821Y154335D01*
X39477Y157204D01*
X40334Y160403D01*
Y163715D01*
X39477Y166915D01*
X37821Y169783D01*
X35478Y172126D01*
X34229Y172847D01*
X34773Y174879D01*
X40334D01*
Y200039D01*
D02*
G37*
G36*
X390335Y199839D02*
X365175D01*
Y174679D01*
X370736D01*
X371280Y172647D01*
X370031Y171925D01*
X367688Y169583D01*
X366032Y166714D01*
X365175Y163515D01*
Y160202D01*
X366032Y157003D01*
X367688Y154134D01*
X370031Y151792D01*
X372723Y150238D01*
X372899Y149159D01*
X372723Y148080D01*
X370031Y146525D01*
X367688Y144183D01*
X366032Y141314D01*
X365175Y138115D01*
Y134802D01*
X366032Y131603D01*
X367688Y128734D01*
X370031Y126392D01*
X372899Y124736D01*
X376099Y123879D01*
X379411D01*
X382611Y124736D01*
X385479Y126392D01*
X387219Y128132D01*
X392583D01*
Y126934D01*
X410363D01*
Y145984D01*
X392583D01*
Y144785D01*
X387219D01*
X385479Y146525D01*
X382787Y148080D01*
X382611Y149159D01*
X382787Y150238D01*
X385479Y151792D01*
X387821Y154134D01*
X389478Y157003D01*
X390335Y160202D01*
Y163515D01*
X389478Y166714D01*
X387821Y169583D01*
X385479Y171925D01*
X384229Y172647D01*
X384774Y174679D01*
X390335D01*
Y199839D01*
D02*
G37*
G36*
X679172Y299889D02*
X654012D01*
Y275470D01*
X654012Y274729D01*
X652515Y273438D01*
X582598D01*
Y273462D01*
X577625Y272972D01*
X572844Y271522D01*
X568438Y269167D01*
X564576Y265997D01*
X561406Y262135D01*
X559051Y257729D01*
X557600Y252947D01*
X557111Y247975D01*
X557135D01*
Y226606D01*
X557528Y223622D01*
X558679Y220842D01*
X560511Y218454D01*
X562899Y216622D01*
X565680Y215471D01*
X568663Y215078D01*
X571647Y215471D01*
X574428Y216622D01*
X576815Y218454D01*
X578647Y220842D01*
X579799Y223622D01*
X580192Y226606D01*
Y247975D01*
X580185Y248030D01*
X580358Y248903D01*
X580884Y249689D01*
X581670Y250215D01*
X582542Y250388D01*
X582598Y250381D01*
X660254D01*
X660592Y249896D01*
X660006Y247233D01*
X658868Y246576D01*
X657128Y244836D01*
X651580D01*
Y246034D01*
X633800D01*
Y226984D01*
X651580D01*
Y228183D01*
X657128D01*
X658868Y226443D01*
X661736Y224787D01*
X664936Y223929D01*
X668248D01*
X671448Y224787D01*
X674316Y226443D01*
X676659Y228785D01*
X678315Y231654D01*
X679172Y234853D01*
Y238166D01*
X678315Y241365D01*
X676659Y244234D01*
X674316Y246576D01*
X671624Y248130D01*
X671448Y249209D01*
X671624Y250289D01*
X674316Y251843D01*
X676659Y254185D01*
X678315Y257054D01*
X679172Y260253D01*
Y263566D01*
X678315Y266765D01*
X676659Y269634D01*
X674316Y271976D01*
X673067Y272697D01*
X673611Y274729D01*
X679172D01*
Y278983D01*
X683062D01*
Y85344D01*
X683346Y83189D01*
X684177Y81181D01*
X685501Y79457D01*
X687225Y78134D01*
X689233Y77302D01*
X691388Y77018D01*
X693543Y77302D01*
X695551Y78134D01*
X697276Y79457D01*
X698599Y81181D01*
X699431Y83189D01*
X699714Y85344D01*
Y279251D01*
X699722D01*
X699407Y282449D01*
X698474Y285524D01*
X696960Y288358D01*
X694921Y290842D01*
X692437Y292881D01*
X689603Y294396D01*
X686528Y295328D01*
X683330Y295643D01*
Y295636D01*
X679172D01*
Y299889D01*
D02*
G37*
G36*
X329172Y299968D02*
X304012D01*
Y275549D01*
X304012Y274808D01*
X302515Y273517D01*
X232598D01*
Y273541D01*
X227625Y273051D01*
X222844Y271601D01*
X218438Y269246D01*
X214576Y266076D01*
X211406Y262214D01*
X209051Y257808D01*
X207600Y253026D01*
X207111Y248054D01*
X207135D01*
Y226685D01*
X207528Y223701D01*
X208679Y220921D01*
X210511Y218533D01*
X212899Y216701D01*
X215679Y215550D01*
X218663Y215157D01*
X221647Y215550D01*
X224428Y216701D01*
X226815Y218533D01*
X228647Y220921D01*
X229799Y223701D01*
X230192Y226685D01*
Y248054D01*
X230185Y248109D01*
X230358Y248982D01*
X230884Y249768D01*
X231670Y250293D01*
X232542Y250467D01*
X232598Y250460D01*
X310254D01*
X310592Y249975D01*
X310006Y247312D01*
X308868Y246655D01*
X307128Y244914D01*
X301862D01*
Y246113D01*
X284082D01*
Y227063D01*
X301862D01*
Y228262D01*
X307128D01*
X308868Y226522D01*
X311736Y224866D01*
X314936Y224008D01*
X318248D01*
X321448Y224866D01*
X324316Y226522D01*
X326659Y228864D01*
X328315Y231733D01*
X329172Y234932D01*
Y238244D01*
X328315Y241444D01*
X326659Y244313D01*
X324316Y246655D01*
X321624Y248209D01*
X321448Y249288D01*
X321624Y250367D01*
X324316Y251922D01*
X326659Y254264D01*
X328315Y257133D01*
X329172Y260332D01*
Y263645D01*
X328315Y266844D01*
X326659Y269713D01*
X324316Y272055D01*
X323067Y272776D01*
X323611Y274808D01*
X329172D01*
Y279062D01*
X332423D01*
X333259Y278393D01*
X333928Y277557D01*
Y85344D01*
X334211Y83189D01*
X335043Y81181D01*
X336366Y79457D01*
X338091Y78134D01*
X340099Y77302D01*
X342254Y77018D01*
X344409Y77302D01*
X346417Y78134D01*
X348141Y79457D01*
X349465Y81181D01*
X350296Y83189D01*
X350580Y85344D01*
Y277859D01*
X350595D01*
X350252Y281345D01*
X349235Y284698D01*
X347583Y287787D01*
X345361Y290495D01*
X342653Y292718D01*
X339563Y294369D01*
X336211Y295386D01*
X332724Y295729D01*
Y295714D01*
X329172D01*
Y299968D01*
D02*
G37*
G36*
X523990Y136335D02*
X521669Y136030D01*
X519507Y135134D01*
X517650Y133709D01*
X516225Y131852D01*
X515329Y129689D01*
X515023Y127368D01*
Y77114D01*
X515005D01*
X515384Y73268D01*
X516506Y69570D01*
X518328Y66162D01*
X520779Y63175D01*
X523767Y60723D01*
X527175Y58901D01*
X530873Y57779D01*
X534719Y57400D01*
Y57419D01*
X537227D01*
Y46065D01*
X522905D01*
Y28285D01*
X524737D01*
Y21049D01*
X524350Y19606D01*
Y17478D01*
X524901Y15423D01*
X525964Y13581D01*
X527469Y12076D01*
X529311Y11013D01*
X531366Y10462D01*
X533494D01*
X535549Y11013D01*
X537391Y12076D01*
X538895Y13581D01*
X539959Y15423D01*
X540510Y17478D01*
Y19606D01*
X540108Y21105D01*
Y28285D01*
X541955D01*
Y28285D01*
X560640D01*
X561131Y26454D01*
X562458Y24155D01*
X564335Y22278D01*
X566633Y20951D01*
X569197Y20264D01*
X571851D01*
X574415Y20951D01*
X576713Y22278D01*
X578590Y24155D01*
X579917Y26454D01*
X580604Y29017D01*
Y31671D01*
X579917Y34235D01*
X578590Y36534D01*
X576713Y38410D01*
X574415Y39737D01*
X571851Y40424D01*
X569197D01*
X567199Y39889D01*
X565167Y40978D01*
Y53685D01*
Y79085D01*
X537227D01*
Y75352D01*
X534719D01*
Y75369D01*
X534051Y75502D01*
X533485Y75880D01*
X533106Y76446D01*
X532974Y77114D01*
X532957D01*
Y127368D01*
X532651Y129689D01*
X531755Y131852D01*
X530331Y133709D01*
X528474Y135134D01*
X526311Y136030D01*
X523990Y136335D01*
D02*
G37*
G36*
X162154Y50450D02*
X161655Y50384D01*
X153851D01*
Y35652D01*
X154468D01*
Y20895D01*
X154123Y19606D01*
Y17478D01*
X154674Y15423D01*
X155737Y13581D01*
X157242Y12076D01*
X159084Y11013D01*
X161139Y10462D01*
X163267D01*
X165322Y11013D01*
X167164Y12076D01*
X168668Y13581D01*
X169732Y15423D01*
X170283Y17478D01*
Y19606D01*
X169840Y21258D01*
Y35652D01*
X170361D01*
Y50384D01*
X162654D01*
X162154Y50450D01*
D02*
G37*
%LPD*%
D28*
X523990Y77114D02*
G03*
X534719Y66385I10729J0D01*
G01*
X173990Y77114D02*
G03*
X184719Y66385I10729J0D01*
G01*
X534719Y66385D02*
X551197D01*
X523990Y77114D02*
Y127368D01*
X92598Y416928D02*
Y463204D01*
X184719Y66385D02*
X201197D01*
X173990Y77114D02*
Y127368D01*
X442598Y441148D02*
Y463204D01*
D29*
X691388Y279251D02*
G03*
X683330Y287309I-8058J0D01*
G01*
X342254Y277859D02*
G03*
X332724Y287388I-9530J0D01*
G01*
X378281Y336457D02*
G03*
X377755Y335931I0J-526D01*
G01*
X691388Y85344D02*
Y279251D01*
X666592Y287309D02*
X683330D01*
X342254Y85344D02*
Y277859D01*
X316592Y287388D02*
X332724D01*
X292972Y336457D02*
X316592D01*
X292972Y236588D02*
X316592D01*
X292972Y136509D02*
X316592D01*
X27754Y136659D02*
X50520D01*
X27754Y236659D02*
X50520D01*
X27754Y335932D02*
X50520D01*
X377755Y136459D02*
X401473D01*
X377755Y236459D02*
X401473D01*
X378281Y336457D02*
X401473D01*
X642690Y336509D02*
X666592D01*
X642690Y136509D02*
X666592D01*
X642690Y236509D02*
X666592D01*
D30*
X450662Y510590D02*
G03*
X442598Y502526I0J-8063D01*
G01*
X100580Y507968D02*
G03*
X92598Y499986I0J-7982D01*
G01*
X512105Y510508D02*
X512186Y510427D01*
X532267Y510508D02*
X532349Y510427D01*
X512186Y484337D02*
Y510427D01*
X532349Y486072D02*
Y510427D01*
X450662Y510590D02*
X512024D01*
X512186Y18623D02*
X512267Y18542D01*
X512186Y18623D02*
Y42763D01*
X532422Y18542D02*
Y37168D01*
X162154Y18591D02*
X162203Y18542D01*
X182270Y18638D02*
X182365Y18542D01*
X162154Y18591D02*
Y42764D01*
X182270Y18638D02*
Y37175D01*
X182473Y37379D01*
X182349Y485686D02*
Y507887D01*
X442598Y488604D02*
Y502526D01*
X182473Y37379D02*
X197590D01*
X201197Y40985D01*
X532519Y37264D02*
X548949D01*
X532430Y37175D02*
X532519Y37264D01*
X100580Y507968D02*
X162105D01*
X92598Y488604D02*
Y499986D01*
X112776Y468284D02*
X124010D01*
X162186Y484337D02*
X162267Y484255D01*
X124010Y482728D02*
Y493210D01*
X162186Y484337D02*
Y507887D01*
X162105Y507968D02*
X162186Y507887D01*
X512186Y484337D02*
X512268Y484255D01*
X182267Y507968D02*
X182349Y507887D01*
X474010Y482728D02*
Y493210D01*
X554528Y483524D02*
Y493650D01*
X568752Y483524D02*
Y493650D01*
X490007Y29970D02*
Y40096D01*
X474010Y29970D02*
Y40096D01*
X220525Y30410D02*
Y40892D01*
X140007Y29970D02*
Y40096D01*
X124005Y29970D02*
Y40096D01*
X204528Y483524D02*
Y493650D01*
X218752Y483524D02*
Y493650D01*
D31*
X558832Y441148D02*
G03*
X568752Y451068I0J9920D01*
G01*
X502495Y51068D02*
G03*
X498226Y55337I-4268J0D01*
G01*
X495310Y19850D02*
G03*
X502495Y27036I0J7185D01*
G01*
X421894Y27810D02*
G03*
X429854Y19850I7960J0D01*
G01*
X421894Y47051D02*
G03*
X414371Y54574I-7523J0D01*
G01*
X719766Y400008D02*
G03*
X709092Y410682I-10674J0D01*
G01*
X719766Y284705D02*
G03*
X729653Y274818I9887J0D01*
G01*
X738570Y403949D02*
G03*
X723305Y419215I-15265J0D01*
G01*
X149001Y454520D02*
G03*
X139954Y445473I0J-9047D01*
G01*
X218751Y428462D02*
G03*
X227999Y419215I9248J0D01*
G01*
X204526Y423062D02*
G03*
X216906Y410682I12380J0D01*
G01*
X490008Y441148D02*
X558832D01*
X502495Y27036D02*
Y51068D01*
X490008Y55337D02*
X498226D01*
X220755Y54574D02*
X414371D01*
X421894Y27810D02*
Y47051D01*
X429854Y19850D02*
X495310D01*
X216906Y410682D02*
X709092D01*
X729653Y274818D02*
X738570D01*
X719766Y284705D02*
Y400008D01*
X738570Y300218D02*
Y403949D01*
X227999Y419215D02*
X723305D01*
X139954Y418198D02*
Y445473D01*
X149001Y454520D02*
X183642D01*
X218751Y454475D02*
Y468284D01*
Y428462D02*
Y454475D01*
X542544Y468284D02*
X554528D01*
X474010Y441148D02*
Y468284D01*
Y55336D02*
Y401230D01*
X568752Y451068D02*
Y468284D01*
X490008Y401448D02*
X490008Y55337D01*
X139954Y418198D02*
X140008Y418144D01*
Y55337D02*
Y418144D01*
X124010Y57109D02*
Y468284D01*
X204526Y423062D02*
Y468284D01*
X204527D01*
X316569Y361834D02*
X316592Y361857D01*
D32*
X444846Y287259D02*
G03*
X459416Y301828I0J14569D01*
G01*
X582598Y161909D02*
G03*
X568663Y147975I0J-13934D01*
G01*
X582598Y261909D02*
G03*
X568663Y247975I0J-13934D01*
G01*
X582598Y361909D02*
G03*
X568663Y347975I0J-13934D01*
G01*
X232574Y361834D02*
G03*
X218640Y347899I0J-13934D01*
G01*
X232598Y261988D02*
G03*
X218663Y248054I0J-13934D01*
G01*
X232598Y161909D02*
G03*
X218663Y147975I0J-13934D01*
G01*
X377755Y287259D02*
X444846D01*
X459416Y301828D02*
Y315734D01*
X582598Y161909D02*
X666592D01*
X568663Y126606D02*
Y147975D01*
X582598Y261909D02*
X666592D01*
X568663Y226606D02*
Y247975D01*
X582598Y361909D02*
X666592D01*
X568663Y326606D02*
Y347975D01*
X232574Y361834D02*
X316569D01*
X218640Y326531D02*
Y347899D01*
X232598Y261988D02*
X316592D01*
X218663Y226685D02*
Y248054D01*
Y126606D02*
Y147975D01*
X232598Y161909D02*
X316592D01*
D34*
Y187309D02*
D03*
Y287388D02*
D03*
X666592Y287309D02*
D03*
Y187309D02*
D03*
Y387309D02*
D03*
X377755Y287259D02*
D03*
Y187259D02*
D03*
Y386731D02*
D03*
X27754Y287459D02*
D03*
Y386731D02*
D03*
Y187459D02*
D03*
X316592Y387257D02*
D03*
D35*
Y161909D02*
D03*
Y136509D02*
D03*
Y261988D02*
D03*
Y236588D02*
D03*
X666592Y261909D02*
D03*
Y236509D02*
D03*
Y161909D02*
D03*
Y136509D02*
D03*
Y361909D02*
D03*
Y336509D02*
D03*
X377755Y261859D02*
D03*
Y236459D02*
D03*
Y161859D02*
D03*
Y136459D02*
D03*
Y361331D02*
D03*
Y335931D02*
D03*
X27754Y262059D02*
D03*
Y236659D02*
D03*
Y361331D02*
D03*
Y335932D02*
D03*
Y162059D02*
D03*
Y136659D02*
D03*
X316592Y361857D02*
D03*
Y336457D02*
D03*
D36*
X570524Y30344D02*
D03*
D37*
X738570Y300218D02*
D03*
Y274818D02*
D03*
Y249418D02*
D03*
D38*
Y224018D02*
D03*
D39*
X532267Y510508D02*
D03*
X512105D02*
D03*
X182365Y18542D02*
D03*
X162203D02*
D03*
X192166Y424498D02*
D03*
X271930Y438175D02*
D03*
X262397D02*
D03*
X501505Y96888D02*
D03*
Y107302D02*
D03*
X405299Y104266D02*
D03*
X386443D02*
D03*
X395976D02*
D03*
X405299Y95884D02*
D03*
X386443D02*
D03*
X395976D02*
D03*
X450800Y87884D02*
D03*
X441477D02*
D03*
X395766Y87502D02*
D03*
X405299D02*
D03*
X386443D02*
D03*
X87178Y16370D02*
D03*
X96711D02*
D03*
X77855D02*
D03*
Y24752D02*
D03*
X96711D02*
D03*
X87178D02*
D03*
X77855Y33134D02*
D03*
X96711D02*
D03*
X87178D02*
D03*
X625995Y16370D02*
D03*
X635528D02*
D03*
X616672D02*
D03*
Y24752D02*
D03*
X635528D02*
D03*
X625995D02*
D03*
X616672Y33134D02*
D03*
X635528D02*
D03*
X625995D02*
D03*
X392126Y16370D02*
D03*
X401658D02*
D03*
X382803D02*
D03*
Y24752D02*
D03*
X401658D02*
D03*
X392126D02*
D03*
X382803Y33134D02*
D03*
X401658D02*
D03*
X392126D02*
D03*
X437836Y33516D02*
D03*
X456692D02*
D03*
X447159D02*
D03*
X261306Y68694D02*
D03*
X280162D02*
D03*
X270629D02*
D03*
Y33134D02*
D03*
X280162D02*
D03*
X261306D02*
D03*
X270629Y24752D02*
D03*
X280162D02*
D03*
X261306D02*
D03*
Y16370D02*
D03*
X280162D02*
D03*
X270629D02*
D03*
X106680Y96126D02*
D03*
Y105524D02*
D03*
Y86614D02*
D03*
X151505Y107302D02*
D03*
Y96888D02*
D03*
X592077Y438175D02*
D03*
X601610D02*
D03*
X563663Y395908D02*
D03*
X554131D02*
D03*
X253074Y438175D02*
D03*
X544808Y395908D02*
D03*
X460231Y87986D02*
D03*
X582754Y438175D02*
D03*
X442598Y441148D02*
D03*
X523990Y127368D02*
D03*
X173990Y127368D02*
D03*
X92710Y416928D02*
D03*
X459416Y315734D02*
D03*
X691388Y85344D02*
D03*
X342254Y85344D02*
D03*
X218751Y454475D02*
D03*
X183642Y454520D02*
D03*
X112776Y468284D02*
D03*
X542544D02*
D03*
X474010Y441148D02*
D03*
Y401448D02*
D03*
X490008D02*
D03*
X490008Y441148D02*
D03*
X568663Y126606D02*
D03*
Y226606D02*
D03*
Y326606D02*
D03*
X218640Y326531D02*
D03*
X218663Y226685D02*
D03*
Y126606D02*
D03*
X140007Y29970D02*
D03*
X124005Y29970D02*
D03*
X220525Y30410D02*
D03*
X182267Y507968D02*
D03*
X124010Y493210D02*
D03*
X218752Y493650D02*
D03*
X204528D02*
D03*
X162105Y507968D02*
D03*
X512267Y18542D02*
D03*
X532430D02*
D03*
X568752Y493650D02*
D03*
X554528D02*
D03*
X474010Y493210D02*
D03*
X490007Y29970D02*
D03*
X474010Y29970D02*
D03*
D40*
X442598Y463204D02*
D03*
Y488604D02*
D03*
X551197Y66385D02*
D03*
Y40985D02*
D03*
X92598Y488604D02*
D03*
Y463204D02*
D03*
X201197Y40985D02*
D03*
Y66385D02*
D03*
D41*
X182270Y37175D02*
D03*
Y52415D02*
D03*
X124010Y483524D02*
D03*
Y468284D02*
D03*
X162267D02*
D03*
Y483524D02*
D03*
X204527Y468284D02*
D03*
Y483524D02*
D03*
X532430Y37175D02*
D03*
Y52415D02*
D03*
X490008Y40097D02*
D03*
Y55337D02*
D03*
X512268Y483524D02*
D03*
Y468284D02*
D03*
X554528Y483524D02*
D03*
Y468284D02*
D03*
X568752Y483524D02*
D03*
Y468284D02*
D03*
X140008Y55337D02*
D03*
Y40097D02*
D03*
X220755Y54574D02*
D03*
Y39334D02*
D03*
X124005Y55336D02*
D03*
Y40096D02*
D03*
X474010D02*
D03*
Y55336D02*
D03*
Y468284D02*
D03*
Y483524D02*
D03*
X218751Y468284D02*
D03*
Y483524D02*
D03*
D42*
X292972Y336457D02*
D03*
X277732D02*
D03*
X50520Y236659D02*
D03*
X65760D02*
D03*
X292972Y236588D02*
D03*
X277732D02*
D03*
X401473Y236459D02*
D03*
X416713D02*
D03*
X401473Y336457D02*
D03*
X416713D02*
D03*
X642690Y336509D02*
D03*
X627450D02*
D03*
X642690Y236509D02*
D03*
X627450D02*
D03*
X642690Y136509D02*
D03*
X627450D02*
D03*
X50520Y136659D02*
D03*
X65760D02*
D03*
X292972Y136509D02*
D03*
X277732D02*
D03*
X401473Y136459D02*
D03*
X416713D02*
D03*
X50520Y335932D02*
D03*
X65760D02*
D03*
D43*
X182430Y475777D02*
D03*
Y485175D02*
D03*
X512105Y43017D02*
D03*
Y52415D02*
D03*
X532430Y485175D02*
D03*
Y475777D02*
D03*
X162106Y43018D02*
D03*
Y52416D02*
D03*
D44*
X481513Y445788D02*
D03*
D45*
X480534Y502707D02*
D03*
M02*
