G04*
G04 #@! TF.GenerationSoftware,Altium Limited,Altium Designer,24.5.2 (23)*
G04*
G04 Layer_Color=128*
%FSLAX44Y44*%
%MOMM*%
G71*
G04*
G04 #@! TF.SameCoordinates,6F11C544-AA61-49F6-BD56-CEDF6A25585B*
G04*
G04*
G04 #@! TF.FilePolarity,Positive*
G04*
G01*
G75*
%ADD41R,1.7780X1.5240*%
%ADD42R,0.8890X0.7620*%
%ADD43R,0.7620X0.8890*%
%ADD44R,0.6350X0.4572*%
D41*
X442598Y463204D02*
D03*
Y488604D02*
D03*
X551197Y66385D02*
D03*
Y40985D02*
D03*
X92598Y488604D02*
D03*
Y463204D02*
D03*
X201197Y40985D02*
D03*
Y66385D02*
D03*
D42*
X182270Y37175D02*
D03*
Y52415D02*
D03*
X124010Y483524D02*
D03*
Y468284D02*
D03*
X162267D02*
D03*
Y483524D02*
D03*
X204527Y468284D02*
D03*
Y483524D02*
D03*
X532430Y37175D02*
D03*
Y52415D02*
D03*
X490008Y40097D02*
D03*
Y55337D02*
D03*
X512268Y483524D02*
D03*
Y468284D02*
D03*
X554528Y483524D02*
D03*
Y468284D02*
D03*
X568752Y483524D02*
D03*
Y468284D02*
D03*
X140008Y55337D02*
D03*
Y40097D02*
D03*
X220755Y54574D02*
D03*
Y39334D02*
D03*
X124005Y55336D02*
D03*
Y40096D02*
D03*
X474010D02*
D03*
Y55336D02*
D03*
Y468284D02*
D03*
Y483524D02*
D03*
X218751Y468284D02*
D03*
Y483524D02*
D03*
D43*
X292972Y336457D02*
D03*
X277732D02*
D03*
X50520Y236659D02*
D03*
X65760D02*
D03*
X292972Y236588D02*
D03*
X277732D02*
D03*
X401473Y236459D02*
D03*
X416713D02*
D03*
X401473Y336457D02*
D03*
X416713D02*
D03*
X642690Y336509D02*
D03*
X627450D02*
D03*
X642690Y236509D02*
D03*
X627450D02*
D03*
X642690Y136509D02*
D03*
X627450D02*
D03*
X50520Y136659D02*
D03*
X65760D02*
D03*
X292972Y136509D02*
D03*
X277732D02*
D03*
X401473Y136459D02*
D03*
X416713D02*
D03*
X50520Y335932D02*
D03*
X65760D02*
D03*
D44*
X182430Y475777D02*
D03*
Y485175D02*
D03*
X512105Y43017D02*
D03*
Y52415D02*
D03*
X532430Y485175D02*
D03*
Y475777D02*
D03*
X162106Y43018D02*
D03*
Y52416D02*
D03*
M02*
