G04*
G04 #@! TF.GenerationSoftware,Altium Limited,Altium Designer,24.5.2 (23)*
G04*
G04 Layer_Color=8388736*
%FSLAX44Y44*%
%MOMM*%
G71*
G04*
G04 #@! TF.SameCoordinates,6F11C544-AA61-49F6-BD56-CEDF6A25585B*
G04*
G04*
G04 #@! TF.FilePolarity,Negative*
G04*
G01*
G75*
%ADD19R,0.9032X1.5032*%
%ADD20R,1.2032X3.7033*%
%ADD21R,1.4732X3.7033*%
%ADD22C,0.2032*%
%ADD23R,1.7032X1.7032*%
%ADD24C,1.7032*%
%ADD25C,1.2032*%
%ADD26C,1.8032*%
%ADD27R,1.8032X1.8032*%
%ADD28C,0.8032*%
G36*
X243016Y384674D02*
X243069Y384672D01*
X243777Y384599D01*
X243846Y384587D01*
X243908Y384576D01*
X243908Y384576D01*
X243909Y384576D01*
X243971Y384557D01*
X244035Y384537D01*
X244701Y384283D01*
X244702Y384282D01*
X244703Y384282D01*
X244759Y384256D01*
X244822Y384227D01*
X244823Y384227D01*
X244824Y384226D01*
X244878Y384192D01*
X244935Y384157D01*
X244935Y384156D01*
X244936Y384155D01*
X245511Y383737D01*
X245512Y383737D01*
X245512Y383737D01*
X245513Y383736D01*
X245560Y383697D01*
X245614Y383652D01*
X245615Y383652D01*
X245615Y383651D01*
X245658Y383605D01*
X245705Y383554D01*
X246154Y383001D01*
X246170Y382979D01*
X246187Y382958D01*
X246671Y382293D01*
X247216Y381814D01*
X247849Y381467D01*
X248646Y381237D01*
X248665Y381230D01*
X248685Y381224D01*
X249295Y381021D01*
X249344Y381001D01*
X249394Y380982D01*
X249406Y380976D01*
X249418Y380971D01*
X249464Y380945D01*
X249512Y380919D01*
X250058Y380579D01*
X250101Y380548D01*
X250144Y380519D01*
X250154Y380510D01*
X250166Y380501D01*
X250204Y380465D01*
X250243Y380431D01*
X250695Y379973D01*
X250727Y379937D01*
X250760Y379902D01*
X250770Y379887D01*
X250783Y379873D01*
X250809Y379832D01*
X250837Y379793D01*
X251175Y379247D01*
X251200Y379200D01*
X251227Y379152D01*
X251232Y379141D01*
X251238Y379129D01*
X251256Y379079D01*
X251277Y379029D01*
X251477Y378416D01*
X251490Y378366D01*
X251505Y378316D01*
X251507Y378301D01*
X251510Y378288D01*
X251517Y378236D01*
X251525Y378184D01*
X251578Y377544D01*
X251579Y377501D01*
X251581Y377459D01*
Y346359D01*
X251578Y346308D01*
X251576Y346257D01*
X251513Y345630D01*
X251504Y345577D01*
X251496Y345524D01*
X251493Y345511D01*
X251491Y345498D01*
X251475Y345447D01*
X251460Y345395D01*
X251252Y344801D01*
X251232Y344754D01*
X251213Y344706D01*
X251206Y344692D01*
X251200Y344678D01*
X251174Y344635D01*
X251149Y344589D01*
X250811Y344061D01*
X250782Y344021D01*
X250754Y343980D01*
X250743Y343968D01*
X250732Y343954D01*
X250698Y343918D01*
X250665Y343881D01*
X250216Y343442D01*
X250175Y343407D01*
X250135Y343371D01*
X250124Y343364D01*
X250114Y343355D01*
X250069Y343326D01*
X250025Y343296D01*
X249484Y342973D01*
X249438Y342949D01*
X249392Y342924D01*
X249378Y342919D01*
X249366Y342912D01*
X249317Y342895D01*
X249268Y342876D01*
X248668Y342688D01*
X248657Y342685D01*
X248646Y342681D01*
X247849Y342451D01*
X247216Y342104D01*
X246676Y341629D01*
X246186Y340958D01*
X246180Y340951D01*
X246175Y340943D01*
X245735Y340364D01*
X245683Y340304D01*
X245649Y340265D01*
X245649Y340264D01*
X245648Y340264D01*
X245596Y340217D01*
X245549Y340176D01*
X244978Y339732D01*
X244976Y339730D01*
X244974Y339729D01*
X244920Y339692D01*
X244868Y339657D01*
X244866Y339656D01*
X244864Y339655D01*
X244804Y339625D01*
X244749Y339597D01*
X244746Y339596D01*
X244744Y339595D01*
X244074Y339316D01*
X244074Y339316D01*
X244074Y339316D01*
X244074Y339316D01*
X244029Y339301D01*
X243948Y339273D01*
X243948Y339273D01*
X243948Y339273D01*
X243878Y339259D01*
X243818Y339247D01*
X243817Y339247D01*
X243817Y339247D01*
X243817D01*
X243099Y339150D01*
X243098Y339150D01*
X243096Y339150D01*
X243030Y339146D01*
X242966Y339141D01*
X242965Y339141D01*
X242964Y339141D01*
X232664D01*
X232609Y339145D01*
X232554Y339147D01*
X231970Y339211D01*
X231969Y339211D01*
X231969Y339211D01*
X231900Y339223D01*
X231838Y339234D01*
X231838Y339234D01*
X231838Y339234D01*
X231777Y339253D01*
X231711Y339274D01*
X231711Y339274D01*
X231710Y339274D01*
X231163Y339487D01*
X231163Y339487D01*
X231163Y339487D01*
X231162Y339487D01*
X231109Y339512D01*
X231042Y339543D01*
X231042Y339543D01*
X231041Y339544D01*
X230991Y339576D01*
X230930Y339614D01*
X230457Y339960D01*
X230457Y339961D01*
X230456Y339961D01*
X230406Y340003D01*
X230355Y340045D01*
X230355Y340046D01*
X230354Y340047D01*
X230307Y340098D01*
X230265Y340143D01*
X230265Y340144D01*
X230264Y340145D01*
X229896Y340605D01*
X229859Y340658D01*
X229822Y340709D01*
X229821Y340712D01*
X229819Y340714D01*
X229790Y340770D01*
X229760Y340827D01*
X229521Y341363D01*
X229520Y341366D01*
X229519Y341368D01*
X229498Y341426D01*
X229475Y341488D01*
X229475Y341491D01*
X229474Y341493D01*
X229460Y341554D01*
X229446Y341618D01*
X229446Y341621D01*
X229445Y341623D01*
X229356Y342205D01*
X229355Y342216D01*
X229353Y342226D01*
X229349Y342282D01*
X229345Y342338D01*
X229345Y342348D01*
X229344Y342359D01*
Y381358D01*
Y381358D01*
Y381358D01*
X229350Y381446D01*
X229353Y381491D01*
X229353Y381491D01*
Y381491D01*
X229432Y382088D01*
X229445Y382155D01*
X229457Y382217D01*
X229458Y382218D01*
X229458Y382219D01*
X229478Y382278D01*
X229500Y382344D01*
X229729Y382897D01*
X229729Y382899D01*
X229730Y382900D01*
X229758Y382957D01*
X229788Y383017D01*
X229788Y383018D01*
X229789Y383019D01*
X229826Y383074D01*
X229861Y383128D01*
X229862Y383129D01*
X229863Y383130D01*
X230228Y383604D01*
X230228Y383604D01*
X230228Y383604D01*
X230229Y383605D01*
X230272Y383654D01*
X230316Y383704D01*
X230317Y383705D01*
X230317Y383705D01*
X230361Y383744D01*
X230417Y383792D01*
X230891Y384156D01*
X230891Y384156D01*
X230891Y384156D01*
X230894Y384158D01*
X230949Y384194D01*
X231002Y384230D01*
X231003Y384231D01*
X231005Y384232D01*
X231066Y384262D01*
X231121Y384289D01*
X231124Y384291D01*
X231124D01*
X231124D01*
X231675Y384520D01*
X231676Y384521D01*
X231677Y384521D01*
X231743Y384544D01*
X231801Y384563D01*
X231802Y384564D01*
X231803Y384564D01*
X231873Y384578D01*
X231931Y384590D01*
X231932Y384590D01*
X231934Y384590D01*
X232531Y384669D01*
X232531Y384669D01*
X232531D01*
X232568Y384671D01*
X232663Y384678D01*
X232664D01*
X232664D01*
X242964D01*
X243016Y384674D01*
D02*
G37*
G36*
X143016D02*
X143069Y384672D01*
X143777Y384599D01*
X143846Y384587D01*
X143908Y384576D01*
X143908Y384576D01*
X143909Y384576D01*
X143971Y384557D01*
X144035Y384537D01*
X144701Y384283D01*
X144702Y384282D01*
X144703Y384282D01*
X144759Y384256D01*
X144822Y384227D01*
X144823Y384227D01*
X144824Y384226D01*
X144878Y384192D01*
X144935Y384157D01*
X144935Y384156D01*
X144936Y384155D01*
X145512Y383737D01*
X145512Y383737D01*
X145512Y383737D01*
X145513Y383736D01*
X145561Y383697D01*
X145614Y383652D01*
X145615Y383652D01*
X145615Y383651D01*
X145658Y383605D01*
X145705Y383554D01*
X146154Y383001D01*
X146170Y382979D01*
X146187Y382958D01*
X146671Y382293D01*
X147216Y381814D01*
X147849Y381467D01*
X148646Y381237D01*
X148665Y381230D01*
X148686Y381224D01*
X149295Y381021D01*
X149344Y381001D01*
X149394Y380982D01*
X149406Y380976D01*
X149418Y380971D01*
X149464Y380945D01*
X149512Y380919D01*
X150058Y380579D01*
X150101Y380548D01*
X150143Y380519D01*
X150154Y380510D01*
X150166Y380501D01*
X150204Y380465D01*
X150243Y380431D01*
X150695Y379973D01*
X150727Y379937D01*
X150760Y379902D01*
X150771Y379887D01*
X150783Y379873D01*
X150809Y379832D01*
X150837Y379793D01*
X151175Y379247D01*
X151200Y379200D01*
X151227Y379152D01*
X151232Y379141D01*
X151237Y379129D01*
X151256Y379079D01*
X151277Y379029D01*
X151477Y378416D01*
X151490Y378366D01*
X151505Y378316D01*
X151507Y378301D01*
X151510Y378288D01*
X151517Y378236D01*
X151524Y378184D01*
X151578Y377544D01*
X151579Y377501D01*
X151581Y377459D01*
Y346359D01*
X151578Y346308D01*
X151576Y346257D01*
X151513Y345630D01*
X151504Y345577D01*
X151496Y345524D01*
X151493Y345511D01*
X151491Y345498D01*
X151475Y345447D01*
X151461Y345395D01*
X151252Y344801D01*
X151232Y344754D01*
X151213Y344706D01*
X151206Y344692D01*
X151200Y344678D01*
X151174Y344635D01*
X151149Y344589D01*
X150811Y344061D01*
X150782Y344021D01*
X150754Y343980D01*
X150743Y343968D01*
X150732Y343954D01*
X150698Y343918D01*
X150665Y343881D01*
X150216Y343442D01*
X150175Y343407D01*
X150135Y343371D01*
X150125Y343364D01*
X150114Y343355D01*
X150069Y343326D01*
X150025Y343296D01*
X149484Y342973D01*
X149438Y342949D01*
X149392Y342924D01*
X149378Y342919D01*
X149366Y342912D01*
X149317Y342895D01*
X149268Y342876D01*
X148668Y342688D01*
X148657Y342685D01*
X148646Y342681D01*
X147849Y342451D01*
X147216Y342104D01*
X146676Y341629D01*
X146186Y340958D01*
X146180Y340951D01*
X146175Y340943D01*
X145736Y340364D01*
X145683Y340304D01*
X145649Y340265D01*
X145649Y340264D01*
X145648Y340264D01*
X145596Y340217D01*
X145549Y340176D01*
X144978Y339732D01*
X144976Y339730D01*
X144974Y339729D01*
X144920Y339692D01*
X144868Y339657D01*
X144866Y339656D01*
X144864Y339655D01*
X144804Y339625D01*
X144749Y339597D01*
X144747Y339596D01*
X144745Y339595D01*
X144074Y339316D01*
X144074Y339316D01*
X144074Y339316D01*
X144074Y339316D01*
X144029Y339301D01*
X143948Y339273D01*
X143948Y339273D01*
X143948Y339273D01*
X143878Y339259D01*
X143818Y339247D01*
X143817Y339247D01*
X143817Y339247D01*
X143817D01*
X143099Y339150D01*
X143098Y339150D01*
X143096Y339150D01*
X143031Y339146D01*
X142966Y339141D01*
X142965Y339141D01*
X142963Y339141D01*
X132664D01*
X132609Y339145D01*
X132554Y339147D01*
X131969Y339211D01*
X131969Y339211D01*
X131969Y339211D01*
X131900Y339223D01*
X131838Y339234D01*
X131838Y339234D01*
X131838Y339234D01*
X131777Y339253D01*
X131711Y339274D01*
X131711Y339274D01*
X131711Y339274D01*
X131163Y339487D01*
X131163Y339487D01*
X131163Y339487D01*
X131162Y339487D01*
X131109Y339512D01*
X131042Y339543D01*
X131042Y339543D01*
X131041Y339544D01*
X130990Y339576D01*
X130930Y339614D01*
X130457Y339960D01*
X130457Y339961D01*
X130456Y339961D01*
X130406Y340003D01*
X130355Y340045D01*
X130355Y340046D01*
X130354Y340047D01*
X130307Y340098D01*
X130265Y340143D01*
X130265Y340144D01*
X130264Y340145D01*
X129895Y340605D01*
X129859Y340658D01*
X129822Y340709D01*
X129821Y340712D01*
X129819Y340714D01*
X129790Y340770D01*
X129760Y340827D01*
X129521Y341363D01*
X129520Y341366D01*
X129519Y341368D01*
X129498Y341426D01*
X129475Y341488D01*
X129475Y341491D01*
X129474Y341493D01*
X129460Y341554D01*
X129446Y341618D01*
X129446Y341621D01*
X129445Y341623D01*
X129356Y342205D01*
X129355Y342216D01*
X129353Y342226D01*
X129349Y342282D01*
X129345Y342338D01*
X129345Y342348D01*
X129344Y342359D01*
Y381358D01*
Y381358D01*
Y381358D01*
X129350Y381446D01*
X129353Y381491D01*
X129353Y381491D01*
Y381491D01*
X129432Y382088D01*
X129445Y382155D01*
X129458Y382217D01*
X129458Y382218D01*
X129458Y382219D01*
X129478Y382278D01*
X129500Y382344D01*
X129729Y382897D01*
X129729Y382899D01*
X129730Y382900D01*
X129758Y382957D01*
X129788Y383017D01*
X129788Y383018D01*
X129789Y383019D01*
X129826Y383074D01*
X129861Y383128D01*
X129862Y383129D01*
X129863Y383130D01*
X130228Y383604D01*
X130228Y383604D01*
X130228Y383604D01*
X130229Y383605D01*
X130272Y383654D01*
X130316Y383704D01*
X130317Y383705D01*
X130317Y383705D01*
X130361Y383744D01*
X130416Y383792D01*
X130891Y384156D01*
X130891Y384156D01*
X130891Y384156D01*
X130894Y384158D01*
X130949Y384194D01*
X131002Y384230D01*
X131003Y384231D01*
X131005Y384232D01*
X131066Y384262D01*
X131121Y384289D01*
X131124Y384291D01*
X131124D01*
X131124D01*
X131675Y384520D01*
X131676Y384521D01*
X131677Y384521D01*
X131743Y384544D01*
X131801Y384563D01*
X131802Y384564D01*
X131803Y384564D01*
X131873Y384578D01*
X131931Y384590D01*
X131932Y384590D01*
X131934Y384590D01*
X132531Y384669D01*
X132531Y384669D01*
X132531D01*
X132568Y384671D01*
X132663Y384678D01*
X132664D01*
X132664D01*
X142963D01*
X143016Y384674D01*
D02*
G37*
G36*
X224131Y384673D02*
X224196Y384669D01*
X224197Y384669D01*
X224198Y384669D01*
X224767Y384592D01*
X224830Y384580D01*
X224893Y384567D01*
X224896Y384567D01*
X224898Y384566D01*
X224959Y384545D01*
X225020Y384525D01*
X225551Y384306D01*
X225553Y384305D01*
X225555Y384305D01*
X225614Y384275D01*
X225670Y384248D01*
X225672Y384246D01*
X225674Y384245D01*
X225728Y384209D01*
X225781Y384174D01*
X225783Y384172D01*
X225785Y384171D01*
X226239Y383821D01*
X226288Y383778D01*
X226336Y383736D01*
X226338Y383734D01*
X226339Y383733D01*
X226381Y383685D01*
X226424Y383636D01*
X226775Y383181D01*
X226776Y383179D01*
X226777Y383177D01*
X226811Y383127D01*
X226849Y383071D01*
X226850Y383068D01*
X226851Y383067D01*
X226878Y383012D01*
X226908Y382951D01*
X226909Y382949D01*
X226910Y382947D01*
X227128Y382416D01*
X227149Y382355D01*
X227170Y382294D01*
X227170Y382292D01*
X227171Y382290D01*
X227183Y382227D01*
X227196Y382164D01*
X227272Y381595D01*
X227272Y381594D01*
X227272Y381593D01*
X227277Y381527D01*
X227281Y381462D01*
X227281Y381461D01*
X227281Y381460D01*
Y365658D01*
X227281Y365655D01*
X227281Y365651D01*
X227276Y365588D01*
X227272Y365526D01*
X227272Y365522D01*
X227271Y365518D01*
X227198Y364990D01*
X227186Y364932D01*
X227175Y364876D01*
X227173Y364868D01*
X227171Y364859D01*
X227152Y364804D01*
X227134Y364749D01*
X226933Y364252D01*
X226907Y364198D01*
X226882Y364145D01*
X226879Y364138D01*
X226875Y364132D01*
X226843Y364082D01*
X226811Y364032D01*
X226496Y363600D01*
X226458Y363555D01*
X226422Y363510D01*
X226416Y363504D01*
X226411Y363498D01*
X226368Y363458D01*
X226325Y363418D01*
X225931Y363090D01*
X225927Y363087D01*
X225927Y363087D01*
X225915Y363076D01*
X225914Y363075D01*
X225913Y363075D01*
X225574Y362770D01*
X225385Y362471D01*
X225287Y362135D01*
Y361782D01*
X225385Y361445D01*
X225573Y361148D01*
X225927Y360831D01*
X225939Y360818D01*
X225945Y360814D01*
X226352Y360461D01*
X226394Y360419D01*
X226437Y360377D01*
X226441Y360372D01*
X226446Y360367D01*
X226483Y360320D01*
X226520Y360273D01*
X226838Y359815D01*
X226868Y359765D01*
X226900Y359713D01*
X226903Y359707D01*
X226906Y359701D01*
X226930Y359647D01*
X226955Y359591D01*
X227151Y359068D01*
X227167Y359015D01*
X227184Y358963D01*
X227186Y358951D01*
X227189Y358941D01*
X227198Y358886D01*
X227208Y358832D01*
X227274Y358278D01*
X227277Y358218D01*
X227281Y358158D01*
Y342359D01*
X227281Y342358D01*
X227281Y342357D01*
X227277Y342292D01*
X227272Y342226D01*
X227272Y342225D01*
X227272Y342224D01*
X227196Y341655D01*
X227183Y341592D01*
X227171Y341529D01*
X227170Y341527D01*
X227170Y341524D01*
X227149Y341463D01*
X227128Y341403D01*
X226910Y340872D01*
X226910Y340871D01*
X226909Y340870D01*
X226881Y340812D01*
X226851Y340752D01*
X226851Y340751D01*
X226850Y340750D01*
X226816Y340699D01*
X226777Y340641D01*
X226777Y340640D01*
X226776Y340640D01*
X226426Y340182D01*
X226425Y340182D01*
X226425Y340181D01*
X226386Y340137D01*
X226338Y340082D01*
X226337Y340082D01*
X226337Y340081D01*
X226286Y340036D01*
X226238Y339995D01*
X226237Y339994D01*
X226237Y339993D01*
X225782Y339645D01*
X225729Y339610D01*
X225674Y339573D01*
X225672Y339572D01*
X225671Y339572D01*
X225618Y339546D01*
X225554Y339514D01*
X225024Y339293D01*
X225022Y339292D01*
X225020Y339291D01*
X224963Y339272D01*
X224897Y339250D01*
X224895Y339250D01*
X224894Y339249D01*
X224834Y339237D01*
X224767Y339224D01*
X224765Y339224D01*
X224763Y339223D01*
X224196Y339150D01*
D01*
D01*
X224194Y339150D01*
X224129Y339146D01*
X224063Y339141D01*
X213662D01*
X213661Y339141D01*
X213659Y339141D01*
X213595Y339146D01*
X213529Y339150D01*
X213528Y339150D01*
X213526Y339150D01*
X212808Y339247D01*
X212807Y339247D01*
X212807Y339247D01*
X212735Y339261D01*
X212677Y339273D01*
X212677Y339273D01*
X212676Y339273D01*
X212615Y339295D01*
X212551Y339316D01*
X212551Y339316D01*
X212550Y339316D01*
X211882Y339596D01*
X211882Y339596D01*
X211881Y339596D01*
X211833Y339620D01*
X211763Y339655D01*
X211763Y339655D01*
X211762Y339656D01*
X211691Y339704D01*
X211653Y339730D01*
X211652Y339730D01*
X211652Y339730D01*
X211078Y340175D01*
X211077Y340175D01*
X211077Y340175D01*
X211021Y340225D01*
X210978Y340263D01*
X210978Y340263D01*
X210977Y340264D01*
X210933Y340315D01*
X210891Y340364D01*
X210890Y340364D01*
X210890Y340364D01*
X210451Y340943D01*
X210441Y340958D01*
X210430Y340971D01*
X209960Y341637D01*
X209450Y342099D01*
X208843Y342445D01*
X208082Y342679D01*
X208065Y342685D01*
X208064Y342686D01*
X208061Y342686D01*
X208059Y342687D01*
X207465Y342859D01*
X207415Y342878D01*
X207366Y342894D01*
X207353Y342900D01*
X207340Y342905D01*
X207293Y342929D01*
X207246Y342952D01*
X206687Y343270D01*
X206644Y343298D01*
X206600Y343325D01*
X206588Y343335D01*
X206576Y343343D01*
X206537Y343376D01*
X206497Y343409D01*
X206030Y343843D01*
X205995Y343880D01*
X205959Y343916D01*
X205949Y343929D01*
X205938Y343940D01*
X205909Y343981D01*
X205877Y344022D01*
X205519Y344555D01*
X205493Y344600D01*
X205465Y344645D01*
X205459Y344658D01*
X205452Y344670D01*
X205432Y344719D01*
X205411Y344767D01*
X205187Y345366D01*
X205172Y345417D01*
X205156Y345466D01*
X205153Y345480D01*
X205149Y345494D01*
X205140Y345545D01*
X205131Y345597D01*
X205052Y346235D01*
X205048Y346298D01*
X205044Y346359D01*
Y377759D01*
X205045Y377775D01*
X205045Y377791D01*
X205050Y377841D01*
X205053Y377892D01*
X205056Y377908D01*
X205058Y377924D01*
X205157Y378528D01*
X205168Y378578D01*
X205179Y378629D01*
X205183Y378643D01*
X205187Y378658D01*
X205205Y378706D01*
X205222Y378755D01*
X205458Y379322D01*
X205481Y379368D01*
X205502Y379415D01*
X205510Y379428D01*
X205517Y379441D01*
X205545Y379483D01*
X205573Y379527D01*
X205934Y380025D01*
X205968Y380066D01*
X206000Y380107D01*
X206010Y380117D01*
X206019Y380128D01*
X206058Y380164D01*
X206095Y380201D01*
X206560Y380599D01*
X206601Y380630D01*
X206640Y380662D01*
X206654Y380670D01*
X206667Y380679D01*
X206711Y380704D01*
X206754Y380730D01*
X207298Y381012D01*
X207345Y381033D01*
X207392Y381055D01*
X207406Y381060D01*
X207420Y381066D01*
X207470Y381080D01*
X207519Y381096D01*
X208095Y381241D01*
X208096Y381241D01*
X208096Y381241D01*
X208100Y381242D01*
X208102Y381242D01*
X208102Y381242D01*
X208881Y381468D01*
X209505Y381810D01*
X210050Y382288D01*
X210541Y382960D01*
X210552Y382972D01*
X210561Y382985D01*
X210985Y383529D01*
X211033Y383583D01*
X211073Y383628D01*
X211073Y383628D01*
X211073Y383628D01*
X211122Y383670D01*
X211174Y383715D01*
X211725Y384131D01*
X211727Y384132D01*
X211728Y384134D01*
X211784Y384170D01*
X211836Y384204D01*
X211838Y384205D01*
X211840Y384207D01*
X211899Y384235D01*
X211956Y384263D01*
X211958Y384263D01*
X211960Y384264D01*
X212597Y384520D01*
X212597D01*
X212598D01*
X212600Y384521D01*
X212662Y384541D01*
X212724Y384561D01*
X212725Y384562D01*
X212727Y384562D01*
X212793Y384574D01*
X212855Y384586D01*
X213538Y384670D01*
X213600Y384674D01*
X213662Y384678D01*
X224063D01*
X224064Y384678D01*
X224066Y384678D01*
X224131Y384673D01*
D02*
G37*
G36*
X124131D02*
X124196Y384669D01*
X124197Y384669D01*
X124199Y384669D01*
X124767Y384592D01*
X124830Y384580D01*
X124894Y384567D01*
X124896Y384567D01*
X124898Y384566D01*
X124959Y384545D01*
X125020Y384525D01*
X125551Y384306D01*
X125553Y384305D01*
X125555Y384305D01*
X125614Y384275D01*
X125670Y384248D01*
X125672Y384246D01*
X125674Y384245D01*
X125728Y384209D01*
X125781Y384174D01*
X125783Y384172D01*
X125785Y384171D01*
X126240Y383821D01*
X126288Y383778D01*
X126336Y383736D01*
X126338Y383734D01*
X126339Y383733D01*
X126381Y383685D01*
X126424Y383636D01*
X126775Y383181D01*
X126776Y383179D01*
X126777Y383177D01*
X126811Y383127D01*
X126849Y383071D01*
X126850Y383068D01*
X126851Y383067D01*
X126878Y383012D01*
X126908Y382951D01*
X126909Y382949D01*
X126910Y382947D01*
X127128Y382416D01*
X127149Y382355D01*
X127170Y382294D01*
X127170Y382292D01*
X127171Y382290D01*
X127183Y382227D01*
X127196Y382164D01*
X127272Y381595D01*
X127272Y381594D01*
X127272Y381593D01*
X127277Y381527D01*
X127281Y381462D01*
X127281Y381461D01*
X127281Y381460D01*
Y365658D01*
X127281Y365655D01*
X127281Y365651D01*
X127276Y365588D01*
X127272Y365526D01*
X127272Y365522D01*
X127271Y365518D01*
X127198Y364990D01*
X127186Y364932D01*
X127175Y364876D01*
X127173Y364868D01*
X127171Y364859D01*
X127152Y364804D01*
X127134Y364749D01*
X126933Y364252D01*
X126907Y364198D01*
X126882Y364145D01*
X126878Y364138D01*
X126875Y364132D01*
X126843Y364082D01*
X126811Y364032D01*
X126496Y363600D01*
X126458Y363555D01*
X126422Y363510D01*
X126416Y363504D01*
X126411Y363498D01*
X126368Y363458D01*
X126325Y363418D01*
X125931Y363090D01*
X125927Y363087D01*
X125927Y363087D01*
X125915Y363076D01*
X125914Y363075D01*
X125913Y363075D01*
X125574Y362770D01*
X125385Y362471D01*
X125287Y362135D01*
Y361782D01*
X125385Y361445D01*
X125573Y361148D01*
X125927Y360831D01*
X125939Y360818D01*
X125945Y360814D01*
X126352Y360461D01*
X126394Y360419D01*
X126437Y360377D01*
X126441Y360372D01*
X126446Y360367D01*
X126483Y360320D01*
X126520Y360273D01*
X126838Y359815D01*
X126868Y359765D01*
X126900Y359713D01*
X126903Y359707D01*
X126906Y359701D01*
X126930Y359647D01*
X126955Y359591D01*
X127151Y359068D01*
X127167Y359015D01*
X127184Y358963D01*
X127186Y358951D01*
X127189Y358941D01*
X127198Y358886D01*
X127208Y358832D01*
X127274Y358278D01*
X127277Y358218D01*
X127281Y358158D01*
Y342359D01*
X127281Y342358D01*
X127281Y342357D01*
X127277Y342292D01*
X127272Y342226D01*
X127272Y342225D01*
X127272Y342224D01*
X127196Y341655D01*
X127183Y341592D01*
X127171Y341529D01*
X127170Y341527D01*
X127170Y341524D01*
X127149Y341463D01*
X127128Y341403D01*
X126910Y340872D01*
X126910Y340871D01*
X126909Y340870D01*
X126881Y340812D01*
X126851Y340752D01*
X126851Y340751D01*
X126850Y340750D01*
X126816Y340699D01*
X126777Y340641D01*
X126777Y340640D01*
X126776Y340640D01*
X126426Y340182D01*
X126425Y340182D01*
X126425Y340181D01*
X126386Y340137D01*
X126338Y340082D01*
X126337Y340082D01*
X126337Y340081D01*
X126286Y340036D01*
X126238Y339995D01*
X126237Y339994D01*
X126237Y339993D01*
X125782Y339645D01*
X125729Y339610D01*
X125674Y339573D01*
X125672Y339572D01*
X125671Y339572D01*
X125618Y339546D01*
X125554Y339514D01*
X125024Y339293D01*
X125022Y339292D01*
X125020Y339291D01*
X124963Y339272D01*
X124897Y339250D01*
X124895Y339250D01*
X124894Y339249D01*
X124833Y339237D01*
X124767Y339224D01*
X124765Y339224D01*
X124763Y339223D01*
X124196Y339150D01*
D01*
D01*
X124194Y339150D01*
X124129Y339146D01*
X124063Y339141D01*
X113662D01*
X113661Y339141D01*
X113659Y339141D01*
X113595Y339146D01*
X113529Y339150D01*
X113528Y339150D01*
X113526Y339150D01*
X112808Y339247D01*
X112807Y339247D01*
X112807Y339247D01*
X112735Y339261D01*
X112677Y339273D01*
X112677Y339273D01*
X112676Y339273D01*
X112615Y339295D01*
X112551Y339316D01*
X112551Y339316D01*
X112550Y339316D01*
X111882Y339596D01*
X111882Y339596D01*
X111881Y339596D01*
X111833Y339620D01*
X111763Y339655D01*
X111763Y339655D01*
X111762Y339656D01*
X111691Y339704D01*
X111653Y339730D01*
X111652Y339730D01*
X111652Y339730D01*
X111078Y340175D01*
X111077Y340175D01*
X111077Y340175D01*
X111021Y340225D01*
X110978Y340263D01*
X110978Y340263D01*
X110977Y340264D01*
X110933Y340315D01*
X110891Y340364D01*
X110890Y340364D01*
X110890Y340364D01*
X110451Y340943D01*
X110441Y340958D01*
X110430Y340971D01*
X109960Y341637D01*
X109450Y342099D01*
X108843Y342445D01*
X108082Y342679D01*
X108066Y342685D01*
X108064Y342686D01*
X108061Y342686D01*
X108059Y342687D01*
X107465Y342859D01*
X107415Y342878D01*
X107366Y342894D01*
X107353Y342900D01*
X107340Y342905D01*
X107293Y342929D01*
X107246Y342952D01*
X106687Y343270D01*
X106644Y343298D01*
X106600Y343325D01*
X106588Y343335D01*
X106576Y343343D01*
X106537Y343376D01*
X106497Y343409D01*
X106030Y343843D01*
X105995Y343880D01*
X105959Y343916D01*
X105949Y343929D01*
X105938Y343940D01*
X105908Y343981D01*
X105877Y344022D01*
X105519Y344555D01*
X105493Y344600D01*
X105465Y344645D01*
X105459Y344658D01*
X105452Y344670D01*
X105432Y344719D01*
X105411Y344767D01*
X105187Y345366D01*
X105172Y345417D01*
X105155Y345466D01*
X105153Y345480D01*
X105149Y345494D01*
X105140Y345545D01*
X105131Y345597D01*
X105052Y346235D01*
X105048Y346298D01*
X105044Y346359D01*
Y377759D01*
X105045Y377775D01*
X105045Y377791D01*
X105050Y377841D01*
X105053Y377892D01*
X105056Y377908D01*
X105058Y377924D01*
X105157Y378528D01*
X105168Y378578D01*
X105179Y378629D01*
X105183Y378643D01*
X105187Y378658D01*
X105205Y378706D01*
X105222Y378755D01*
X105458Y379322D01*
X105481Y379368D01*
X105502Y379415D01*
X105510Y379428D01*
X105517Y379441D01*
X105545Y379483D01*
X105573Y379527D01*
X105934Y380025D01*
X105968Y380066D01*
X106000Y380107D01*
X106010Y380117D01*
X106019Y380128D01*
X106058Y380164D01*
X106095Y380201D01*
X106560Y380599D01*
X106601Y380630D01*
X106640Y380662D01*
X106654Y380670D01*
X106667Y380679D01*
X106711Y380704D01*
X106754Y380730D01*
X107298Y381012D01*
X107345Y381033D01*
X107392Y381055D01*
X107406Y381060D01*
X107420Y381066D01*
X107470Y381080D01*
X107519Y381096D01*
X108095Y381241D01*
X108096Y381241D01*
X108096Y381241D01*
X108100Y381242D01*
X108102Y381242D01*
X108102Y381242D01*
X108881Y381468D01*
X109505Y381810D01*
X110050Y382288D01*
X110541Y382960D01*
X110552Y382972D01*
X110561Y382985D01*
X110985Y383529D01*
X111033Y383583D01*
X111073Y383628D01*
X111073Y383628D01*
X111073Y383628D01*
X111122Y383670D01*
X111174Y383715D01*
X111725Y384131D01*
X111727Y384132D01*
X111728Y384134D01*
X111784Y384170D01*
X111836Y384204D01*
X111838Y384205D01*
X111840Y384207D01*
X111899Y384235D01*
X111956Y384263D01*
X111958Y384263D01*
X111960Y384264D01*
X112597Y384520D01*
X112597D01*
X112598D01*
X112600Y384521D01*
X112662Y384541D01*
X112724Y384561D01*
X112725Y384562D01*
X112727Y384562D01*
X112793Y384574D01*
X112855Y384586D01*
X113538Y384670D01*
X113600Y384674D01*
X113662Y384678D01*
X124063D01*
X124064Y384678D01*
X124066Y384678D01*
X124131Y384673D01*
D02*
G37*
G36*
X243016Y284674D02*
X243069Y284672D01*
X243777Y284599D01*
X243846Y284587D01*
X243908Y284576D01*
X243908Y284576D01*
X243909Y284576D01*
X243971Y284557D01*
X244035Y284537D01*
X244701Y284283D01*
X244702Y284282D01*
X244703Y284282D01*
X244759Y284256D01*
X244822Y284228D01*
X244823Y284227D01*
X244824Y284226D01*
X244878Y284192D01*
X244935Y284157D01*
X244935Y284156D01*
X244936Y284155D01*
X245511Y283737D01*
X245512Y283737D01*
X245512Y283737D01*
X245513Y283736D01*
X245560Y283697D01*
X245614Y283652D01*
X245615Y283652D01*
X245615Y283651D01*
X245658Y283605D01*
X245705Y283554D01*
X246154Y283001D01*
X246170Y282979D01*
X246187Y282958D01*
X246671Y282293D01*
X247216Y281814D01*
X247849Y281467D01*
X248646Y281237D01*
X248665Y281230D01*
X248685Y281224D01*
X249295Y281021D01*
X249344Y281001D01*
X249394Y280982D01*
X249406Y280976D01*
X249418Y280971D01*
X249464Y280945D01*
X249512Y280919D01*
X250058Y280579D01*
X250101Y280548D01*
X250144Y280519D01*
X250154Y280510D01*
X250166Y280501D01*
X250204Y280465D01*
X250243Y280431D01*
X250695Y279974D01*
X250727Y279937D01*
X250760Y279902D01*
X250770Y279887D01*
X250783Y279873D01*
X250809Y279832D01*
X250837Y279793D01*
X251175Y279247D01*
X251200Y279200D01*
X251227Y279152D01*
X251232Y279140D01*
X251238Y279130D01*
X251256Y279079D01*
X251277Y279029D01*
X251477Y278417D01*
X251490Y278366D01*
X251505Y278316D01*
X251507Y278301D01*
X251510Y278288D01*
X251517Y278236D01*
X251525Y278184D01*
X251578Y277544D01*
X251579Y277501D01*
X251581Y277459D01*
Y246360D01*
X251578Y246308D01*
X251576Y246257D01*
X251513Y245630D01*
X251504Y245577D01*
X251496Y245524D01*
X251493Y245511D01*
X251491Y245498D01*
X251475Y245447D01*
X251460Y245395D01*
X251252Y244801D01*
X251232Y244754D01*
X251213Y244706D01*
X251206Y244692D01*
X251200Y244678D01*
X251174Y244634D01*
X251149Y244589D01*
X250811Y244061D01*
X250782Y244021D01*
X250754Y243980D01*
X250743Y243968D01*
X250732Y243954D01*
X250698Y243918D01*
X250665Y243881D01*
X250216Y243442D01*
X250175Y243407D01*
X250135Y243371D01*
X250124Y243364D01*
X250114Y243355D01*
X250069Y243326D01*
X250025Y243295D01*
X249484Y242973D01*
X249438Y242949D01*
X249392Y242924D01*
X249378Y242919D01*
X249366Y242912D01*
X249317Y242895D01*
X249268Y242876D01*
X248668Y242688D01*
X248657Y242685D01*
X248646Y242681D01*
X247849Y242451D01*
X247216Y242104D01*
X246676Y241629D01*
X246186Y240958D01*
X246180Y240951D01*
X246175Y240943D01*
X245735Y240364D01*
X245683Y240304D01*
X245649Y240264D01*
X245649Y240264D01*
X245648Y240264D01*
X245596Y240217D01*
X245549Y240176D01*
X244978Y239732D01*
X244976Y239730D01*
X244974Y239729D01*
X244920Y239692D01*
X244868Y239657D01*
X244866Y239656D01*
X244864Y239655D01*
X244804Y239625D01*
X244749Y239597D01*
X244746Y239596D01*
X244744Y239595D01*
X244074Y239316D01*
X244074Y239316D01*
X244074Y239316D01*
X244074Y239316D01*
X244029Y239301D01*
X243948Y239273D01*
X243948Y239273D01*
X243948Y239273D01*
X243878Y239259D01*
X243818Y239247D01*
X243817Y239247D01*
X243817Y239247D01*
X243817D01*
X243099Y239150D01*
X243098Y239150D01*
X243096Y239150D01*
X243030Y239146D01*
X242966Y239141D01*
X242965Y239141D01*
X242964Y239141D01*
X232664D01*
X232609Y239145D01*
X232554Y239147D01*
X231970Y239211D01*
X231969Y239211D01*
X231969Y239211D01*
X231900Y239223D01*
X231838Y239234D01*
X231838Y239234D01*
X231838Y239234D01*
X231777Y239253D01*
X231711Y239274D01*
X231711Y239274D01*
X231710Y239274D01*
X231163Y239487D01*
X231163Y239487D01*
X231163Y239487D01*
X231162Y239487D01*
X231109Y239512D01*
X231042Y239543D01*
X231042Y239543D01*
X231041Y239544D01*
X230991Y239576D01*
X230930Y239614D01*
X230457Y239960D01*
X230457Y239960D01*
X230456Y239961D01*
X230406Y240003D01*
X230355Y240045D01*
X230355Y240046D01*
X230354Y240047D01*
X230307Y240098D01*
X230265Y240143D01*
X230265Y240144D01*
X230264Y240145D01*
X229896Y240605D01*
X229859Y240658D01*
X229822Y240709D01*
X229821Y240712D01*
X229819Y240714D01*
X229790Y240770D01*
X229760Y240827D01*
X229521Y241363D01*
X229520Y241366D01*
X229519Y241368D01*
X229498Y241426D01*
X229475Y241488D01*
X229475Y241491D01*
X229474Y241493D01*
X229460Y241554D01*
X229446Y241618D01*
X229446Y241621D01*
X229445Y241623D01*
X229356Y242205D01*
X229355Y242216D01*
X229353Y242226D01*
X229349Y242282D01*
X229345Y242338D01*
X229345Y242348D01*
X229344Y242359D01*
Y281358D01*
Y281358D01*
Y281358D01*
X229350Y281446D01*
X229353Y281491D01*
X229353Y281491D01*
Y281491D01*
X229432Y282088D01*
X229445Y282155D01*
X229457Y282217D01*
X229458Y282218D01*
X229458Y282219D01*
X229478Y282278D01*
X229500Y282344D01*
X229729Y282897D01*
X229729Y282899D01*
X229730Y282900D01*
X229758Y282957D01*
X229788Y283017D01*
X229788Y283018D01*
X229789Y283019D01*
X229826Y283074D01*
X229861Y283128D01*
X229862Y283129D01*
X229863Y283130D01*
X230228Y283604D01*
X230228Y283604D01*
X230228Y283604D01*
X230229Y283605D01*
X230272Y283654D01*
X230316Y283704D01*
X230317Y283705D01*
X230317Y283705D01*
X230361Y283743D01*
X230417Y283792D01*
X230891Y284156D01*
X230891Y284156D01*
X230891Y284156D01*
X230894Y284158D01*
X230949Y284194D01*
X231002Y284230D01*
X231003Y284231D01*
X231005Y284232D01*
X231066Y284262D01*
X231121Y284289D01*
X231124Y284291D01*
X231124D01*
X231124D01*
X231675Y284520D01*
X231676Y284521D01*
X231677Y284521D01*
X231743Y284544D01*
X231801Y284563D01*
X231802Y284564D01*
X231803Y284564D01*
X231873Y284578D01*
X231931Y284590D01*
X231932Y284590D01*
X231934Y284590D01*
X232531Y284669D01*
X232531Y284669D01*
X232531D01*
X232568Y284671D01*
X232663Y284678D01*
X232664D01*
X232664D01*
X242964D01*
X243016Y284674D01*
D02*
G37*
G36*
X143016D02*
X143069Y284672D01*
X143777Y284599D01*
X143846Y284587D01*
X143908Y284576D01*
X143908Y284576D01*
X143909Y284576D01*
X143971Y284557D01*
X144035Y284537D01*
X144701Y284283D01*
X144702Y284282D01*
X144703Y284282D01*
X144759Y284256D01*
X144822Y284228D01*
X144823Y284227D01*
X144824Y284226D01*
X144878Y284192D01*
X144935Y284157D01*
X144935Y284156D01*
X144936Y284155D01*
X145512Y283737D01*
X145512Y283737D01*
X145512Y283737D01*
X145513Y283736D01*
X145561Y283697D01*
X145614Y283652D01*
X145615Y283652D01*
X145615Y283651D01*
X145658Y283605D01*
X145705Y283554D01*
X146154Y283001D01*
X146170Y282979D01*
X146187Y282958D01*
X146671Y282293D01*
X147216Y281814D01*
X147849Y281467D01*
X148646Y281237D01*
X148665Y281230D01*
X148686Y281224D01*
X149295Y281021D01*
X149344Y281001D01*
X149394Y280982D01*
X149406Y280976D01*
X149418Y280971D01*
X149464Y280945D01*
X149512Y280919D01*
X150058Y280579D01*
X150101Y280548D01*
X150143Y280519D01*
X150154Y280510D01*
X150166Y280501D01*
X150204Y280465D01*
X150243Y280431D01*
X150695Y279974D01*
X150727Y279937D01*
X150760Y279902D01*
X150771Y279887D01*
X150783Y279873D01*
X150809Y279832D01*
X150837Y279793D01*
X151175Y279247D01*
X151200Y279200D01*
X151227Y279152D01*
X151232Y279140D01*
X151237Y279130D01*
X151256Y279079D01*
X151277Y279029D01*
X151477Y278417D01*
X151490Y278366D01*
X151505Y278316D01*
X151507Y278301D01*
X151510Y278288D01*
X151517Y278236D01*
X151524Y278184D01*
X151578Y277544D01*
X151579Y277501D01*
X151581Y277459D01*
Y246360D01*
X151578Y246308D01*
X151576Y246257D01*
X151513Y245630D01*
X151504Y245577D01*
X151496Y245524D01*
X151493Y245511D01*
X151491Y245498D01*
X151475Y245447D01*
X151461Y245395D01*
X151252Y244801D01*
X151232Y244754D01*
X151213Y244706D01*
X151206Y244692D01*
X151200Y244678D01*
X151174Y244634D01*
X151149Y244589D01*
X150811Y244061D01*
X150782Y244021D01*
X150754Y243980D01*
X150743Y243968D01*
X150732Y243954D01*
X150698Y243918D01*
X150665Y243881D01*
X150216Y243442D01*
X150175Y243407D01*
X150135Y243371D01*
X150125Y243364D01*
X150114Y243355D01*
X150069Y243326D01*
X150025Y243295D01*
X149484Y242973D01*
X149438Y242949D01*
X149392Y242924D01*
X149378Y242919D01*
X149366Y242912D01*
X149317Y242895D01*
X149268Y242876D01*
X148668Y242688D01*
X148657Y242685D01*
X148646Y242681D01*
X147849Y242451D01*
X147216Y242104D01*
X146676Y241629D01*
X146186Y240958D01*
X146180Y240951D01*
X146175Y240943D01*
X145736Y240364D01*
X145683Y240304D01*
X145649Y240264D01*
X145649Y240264D01*
X145648Y240264D01*
X145596Y240217D01*
X145549Y240176D01*
X144978Y239732D01*
X144976Y239730D01*
X144974Y239729D01*
X144920Y239692D01*
X144868Y239657D01*
X144866Y239656D01*
X144864Y239655D01*
X144804Y239625D01*
X144749Y239597D01*
X144747Y239596D01*
X144745Y239595D01*
X144074Y239316D01*
X144074Y239316D01*
X144074Y239316D01*
X144074Y239316D01*
X144029Y239301D01*
X143948Y239273D01*
X143948Y239273D01*
X143948Y239273D01*
X143878Y239259D01*
X143818Y239247D01*
X143817Y239247D01*
X143817Y239247D01*
X143817D01*
X143099Y239150D01*
X143098Y239150D01*
X143096Y239150D01*
X143031Y239146D01*
X142966Y239141D01*
X142965Y239141D01*
X142963Y239141D01*
X132664D01*
X132609Y239145D01*
X132554Y239147D01*
X131969Y239211D01*
X131969Y239211D01*
X131969Y239211D01*
X131900Y239223D01*
X131838Y239234D01*
X131838Y239234D01*
X131838Y239234D01*
X131777Y239253D01*
X131711Y239274D01*
X131711Y239274D01*
X131711Y239274D01*
X131163Y239487D01*
X131163Y239487D01*
X131163Y239487D01*
X131162Y239487D01*
X131109Y239512D01*
X131042Y239543D01*
X131042Y239543D01*
X131041Y239544D01*
X130990Y239576D01*
X130930Y239614D01*
X130457Y239960D01*
X130457Y239960D01*
X130456Y239961D01*
X130406Y240003D01*
X130355Y240045D01*
X130355Y240046D01*
X130354Y240047D01*
X130307Y240098D01*
X130265Y240143D01*
X130265Y240144D01*
X130264Y240145D01*
X129895Y240605D01*
X129859Y240658D01*
X129822Y240709D01*
X129821Y240712D01*
X129819Y240714D01*
X129790Y240770D01*
X129760Y240827D01*
X129521Y241363D01*
X129520Y241366D01*
X129519Y241368D01*
X129498Y241426D01*
X129475Y241488D01*
X129475Y241491D01*
X129474Y241493D01*
X129460Y241554D01*
X129446Y241618D01*
X129446Y241621D01*
X129445Y241623D01*
X129356Y242205D01*
X129355Y242216D01*
X129353Y242226D01*
X129349Y242282D01*
X129345Y242338D01*
X129345Y242348D01*
X129344Y242359D01*
Y281358D01*
Y281358D01*
Y281358D01*
X129350Y281446D01*
X129353Y281491D01*
X129353Y281491D01*
Y281491D01*
X129432Y282088D01*
X129445Y282155D01*
X129458Y282217D01*
X129458Y282218D01*
X129458Y282219D01*
X129478Y282278D01*
X129500Y282344D01*
X129729Y282897D01*
X129729Y282899D01*
X129730Y282900D01*
X129758Y282957D01*
X129788Y283017D01*
X129788Y283018D01*
X129789Y283019D01*
X129826Y283074D01*
X129861Y283128D01*
X129862Y283129D01*
X129863Y283130D01*
X130228Y283604D01*
X130228Y283604D01*
X130228Y283604D01*
X130229Y283605D01*
X130272Y283654D01*
X130316Y283704D01*
X130317Y283705D01*
X130317Y283705D01*
X130361Y283743D01*
X130416Y283792D01*
X130891Y284156D01*
X130891Y284156D01*
X130891Y284156D01*
X130894Y284158D01*
X130949Y284194D01*
X131002Y284230D01*
X131003Y284231D01*
X131005Y284232D01*
X131066Y284262D01*
X131121Y284289D01*
X131124Y284291D01*
X131124D01*
X131124D01*
X131675Y284520D01*
X131676Y284521D01*
X131677Y284521D01*
X131743Y284544D01*
X131801Y284563D01*
X131802Y284564D01*
X131803Y284564D01*
X131873Y284578D01*
X131931Y284590D01*
X131932Y284590D01*
X131934Y284590D01*
X132531Y284669D01*
X132531Y284669D01*
X132531D01*
X132568Y284671D01*
X132663Y284678D01*
X132664D01*
X132664D01*
X142963D01*
X143016Y284674D01*
D02*
G37*
G36*
X224131Y284673D02*
X224196Y284669D01*
X224197Y284669D01*
X224198Y284669D01*
X224767Y284592D01*
X224830Y284580D01*
X224893Y284567D01*
X224896Y284567D01*
X224898Y284566D01*
X224959Y284545D01*
X225020Y284525D01*
X225551Y284306D01*
X225553Y284305D01*
X225555Y284305D01*
X225614Y284275D01*
X225670Y284248D01*
X225672Y284246D01*
X225674Y284245D01*
X225728Y284209D01*
X225781Y284174D01*
X225783Y284172D01*
X225785Y284171D01*
X226239Y283821D01*
X226288Y283778D01*
X226336Y283736D01*
X226338Y283734D01*
X226339Y283733D01*
X226381Y283685D01*
X226424Y283636D01*
X226775Y283181D01*
X226776Y283179D01*
X226777Y283178D01*
X226811Y283127D01*
X226849Y283071D01*
X226850Y283068D01*
X226851Y283067D01*
X226878Y283012D01*
X226908Y282951D01*
X226909Y282949D01*
X226910Y282947D01*
X227128Y282416D01*
X227149Y282355D01*
X227170Y282294D01*
X227170Y282292D01*
X227171Y282290D01*
X227183Y282227D01*
X227196Y282164D01*
X227272Y281595D01*
X227272Y281594D01*
X227272Y281593D01*
X227277Y281527D01*
X227281Y281462D01*
X227281Y281461D01*
X227281Y281460D01*
Y265658D01*
X227281Y265655D01*
X227281Y265651D01*
X227276Y265588D01*
X227272Y265525D01*
X227272Y265522D01*
X227271Y265518D01*
X227198Y264989D01*
X227186Y264932D01*
X227175Y264876D01*
X227173Y264868D01*
X227171Y264859D01*
X227152Y264804D01*
X227134Y264750D01*
X226933Y264252D01*
X226907Y264198D01*
X226882Y264145D01*
X226879Y264138D01*
X226875Y264132D01*
X226843Y264082D01*
X226811Y264032D01*
X226496Y263600D01*
X226458Y263555D01*
X226422Y263510D01*
X226416Y263504D01*
X226411Y263498D01*
X226368Y263458D01*
X226325Y263418D01*
X225931Y263090D01*
X225927Y263087D01*
X225927Y263087D01*
X225915Y263076D01*
X225914Y263075D01*
X225913Y263075D01*
X225574Y262770D01*
X225385Y262471D01*
X225287Y262135D01*
Y261782D01*
X225385Y261445D01*
X225573Y261148D01*
X225927Y260831D01*
X225939Y260818D01*
X225945Y260814D01*
X226352Y260461D01*
X226394Y260418D01*
X226437Y260377D01*
X226441Y260372D01*
X226446Y260367D01*
X226483Y260319D01*
X226520Y260273D01*
X226838Y259816D01*
X226868Y259765D01*
X226900Y259713D01*
X226903Y259707D01*
X226906Y259701D01*
X226930Y259647D01*
X226955Y259591D01*
X227151Y259068D01*
X227167Y259015D01*
X227184Y258963D01*
X227186Y258951D01*
X227189Y258941D01*
X227198Y258886D01*
X227208Y258832D01*
X227274Y258278D01*
X227277Y258218D01*
X227281Y258158D01*
Y242359D01*
X227281Y242358D01*
X227281Y242357D01*
X227277Y242292D01*
X227272Y242226D01*
X227272Y242225D01*
X227272Y242224D01*
X227196Y241655D01*
X227183Y241592D01*
X227171Y241529D01*
X227170Y241527D01*
X227170Y241524D01*
X227149Y241463D01*
X227128Y241403D01*
X226910Y240872D01*
X226910Y240871D01*
X226909Y240870D01*
X226881Y240812D01*
X226851Y240752D01*
X226851Y240751D01*
X226850Y240750D01*
X226816Y240699D01*
X226777Y240641D01*
X226777Y240640D01*
X226776Y240640D01*
X226426Y240182D01*
X226425Y240182D01*
X226425Y240181D01*
X226386Y240137D01*
X226338Y240082D01*
X226337Y240082D01*
X226337Y240081D01*
X226286Y240036D01*
X226238Y239995D01*
X226237Y239994D01*
X226237Y239993D01*
X225782Y239645D01*
X225729Y239610D01*
X225674Y239573D01*
X225672Y239572D01*
X225671Y239572D01*
X225618Y239545D01*
X225554Y239514D01*
X225024Y239293D01*
X225022Y239292D01*
X225020Y239291D01*
X224963Y239272D01*
X224897Y239250D01*
X224895Y239250D01*
X224894Y239249D01*
X224834Y239237D01*
X224767Y239224D01*
X224765Y239224D01*
X224763Y239223D01*
X224196Y239150D01*
D01*
D01*
X224194Y239150D01*
X224129Y239146D01*
X224063Y239141D01*
X213662D01*
X213661Y239141D01*
X213659Y239141D01*
X213595Y239146D01*
X213529Y239150D01*
X213528Y239150D01*
X213526Y239150D01*
X212808Y239247D01*
X212807Y239247D01*
X212807Y239247D01*
X212735Y239261D01*
X212677Y239273D01*
X212677Y239273D01*
X212676Y239273D01*
X212615Y239294D01*
X212551Y239316D01*
X212551Y239316D01*
X212550Y239317D01*
X211882Y239596D01*
X211882Y239596D01*
X211881Y239596D01*
X211833Y239620D01*
X211763Y239655D01*
X211763Y239655D01*
X211762Y239656D01*
X211691Y239704D01*
X211653Y239730D01*
X211652Y239730D01*
X211652Y239730D01*
X211078Y240175D01*
X211077Y240175D01*
X211077Y240175D01*
X211021Y240225D01*
X210978Y240263D01*
X210978Y240263D01*
X210977Y240264D01*
X210933Y240315D01*
X210891Y240364D01*
X210890Y240364D01*
X210890Y240364D01*
X210451Y240943D01*
X210441Y240958D01*
X210430Y240971D01*
X209960Y241637D01*
X209450Y242099D01*
X208843Y242445D01*
X208082Y242679D01*
X208065Y242685D01*
X208064Y242686D01*
X208061Y242686D01*
X208059Y242687D01*
X207465Y242859D01*
X207415Y242878D01*
X207366Y242894D01*
X207353Y242900D01*
X207340Y242905D01*
X207293Y242929D01*
X207246Y242952D01*
X206687Y243270D01*
X206644Y243298D01*
X206600Y243325D01*
X206588Y243335D01*
X206576Y243343D01*
X206537Y243376D01*
X206497Y243409D01*
X206030Y243843D01*
X205995Y243880D01*
X205959Y243916D01*
X205949Y243929D01*
X205938Y243940D01*
X205909Y243981D01*
X205877Y244022D01*
X205519Y244555D01*
X205493Y244600D01*
X205465Y244645D01*
X205459Y244658D01*
X205452Y244670D01*
X205432Y244718D01*
X205411Y244767D01*
X205187Y245366D01*
X205172Y245417D01*
X205156Y245466D01*
X205153Y245480D01*
X205149Y245494D01*
X205140Y245545D01*
X205131Y245597D01*
X205052Y246235D01*
X205048Y246298D01*
X205044Y246360D01*
Y277759D01*
X205045Y277775D01*
X205045Y277791D01*
X205050Y277841D01*
X205053Y277892D01*
X205056Y277908D01*
X205058Y277924D01*
X205157Y278528D01*
X205168Y278578D01*
X205179Y278629D01*
X205183Y278643D01*
X205187Y278658D01*
X205205Y278706D01*
X205222Y278755D01*
X205458Y279322D01*
X205481Y279368D01*
X205502Y279415D01*
X205510Y279428D01*
X205517Y279441D01*
X205545Y279483D01*
X205573Y279527D01*
X205934Y280025D01*
X205968Y280066D01*
X206000Y280107D01*
X206010Y280117D01*
X206019Y280128D01*
X206058Y280164D01*
X206095Y280201D01*
X206560Y280599D01*
X206601Y280630D01*
X206640Y280662D01*
X206654Y280670D01*
X206667Y280679D01*
X206711Y280704D01*
X206754Y280730D01*
X207298Y281012D01*
X207345Y281033D01*
X207392Y281055D01*
X207406Y281060D01*
X207420Y281066D01*
X207470Y281080D01*
X207519Y281096D01*
X208095Y281241D01*
X208096Y281241D01*
X208096Y281241D01*
X208100Y281242D01*
X208102Y281242D01*
X208102Y281243D01*
X208881Y281468D01*
X209505Y281810D01*
X210050Y282288D01*
X210541Y282960D01*
X210552Y282972D01*
X210561Y282985D01*
X210985Y283529D01*
X211033Y283583D01*
X211073Y283628D01*
X211073Y283628D01*
X211073Y283628D01*
X211122Y283670D01*
X211174Y283715D01*
X211725Y284131D01*
X211727Y284132D01*
X211728Y284134D01*
X211784Y284170D01*
X211836Y284205D01*
X211838Y284205D01*
X211840Y284207D01*
X211899Y284235D01*
X211956Y284263D01*
X211958Y284263D01*
X211960Y284264D01*
X212597Y284520D01*
X212597D01*
X212598D01*
X212600Y284521D01*
X212662Y284541D01*
X212724Y284561D01*
X212725Y284562D01*
X212727Y284562D01*
X212793Y284574D01*
X212855Y284586D01*
X213538Y284670D01*
X213600Y284674D01*
X213662Y284678D01*
X224063D01*
X224064Y284678D01*
X224066Y284678D01*
X224131Y284673D01*
D02*
G37*
G36*
X124131D02*
X124196Y284669D01*
X124197Y284669D01*
X124199Y284669D01*
X124767Y284592D01*
X124830Y284580D01*
X124894Y284567D01*
X124896Y284567D01*
X124898Y284566D01*
X124959Y284545D01*
X125020Y284525D01*
X125551Y284306D01*
X125553Y284305D01*
X125555Y284305D01*
X125614Y284275D01*
X125670Y284248D01*
X125672Y284246D01*
X125674Y284245D01*
X125728Y284209D01*
X125781Y284174D01*
X125783Y284172D01*
X125785Y284171D01*
X126240Y283821D01*
X126288Y283778D01*
X126336Y283736D01*
X126338Y283734D01*
X126339Y283733D01*
X126381Y283685D01*
X126424Y283636D01*
X126775Y283181D01*
X126776Y283179D01*
X126777Y283178D01*
X126811Y283127D01*
X126849Y283071D01*
X126850Y283068D01*
X126851Y283067D01*
X126878Y283012D01*
X126908Y282951D01*
X126909Y282949D01*
X126910Y282947D01*
X127128Y282416D01*
X127149Y282355D01*
X127170Y282294D01*
X127170Y282292D01*
X127171Y282290D01*
X127183Y282227D01*
X127196Y282164D01*
X127272Y281595D01*
X127272Y281594D01*
X127272Y281593D01*
X127277Y281527D01*
X127281Y281462D01*
X127281Y281461D01*
X127281Y281460D01*
Y265658D01*
X127281Y265655D01*
X127281Y265651D01*
X127276Y265588D01*
X127272Y265525D01*
X127272Y265522D01*
X127271Y265518D01*
X127198Y264989D01*
X127186Y264932D01*
X127175Y264876D01*
X127173Y264868D01*
X127171Y264859D01*
X127152Y264804D01*
X127134Y264750D01*
X126933Y264252D01*
X126907Y264198D01*
X126882Y264145D01*
X126878Y264138D01*
X126875Y264132D01*
X126843Y264082D01*
X126811Y264032D01*
X126496Y263600D01*
X126458Y263555D01*
X126422Y263510D01*
X126416Y263504D01*
X126411Y263498D01*
X126368Y263458D01*
X126325Y263418D01*
X125931Y263090D01*
X125927Y263087D01*
X125927Y263087D01*
X125915Y263076D01*
X125914Y263075D01*
X125913Y263075D01*
X125574Y262770D01*
X125385Y262471D01*
X125287Y262135D01*
Y261782D01*
X125385Y261445D01*
X125573Y261148D01*
X125927Y260831D01*
X125939Y260818D01*
X125945Y260814D01*
X126352Y260461D01*
X126394Y260418D01*
X126437Y260377D01*
X126441Y260372D01*
X126446Y260367D01*
X126483Y260319D01*
X126520Y260273D01*
X126838Y259816D01*
X126868Y259765D01*
X126900Y259713D01*
X126903Y259707D01*
X126906Y259701D01*
X126930Y259647D01*
X126955Y259591D01*
X127151Y259068D01*
X127167Y259015D01*
X127184Y258963D01*
X127186Y258951D01*
X127189Y258941D01*
X127198Y258886D01*
X127208Y258832D01*
X127274Y258278D01*
X127277Y258218D01*
X127281Y258158D01*
Y242359D01*
X127281Y242358D01*
X127281Y242357D01*
X127277Y242292D01*
X127272Y242226D01*
X127272Y242225D01*
X127272Y242224D01*
X127196Y241655D01*
X127183Y241592D01*
X127171Y241529D01*
X127170Y241527D01*
X127170Y241524D01*
X127149Y241463D01*
X127128Y241403D01*
X126910Y240872D01*
X126910Y240871D01*
X126909Y240870D01*
X126881Y240812D01*
X126851Y240752D01*
X126851Y240751D01*
X126850Y240750D01*
X126816Y240699D01*
X126777Y240641D01*
X126777Y240640D01*
X126776Y240640D01*
X126426Y240182D01*
X126425Y240182D01*
X126425Y240181D01*
X126386Y240137D01*
X126338Y240082D01*
X126337Y240082D01*
X126337Y240081D01*
X126286Y240036D01*
X126238Y239995D01*
X126237Y239994D01*
X126237Y239993D01*
X125782Y239645D01*
X125729Y239610D01*
X125674Y239573D01*
X125672Y239572D01*
X125671Y239572D01*
X125618Y239545D01*
X125554Y239514D01*
X125024Y239293D01*
X125022Y239292D01*
X125020Y239291D01*
X124963Y239272D01*
X124897Y239250D01*
X124895Y239250D01*
X124894Y239249D01*
X124833Y239237D01*
X124767Y239224D01*
X124765Y239224D01*
X124763Y239223D01*
X124196Y239150D01*
D01*
D01*
X124194Y239150D01*
X124129Y239146D01*
X124063Y239141D01*
X113662D01*
X113661Y239141D01*
X113659Y239141D01*
X113595Y239146D01*
X113529Y239150D01*
X113528Y239150D01*
X113526Y239150D01*
X112808Y239247D01*
X112807Y239247D01*
X112807Y239247D01*
X112735Y239261D01*
X112677Y239273D01*
X112677Y239273D01*
X112676Y239273D01*
X112615Y239294D01*
X112551Y239316D01*
X112551Y239316D01*
X112550Y239317D01*
X111882Y239596D01*
X111882Y239596D01*
X111881Y239596D01*
X111833Y239620D01*
X111763Y239655D01*
X111763Y239655D01*
X111762Y239656D01*
X111691Y239704D01*
X111653Y239730D01*
X111652Y239730D01*
X111652Y239730D01*
X111078Y240175D01*
X111077Y240175D01*
X111077Y240175D01*
X111021Y240225D01*
X110978Y240263D01*
X110978Y240263D01*
X110977Y240264D01*
X110933Y240315D01*
X110891Y240364D01*
X110890Y240364D01*
X110890Y240364D01*
X110451Y240943D01*
X110441Y240958D01*
X110430Y240971D01*
X109960Y241637D01*
X109450Y242099D01*
X108843Y242445D01*
X108082Y242679D01*
X108066Y242685D01*
X108064Y242686D01*
X108061Y242686D01*
X108059Y242687D01*
X107465Y242859D01*
X107415Y242878D01*
X107366Y242894D01*
X107353Y242900D01*
X107340Y242905D01*
X107293Y242929D01*
X107246Y242952D01*
X106687Y243270D01*
X106644Y243298D01*
X106600Y243325D01*
X106588Y243335D01*
X106576Y243343D01*
X106537Y243376D01*
X106497Y243409D01*
X106030Y243843D01*
X105995Y243880D01*
X105959Y243916D01*
X105949Y243929D01*
X105938Y243940D01*
X105908Y243981D01*
X105877Y244022D01*
X105519Y244555D01*
X105493Y244600D01*
X105465Y244645D01*
X105459Y244658D01*
X105452Y244670D01*
X105432Y244718D01*
X105411Y244767D01*
X105187Y245366D01*
X105172Y245417D01*
X105155Y245466D01*
X105153Y245480D01*
X105149Y245494D01*
X105140Y245545D01*
X105131Y245597D01*
X105052Y246235D01*
X105048Y246298D01*
X105044Y246360D01*
Y277759D01*
X105045Y277775D01*
X105045Y277791D01*
X105050Y277841D01*
X105053Y277892D01*
X105056Y277908D01*
X105058Y277924D01*
X105157Y278528D01*
X105168Y278578D01*
X105179Y278629D01*
X105183Y278643D01*
X105187Y278658D01*
X105205Y278706D01*
X105222Y278755D01*
X105458Y279322D01*
X105481Y279368D01*
X105502Y279415D01*
X105510Y279428D01*
X105517Y279441D01*
X105545Y279483D01*
X105573Y279527D01*
X105934Y280025D01*
X105968Y280066D01*
X106000Y280107D01*
X106010Y280117D01*
X106019Y280128D01*
X106058Y280164D01*
X106095Y280201D01*
X106560Y280599D01*
X106601Y280630D01*
X106640Y280662D01*
X106654Y280670D01*
X106667Y280679D01*
X106711Y280704D01*
X106754Y280730D01*
X107298Y281012D01*
X107345Y281033D01*
X107392Y281055D01*
X107406Y281060D01*
X107420Y281066D01*
X107470Y281080D01*
X107519Y281096D01*
X108095Y281241D01*
X108096Y281241D01*
X108096Y281241D01*
X108100Y281242D01*
X108102Y281242D01*
X108102Y281243D01*
X108881Y281468D01*
X109505Y281810D01*
X110050Y282288D01*
X110541Y282960D01*
X110552Y282972D01*
X110561Y282985D01*
X110985Y283529D01*
X111033Y283583D01*
X111073Y283628D01*
X111073Y283628D01*
X111073Y283628D01*
X111122Y283670D01*
X111174Y283715D01*
X111725Y284131D01*
X111727Y284132D01*
X111728Y284134D01*
X111784Y284170D01*
X111836Y284205D01*
X111838Y284205D01*
X111840Y284207D01*
X111899Y284235D01*
X111956Y284263D01*
X111958Y284263D01*
X111960Y284264D01*
X112597Y284520D01*
X112597D01*
X112598D01*
X112600Y284521D01*
X112662Y284541D01*
X112724Y284561D01*
X112725Y284562D01*
X112727Y284562D01*
X112793Y284574D01*
X112855Y284586D01*
X113538Y284670D01*
X113600Y284674D01*
X113662Y284678D01*
X124063D01*
X124064Y284678D01*
X124066Y284678D01*
X124131Y284673D01*
D02*
G37*
G36*
X243016Y184674D02*
X243069Y184672D01*
X243777Y184599D01*
X243846Y184587D01*
X243908Y184576D01*
X243908Y184576D01*
X243909Y184576D01*
X243971Y184557D01*
X244035Y184537D01*
X244701Y184283D01*
X244702Y184282D01*
X244703Y184282D01*
X244759Y184256D01*
X244822Y184228D01*
X244823Y184227D01*
X244824Y184226D01*
X244878Y184192D01*
X244935Y184157D01*
X244935Y184156D01*
X244936Y184155D01*
X245511Y183737D01*
X245512Y183737D01*
X245512Y183737D01*
X245513Y183736D01*
X245560Y183697D01*
X245614Y183652D01*
X245615Y183652D01*
X245615Y183651D01*
X245658Y183605D01*
X245705Y183554D01*
X246154Y183001D01*
X246170Y182979D01*
X246187Y182958D01*
X246671Y182293D01*
X247216Y181814D01*
X247849Y181467D01*
X248646Y181237D01*
X248665Y181230D01*
X248685Y181224D01*
X249295Y181021D01*
X249344Y181001D01*
X249394Y180982D01*
X249406Y180976D01*
X249418Y180971D01*
X249464Y180945D01*
X249512Y180919D01*
X250058Y180579D01*
X250101Y180548D01*
X250144Y180519D01*
X250154Y180510D01*
X250166Y180501D01*
X250204Y180465D01*
X250243Y180431D01*
X250695Y179974D01*
X250727Y179937D01*
X250760Y179902D01*
X250770Y179887D01*
X250783Y179873D01*
X250809Y179832D01*
X250837Y179793D01*
X251175Y179247D01*
X251200Y179200D01*
X251227Y179152D01*
X251232Y179140D01*
X251238Y179130D01*
X251256Y179079D01*
X251277Y179029D01*
X251477Y178417D01*
X251490Y178366D01*
X251505Y178316D01*
X251507Y178301D01*
X251510Y178288D01*
X251517Y178236D01*
X251525Y178184D01*
X251578Y177544D01*
X251579Y177501D01*
X251581Y177459D01*
Y146360D01*
X251578Y146308D01*
X251576Y146257D01*
X251513Y145630D01*
X251504Y145577D01*
X251496Y145524D01*
X251493Y145511D01*
X251491Y145498D01*
X251475Y145447D01*
X251460Y145395D01*
X251252Y144801D01*
X251232Y144754D01*
X251213Y144706D01*
X251206Y144692D01*
X251200Y144678D01*
X251174Y144635D01*
X251149Y144589D01*
X250811Y144061D01*
X250782Y144021D01*
X250754Y143980D01*
X250743Y143968D01*
X250732Y143954D01*
X250698Y143918D01*
X250665Y143881D01*
X250216Y143442D01*
X250175Y143407D01*
X250135Y143371D01*
X250124Y143364D01*
X250114Y143355D01*
X250069Y143326D01*
X250025Y143295D01*
X249484Y142973D01*
X249438Y142949D01*
X249392Y142924D01*
X249378Y142919D01*
X249366Y142912D01*
X249317Y142895D01*
X249268Y142876D01*
X248668Y142688D01*
X248657Y142685D01*
X248646Y142681D01*
X247849Y142451D01*
X247216Y142105D01*
X246676Y141629D01*
X246186Y140958D01*
X246180Y140951D01*
X246175Y140943D01*
X245735Y140364D01*
X245683Y140304D01*
X245649Y140265D01*
X245649Y140264D01*
X245648Y140264D01*
X245596Y140217D01*
X245549Y140176D01*
X244978Y139732D01*
X244976Y139730D01*
X244974Y139729D01*
X244920Y139692D01*
X244868Y139657D01*
X244866Y139656D01*
X244864Y139655D01*
X244804Y139625D01*
X244749Y139597D01*
X244746Y139596D01*
X244744Y139595D01*
X244074Y139316D01*
X244074Y139316D01*
X244074Y139316D01*
X244074Y139316D01*
X244029Y139301D01*
X243948Y139273D01*
X243948Y139273D01*
X243948Y139273D01*
X243878Y139259D01*
X243818Y139247D01*
X243817Y139247D01*
X243817Y139247D01*
X243817D01*
X243099Y139150D01*
X243098Y139150D01*
X243096Y139150D01*
X243030Y139146D01*
X242966Y139141D01*
X242965Y139141D01*
X242964Y139141D01*
X232664D01*
X232609Y139145D01*
X232554Y139147D01*
X231970Y139211D01*
X231969Y139211D01*
X231969Y139211D01*
X231900Y139223D01*
X231838Y139234D01*
X231838Y139234D01*
X231838Y139234D01*
X231777Y139253D01*
X231711Y139274D01*
X231711Y139274D01*
X231710Y139274D01*
X231163Y139487D01*
X231163Y139487D01*
X231163Y139487D01*
X231162Y139487D01*
X231109Y139512D01*
X231042Y139543D01*
X231042Y139543D01*
X231041Y139544D01*
X230991Y139576D01*
X230930Y139614D01*
X230457Y139960D01*
X230457Y139960D01*
X230456Y139961D01*
X230406Y140003D01*
X230355Y140045D01*
X230355Y140046D01*
X230354Y140047D01*
X230307Y140098D01*
X230265Y140143D01*
X230265Y140144D01*
X230264Y140145D01*
X229896Y140605D01*
X229859Y140658D01*
X229822Y140709D01*
X229821Y140712D01*
X229819Y140714D01*
X229790Y140770D01*
X229760Y140827D01*
X229521Y141363D01*
X229520Y141366D01*
X229519Y141368D01*
X229498Y141426D01*
X229475Y141488D01*
X229475Y141491D01*
X229474Y141493D01*
X229460Y141554D01*
X229446Y141618D01*
X229446Y141621D01*
X229445Y141623D01*
X229356Y142205D01*
X229355Y142216D01*
X229353Y142226D01*
X229349Y142282D01*
X229345Y142338D01*
X229345Y142348D01*
X229344Y142359D01*
Y181358D01*
Y181358D01*
Y181358D01*
X229350Y181446D01*
X229353Y181491D01*
X229353Y181491D01*
Y181491D01*
X229432Y182088D01*
X229445Y182155D01*
X229457Y182217D01*
X229458Y182218D01*
X229458Y182219D01*
X229478Y182278D01*
X229500Y182344D01*
X229729Y182897D01*
X229729Y182899D01*
X229730Y182900D01*
X229758Y182957D01*
X229788Y183017D01*
X229788Y183018D01*
X229789Y183019D01*
X229826Y183074D01*
X229861Y183128D01*
X229862Y183129D01*
X229863Y183130D01*
X230228Y183604D01*
X230228Y183604D01*
X230228Y183604D01*
X230229Y183605D01*
X230272Y183654D01*
X230316Y183704D01*
X230317Y183705D01*
X230317Y183705D01*
X230361Y183743D01*
X230417Y183792D01*
X230891Y184156D01*
X230891Y184156D01*
X230891Y184156D01*
X230894Y184158D01*
X230949Y184194D01*
X231002Y184230D01*
X231003Y184231D01*
X231005Y184232D01*
X231066Y184262D01*
X231121Y184289D01*
X231124Y184291D01*
X231124D01*
X231124D01*
X231675Y184520D01*
X231676Y184521D01*
X231677Y184521D01*
X231743Y184544D01*
X231801Y184563D01*
X231802Y184564D01*
X231803Y184564D01*
X231873Y184578D01*
X231931Y184590D01*
X231932Y184590D01*
X231934Y184590D01*
X232531Y184669D01*
X232531Y184669D01*
X232531D01*
X232568Y184671D01*
X232663Y184678D01*
X232664D01*
X232664D01*
X242964D01*
X243016Y184674D01*
D02*
G37*
G36*
X143016D02*
X143069Y184672D01*
X143777Y184599D01*
X143846Y184587D01*
X143908Y184576D01*
X143908Y184576D01*
X143909Y184576D01*
X143971Y184557D01*
X144035Y184537D01*
X144701Y184283D01*
X144702Y184282D01*
X144703Y184282D01*
X144759Y184256D01*
X144822Y184228D01*
X144823Y184227D01*
X144824Y184226D01*
X144878Y184192D01*
X144935Y184157D01*
X144935Y184156D01*
X144936Y184155D01*
X145512Y183737D01*
X145512Y183737D01*
X145512Y183737D01*
X145513Y183736D01*
X145561Y183697D01*
X145614Y183652D01*
X145615Y183652D01*
X145615Y183651D01*
X145658Y183605D01*
X145705Y183554D01*
X146154Y183001D01*
X146170Y182979D01*
X146187Y182958D01*
X146671Y182293D01*
X147216Y181814D01*
X147849Y181467D01*
X148646Y181237D01*
X148665Y181230D01*
X148686Y181224D01*
X149295Y181021D01*
X149344Y181001D01*
X149394Y180982D01*
X149406Y180976D01*
X149418Y180971D01*
X149464Y180945D01*
X149512Y180919D01*
X150058Y180579D01*
X150101Y180548D01*
X150143Y180519D01*
X150154Y180510D01*
X150166Y180501D01*
X150204Y180465D01*
X150243Y180431D01*
X150695Y179974D01*
X150727Y179937D01*
X150760Y179902D01*
X150771Y179887D01*
X150783Y179873D01*
X150809Y179832D01*
X150837Y179793D01*
X151175Y179247D01*
X151200Y179200D01*
X151227Y179152D01*
X151232Y179140D01*
X151237Y179130D01*
X151256Y179079D01*
X151277Y179029D01*
X151477Y178417D01*
X151490Y178366D01*
X151505Y178316D01*
X151507Y178301D01*
X151510Y178288D01*
X151517Y178236D01*
X151524Y178184D01*
X151578Y177544D01*
X151579Y177501D01*
X151581Y177459D01*
Y146360D01*
X151578Y146308D01*
X151576Y146257D01*
X151513Y145630D01*
X151504Y145577D01*
X151496Y145524D01*
X151493Y145511D01*
X151491Y145498D01*
X151475Y145447D01*
X151461Y145395D01*
X151252Y144801D01*
X151232Y144754D01*
X151213Y144706D01*
X151206Y144692D01*
X151200Y144678D01*
X151174Y144635D01*
X151149Y144589D01*
X150811Y144061D01*
X150782Y144021D01*
X150754Y143980D01*
X150743Y143968D01*
X150732Y143954D01*
X150698Y143918D01*
X150665Y143881D01*
X150216Y143442D01*
X150175Y143407D01*
X150135Y143371D01*
X150125Y143364D01*
X150114Y143355D01*
X150069Y143326D01*
X150025Y143295D01*
X149484Y142973D01*
X149438Y142949D01*
X149392Y142924D01*
X149378Y142919D01*
X149366Y142912D01*
X149317Y142895D01*
X149268Y142876D01*
X148668Y142688D01*
X148657Y142685D01*
X148646Y142681D01*
X147849Y142451D01*
X147216Y142105D01*
X146676Y141629D01*
X146186Y140958D01*
X146180Y140951D01*
X146175Y140943D01*
X145736Y140364D01*
X145683Y140304D01*
X145649Y140265D01*
X145649Y140264D01*
X145648Y140264D01*
X145596Y140217D01*
X145549Y140176D01*
X144978Y139732D01*
X144976Y139730D01*
X144974Y139729D01*
X144920Y139692D01*
X144868Y139657D01*
X144866Y139656D01*
X144864Y139655D01*
X144804Y139625D01*
X144749Y139597D01*
X144747Y139596D01*
X144745Y139595D01*
X144074Y139316D01*
X144074Y139316D01*
X144074Y139316D01*
X144074Y139316D01*
X144029Y139301D01*
X143948Y139273D01*
X143948Y139273D01*
X143948Y139273D01*
X143878Y139259D01*
X143818Y139247D01*
X143817Y139247D01*
X143817Y139247D01*
X143817D01*
X143099Y139150D01*
X143098Y139150D01*
X143096Y139150D01*
X143031Y139146D01*
X142966Y139141D01*
X142965Y139141D01*
X142963Y139141D01*
X132664D01*
X132609Y139145D01*
X132554Y139147D01*
X131969Y139211D01*
X131969Y139211D01*
X131969Y139211D01*
X131900Y139223D01*
X131838Y139234D01*
X131838Y139234D01*
X131838Y139234D01*
X131777Y139253D01*
X131711Y139274D01*
X131711Y139274D01*
X131711Y139274D01*
X131163Y139487D01*
X131163Y139487D01*
X131163Y139487D01*
X131162Y139487D01*
X131109Y139512D01*
X131042Y139543D01*
X131042Y139543D01*
X131041Y139544D01*
X130990Y139576D01*
X130930Y139614D01*
X130457Y139960D01*
X130457Y139960D01*
X130456Y139961D01*
X130406Y140003D01*
X130355Y140045D01*
X130355Y140046D01*
X130354Y140047D01*
X130307Y140098D01*
X130265Y140143D01*
X130265Y140144D01*
X130264Y140145D01*
X129895Y140605D01*
X129859Y140658D01*
X129822Y140709D01*
X129821Y140712D01*
X129819Y140714D01*
X129790Y140770D01*
X129760Y140827D01*
X129521Y141363D01*
X129520Y141366D01*
X129519Y141368D01*
X129498Y141426D01*
X129475Y141488D01*
X129475Y141491D01*
X129474Y141493D01*
X129460Y141554D01*
X129446Y141618D01*
X129446Y141621D01*
X129445Y141623D01*
X129356Y142205D01*
X129355Y142216D01*
X129353Y142226D01*
X129349Y142282D01*
X129345Y142338D01*
X129345Y142348D01*
X129344Y142359D01*
Y181358D01*
Y181358D01*
Y181358D01*
X129350Y181446D01*
X129353Y181491D01*
X129353Y181491D01*
Y181491D01*
X129432Y182088D01*
X129445Y182155D01*
X129458Y182217D01*
X129458Y182218D01*
X129458Y182219D01*
X129478Y182278D01*
X129500Y182344D01*
X129729Y182897D01*
X129729Y182899D01*
X129730Y182900D01*
X129758Y182957D01*
X129788Y183017D01*
X129788Y183018D01*
X129789Y183019D01*
X129826Y183074D01*
X129861Y183128D01*
X129862Y183129D01*
X129863Y183130D01*
X130228Y183604D01*
X130228Y183604D01*
X130228Y183604D01*
X130229Y183605D01*
X130272Y183654D01*
X130316Y183704D01*
X130317Y183705D01*
X130317Y183705D01*
X130361Y183743D01*
X130416Y183792D01*
X130891Y184156D01*
X130891Y184156D01*
X130891Y184156D01*
X130894Y184158D01*
X130949Y184194D01*
X131002Y184230D01*
X131003Y184231D01*
X131005Y184232D01*
X131066Y184262D01*
X131121Y184289D01*
X131124Y184291D01*
X131124D01*
X131124D01*
X131675Y184520D01*
X131676Y184521D01*
X131677Y184521D01*
X131743Y184544D01*
X131801Y184563D01*
X131802Y184564D01*
X131803Y184564D01*
X131873Y184578D01*
X131931Y184590D01*
X131932Y184590D01*
X131934Y184590D01*
X132531Y184669D01*
X132531Y184669D01*
X132531D01*
X132568Y184671D01*
X132663Y184678D01*
X132664D01*
X132664D01*
X142963D01*
X143016Y184674D01*
D02*
G37*
G36*
X224131Y184673D02*
X224196Y184669D01*
X224197Y184669D01*
X224198Y184669D01*
X224767Y184592D01*
X224830Y184580D01*
X224893Y184567D01*
X224896Y184567D01*
X224898Y184566D01*
X224959Y184545D01*
X225020Y184525D01*
X225551Y184306D01*
X225553Y184305D01*
X225555Y184305D01*
X225614Y184275D01*
X225670Y184248D01*
X225672Y184246D01*
X225674Y184245D01*
X225728Y184209D01*
X225781Y184174D01*
X225783Y184172D01*
X225785Y184171D01*
X226239Y183821D01*
X226288Y183778D01*
X226336Y183736D01*
X226338Y183734D01*
X226339Y183733D01*
X226381Y183685D01*
X226424Y183636D01*
X226775Y183181D01*
X226776Y183179D01*
X226777Y183178D01*
X226811Y183127D01*
X226849Y183071D01*
X226850Y183068D01*
X226851Y183067D01*
X226878Y183012D01*
X226908Y182951D01*
X226909Y182949D01*
X226910Y182947D01*
X227128Y182416D01*
X227149Y182355D01*
X227170Y182294D01*
X227170Y182292D01*
X227171Y182290D01*
X227183Y182227D01*
X227196Y182164D01*
X227272Y181595D01*
X227272Y181594D01*
X227272Y181593D01*
X227277Y181527D01*
X227281Y181462D01*
X227281Y181461D01*
X227281Y181460D01*
Y165658D01*
X227281Y165655D01*
X227281Y165651D01*
X227276Y165588D01*
X227272Y165525D01*
X227272Y165522D01*
X227271Y165518D01*
X227198Y164989D01*
X227186Y164932D01*
X227175Y164876D01*
X227173Y164868D01*
X227171Y164859D01*
X227152Y164804D01*
X227134Y164750D01*
X226933Y164252D01*
X226907Y164198D01*
X226882Y164145D01*
X226879Y164138D01*
X226875Y164132D01*
X226843Y164082D01*
X226811Y164032D01*
X226496Y163600D01*
X226458Y163555D01*
X226422Y163510D01*
X226416Y163504D01*
X226411Y163498D01*
X226368Y163458D01*
X226325Y163418D01*
X225931Y163090D01*
X225927Y163087D01*
X225927Y163087D01*
X225915Y163076D01*
X225914Y163075D01*
X225913Y163075D01*
X225574Y162770D01*
X225385Y162471D01*
X225287Y162135D01*
Y161782D01*
X225385Y161445D01*
X225573Y161148D01*
X225927Y160831D01*
X225939Y160818D01*
X225945Y160814D01*
X226352Y160461D01*
X226394Y160418D01*
X226437Y160377D01*
X226441Y160372D01*
X226446Y160367D01*
X226483Y160319D01*
X226520Y160273D01*
X226838Y159816D01*
X226868Y159765D01*
X226900Y159713D01*
X226903Y159707D01*
X226906Y159701D01*
X226930Y159647D01*
X226955Y159591D01*
X227151Y159068D01*
X227167Y159015D01*
X227184Y158963D01*
X227186Y158952D01*
X227189Y158940D01*
X227198Y158886D01*
X227208Y158832D01*
X227274Y158278D01*
X227277Y158218D01*
X227281Y158158D01*
Y142359D01*
X227281Y142358D01*
X227281Y142357D01*
X227277Y142292D01*
X227272Y142226D01*
X227272Y142225D01*
X227272Y142224D01*
X227196Y141655D01*
X227183Y141592D01*
X227171Y141529D01*
X227170Y141527D01*
X227170Y141524D01*
X227149Y141463D01*
X227128Y141403D01*
X226910Y140872D01*
X226910Y140871D01*
X226909Y140870D01*
X226881Y140812D01*
X226851Y140752D01*
X226851Y140751D01*
X226850Y140750D01*
X226816Y140699D01*
X226777Y140641D01*
X226777Y140640D01*
X226776Y140640D01*
X226426Y140183D01*
X226425Y140182D01*
X226425Y140181D01*
X226386Y140137D01*
X226338Y140082D01*
X226337Y140082D01*
X226337Y140081D01*
X226286Y140036D01*
X226238Y139994D01*
X226237Y139994D01*
X226237Y139993D01*
X225782Y139645D01*
X225729Y139610D01*
X225674Y139573D01*
X225672Y139572D01*
X225671Y139572D01*
X225618Y139545D01*
X225554Y139514D01*
X225024Y139293D01*
X225022Y139292D01*
X225020Y139291D01*
X224963Y139272D01*
X224897Y139250D01*
X224895Y139250D01*
X224894Y139249D01*
X224834Y139237D01*
X224767Y139224D01*
X224765Y139224D01*
X224763Y139223D01*
X224196Y139150D01*
D01*
D01*
X224194Y139150D01*
X224129Y139145D01*
X224063Y139141D01*
X213662D01*
X213661Y139141D01*
X213659Y139141D01*
X213595Y139146D01*
X213529Y139150D01*
X213528Y139150D01*
X213526Y139150D01*
X212808Y139247D01*
X212807Y139247D01*
X212807Y139247D01*
X212735Y139261D01*
X212677Y139273D01*
X212677Y139273D01*
X212676Y139273D01*
X212615Y139295D01*
X212551Y139316D01*
X212551Y139316D01*
X212550Y139317D01*
X211882Y139596D01*
X211882Y139596D01*
X211881Y139596D01*
X211833Y139620D01*
X211763Y139655D01*
X211763Y139656D01*
X211762Y139656D01*
X211691Y139704D01*
X211653Y139730D01*
X211652Y139730D01*
X211652Y139730D01*
X211078Y140175D01*
X211077Y140175D01*
X211077Y140175D01*
X211021Y140225D01*
X210978Y140263D01*
X210978Y140263D01*
X210977Y140264D01*
X210933Y140315D01*
X210891Y140364D01*
X210890Y140364D01*
X210890Y140364D01*
X210451Y140943D01*
X210441Y140958D01*
X210430Y140971D01*
X209960Y141637D01*
X209450Y142099D01*
X208843Y142445D01*
X208082Y142679D01*
X208065Y142685D01*
X208064Y142685D01*
X208061Y142686D01*
X208059Y142687D01*
X207465Y142859D01*
X207415Y142878D01*
X207366Y142894D01*
X207353Y142900D01*
X207340Y142905D01*
X207293Y142929D01*
X207246Y142952D01*
X206687Y143270D01*
X206644Y143298D01*
X206600Y143325D01*
X206588Y143335D01*
X206576Y143343D01*
X206537Y143376D01*
X206497Y143409D01*
X206030Y143843D01*
X205995Y143880D01*
X205959Y143916D01*
X205949Y143929D01*
X205938Y143940D01*
X205909Y143981D01*
X205877Y144022D01*
X205519Y144555D01*
X205493Y144600D01*
X205465Y144645D01*
X205459Y144658D01*
X205452Y144670D01*
X205432Y144719D01*
X205411Y144767D01*
X205187Y145366D01*
X205172Y145417D01*
X205156Y145466D01*
X205153Y145480D01*
X205149Y145494D01*
X205140Y145545D01*
X205131Y145597D01*
X205052Y146235D01*
X205048Y146298D01*
X205044Y146360D01*
Y177759D01*
X205045Y177775D01*
X205045Y177791D01*
X205050Y177841D01*
X205053Y177892D01*
X205056Y177908D01*
X205058Y177924D01*
X205157Y178528D01*
X205168Y178578D01*
X205179Y178629D01*
X205183Y178643D01*
X205187Y178658D01*
X205205Y178706D01*
X205222Y178755D01*
X205458Y179322D01*
X205481Y179368D01*
X205502Y179415D01*
X205510Y179428D01*
X205517Y179441D01*
X205545Y179483D01*
X205573Y179527D01*
X205934Y180025D01*
X205968Y180066D01*
X206000Y180107D01*
X206010Y180117D01*
X206019Y180128D01*
X206058Y180164D01*
X206095Y180201D01*
X206560Y180599D01*
X206601Y180630D01*
X206640Y180662D01*
X206654Y180670D01*
X206667Y180679D01*
X206711Y180704D01*
X206754Y180730D01*
X207298Y181012D01*
X207345Y181033D01*
X207392Y181055D01*
X207406Y181060D01*
X207420Y181066D01*
X207470Y181080D01*
X207519Y181096D01*
X208095Y181241D01*
X208096Y181241D01*
X208096Y181241D01*
X208100Y181242D01*
X208102Y181242D01*
X208102Y181243D01*
X208881Y181468D01*
X209505Y181810D01*
X210050Y182288D01*
X210541Y182960D01*
X210552Y182972D01*
X210561Y182985D01*
X210985Y183529D01*
X211033Y183583D01*
X211073Y183628D01*
X211073Y183628D01*
X211073Y183628D01*
X211122Y183670D01*
X211174Y183715D01*
X211725Y184131D01*
X211727Y184132D01*
X211728Y184134D01*
X211784Y184170D01*
X211836Y184205D01*
X211838Y184205D01*
X211840Y184207D01*
X211899Y184235D01*
X211956Y184263D01*
X211958Y184263D01*
X211960Y184264D01*
X212597Y184520D01*
X212597D01*
X212598D01*
X212600Y184521D01*
X212662Y184541D01*
X212724Y184561D01*
X212725Y184562D01*
X212727Y184562D01*
X212793Y184574D01*
X212855Y184586D01*
X213538Y184670D01*
X213600Y184674D01*
X213662Y184678D01*
X224063D01*
X224064Y184678D01*
X224066Y184678D01*
X224131Y184673D01*
D02*
G37*
G36*
X124131D02*
X124196Y184669D01*
X124197Y184669D01*
X124199Y184669D01*
X124767Y184592D01*
X124830Y184580D01*
X124894Y184567D01*
X124896Y184567D01*
X124898Y184566D01*
X124959Y184545D01*
X125020Y184525D01*
X125551Y184306D01*
X125553Y184305D01*
X125555Y184305D01*
X125614Y184275D01*
X125670Y184248D01*
X125672Y184246D01*
X125674Y184245D01*
X125728Y184209D01*
X125781Y184174D01*
X125783Y184172D01*
X125785Y184171D01*
X126240Y183821D01*
X126288Y183778D01*
X126336Y183736D01*
X126338Y183734D01*
X126339Y183733D01*
X126381Y183685D01*
X126424Y183636D01*
X126775Y183181D01*
X126776Y183179D01*
X126777Y183178D01*
X126811Y183127D01*
X126849Y183071D01*
X126850Y183068D01*
X126851Y183067D01*
X126878Y183012D01*
X126908Y182951D01*
X126909Y182949D01*
X126910Y182947D01*
X127128Y182416D01*
X127149Y182355D01*
X127170Y182294D01*
X127170Y182292D01*
X127171Y182290D01*
X127183Y182227D01*
X127196Y182164D01*
X127272Y181595D01*
X127272Y181594D01*
X127272Y181593D01*
X127277Y181527D01*
X127281Y181462D01*
X127281Y181461D01*
X127281Y181460D01*
Y165658D01*
X127281Y165655D01*
X127281Y165651D01*
X127276Y165588D01*
X127272Y165525D01*
X127272Y165522D01*
X127271Y165518D01*
X127198Y164989D01*
X127186Y164932D01*
X127175Y164876D01*
X127173Y164868D01*
X127171Y164859D01*
X127152Y164804D01*
X127134Y164750D01*
X126933Y164252D01*
X126907Y164198D01*
X126882Y164145D01*
X126878Y164138D01*
X126875Y164132D01*
X126843Y164082D01*
X126811Y164032D01*
X126496Y163600D01*
X126458Y163555D01*
X126422Y163510D01*
X126416Y163504D01*
X126411Y163498D01*
X126368Y163458D01*
X126325Y163418D01*
X125931Y163090D01*
X125927Y163087D01*
X125927Y163087D01*
X125915Y163076D01*
X125914Y163075D01*
X125913Y163075D01*
X125574Y162770D01*
X125385Y162471D01*
X125287Y162135D01*
Y161782D01*
X125385Y161445D01*
X125573Y161148D01*
X125927Y160831D01*
X125939Y160818D01*
X125945Y160814D01*
X126352Y160461D01*
X126394Y160418D01*
X126437Y160377D01*
X126441Y160372D01*
X126446Y160367D01*
X126483Y160319D01*
X126520Y160273D01*
X126838Y159816D01*
X126868Y159765D01*
X126900Y159713D01*
X126903Y159707D01*
X126906Y159701D01*
X126930Y159647D01*
X126955Y159591D01*
X127151Y159068D01*
X127167Y159015D01*
X127184Y158963D01*
X127186Y158952D01*
X127189Y158940D01*
X127198Y158886D01*
X127208Y158832D01*
X127274Y158278D01*
X127277Y158218D01*
X127281Y158158D01*
Y142359D01*
X127281Y142358D01*
X127281Y142357D01*
X127277Y142292D01*
X127272Y142226D01*
X127272Y142225D01*
X127272Y142224D01*
X127196Y141655D01*
X127183Y141592D01*
X127171Y141529D01*
X127170Y141527D01*
X127170Y141524D01*
X127149Y141463D01*
X127128Y141403D01*
X126910Y140872D01*
X126910Y140871D01*
X126909Y140870D01*
X126881Y140812D01*
X126851Y140752D01*
X126851Y140751D01*
X126850Y140750D01*
X126816Y140699D01*
X126777Y140641D01*
X126777Y140640D01*
X126776Y140640D01*
X126426Y140183D01*
X126425Y140182D01*
X126425Y140181D01*
X126386Y140137D01*
X126338Y140082D01*
X126337Y140082D01*
X126337Y140081D01*
X126286Y140036D01*
X126238Y139994D01*
X126237Y139994D01*
X126237Y139993D01*
X125782Y139645D01*
X125729Y139610D01*
X125674Y139573D01*
X125672Y139572D01*
X125671Y139572D01*
X125618Y139545D01*
X125554Y139514D01*
X125024Y139293D01*
X125022Y139292D01*
X125020Y139291D01*
X124963Y139272D01*
X124897Y139250D01*
X124895Y139250D01*
X124894Y139249D01*
X124833Y139237D01*
X124767Y139224D01*
X124765Y139224D01*
X124763Y139223D01*
X124196Y139150D01*
D01*
D01*
X124194Y139150D01*
X124129Y139145D01*
X124063Y139141D01*
X113662D01*
X113661Y139141D01*
X113659Y139141D01*
X113595Y139146D01*
X113529Y139150D01*
X113528Y139150D01*
X113526Y139150D01*
X112808Y139247D01*
X112807Y139247D01*
X112807Y139247D01*
X112735Y139261D01*
X112677Y139273D01*
X112677Y139273D01*
X112676Y139273D01*
X112615Y139295D01*
X112551Y139316D01*
X112551Y139316D01*
X112550Y139317D01*
X111882Y139596D01*
X111882Y139596D01*
X111881Y139596D01*
X111833Y139620D01*
X111763Y139655D01*
X111763Y139656D01*
X111762Y139656D01*
X111691Y139704D01*
X111653Y139730D01*
X111652Y139730D01*
X111652Y139730D01*
X111078Y140175D01*
X111077Y140175D01*
X111077Y140175D01*
X111021Y140225D01*
X110978Y140263D01*
X110978Y140263D01*
X110977Y140264D01*
X110933Y140315D01*
X110891Y140364D01*
X110890Y140364D01*
X110890Y140364D01*
X110451Y140943D01*
X110441Y140958D01*
X110430Y140971D01*
X109960Y141637D01*
X109450Y142099D01*
X108843Y142445D01*
X108082Y142679D01*
X108066Y142685D01*
X108064Y142685D01*
X108061Y142686D01*
X108059Y142687D01*
X107465Y142859D01*
X107415Y142878D01*
X107366Y142894D01*
X107353Y142900D01*
X107340Y142905D01*
X107293Y142929D01*
X107246Y142952D01*
X106687Y143270D01*
X106644Y143298D01*
X106600Y143325D01*
X106588Y143335D01*
X106576Y143343D01*
X106537Y143376D01*
X106497Y143409D01*
X106030Y143843D01*
X105995Y143880D01*
X105959Y143916D01*
X105949Y143929D01*
X105938Y143940D01*
X105908Y143981D01*
X105877Y144022D01*
X105519Y144555D01*
X105493Y144600D01*
X105465Y144645D01*
X105459Y144658D01*
X105452Y144670D01*
X105432Y144719D01*
X105411Y144767D01*
X105187Y145366D01*
X105172Y145417D01*
X105155Y145466D01*
X105153Y145480D01*
X105149Y145494D01*
X105140Y145545D01*
X105131Y145597D01*
X105052Y146235D01*
X105048Y146298D01*
X105044Y146360D01*
Y177759D01*
X105045Y177775D01*
X105045Y177791D01*
X105050Y177841D01*
X105053Y177892D01*
X105056Y177908D01*
X105058Y177924D01*
X105157Y178528D01*
X105168Y178578D01*
X105179Y178629D01*
X105183Y178643D01*
X105187Y178658D01*
X105205Y178706D01*
X105222Y178755D01*
X105458Y179322D01*
X105481Y179368D01*
X105502Y179415D01*
X105510Y179428D01*
X105517Y179441D01*
X105545Y179483D01*
X105573Y179527D01*
X105934Y180025D01*
X105968Y180066D01*
X106000Y180107D01*
X106010Y180117D01*
X106019Y180128D01*
X106058Y180164D01*
X106095Y180201D01*
X106560Y180599D01*
X106601Y180630D01*
X106640Y180662D01*
X106654Y180670D01*
X106667Y180679D01*
X106711Y180704D01*
X106754Y180730D01*
X107298Y181012D01*
X107345Y181033D01*
X107392Y181055D01*
X107406Y181060D01*
X107420Y181066D01*
X107470Y181080D01*
X107519Y181096D01*
X108095Y181241D01*
X108096Y181241D01*
X108096Y181241D01*
X108100Y181242D01*
X108102Y181242D01*
X108102Y181243D01*
X108881Y181468D01*
X109505Y181810D01*
X110050Y182288D01*
X110541Y182960D01*
X110552Y182972D01*
X110561Y182985D01*
X110985Y183529D01*
X111033Y183583D01*
X111073Y183628D01*
X111073Y183628D01*
X111073Y183628D01*
X111122Y183670D01*
X111174Y183715D01*
X111725Y184131D01*
X111727Y184132D01*
X111728Y184134D01*
X111784Y184170D01*
X111836Y184205D01*
X111838Y184205D01*
X111840Y184207D01*
X111899Y184235D01*
X111956Y184263D01*
X111958Y184263D01*
X111960Y184264D01*
X112597Y184520D01*
X112597D01*
X112598D01*
X112600Y184521D01*
X112662Y184541D01*
X112724Y184561D01*
X112725Y184562D01*
X112727Y184562D01*
X112793Y184574D01*
X112855Y184586D01*
X113538Y184670D01*
X113600Y184674D01*
X113662Y184678D01*
X124063D01*
X124064Y184678D01*
X124066Y184678D01*
X124131Y184673D01*
D02*
G37*
G36*
X593016Y384674D02*
X593069Y384672D01*
X593777Y384599D01*
X593846Y384587D01*
X593908Y384576D01*
X593908Y384576D01*
X593909Y384576D01*
X593971Y384557D01*
X594035Y384537D01*
X594701Y384283D01*
X594702Y384282D01*
X594703Y384282D01*
X594759Y384256D01*
X594822Y384227D01*
X594823Y384227D01*
X594824Y384226D01*
X594878Y384192D01*
X594935Y384157D01*
X594935Y384156D01*
X594936Y384155D01*
X595512Y383737D01*
X595512Y383737D01*
X595512Y383737D01*
X595513Y383736D01*
X595560Y383697D01*
X595614Y383652D01*
X595615Y383652D01*
X595615Y383651D01*
X595658Y383605D01*
X595705Y383554D01*
X596154Y383001D01*
X596170Y382979D01*
X596187Y382958D01*
X596671Y382293D01*
X597216Y381814D01*
X597849Y381467D01*
X598646Y381237D01*
X598665Y381230D01*
X598685Y381224D01*
X599295Y381021D01*
X599344Y381001D01*
X599394Y380982D01*
X599406Y380976D01*
X599418Y380971D01*
X599464Y380945D01*
X599512Y380919D01*
X600058Y380579D01*
X600101Y380548D01*
X600144Y380519D01*
X600154Y380510D01*
X600166Y380501D01*
X600204Y380465D01*
X600243Y380431D01*
X600695Y379973D01*
X600727Y379937D01*
X600760Y379902D01*
X600770Y379887D01*
X600783Y379873D01*
X600809Y379832D01*
X600837Y379793D01*
X601175Y379247D01*
X601200Y379200D01*
X601227Y379152D01*
X601232Y379141D01*
X601238Y379129D01*
X601256Y379079D01*
X601277Y379029D01*
X601477Y378416D01*
X601490Y378366D01*
X601505Y378316D01*
X601507Y378301D01*
X601511Y378288D01*
X601517Y378236D01*
X601525Y378184D01*
X601578Y377544D01*
X601579Y377501D01*
X601581Y377459D01*
Y346359D01*
X601578Y346308D01*
X601576Y346257D01*
X601513Y345630D01*
X601504Y345577D01*
X601496Y345524D01*
X601493Y345511D01*
X601491Y345498D01*
X601475Y345447D01*
X601460Y345395D01*
X601252Y344801D01*
X601232Y344754D01*
X601213Y344706D01*
X601206Y344692D01*
X601200Y344678D01*
X601174Y344635D01*
X601149Y344589D01*
X600811Y344061D01*
X600782Y344021D01*
X600754Y343980D01*
X600743Y343968D01*
X600732Y343954D01*
X600698Y343918D01*
X600665Y343881D01*
X600216Y343442D01*
X600175Y343407D01*
X600135Y343371D01*
X600125Y343364D01*
X600115Y343355D01*
X600069Y343326D01*
X600025Y343296D01*
X599484Y342973D01*
X599438Y342949D01*
X599392Y342924D01*
X599378Y342919D01*
X599366Y342912D01*
X599317Y342895D01*
X599268Y342876D01*
X598668Y342688D01*
X598657Y342685D01*
X598646Y342681D01*
X597849Y342451D01*
X597216Y342104D01*
X596676Y341629D01*
X596186Y340958D01*
X596180Y340951D01*
X596175Y340943D01*
X595736Y340364D01*
X595683Y340304D01*
X595649Y340265D01*
X595649Y340264D01*
X595648Y340264D01*
X595596Y340217D01*
X595550Y340176D01*
X594978Y339732D01*
X594976Y339730D01*
X594974Y339729D01*
X594920Y339692D01*
X594868Y339657D01*
X594866Y339656D01*
X594864Y339655D01*
X594804Y339625D01*
X594749Y339597D01*
X594747Y339596D01*
X594744Y339595D01*
X594075Y339316D01*
X594074Y339316D01*
X594074Y339316D01*
X594074Y339316D01*
X594029Y339301D01*
X593948Y339273D01*
X593948Y339273D01*
X593948Y339273D01*
X593879Y339259D01*
X593818Y339247D01*
X593817Y339247D01*
X593817Y339247D01*
X593817D01*
X593099Y339150D01*
X593098Y339150D01*
X593096Y339150D01*
X593031Y339146D01*
X592966Y339141D01*
X592965Y339141D01*
X592963Y339141D01*
X582664D01*
X582609Y339145D01*
X582554Y339147D01*
X581969Y339211D01*
X581969Y339211D01*
X581969Y339211D01*
X581900Y339223D01*
X581838Y339234D01*
X581838Y339234D01*
X581838Y339234D01*
X581777Y339253D01*
X581711Y339274D01*
X581711Y339274D01*
X581711Y339274D01*
X581163Y339487D01*
X581163Y339487D01*
X581163Y339487D01*
X581162Y339487D01*
X581109Y339512D01*
X581042Y339543D01*
X581042Y339543D01*
X581041Y339544D01*
X580991Y339576D01*
X580930Y339614D01*
X580457Y339960D01*
X580457Y339961D01*
X580456Y339961D01*
X580406Y340003D01*
X580355Y340045D01*
X580355Y340046D01*
X580354Y340047D01*
X580307Y340098D01*
X580265Y340143D01*
X580265Y340144D01*
X580264Y340145D01*
X579896Y340605D01*
X579859Y340658D01*
X579822Y340709D01*
X579821Y340712D01*
X579819Y340714D01*
X579790Y340770D01*
X579760Y340827D01*
X579521Y341363D01*
X579520Y341366D01*
X579519Y341368D01*
X579498Y341426D01*
X579475Y341488D01*
X579475Y341491D01*
X579474Y341493D01*
X579460Y341554D01*
X579446Y341618D01*
X579446Y341621D01*
X579445Y341623D01*
X579356Y342205D01*
X579355Y342216D01*
X579353Y342226D01*
X579349Y342282D01*
X579345Y342338D01*
X579345Y342348D01*
X579344Y342359D01*
Y381358D01*
Y381358D01*
Y381358D01*
X579350Y381446D01*
X579353Y381491D01*
X579353Y381491D01*
Y381491D01*
X579432Y382088D01*
X579445Y382155D01*
X579458Y382217D01*
X579458Y382218D01*
X579458Y382219D01*
X579478Y382278D01*
X579500Y382344D01*
X579729Y382897D01*
X579729Y382899D01*
X579730Y382900D01*
X579758Y382957D01*
X579787Y383017D01*
X579788Y383018D01*
X579789Y383019D01*
X579826Y383074D01*
X579861Y383128D01*
X579862Y383129D01*
X579863Y383130D01*
X580228Y383604D01*
X580228Y383604D01*
X580229Y383604D01*
X580229Y383605D01*
X580272Y383654D01*
X580316Y383704D01*
X580317Y383705D01*
X580317Y383705D01*
X580361Y383744D01*
X580416Y383792D01*
X580891Y384156D01*
X580891Y384156D01*
X580891Y384156D01*
X580894Y384158D01*
X580949Y384194D01*
X581002Y384230D01*
X581003Y384231D01*
X581005Y384232D01*
X581066Y384262D01*
X581121Y384289D01*
X581124Y384291D01*
X581124D01*
X581124D01*
X581675Y384520D01*
X581676Y384521D01*
X581677Y384521D01*
X581743Y384544D01*
X581801Y384563D01*
X581802Y384564D01*
X581803Y384564D01*
X581873Y384578D01*
X581931Y384590D01*
X581932Y384590D01*
X581934Y384590D01*
X582531Y384669D01*
X582531Y384669D01*
X582531D01*
X582568Y384671D01*
X582663Y384678D01*
X582664D01*
X582664D01*
X592963D01*
X593016Y384674D01*
D02*
G37*
G36*
X493016D02*
X493069Y384672D01*
X493777Y384599D01*
X493846Y384587D01*
X493908Y384576D01*
X493908Y384576D01*
X493909Y384576D01*
X493971Y384557D01*
X494035Y384537D01*
X494701Y384283D01*
X494702Y384282D01*
X494703Y384282D01*
X494759Y384256D01*
X494822Y384227D01*
X494823Y384227D01*
X494824Y384226D01*
X494878Y384192D01*
X494935Y384157D01*
X494935Y384156D01*
X494936Y384155D01*
X495512Y383737D01*
X495512Y383737D01*
X495512Y383737D01*
X495513Y383736D01*
X495560Y383697D01*
X495614Y383652D01*
X495615Y383652D01*
X495615Y383651D01*
X495658Y383605D01*
X495705Y383554D01*
X496154Y383001D01*
X496170Y382979D01*
X496187Y382958D01*
X496671Y382293D01*
X497216Y381814D01*
X497849Y381467D01*
X498646Y381237D01*
X498665Y381230D01*
X498685Y381224D01*
X499295Y381021D01*
X499344Y381001D01*
X499394Y380982D01*
X499406Y380976D01*
X499418Y380971D01*
X499464Y380945D01*
X499512Y380919D01*
X500058Y380579D01*
X500101Y380548D01*
X500144Y380519D01*
X500154Y380510D01*
X500166Y380501D01*
X500204Y380465D01*
X500243Y380431D01*
X500695Y379973D01*
X500727Y379937D01*
X500760Y379902D01*
X500770Y379887D01*
X500783Y379873D01*
X500809Y379832D01*
X500837Y379793D01*
X501175Y379247D01*
X501200Y379200D01*
X501227Y379152D01*
X501232Y379141D01*
X501238Y379129D01*
X501256Y379079D01*
X501277Y379029D01*
X501477Y378416D01*
X501490Y378366D01*
X501505Y378316D01*
X501507Y378301D01*
X501511Y378288D01*
X501517Y378236D01*
X501525Y378184D01*
X501578Y377544D01*
X501579Y377501D01*
X501581Y377459D01*
Y346359D01*
X501578Y346308D01*
X501576Y346257D01*
X501513Y345630D01*
X501504Y345577D01*
X501496Y345524D01*
X501493Y345511D01*
X501491Y345498D01*
X501475Y345447D01*
X501460Y345395D01*
X501252Y344801D01*
X501232Y344754D01*
X501213Y344706D01*
X501206Y344692D01*
X501200Y344678D01*
X501174Y344635D01*
X501149Y344589D01*
X500811Y344061D01*
X500782Y344021D01*
X500754Y343980D01*
X500743Y343968D01*
X500732Y343954D01*
X500698Y343918D01*
X500665Y343881D01*
X500216Y343442D01*
X500175Y343407D01*
X500135Y343371D01*
X500125Y343364D01*
X500115Y343355D01*
X500069Y343326D01*
X500025Y343296D01*
X499484Y342973D01*
X499438Y342949D01*
X499392Y342924D01*
X499378Y342919D01*
X499366Y342912D01*
X499317Y342895D01*
X499268Y342876D01*
X498668Y342688D01*
X498657Y342685D01*
X498646Y342681D01*
X497849Y342451D01*
X497216Y342104D01*
X496676Y341629D01*
X496186Y340958D01*
X496180Y340951D01*
X496175Y340943D01*
X495736Y340364D01*
X495683Y340304D01*
X495649Y340265D01*
X495649Y340264D01*
X495648Y340264D01*
X495596Y340217D01*
X495550Y340176D01*
X494978Y339732D01*
X494976Y339730D01*
X494974Y339729D01*
X494920Y339692D01*
X494868Y339657D01*
X494866Y339656D01*
X494864Y339655D01*
X494804Y339625D01*
X494749Y339597D01*
X494747Y339596D01*
X494744Y339595D01*
X494075Y339316D01*
X494074Y339316D01*
X494074Y339316D01*
X494074Y339316D01*
X494029Y339301D01*
X493948Y339273D01*
X493948Y339273D01*
X493948Y339273D01*
X493879Y339259D01*
X493818Y339247D01*
X493817Y339247D01*
X493817Y339247D01*
X493817D01*
X493099Y339150D01*
X493098Y339150D01*
X493096Y339150D01*
X493031Y339146D01*
X492966Y339141D01*
X492965Y339141D01*
X492963Y339141D01*
X482664D01*
X482609Y339145D01*
X482554Y339147D01*
X481969Y339211D01*
X481969Y339211D01*
X481969Y339211D01*
X481900Y339223D01*
X481838Y339234D01*
X481838Y339234D01*
X481838Y339234D01*
X481777Y339253D01*
X481711Y339274D01*
X481711Y339274D01*
X481711Y339274D01*
X481163Y339487D01*
X481163Y339487D01*
X481163Y339487D01*
X481162Y339487D01*
X481109Y339512D01*
X481042Y339543D01*
X481042Y339543D01*
X481041Y339544D01*
X480991Y339576D01*
X480930Y339614D01*
X480457Y339960D01*
X480457Y339961D01*
X480456Y339961D01*
X480406Y340003D01*
X480355Y340045D01*
X480355Y340046D01*
X480354Y340047D01*
X480307Y340098D01*
X480265Y340143D01*
X480265Y340144D01*
X480264Y340145D01*
X479896Y340605D01*
X479859Y340658D01*
X479822Y340709D01*
X479821Y340712D01*
X479819Y340714D01*
X479790Y340770D01*
X479760Y340827D01*
X479521Y341363D01*
X479520Y341366D01*
X479519Y341368D01*
X479498Y341426D01*
X479475Y341488D01*
X479475Y341491D01*
X479474Y341493D01*
X479460Y341554D01*
X479446Y341618D01*
X479446Y341621D01*
X479445Y341623D01*
X479356Y342205D01*
X479355Y342216D01*
X479353Y342226D01*
X479349Y342282D01*
X479345Y342338D01*
X479345Y342348D01*
X479344Y342359D01*
Y381358D01*
Y381358D01*
Y381358D01*
X479350Y381446D01*
X479353Y381491D01*
X479353Y381491D01*
Y381491D01*
X479432Y382088D01*
X479445Y382155D01*
X479458Y382217D01*
X479458Y382218D01*
X479458Y382219D01*
X479478Y382278D01*
X479500Y382344D01*
X479729Y382897D01*
X479729Y382899D01*
X479730Y382900D01*
X479758Y382957D01*
X479787Y383017D01*
X479788Y383018D01*
X479789Y383019D01*
X479826Y383074D01*
X479861Y383128D01*
X479862Y383129D01*
X479863Y383130D01*
X480228Y383604D01*
X480228Y383604D01*
X480229Y383604D01*
X480229Y383605D01*
X480272Y383654D01*
X480316Y383704D01*
X480317Y383705D01*
X480317Y383705D01*
X480361Y383744D01*
X480416Y383792D01*
X480891Y384156D01*
X480891Y384156D01*
X480891Y384156D01*
X480894Y384158D01*
X480949Y384194D01*
X481002Y384230D01*
X481003Y384231D01*
X481005Y384232D01*
X481066Y384262D01*
X481121Y384289D01*
X481124Y384291D01*
X481124D01*
X481124D01*
X481675Y384520D01*
X481676Y384521D01*
X481677Y384521D01*
X481743Y384544D01*
X481801Y384563D01*
X481802Y384564D01*
X481803Y384564D01*
X481873Y384578D01*
X481931Y384590D01*
X481932Y384590D01*
X481934Y384590D01*
X482531Y384669D01*
X482531Y384669D01*
X482531D01*
X482568Y384671D01*
X482663Y384678D01*
X482664D01*
X482664D01*
X492963D01*
X493016Y384674D01*
D02*
G37*
G36*
X574131Y384673D02*
X574196Y384669D01*
X574197Y384669D01*
X574198Y384669D01*
X574767Y384592D01*
X574830Y384580D01*
X574893Y384567D01*
X574896Y384567D01*
X574898Y384566D01*
X574959Y384545D01*
X575020Y384525D01*
X575551Y384306D01*
X575553Y384305D01*
X575555Y384305D01*
X575614Y384275D01*
X575670Y384248D01*
X575672Y384246D01*
X575674Y384245D01*
X575728Y384209D01*
X575781Y384174D01*
X575783Y384172D01*
X575785Y384171D01*
X576240Y383821D01*
X576288Y383778D01*
X576336Y383736D01*
X576338Y383734D01*
X576339Y383733D01*
X576381Y383685D01*
X576424Y383636D01*
X576775Y383181D01*
X576776Y383179D01*
X576778Y383177D01*
X576811Y383127D01*
X576849Y383071D01*
X576850Y383068D01*
X576851Y383067D01*
X576878Y383012D01*
X576908Y382951D01*
X576909Y382949D01*
X576910Y382947D01*
X577128Y382416D01*
X577149Y382355D01*
X577170Y382294D01*
X577170Y382292D01*
X577171Y382290D01*
X577183Y382227D01*
X577196Y382164D01*
X577272Y381595D01*
X577272Y381594D01*
X577272Y381593D01*
X577277Y381527D01*
X577281Y381462D01*
X577281Y381461D01*
X577281Y381460D01*
Y365658D01*
X577281Y365655D01*
X577281Y365651D01*
X577276Y365588D01*
X577272Y365526D01*
X577272Y365522D01*
X577271Y365518D01*
X577198Y364990D01*
X577186Y364932D01*
X577175Y364876D01*
X577173Y364868D01*
X577171Y364859D01*
X577152Y364804D01*
X577134Y364749D01*
X576933Y364252D01*
X576907Y364198D01*
X576883Y364145D01*
X576879Y364138D01*
X576875Y364132D01*
X576843Y364082D01*
X576811Y364032D01*
X576496Y363600D01*
X576458Y363555D01*
X576422Y363510D01*
X576416Y363504D01*
X576411Y363498D01*
X576368Y363458D01*
X576325Y363418D01*
X575931Y363090D01*
X575927Y363087D01*
X575927Y363087D01*
X575915Y363076D01*
X575914Y363075D01*
X575913Y363075D01*
X575574Y362770D01*
X575385Y362471D01*
X575287Y362135D01*
Y361782D01*
X575385Y361445D01*
X575573Y361148D01*
X575927Y360831D01*
X575939Y360818D01*
X575945Y360814D01*
X576352Y360461D01*
X576394Y360419D01*
X576437Y360377D01*
X576441Y360372D01*
X576446Y360367D01*
X576483Y360320D01*
X576520Y360273D01*
X576838Y359815D01*
X576868Y359765D01*
X576900Y359713D01*
X576903Y359707D01*
X576906Y359701D01*
X576930Y359647D01*
X576955Y359591D01*
X577151Y359068D01*
X577167Y359015D01*
X577184Y358963D01*
X577186Y358951D01*
X577189Y358941D01*
X577198Y358886D01*
X577208Y358832D01*
X577274Y358278D01*
X577277Y358218D01*
X577281Y358158D01*
Y342359D01*
X577281Y342358D01*
X577281Y342357D01*
X577277Y342292D01*
X577272Y342226D01*
X577272Y342225D01*
X577272Y342224D01*
X577196Y341655D01*
X577183Y341592D01*
X577171Y341529D01*
X577170Y341527D01*
X577170Y341524D01*
X577149Y341463D01*
X577128Y341403D01*
X576910Y340872D01*
X576909Y340871D01*
X576909Y340870D01*
X576881Y340812D01*
X576851Y340752D01*
X576851Y340751D01*
X576850Y340750D01*
X576816Y340699D01*
X576778Y340641D01*
X576777Y340640D01*
X576776Y340640D01*
X576426Y340182D01*
X576425Y340182D01*
X576425Y340181D01*
X576386Y340137D01*
X576338Y340082D01*
X576338Y340082D01*
X576337Y340081D01*
X576286Y340036D01*
X576238Y339995D01*
X576237Y339994D01*
X576237Y339993D01*
X575782Y339645D01*
X575729Y339610D01*
X575674Y339573D01*
X575672Y339572D01*
X575671Y339572D01*
X575618Y339546D01*
X575554Y339514D01*
X575024Y339293D01*
X575022Y339292D01*
X575020Y339291D01*
X574963Y339272D01*
X574898Y339250D01*
X574896Y339250D01*
X574894Y339249D01*
X574833Y339237D01*
X574767Y339224D01*
X574765Y339224D01*
X574763Y339223D01*
X574196Y339150D01*
D01*
D01*
X574194Y339150D01*
X574129Y339146D01*
X574063Y339141D01*
X563662D01*
X563661Y339141D01*
X563659Y339141D01*
X563595Y339146D01*
X563529Y339150D01*
X563528Y339150D01*
X563526Y339150D01*
X562808Y339247D01*
X562807Y339247D01*
X562807Y339247D01*
X562735Y339261D01*
X562677Y339273D01*
X562677Y339273D01*
X562676Y339273D01*
X562615Y339295D01*
X562551Y339316D01*
X562551Y339316D01*
X562550Y339316D01*
X561882Y339596D01*
X561882Y339596D01*
X561881Y339596D01*
X561833Y339620D01*
X561763Y339655D01*
X561763Y339655D01*
X561762Y339656D01*
X561691Y339704D01*
X561653Y339730D01*
X561652Y339730D01*
X561652Y339730D01*
X561078Y340175D01*
X561077Y340175D01*
X561077Y340175D01*
X561021Y340225D01*
X560978Y340263D01*
X560978Y340263D01*
X560977Y340264D01*
X560933Y340315D01*
X560891Y340364D01*
X560890Y340364D01*
X560890Y340364D01*
X560451Y340943D01*
X560441Y340958D01*
X560430Y340971D01*
X559960Y341637D01*
X559450Y342099D01*
X558843Y342445D01*
X558082Y342679D01*
X558065Y342685D01*
X558064Y342686D01*
X558061Y342686D01*
X558059Y342687D01*
X557465Y342859D01*
X557415Y342878D01*
X557366Y342894D01*
X557353Y342900D01*
X557340Y342905D01*
X557293Y342929D01*
X557246Y342952D01*
X556687Y343270D01*
X556644Y343298D01*
X556600Y343325D01*
X556588Y343335D01*
X556576Y343343D01*
X556537Y343376D01*
X556497Y343409D01*
X556030Y343843D01*
X555995Y343880D01*
X555959Y343916D01*
X555949Y343929D01*
X555938Y343940D01*
X555909Y343981D01*
X555877Y344022D01*
X555519Y344555D01*
X555493Y344600D01*
X555465Y344645D01*
X555459Y344658D01*
X555452Y344670D01*
X555432Y344719D01*
X555411Y344767D01*
X555187Y345366D01*
X555172Y345417D01*
X555155Y345466D01*
X555153Y345480D01*
X555149Y345494D01*
X555140Y345545D01*
X555131Y345597D01*
X555052Y346235D01*
X555048Y346298D01*
X555044Y346359D01*
Y377759D01*
X555045Y377775D01*
X555045Y377791D01*
X555050Y377841D01*
X555053Y377892D01*
X555056Y377908D01*
X555058Y377924D01*
X555157Y378528D01*
X555168Y378578D01*
X555179Y378629D01*
X555183Y378643D01*
X555187Y378658D01*
X555205Y378706D01*
X555222Y378755D01*
X555458Y379322D01*
X555481Y379368D01*
X555502Y379415D01*
X555510Y379428D01*
X555517Y379441D01*
X555545Y379483D01*
X555573Y379527D01*
X555934Y380025D01*
X555968Y380066D01*
X556000Y380107D01*
X556010Y380117D01*
X556019Y380128D01*
X556058Y380164D01*
X556095Y380201D01*
X556560Y380599D01*
X556601Y380630D01*
X556640Y380662D01*
X556654Y380670D01*
X556667Y380679D01*
X556711Y380704D01*
X556754Y380730D01*
X557298Y381012D01*
X557345Y381033D01*
X557392Y381055D01*
X557406Y381060D01*
X557420Y381066D01*
X557469Y381080D01*
X557519Y381096D01*
X558095Y381241D01*
X558096Y381241D01*
X558096Y381241D01*
X558100Y381242D01*
X558102Y381242D01*
X558102Y381242D01*
X558881Y381468D01*
X559505Y381810D01*
X560050Y382288D01*
X560541Y382960D01*
X560552Y382972D01*
X560561Y382985D01*
X560985Y383529D01*
X561033Y383583D01*
X561073Y383628D01*
X561073Y383628D01*
X561073Y383628D01*
X561122Y383670D01*
X561174Y383715D01*
X561725Y384131D01*
X561727Y384132D01*
X561728Y384134D01*
X561784Y384170D01*
X561836Y384204D01*
X561838Y384205D01*
X561840Y384207D01*
X561899Y384235D01*
X561956Y384263D01*
X561958Y384263D01*
X561960Y384264D01*
X562597Y384520D01*
X562598D01*
X562598D01*
X562600Y384521D01*
X562662Y384541D01*
X562724Y384561D01*
X562725Y384562D01*
X562727Y384562D01*
X562793Y384574D01*
X562855Y384586D01*
X563538Y384670D01*
X563600Y384674D01*
X563662Y384678D01*
X574063D01*
X574064Y384678D01*
X574066Y384678D01*
X574131Y384673D01*
D02*
G37*
G36*
X474131D02*
X474196Y384669D01*
X474197Y384669D01*
X474198Y384669D01*
X474767Y384592D01*
X474830Y384580D01*
X474893Y384567D01*
X474896Y384567D01*
X474898Y384566D01*
X474959Y384545D01*
X475020Y384525D01*
X475551Y384306D01*
X475553Y384305D01*
X475555Y384305D01*
X475614Y384275D01*
X475670Y384248D01*
X475672Y384246D01*
X475674Y384245D01*
X475728Y384209D01*
X475781Y384174D01*
X475783Y384172D01*
X475785Y384171D01*
X476240Y383821D01*
X476288Y383778D01*
X476336Y383736D01*
X476338Y383734D01*
X476339Y383733D01*
X476381Y383685D01*
X476424Y383636D01*
X476775Y383181D01*
X476776Y383179D01*
X476778Y383177D01*
X476811Y383127D01*
X476849Y383071D01*
X476850Y383068D01*
X476851Y383067D01*
X476878Y383012D01*
X476908Y382951D01*
X476909Y382949D01*
X476910Y382947D01*
X477128Y382416D01*
X477149Y382355D01*
X477170Y382294D01*
X477170Y382292D01*
X477171Y382290D01*
X477183Y382227D01*
X477196Y382164D01*
X477272Y381595D01*
X477272Y381594D01*
X477272Y381593D01*
X477277Y381527D01*
X477281Y381462D01*
X477281Y381461D01*
X477281Y381460D01*
Y365658D01*
X477281Y365655D01*
X477281Y365651D01*
X477276Y365588D01*
X477272Y365526D01*
X477272Y365522D01*
X477271Y365518D01*
X477198Y364990D01*
X477186Y364932D01*
X477175Y364876D01*
X477173Y364868D01*
X477171Y364859D01*
X477152Y364804D01*
X477134Y364749D01*
X476933Y364252D01*
X476907Y364198D01*
X476883Y364145D01*
X476879Y364138D01*
X476875Y364132D01*
X476843Y364082D01*
X476811Y364032D01*
X476496Y363600D01*
X476458Y363555D01*
X476422Y363510D01*
X476416Y363504D01*
X476411Y363498D01*
X476368Y363458D01*
X476325Y363418D01*
X475931Y363090D01*
X475927Y363087D01*
X475927Y363087D01*
X475915Y363076D01*
X475914Y363075D01*
X475913Y363075D01*
X475574Y362770D01*
X475385Y362471D01*
X475287Y362135D01*
Y361782D01*
X475385Y361445D01*
X475573Y361148D01*
X475927Y360831D01*
X475939Y360818D01*
X475945Y360814D01*
X476352Y360461D01*
X476394Y360419D01*
X476437Y360377D01*
X476441Y360372D01*
X476446Y360367D01*
X476483Y360320D01*
X476520Y360273D01*
X476838Y359815D01*
X476868Y359765D01*
X476900Y359713D01*
X476903Y359707D01*
X476906Y359701D01*
X476930Y359647D01*
X476955Y359591D01*
X477151Y359068D01*
X477167Y359015D01*
X477184Y358963D01*
X477186Y358951D01*
X477189Y358941D01*
X477198Y358886D01*
X477208Y358832D01*
X477274Y358278D01*
X477277Y358218D01*
X477281Y358158D01*
Y342359D01*
X477281Y342358D01*
X477281Y342357D01*
X477277Y342292D01*
X477272Y342226D01*
X477272Y342225D01*
X477272Y342224D01*
X477196Y341655D01*
X477183Y341592D01*
X477171Y341529D01*
X477170Y341527D01*
X477170Y341524D01*
X477149Y341463D01*
X477128Y341403D01*
X476910Y340872D01*
X476909Y340871D01*
X476909Y340870D01*
X476881Y340812D01*
X476851Y340752D01*
X476851Y340751D01*
X476850Y340750D01*
X476816Y340699D01*
X476778Y340641D01*
X476777Y340640D01*
X476776Y340640D01*
X476426Y340182D01*
X476425Y340182D01*
X476425Y340181D01*
X476386Y340137D01*
X476338Y340082D01*
X476338Y340082D01*
X476337Y340081D01*
X476286Y340036D01*
X476238Y339995D01*
X476237Y339994D01*
X476237Y339993D01*
X475782Y339645D01*
X475729Y339610D01*
X475674Y339573D01*
X475672Y339572D01*
X475671Y339572D01*
X475618Y339546D01*
X475554Y339514D01*
X475024Y339293D01*
X475022Y339292D01*
X475020Y339291D01*
X474963Y339272D01*
X474898Y339250D01*
X474896Y339250D01*
X474894Y339249D01*
X474833Y339237D01*
X474767Y339224D01*
X474765Y339224D01*
X474763Y339223D01*
X474196Y339150D01*
D01*
D01*
X474194Y339150D01*
X474129Y339146D01*
X474063Y339141D01*
X463662D01*
X463661Y339141D01*
X463659Y339141D01*
X463595Y339146D01*
X463529Y339150D01*
X463528Y339150D01*
X463526Y339150D01*
X462808Y339247D01*
X462807Y339247D01*
X462807Y339247D01*
X462735Y339261D01*
X462677Y339273D01*
X462677Y339273D01*
X462676Y339273D01*
X462615Y339295D01*
X462551Y339316D01*
X462551Y339316D01*
X462550Y339316D01*
X461882Y339596D01*
X461882Y339596D01*
X461881Y339596D01*
X461833Y339620D01*
X461763Y339655D01*
X461763Y339655D01*
X461762Y339656D01*
X461691Y339704D01*
X461653Y339730D01*
X461652Y339730D01*
X461652Y339730D01*
X461078Y340175D01*
X461077Y340175D01*
X461077Y340175D01*
X461021Y340225D01*
X460978Y340263D01*
X460978Y340263D01*
X460977Y340264D01*
X460933Y340315D01*
X460891Y340364D01*
X460890Y340364D01*
X460890Y340364D01*
X460451Y340943D01*
X460441Y340958D01*
X460430Y340971D01*
X459960Y341637D01*
X459450Y342099D01*
X458843Y342445D01*
X458082Y342679D01*
X458065Y342685D01*
X458064Y342686D01*
X458061Y342686D01*
X458059Y342687D01*
X457465Y342859D01*
X457415Y342878D01*
X457366Y342894D01*
X457353Y342900D01*
X457340Y342905D01*
X457293Y342929D01*
X457246Y342952D01*
X456687Y343270D01*
X456644Y343298D01*
X456600Y343325D01*
X456588Y343335D01*
X456576Y343343D01*
X456537Y343376D01*
X456497Y343409D01*
X456030Y343843D01*
X455995Y343880D01*
X455959Y343916D01*
X455949Y343929D01*
X455938Y343940D01*
X455909Y343981D01*
X455877Y344022D01*
X455519Y344555D01*
X455493Y344600D01*
X455465Y344645D01*
X455459Y344658D01*
X455452Y344670D01*
X455432Y344719D01*
X455411Y344767D01*
X455187Y345366D01*
X455172Y345417D01*
X455155Y345466D01*
X455153Y345480D01*
X455149Y345494D01*
X455140Y345545D01*
X455131Y345597D01*
X455052Y346235D01*
X455048Y346298D01*
X455044Y346359D01*
Y377759D01*
X455045Y377775D01*
X455045Y377791D01*
X455050Y377841D01*
X455053Y377892D01*
X455056Y377908D01*
X455058Y377924D01*
X455157Y378528D01*
X455168Y378578D01*
X455179Y378629D01*
X455183Y378643D01*
X455187Y378658D01*
X455205Y378706D01*
X455222Y378755D01*
X455458Y379322D01*
X455481Y379368D01*
X455502Y379415D01*
X455510Y379428D01*
X455517Y379441D01*
X455545Y379483D01*
X455573Y379527D01*
X455934Y380025D01*
X455968Y380066D01*
X456000Y380107D01*
X456010Y380117D01*
X456019Y380128D01*
X456058Y380164D01*
X456095Y380201D01*
X456560Y380599D01*
X456601Y380630D01*
X456640Y380662D01*
X456654Y380670D01*
X456667Y380679D01*
X456711Y380704D01*
X456754Y380730D01*
X457298Y381012D01*
X457345Y381033D01*
X457392Y381055D01*
X457406Y381060D01*
X457420Y381066D01*
X457469Y381080D01*
X457519Y381096D01*
X458095Y381241D01*
X458096Y381241D01*
X458096Y381241D01*
X458100Y381242D01*
X458102Y381242D01*
X458102Y381242D01*
X458881Y381468D01*
X459505Y381810D01*
X460050Y382288D01*
X460541Y382960D01*
X460552Y382972D01*
X460561Y382985D01*
X460985Y383529D01*
X461033Y383583D01*
X461073Y383628D01*
X461073Y383628D01*
X461073Y383628D01*
X461122Y383670D01*
X461174Y383715D01*
X461725Y384131D01*
X461727Y384132D01*
X461728Y384134D01*
X461784Y384170D01*
X461836Y384204D01*
X461838Y384205D01*
X461840Y384207D01*
X461899Y384235D01*
X461956Y384263D01*
X461958Y384263D01*
X461960Y384264D01*
X462597Y384520D01*
X462597D01*
X462598D01*
X462600Y384521D01*
X462662Y384541D01*
X462724Y384561D01*
X462725Y384562D01*
X462727Y384562D01*
X462793Y384574D01*
X462855Y384586D01*
X463538Y384670D01*
X463600Y384674D01*
X463662Y384678D01*
X474063D01*
X474064Y384678D01*
X474066Y384678D01*
X474131Y384673D01*
D02*
G37*
G36*
X593016Y284674D02*
X593069Y284672D01*
X593777Y284599D01*
X593846Y284587D01*
X593908Y284576D01*
X593908Y284576D01*
X593909Y284576D01*
X593971Y284557D01*
X594035Y284537D01*
X594701Y284283D01*
X594702Y284282D01*
X594703Y284282D01*
X594759Y284256D01*
X594822Y284228D01*
X594823Y284227D01*
X594824Y284226D01*
X594878Y284192D01*
X594935Y284157D01*
X594935Y284156D01*
X594936Y284155D01*
X595512Y283737D01*
X595512Y283737D01*
X595512Y283737D01*
X595513Y283736D01*
X595560Y283697D01*
X595614Y283652D01*
X595615Y283652D01*
X595615Y283651D01*
X595658Y283605D01*
X595705Y283554D01*
X596154Y283001D01*
X596170Y282979D01*
X596187Y282958D01*
X596671Y282293D01*
X597216Y281814D01*
X597849Y281467D01*
X598646Y281237D01*
X598665Y281230D01*
X598685Y281224D01*
X599295Y281021D01*
X599344Y281001D01*
X599394Y280982D01*
X599406Y280976D01*
X599418Y280971D01*
X599464Y280945D01*
X599512Y280919D01*
X600058Y280579D01*
X600101Y280548D01*
X600144Y280519D01*
X600154Y280510D01*
X600166Y280501D01*
X600204Y280465D01*
X600243Y280431D01*
X600695Y279974D01*
X600727Y279937D01*
X600760Y279902D01*
X600770Y279887D01*
X600783Y279873D01*
X600809Y279832D01*
X600837Y279793D01*
X601175Y279247D01*
X601200Y279200D01*
X601227Y279152D01*
X601232Y279140D01*
X601238Y279130D01*
X601256Y279079D01*
X601277Y279029D01*
X601477Y278417D01*
X601490Y278366D01*
X601505Y278316D01*
X601507Y278301D01*
X601511Y278288D01*
X601517Y278236D01*
X601525Y278184D01*
X601578Y277544D01*
X601579Y277501D01*
X601581Y277459D01*
Y246360D01*
X601578Y246308D01*
X601576Y246257D01*
X601513Y245630D01*
X601504Y245577D01*
X601496Y245524D01*
X601493Y245511D01*
X601491Y245498D01*
X601475Y245447D01*
X601460Y245395D01*
X601252Y244801D01*
X601232Y244754D01*
X601213Y244706D01*
X601206Y244692D01*
X601200Y244678D01*
X601174Y244634D01*
X601149Y244589D01*
X600811Y244061D01*
X600782Y244021D01*
X600754Y243980D01*
X600743Y243968D01*
X600732Y243954D01*
X600698Y243918D01*
X600665Y243881D01*
X600216Y243442D01*
X600175Y243407D01*
X600135Y243371D01*
X600125Y243364D01*
X600115Y243355D01*
X600069Y243326D01*
X600025Y243295D01*
X599484Y242973D01*
X599438Y242949D01*
X599392Y242924D01*
X599378Y242919D01*
X599366Y242912D01*
X599317Y242895D01*
X599268Y242876D01*
X598668Y242688D01*
X598657Y242685D01*
X598646Y242681D01*
X597849Y242451D01*
X597216Y242104D01*
X596676Y241629D01*
X596186Y240958D01*
X596180Y240951D01*
X596175Y240943D01*
X595736Y240364D01*
X595683Y240304D01*
X595649Y240264D01*
X595649Y240264D01*
X595648Y240264D01*
X595596Y240217D01*
X595550Y240176D01*
X594978Y239732D01*
X594976Y239730D01*
X594974Y239729D01*
X594920Y239692D01*
X594868Y239657D01*
X594866Y239656D01*
X594864Y239655D01*
X594804Y239625D01*
X594749Y239597D01*
X594747Y239596D01*
X594744Y239595D01*
X594075Y239316D01*
X594074Y239316D01*
X594074Y239316D01*
X594074Y239316D01*
X594029Y239301D01*
X593948Y239273D01*
X593948Y239273D01*
X593948Y239273D01*
X593879Y239259D01*
X593818Y239247D01*
X593817Y239247D01*
X593817Y239247D01*
X593817D01*
X593099Y239150D01*
X593098Y239150D01*
X593096Y239150D01*
X593031Y239146D01*
X592966Y239141D01*
X592965Y239141D01*
X592963Y239141D01*
X582664D01*
X582609Y239145D01*
X582554Y239147D01*
X581969Y239211D01*
X581969Y239211D01*
X581969Y239211D01*
X581900Y239223D01*
X581838Y239234D01*
X581838Y239234D01*
X581838Y239234D01*
X581777Y239253D01*
X581711Y239274D01*
X581711Y239274D01*
X581711Y239274D01*
X581163Y239487D01*
X581163Y239487D01*
X581163Y239487D01*
X581162Y239487D01*
X581109Y239512D01*
X581042Y239543D01*
X581042Y239543D01*
X581041Y239544D01*
X580991Y239576D01*
X580930Y239614D01*
X580457Y239960D01*
X580457Y239960D01*
X580456Y239961D01*
X580406Y240003D01*
X580355Y240045D01*
X580355Y240046D01*
X580354Y240047D01*
X580307Y240098D01*
X580265Y240143D01*
X580265Y240144D01*
X580264Y240145D01*
X579896Y240605D01*
X579859Y240658D01*
X579822Y240709D01*
X579821Y240712D01*
X579819Y240714D01*
X579790Y240770D01*
X579760Y240827D01*
X579521Y241363D01*
X579520Y241366D01*
X579519Y241368D01*
X579498Y241426D01*
X579475Y241488D01*
X579475Y241491D01*
X579474Y241493D01*
X579460Y241554D01*
X579446Y241618D01*
X579446Y241621D01*
X579445Y241623D01*
X579356Y242205D01*
X579355Y242216D01*
X579353Y242226D01*
X579349Y242282D01*
X579345Y242338D01*
X579345Y242348D01*
X579344Y242359D01*
Y281358D01*
Y281358D01*
Y281358D01*
X579350Y281446D01*
X579353Y281491D01*
X579353Y281491D01*
Y281491D01*
X579432Y282088D01*
X579445Y282155D01*
X579458Y282217D01*
X579458Y282218D01*
X579458Y282219D01*
X579478Y282278D01*
X579500Y282344D01*
X579729Y282897D01*
X579729Y282899D01*
X579730Y282900D01*
X579758Y282957D01*
X579787Y283017D01*
X579788Y283018D01*
X579789Y283019D01*
X579826Y283074D01*
X579861Y283128D01*
X579862Y283129D01*
X579863Y283130D01*
X580228Y283604D01*
X580228Y283604D01*
X580229Y283604D01*
X580229Y283605D01*
X580272Y283654D01*
X580316Y283704D01*
X580317Y283705D01*
X580317Y283705D01*
X580361Y283743D01*
X580416Y283792D01*
X580891Y284156D01*
X580891Y284156D01*
X580891Y284156D01*
X580894Y284158D01*
X580949Y284194D01*
X581002Y284230D01*
X581003Y284231D01*
X581005Y284232D01*
X581066Y284262D01*
X581121Y284289D01*
X581124Y284291D01*
X581124D01*
X581124D01*
X581675Y284520D01*
X581676Y284521D01*
X581677Y284521D01*
X581743Y284544D01*
X581801Y284563D01*
X581802Y284564D01*
X581803Y284564D01*
X581873Y284578D01*
X581931Y284590D01*
X581932Y284590D01*
X581934Y284590D01*
X582531Y284669D01*
X582531Y284669D01*
X582531D01*
X582568Y284671D01*
X582663Y284678D01*
X582664D01*
X582664D01*
X592963D01*
X593016Y284674D01*
D02*
G37*
G36*
X493016D02*
X493069Y284672D01*
X493777Y284599D01*
X493846Y284587D01*
X493908Y284576D01*
X493908Y284576D01*
X493909Y284576D01*
X493971Y284557D01*
X494035Y284537D01*
X494701Y284283D01*
X494702Y284282D01*
X494703Y284282D01*
X494759Y284256D01*
X494822Y284228D01*
X494823Y284227D01*
X494824Y284226D01*
X494878Y284192D01*
X494935Y284157D01*
X494935Y284156D01*
X494936Y284155D01*
X495512Y283737D01*
X495512Y283737D01*
X495512Y283737D01*
X495513Y283736D01*
X495560Y283697D01*
X495614Y283652D01*
X495615Y283652D01*
X495615Y283651D01*
X495658Y283605D01*
X495705Y283554D01*
X496154Y283001D01*
X496170Y282979D01*
X496187Y282958D01*
X496671Y282293D01*
X497216Y281814D01*
X497849Y281467D01*
X498646Y281237D01*
X498665Y281230D01*
X498685Y281224D01*
X499295Y281021D01*
X499344Y281001D01*
X499394Y280982D01*
X499406Y280976D01*
X499418Y280971D01*
X499464Y280945D01*
X499512Y280919D01*
X500058Y280579D01*
X500101Y280548D01*
X500144Y280519D01*
X500154Y280510D01*
X500166Y280501D01*
X500204Y280465D01*
X500243Y280431D01*
X500695Y279974D01*
X500727Y279937D01*
X500760Y279902D01*
X500770Y279887D01*
X500783Y279873D01*
X500809Y279832D01*
X500837Y279793D01*
X501175Y279247D01*
X501200Y279200D01*
X501227Y279152D01*
X501232Y279140D01*
X501238Y279130D01*
X501256Y279079D01*
X501277Y279029D01*
X501477Y278417D01*
X501490Y278366D01*
X501505Y278316D01*
X501507Y278301D01*
X501511Y278288D01*
X501517Y278236D01*
X501525Y278184D01*
X501578Y277544D01*
X501579Y277501D01*
X501581Y277459D01*
Y246360D01*
X501578Y246308D01*
X501576Y246257D01*
X501513Y245630D01*
X501504Y245577D01*
X501496Y245524D01*
X501493Y245511D01*
X501491Y245498D01*
X501475Y245447D01*
X501460Y245395D01*
X501252Y244801D01*
X501232Y244754D01*
X501213Y244706D01*
X501206Y244692D01*
X501200Y244678D01*
X501174Y244634D01*
X501149Y244589D01*
X500811Y244061D01*
X500782Y244021D01*
X500754Y243980D01*
X500743Y243968D01*
X500732Y243954D01*
X500698Y243918D01*
X500665Y243881D01*
X500216Y243442D01*
X500175Y243407D01*
X500135Y243371D01*
X500125Y243364D01*
X500115Y243355D01*
X500069Y243326D01*
X500025Y243295D01*
X499484Y242973D01*
X499438Y242949D01*
X499392Y242924D01*
X499378Y242919D01*
X499366Y242912D01*
X499317Y242895D01*
X499268Y242876D01*
X498668Y242688D01*
X498657Y242685D01*
X498646Y242681D01*
X497849Y242451D01*
X497216Y242104D01*
X496676Y241629D01*
X496186Y240958D01*
X496180Y240951D01*
X496175Y240943D01*
X495736Y240364D01*
X495683Y240304D01*
X495649Y240264D01*
X495649Y240264D01*
X495648Y240264D01*
X495596Y240217D01*
X495550Y240176D01*
X494978Y239732D01*
X494976Y239730D01*
X494974Y239729D01*
X494920Y239692D01*
X494868Y239657D01*
X494866Y239656D01*
X494864Y239655D01*
X494804Y239625D01*
X494749Y239597D01*
X494747Y239596D01*
X494744Y239595D01*
X494075Y239316D01*
X494074Y239316D01*
X494074Y239316D01*
X494074Y239316D01*
X494029Y239301D01*
X493948Y239273D01*
X493948Y239273D01*
X493948Y239273D01*
X493879Y239259D01*
X493818Y239247D01*
X493817Y239247D01*
X493817Y239247D01*
X493817D01*
X493099Y239150D01*
X493098Y239150D01*
X493096Y239150D01*
X493031Y239146D01*
X492966Y239141D01*
X492965Y239141D01*
X492963Y239141D01*
X482664D01*
X482609Y239145D01*
X482554Y239147D01*
X481969Y239211D01*
X481969Y239211D01*
X481969Y239211D01*
X481900Y239223D01*
X481838Y239234D01*
X481838Y239234D01*
X481838Y239234D01*
X481777Y239253D01*
X481711Y239274D01*
X481711Y239274D01*
X481711Y239274D01*
X481163Y239487D01*
X481163Y239487D01*
X481163Y239487D01*
X481162Y239487D01*
X481109Y239512D01*
X481042Y239543D01*
X481042Y239543D01*
X481041Y239544D01*
X480991Y239576D01*
X480930Y239614D01*
X480457Y239960D01*
X480457Y239960D01*
X480456Y239961D01*
X480406Y240003D01*
X480355Y240045D01*
X480355Y240046D01*
X480354Y240047D01*
X480307Y240098D01*
X480265Y240143D01*
X480265Y240144D01*
X480264Y240145D01*
X479896Y240605D01*
X479859Y240658D01*
X479822Y240709D01*
X479821Y240712D01*
X479819Y240714D01*
X479790Y240770D01*
X479760Y240827D01*
X479521Y241363D01*
X479520Y241366D01*
X479519Y241368D01*
X479498Y241426D01*
X479475Y241488D01*
X479475Y241491D01*
X479474Y241493D01*
X479460Y241554D01*
X479446Y241618D01*
X479446Y241621D01*
X479445Y241623D01*
X479356Y242205D01*
X479355Y242216D01*
X479353Y242226D01*
X479349Y242282D01*
X479345Y242338D01*
X479345Y242348D01*
X479344Y242359D01*
Y281358D01*
Y281358D01*
Y281358D01*
X479350Y281446D01*
X479353Y281491D01*
X479353Y281491D01*
Y281491D01*
X479432Y282088D01*
X479445Y282155D01*
X479458Y282217D01*
X479458Y282218D01*
X479458Y282219D01*
X479478Y282278D01*
X479500Y282344D01*
X479729Y282897D01*
X479729Y282899D01*
X479730Y282900D01*
X479758Y282957D01*
X479787Y283017D01*
X479788Y283018D01*
X479789Y283019D01*
X479826Y283074D01*
X479861Y283128D01*
X479862Y283129D01*
X479863Y283130D01*
X480228Y283604D01*
X480228Y283604D01*
X480229Y283604D01*
X480229Y283605D01*
X480272Y283654D01*
X480316Y283704D01*
X480317Y283705D01*
X480317Y283705D01*
X480361Y283743D01*
X480416Y283792D01*
X480891Y284156D01*
X480891Y284156D01*
X480891Y284156D01*
X480894Y284158D01*
X480949Y284194D01*
X481002Y284230D01*
X481003Y284231D01*
X481005Y284232D01*
X481066Y284262D01*
X481121Y284289D01*
X481124Y284291D01*
X481124D01*
X481124D01*
X481675Y284520D01*
X481676Y284521D01*
X481677Y284521D01*
X481743Y284544D01*
X481801Y284563D01*
X481802Y284564D01*
X481803Y284564D01*
X481873Y284578D01*
X481931Y284590D01*
X481932Y284590D01*
X481934Y284590D01*
X482531Y284669D01*
X482531Y284669D01*
X482531D01*
X482568Y284671D01*
X482663Y284678D01*
X482664D01*
X482664D01*
X492963D01*
X493016Y284674D01*
D02*
G37*
G36*
X574131Y284673D02*
X574196Y284669D01*
X574197Y284669D01*
X574198Y284669D01*
X574767Y284592D01*
X574830Y284580D01*
X574893Y284567D01*
X574896Y284567D01*
X574898Y284566D01*
X574959Y284545D01*
X575020Y284525D01*
X575551Y284306D01*
X575553Y284305D01*
X575555Y284305D01*
X575614Y284275D01*
X575670Y284248D01*
X575672Y284246D01*
X575674Y284245D01*
X575728Y284209D01*
X575781Y284174D01*
X575783Y284172D01*
X575785Y284171D01*
X576240Y283821D01*
X576288Y283778D01*
X576336Y283736D01*
X576338Y283734D01*
X576339Y283733D01*
X576381Y283685D01*
X576424Y283636D01*
X576775Y283181D01*
X576776Y283179D01*
X576778Y283178D01*
X576811Y283127D01*
X576849Y283071D01*
X576850Y283068D01*
X576851Y283067D01*
X576878Y283012D01*
X576908Y282951D01*
X576909Y282949D01*
X576910Y282947D01*
X577128Y282416D01*
X577149Y282355D01*
X577170Y282294D01*
X577170Y282292D01*
X577171Y282290D01*
X577183Y282227D01*
X577196Y282164D01*
X577272Y281595D01*
X577272Y281594D01*
X577272Y281593D01*
X577277Y281527D01*
X577281Y281462D01*
X577281Y281461D01*
X577281Y281460D01*
Y265658D01*
X577281Y265655D01*
X577281Y265651D01*
X577276Y265588D01*
X577272Y265525D01*
X577272Y265522D01*
X577271Y265518D01*
X577198Y264989D01*
X577186Y264932D01*
X577175Y264876D01*
X577173Y264868D01*
X577171Y264859D01*
X577152Y264804D01*
X577134Y264750D01*
X576933Y264252D01*
X576907Y264198D01*
X576883Y264145D01*
X576879Y264138D01*
X576875Y264132D01*
X576843Y264082D01*
X576811Y264032D01*
X576496Y263600D01*
X576458Y263555D01*
X576422Y263510D01*
X576416Y263504D01*
X576411Y263498D01*
X576368Y263458D01*
X576325Y263418D01*
X575931Y263090D01*
X575927Y263087D01*
X575927Y263087D01*
X575915Y263076D01*
X575914Y263075D01*
X575913Y263075D01*
X575574Y262770D01*
X575385Y262471D01*
X575287Y262135D01*
Y261782D01*
X575385Y261445D01*
X575573Y261148D01*
X575927Y260831D01*
X575939Y260818D01*
X575945Y260814D01*
X576352Y260461D01*
X576394Y260418D01*
X576437Y260377D01*
X576441Y260372D01*
X576446Y260367D01*
X576483Y260319D01*
X576520Y260273D01*
X576838Y259816D01*
X576868Y259765D01*
X576900Y259713D01*
X576903Y259707D01*
X576906Y259701D01*
X576930Y259647D01*
X576955Y259591D01*
X577151Y259068D01*
X577167Y259015D01*
X577184Y258963D01*
X577186Y258951D01*
X577189Y258941D01*
X577198Y258886D01*
X577208Y258832D01*
X577274Y258278D01*
X577277Y258218D01*
X577281Y258158D01*
Y242359D01*
X577281Y242358D01*
X577281Y242357D01*
X577277Y242292D01*
X577272Y242226D01*
X577272Y242225D01*
X577272Y242224D01*
X577196Y241655D01*
X577183Y241592D01*
X577171Y241529D01*
X577170Y241527D01*
X577170Y241524D01*
X577149Y241463D01*
X577128Y241403D01*
X576910Y240872D01*
X576909Y240871D01*
X576909Y240870D01*
X576881Y240812D01*
X576851Y240752D01*
X576851Y240751D01*
X576850Y240750D01*
X576816Y240699D01*
X576778Y240641D01*
X576777Y240640D01*
X576776Y240640D01*
X576426Y240182D01*
X576425Y240182D01*
X576425Y240181D01*
X576386Y240137D01*
X576338Y240082D01*
X576338Y240082D01*
X576337Y240081D01*
X576286Y240036D01*
X576238Y239995D01*
X576237Y239994D01*
X576237Y239993D01*
X575782Y239645D01*
X575729Y239610D01*
X575674Y239573D01*
X575672Y239572D01*
X575671Y239572D01*
X575618Y239545D01*
X575554Y239514D01*
X575024Y239293D01*
X575022Y239292D01*
X575020Y239291D01*
X574963Y239272D01*
X574898Y239250D01*
X574896Y239250D01*
X574894Y239249D01*
X574833Y239237D01*
X574767Y239224D01*
X574765Y239224D01*
X574763Y239223D01*
X574196Y239150D01*
D01*
D01*
X574194Y239150D01*
X574129Y239146D01*
X574063Y239141D01*
X563662D01*
X563661Y239141D01*
X563659Y239141D01*
X563595Y239146D01*
X563529Y239150D01*
X563528Y239150D01*
X563526Y239150D01*
X562808Y239247D01*
X562807Y239247D01*
X562807Y239247D01*
X562735Y239261D01*
X562677Y239273D01*
X562677Y239273D01*
X562676Y239273D01*
X562615Y239294D01*
X562551Y239316D01*
X562551Y239316D01*
X562550Y239317D01*
X561882Y239596D01*
X561882Y239596D01*
X561881Y239596D01*
X561833Y239620D01*
X561763Y239655D01*
X561763Y239655D01*
X561762Y239656D01*
X561691Y239704D01*
X561653Y239730D01*
X561652Y239730D01*
X561652Y239730D01*
X561078Y240175D01*
X561077Y240175D01*
X561077Y240175D01*
X561021Y240225D01*
X560978Y240263D01*
X560978Y240263D01*
X560977Y240264D01*
X560933Y240315D01*
X560891Y240364D01*
X560890Y240364D01*
X560890Y240364D01*
X560451Y240943D01*
X560441Y240958D01*
X560430Y240971D01*
X559960Y241637D01*
X559450Y242099D01*
X558843Y242445D01*
X558082Y242679D01*
X558065Y242685D01*
X558064Y242686D01*
X558061Y242686D01*
X558059Y242687D01*
X557465Y242859D01*
X557415Y242878D01*
X557366Y242894D01*
X557353Y242900D01*
X557340Y242905D01*
X557293Y242929D01*
X557246Y242952D01*
X556687Y243270D01*
X556644Y243298D01*
X556600Y243325D01*
X556588Y243335D01*
X556576Y243343D01*
X556537Y243376D01*
X556497Y243409D01*
X556030Y243843D01*
X555995Y243880D01*
X555959Y243916D01*
X555949Y243929D01*
X555938Y243940D01*
X555909Y243981D01*
X555877Y244022D01*
X555519Y244555D01*
X555493Y244600D01*
X555465Y244645D01*
X555459Y244658D01*
X555452Y244670D01*
X555432Y244718D01*
X555411Y244767D01*
X555187Y245366D01*
X555172Y245417D01*
X555155Y245466D01*
X555153Y245480D01*
X555149Y245494D01*
X555140Y245545D01*
X555131Y245597D01*
X555052Y246235D01*
X555048Y246298D01*
X555044Y246360D01*
Y277759D01*
X555045Y277775D01*
X555045Y277791D01*
X555050Y277841D01*
X555053Y277892D01*
X555056Y277908D01*
X555058Y277924D01*
X555157Y278528D01*
X555168Y278578D01*
X555179Y278629D01*
X555183Y278643D01*
X555187Y278658D01*
X555205Y278706D01*
X555222Y278755D01*
X555458Y279322D01*
X555481Y279368D01*
X555502Y279415D01*
X555510Y279428D01*
X555517Y279441D01*
X555545Y279483D01*
X555573Y279527D01*
X555934Y280025D01*
X555968Y280066D01*
X556000Y280107D01*
X556010Y280117D01*
X556019Y280128D01*
X556058Y280164D01*
X556095Y280201D01*
X556560Y280599D01*
X556601Y280630D01*
X556640Y280662D01*
X556654Y280670D01*
X556667Y280679D01*
X556711Y280704D01*
X556754Y280730D01*
X557298Y281012D01*
X557345Y281033D01*
X557392Y281055D01*
X557406Y281060D01*
X557420Y281066D01*
X557469Y281080D01*
X557519Y281096D01*
X558095Y281241D01*
X558096Y281241D01*
X558096Y281241D01*
X558100Y281242D01*
X558102Y281242D01*
X558102Y281243D01*
X558881Y281468D01*
X559505Y281810D01*
X560050Y282288D01*
X560541Y282960D01*
X560552Y282972D01*
X560561Y282985D01*
X560985Y283529D01*
X561033Y283583D01*
X561073Y283628D01*
X561073Y283628D01*
X561073Y283628D01*
X561122Y283670D01*
X561174Y283715D01*
X561725Y284131D01*
X561727Y284132D01*
X561728Y284134D01*
X561784Y284170D01*
X561836Y284205D01*
X561838Y284205D01*
X561840Y284207D01*
X561899Y284235D01*
X561956Y284263D01*
X561958Y284263D01*
X561960Y284264D01*
X562597Y284520D01*
X562598D01*
X562598D01*
X562600Y284521D01*
X562662Y284541D01*
X562724Y284561D01*
X562725Y284562D01*
X562727Y284562D01*
X562793Y284574D01*
X562855Y284586D01*
X563538Y284670D01*
X563600Y284674D01*
X563662Y284678D01*
X574063D01*
X574064Y284678D01*
X574066Y284678D01*
X574131Y284673D01*
D02*
G37*
G36*
X474131D02*
X474196Y284669D01*
X474197Y284669D01*
X474198Y284669D01*
X474767Y284592D01*
X474830Y284580D01*
X474893Y284567D01*
X474896Y284567D01*
X474898Y284566D01*
X474959Y284545D01*
X475020Y284525D01*
X475551Y284306D01*
X475553Y284305D01*
X475555Y284305D01*
X475614Y284275D01*
X475670Y284248D01*
X475672Y284246D01*
X475674Y284245D01*
X475728Y284209D01*
X475781Y284174D01*
X475783Y284172D01*
X475785Y284171D01*
X476240Y283821D01*
X476288Y283778D01*
X476336Y283736D01*
X476338Y283734D01*
X476339Y283733D01*
X476381Y283685D01*
X476424Y283636D01*
X476775Y283181D01*
X476776Y283179D01*
X476778Y283178D01*
X476811Y283127D01*
X476849Y283071D01*
X476850Y283068D01*
X476851Y283067D01*
X476878Y283012D01*
X476908Y282951D01*
X476909Y282949D01*
X476910Y282947D01*
X477128Y282416D01*
X477149Y282355D01*
X477170Y282294D01*
X477170Y282292D01*
X477171Y282290D01*
X477183Y282227D01*
X477196Y282164D01*
X477272Y281595D01*
X477272Y281594D01*
X477272Y281593D01*
X477277Y281527D01*
X477281Y281462D01*
X477281Y281461D01*
X477281Y281460D01*
Y265658D01*
X477281Y265655D01*
X477281Y265651D01*
X477276Y265588D01*
X477272Y265525D01*
X477272Y265522D01*
X477271Y265518D01*
X477198Y264989D01*
X477186Y264932D01*
X477175Y264876D01*
X477173Y264868D01*
X477171Y264859D01*
X477152Y264804D01*
X477134Y264750D01*
X476933Y264252D01*
X476907Y264198D01*
X476883Y264145D01*
X476879Y264138D01*
X476875Y264132D01*
X476843Y264082D01*
X476811Y264032D01*
X476496Y263600D01*
X476458Y263555D01*
X476422Y263510D01*
X476416Y263504D01*
X476411Y263498D01*
X476368Y263458D01*
X476325Y263418D01*
X475931Y263090D01*
X475927Y263087D01*
X475927Y263087D01*
X475915Y263076D01*
X475914Y263075D01*
X475913Y263075D01*
X475574Y262770D01*
X475385Y262471D01*
X475287Y262135D01*
Y261782D01*
X475385Y261445D01*
X475573Y261148D01*
X475927Y260831D01*
X475939Y260818D01*
X475945Y260814D01*
X476352Y260461D01*
X476394Y260418D01*
X476437Y260377D01*
X476441Y260372D01*
X476446Y260367D01*
X476483Y260319D01*
X476520Y260273D01*
X476838Y259816D01*
X476868Y259765D01*
X476900Y259713D01*
X476903Y259707D01*
X476906Y259701D01*
X476930Y259647D01*
X476955Y259591D01*
X477151Y259068D01*
X477167Y259015D01*
X477184Y258963D01*
X477186Y258951D01*
X477189Y258941D01*
X477198Y258886D01*
X477208Y258832D01*
X477274Y258278D01*
X477277Y258218D01*
X477281Y258158D01*
Y242359D01*
X477281Y242358D01*
X477281Y242357D01*
X477277Y242292D01*
X477272Y242226D01*
X477272Y242225D01*
X477272Y242224D01*
X477196Y241655D01*
X477183Y241592D01*
X477171Y241529D01*
X477170Y241527D01*
X477170Y241524D01*
X477149Y241463D01*
X477128Y241403D01*
X476910Y240872D01*
X476909Y240871D01*
X476909Y240870D01*
X476881Y240812D01*
X476851Y240752D01*
X476851Y240751D01*
X476850Y240750D01*
X476816Y240699D01*
X476778Y240641D01*
X476777Y240640D01*
X476776Y240640D01*
X476426Y240182D01*
X476425Y240182D01*
X476425Y240181D01*
X476386Y240137D01*
X476338Y240082D01*
X476338Y240082D01*
X476337Y240081D01*
X476286Y240036D01*
X476238Y239995D01*
X476237Y239994D01*
X476237Y239993D01*
X475782Y239645D01*
X475729Y239610D01*
X475674Y239573D01*
X475672Y239572D01*
X475671Y239572D01*
X475618Y239545D01*
X475554Y239514D01*
X475024Y239293D01*
X475022Y239292D01*
X475020Y239291D01*
X474963Y239272D01*
X474898Y239250D01*
X474896Y239250D01*
X474894Y239249D01*
X474833Y239237D01*
X474767Y239224D01*
X474765Y239224D01*
X474763Y239223D01*
X474196Y239150D01*
D01*
D01*
X474194Y239150D01*
X474129Y239146D01*
X474063Y239141D01*
X463662D01*
X463661Y239141D01*
X463659Y239141D01*
X463595Y239146D01*
X463529Y239150D01*
X463528Y239150D01*
X463526Y239150D01*
X462808Y239247D01*
X462807Y239247D01*
X462807Y239247D01*
X462735Y239261D01*
X462677Y239273D01*
X462677Y239273D01*
X462676Y239273D01*
X462615Y239294D01*
X462551Y239316D01*
X462551Y239316D01*
X462550Y239317D01*
X461882Y239596D01*
X461882Y239596D01*
X461881Y239596D01*
X461833Y239620D01*
X461763Y239655D01*
X461763Y239655D01*
X461762Y239656D01*
X461691Y239704D01*
X461653Y239730D01*
X461652Y239730D01*
X461652Y239730D01*
X461078Y240175D01*
X461077Y240175D01*
X461077Y240175D01*
X461021Y240225D01*
X460978Y240263D01*
X460978Y240263D01*
X460977Y240264D01*
X460933Y240315D01*
X460891Y240364D01*
X460890Y240364D01*
X460890Y240364D01*
X460451Y240943D01*
X460441Y240958D01*
X460430Y240971D01*
X459960Y241637D01*
X459450Y242099D01*
X458843Y242445D01*
X458082Y242679D01*
X458065Y242685D01*
X458064Y242686D01*
X458061Y242686D01*
X458059Y242687D01*
X457465Y242859D01*
X457415Y242878D01*
X457366Y242894D01*
X457353Y242900D01*
X457340Y242905D01*
X457293Y242929D01*
X457246Y242952D01*
X456687Y243270D01*
X456644Y243298D01*
X456600Y243325D01*
X456588Y243335D01*
X456576Y243343D01*
X456537Y243376D01*
X456497Y243409D01*
X456030Y243843D01*
X455995Y243880D01*
X455959Y243916D01*
X455949Y243929D01*
X455938Y243940D01*
X455909Y243981D01*
X455877Y244022D01*
X455519Y244555D01*
X455493Y244600D01*
X455465Y244645D01*
X455459Y244658D01*
X455452Y244670D01*
X455432Y244718D01*
X455411Y244767D01*
X455187Y245366D01*
X455172Y245417D01*
X455155Y245466D01*
X455153Y245480D01*
X455149Y245494D01*
X455140Y245545D01*
X455131Y245597D01*
X455052Y246235D01*
X455048Y246298D01*
X455044Y246360D01*
Y277759D01*
X455045Y277775D01*
X455045Y277791D01*
X455050Y277841D01*
X455053Y277892D01*
X455056Y277908D01*
X455058Y277924D01*
X455157Y278528D01*
X455168Y278578D01*
X455179Y278629D01*
X455183Y278643D01*
X455187Y278658D01*
X455205Y278706D01*
X455222Y278755D01*
X455458Y279322D01*
X455481Y279368D01*
X455502Y279415D01*
X455510Y279428D01*
X455517Y279441D01*
X455545Y279483D01*
X455573Y279527D01*
X455934Y280025D01*
X455968Y280066D01*
X456000Y280107D01*
X456010Y280117D01*
X456019Y280128D01*
X456058Y280164D01*
X456095Y280201D01*
X456560Y280599D01*
X456601Y280630D01*
X456640Y280662D01*
X456654Y280670D01*
X456667Y280679D01*
X456711Y280704D01*
X456754Y280730D01*
X457298Y281012D01*
X457345Y281033D01*
X457392Y281055D01*
X457406Y281060D01*
X457420Y281066D01*
X457469Y281080D01*
X457519Y281096D01*
X458095Y281241D01*
X458096Y281241D01*
X458096Y281241D01*
X458100Y281242D01*
X458102Y281242D01*
X458102Y281243D01*
X458881Y281468D01*
X459505Y281810D01*
X460050Y282288D01*
X460541Y282960D01*
X460552Y282972D01*
X460561Y282985D01*
X460985Y283529D01*
X461033Y283583D01*
X461073Y283628D01*
X461073Y283628D01*
X461073Y283628D01*
X461122Y283670D01*
X461174Y283715D01*
X461725Y284131D01*
X461727Y284132D01*
X461728Y284134D01*
X461784Y284170D01*
X461836Y284205D01*
X461838Y284205D01*
X461840Y284207D01*
X461899Y284235D01*
X461956Y284263D01*
X461958Y284263D01*
X461960Y284264D01*
X462597Y284520D01*
X462597D01*
X462598D01*
X462600Y284521D01*
X462662Y284541D01*
X462724Y284561D01*
X462725Y284562D01*
X462727Y284562D01*
X462793Y284574D01*
X462855Y284586D01*
X463538Y284670D01*
X463600Y284674D01*
X463662Y284678D01*
X474063D01*
X474064Y284678D01*
X474066Y284678D01*
X474131Y284673D01*
D02*
G37*
G36*
X593016Y184674D02*
X593069Y184672D01*
X593777Y184599D01*
X593846Y184587D01*
X593908Y184576D01*
X593908Y184576D01*
X593909Y184576D01*
X593971Y184557D01*
X594035Y184537D01*
X594701Y184283D01*
X594702Y184282D01*
X594703Y184282D01*
X594759Y184256D01*
X594822Y184228D01*
X594823Y184227D01*
X594824Y184226D01*
X594878Y184192D01*
X594935Y184157D01*
X594935Y184156D01*
X594936Y184155D01*
X595512Y183737D01*
X595512Y183737D01*
X595512Y183737D01*
X595513Y183736D01*
X595560Y183697D01*
X595614Y183652D01*
X595615Y183652D01*
X595615Y183651D01*
X595658Y183605D01*
X595705Y183554D01*
X596154Y183001D01*
X596170Y182979D01*
X596187Y182958D01*
X596671Y182293D01*
X597216Y181814D01*
X597849Y181467D01*
X598646Y181237D01*
X598665Y181230D01*
X598685Y181224D01*
X599295Y181021D01*
X599344Y181001D01*
X599394Y180982D01*
X599406Y180976D01*
X599418Y180971D01*
X599464Y180945D01*
X599512Y180919D01*
X600058Y180579D01*
X600101Y180548D01*
X600144Y180519D01*
X600154Y180510D01*
X600166Y180501D01*
X600204Y180465D01*
X600243Y180431D01*
X600695Y179974D01*
X600727Y179937D01*
X600760Y179902D01*
X600770Y179887D01*
X600783Y179873D01*
X600809Y179832D01*
X600837Y179793D01*
X601175Y179247D01*
X601200Y179200D01*
X601227Y179152D01*
X601232Y179140D01*
X601238Y179130D01*
X601256Y179079D01*
X601277Y179029D01*
X601477Y178417D01*
X601490Y178366D01*
X601505Y178316D01*
X601507Y178301D01*
X601511Y178288D01*
X601517Y178236D01*
X601525Y178184D01*
X601578Y177544D01*
X601579Y177501D01*
X601581Y177459D01*
Y146360D01*
X601578Y146308D01*
X601576Y146257D01*
X601513Y145630D01*
X601504Y145577D01*
X601496Y145524D01*
X601493Y145511D01*
X601491Y145498D01*
X601475Y145447D01*
X601460Y145395D01*
X601252Y144801D01*
X601232Y144754D01*
X601213Y144706D01*
X601206Y144692D01*
X601200Y144678D01*
X601174Y144635D01*
X601149Y144589D01*
X600811Y144061D01*
X600782Y144021D01*
X600754Y143980D01*
X600743Y143968D01*
X600732Y143954D01*
X600698Y143918D01*
X600665Y143881D01*
X600216Y143442D01*
X600175Y143407D01*
X600135Y143371D01*
X600125Y143364D01*
X600115Y143355D01*
X600069Y143326D01*
X600025Y143295D01*
X599484Y142973D01*
X599438Y142949D01*
X599392Y142924D01*
X599378Y142919D01*
X599366Y142912D01*
X599317Y142895D01*
X599268Y142876D01*
X598668Y142688D01*
X598657Y142685D01*
X598646Y142681D01*
X597849Y142451D01*
X597216Y142105D01*
X596676Y141629D01*
X596186Y140958D01*
X596180Y140951D01*
X596175Y140943D01*
X595736Y140364D01*
X595683Y140304D01*
X595649Y140265D01*
X595649Y140264D01*
X595648Y140264D01*
X595596Y140217D01*
X595550Y140176D01*
X594978Y139732D01*
X594976Y139730D01*
X594974Y139729D01*
X594920Y139692D01*
X594868Y139657D01*
X594866Y139656D01*
X594864Y139655D01*
X594804Y139625D01*
X594749Y139597D01*
X594747Y139596D01*
X594744Y139595D01*
X594075Y139316D01*
X594074Y139316D01*
X594074Y139316D01*
X594074Y139316D01*
X594029Y139301D01*
X593948Y139273D01*
X593948Y139273D01*
X593948Y139273D01*
X593879Y139259D01*
X593818Y139247D01*
X593817Y139247D01*
X593817Y139247D01*
X593817D01*
X593099Y139150D01*
X593098Y139150D01*
X593096Y139150D01*
X593031Y139146D01*
X592966Y139141D01*
X592965Y139141D01*
X592963Y139141D01*
X582664D01*
X582609Y139145D01*
X582554Y139147D01*
X581969Y139211D01*
X581969Y139211D01*
X581969Y139211D01*
X581900Y139223D01*
X581838Y139234D01*
X581838Y139234D01*
X581838Y139234D01*
X581777Y139253D01*
X581711Y139274D01*
X581711Y139274D01*
X581711Y139274D01*
X581163Y139487D01*
X581163Y139487D01*
X581163Y139487D01*
X581162Y139487D01*
X581109Y139512D01*
X581042Y139543D01*
X581042Y139543D01*
X581041Y139544D01*
X580991Y139576D01*
X580930Y139614D01*
X580457Y139960D01*
X580457Y139960D01*
X580456Y139961D01*
X580406Y140003D01*
X580355Y140045D01*
X580355Y140046D01*
X580354Y140047D01*
X580307Y140098D01*
X580265Y140143D01*
X580265Y140144D01*
X580264Y140145D01*
X579896Y140605D01*
X579859Y140658D01*
X579822Y140709D01*
X579821Y140712D01*
X579819Y140714D01*
X579790Y140770D01*
X579760Y140827D01*
X579521Y141363D01*
X579520Y141366D01*
X579519Y141368D01*
X579498Y141426D01*
X579475Y141488D01*
X579475Y141491D01*
X579474Y141493D01*
X579460Y141554D01*
X579446Y141618D01*
X579446Y141621D01*
X579445Y141623D01*
X579356Y142205D01*
X579355Y142216D01*
X579353Y142226D01*
X579349Y142282D01*
X579345Y142338D01*
X579345Y142348D01*
X579344Y142359D01*
Y181358D01*
Y181358D01*
Y181358D01*
X579350Y181446D01*
X579353Y181491D01*
X579353Y181491D01*
Y181491D01*
X579432Y182088D01*
X579445Y182155D01*
X579458Y182217D01*
X579458Y182218D01*
X579458Y182219D01*
X579478Y182278D01*
X579500Y182344D01*
X579729Y182897D01*
X579729Y182899D01*
X579730Y182900D01*
X579758Y182957D01*
X579787Y183017D01*
X579788Y183018D01*
X579789Y183019D01*
X579826Y183074D01*
X579861Y183128D01*
X579862Y183129D01*
X579863Y183130D01*
X580228Y183604D01*
X580228Y183604D01*
X580229Y183604D01*
X580229Y183605D01*
X580272Y183654D01*
X580316Y183704D01*
X580317Y183705D01*
X580317Y183705D01*
X580361Y183743D01*
X580416Y183792D01*
X580891Y184156D01*
X580891Y184156D01*
X580891Y184156D01*
X580894Y184158D01*
X580949Y184194D01*
X581002Y184230D01*
X581003Y184231D01*
X581005Y184232D01*
X581066Y184262D01*
X581121Y184289D01*
X581124Y184291D01*
X581124D01*
X581124D01*
X581675Y184520D01*
X581676Y184521D01*
X581677Y184521D01*
X581743Y184544D01*
X581801Y184563D01*
X581802Y184564D01*
X581803Y184564D01*
X581873Y184578D01*
X581931Y184590D01*
X581932Y184590D01*
X581934Y184590D01*
X582531Y184669D01*
X582531Y184669D01*
X582531D01*
X582568Y184671D01*
X582663Y184678D01*
X582664D01*
X582664D01*
X592963D01*
X593016Y184674D01*
D02*
G37*
G36*
X493016D02*
X493069Y184672D01*
X493777Y184599D01*
X493846Y184587D01*
X493908Y184576D01*
X493908Y184576D01*
X493909Y184576D01*
X493971Y184557D01*
X494035Y184537D01*
X494701Y184283D01*
X494702Y184282D01*
X494703Y184282D01*
X494759Y184256D01*
X494822Y184228D01*
X494823Y184227D01*
X494824Y184226D01*
X494878Y184192D01*
X494935Y184157D01*
X494935Y184156D01*
X494936Y184155D01*
X495512Y183737D01*
X495512Y183737D01*
X495512Y183737D01*
X495513Y183736D01*
X495560Y183697D01*
X495614Y183652D01*
X495615Y183652D01*
X495615Y183651D01*
X495658Y183605D01*
X495705Y183554D01*
X496154Y183001D01*
X496170Y182979D01*
X496187Y182958D01*
X496671Y182293D01*
X497216Y181814D01*
X497849Y181467D01*
X498646Y181237D01*
X498665Y181230D01*
X498685Y181224D01*
X499295Y181021D01*
X499344Y181001D01*
X499394Y180982D01*
X499406Y180976D01*
X499418Y180971D01*
X499464Y180945D01*
X499512Y180919D01*
X500058Y180579D01*
X500101Y180548D01*
X500144Y180519D01*
X500154Y180510D01*
X500166Y180501D01*
X500204Y180465D01*
X500243Y180431D01*
X500695Y179974D01*
X500727Y179937D01*
X500760Y179902D01*
X500770Y179887D01*
X500783Y179873D01*
X500809Y179832D01*
X500837Y179793D01*
X501175Y179247D01*
X501200Y179200D01*
X501227Y179152D01*
X501232Y179140D01*
X501238Y179130D01*
X501256Y179079D01*
X501277Y179029D01*
X501477Y178417D01*
X501490Y178366D01*
X501505Y178316D01*
X501507Y178301D01*
X501511Y178288D01*
X501517Y178236D01*
X501525Y178184D01*
X501578Y177544D01*
X501579Y177501D01*
X501581Y177459D01*
Y146360D01*
X501578Y146308D01*
X501576Y146257D01*
X501513Y145630D01*
X501504Y145577D01*
X501496Y145524D01*
X501493Y145511D01*
X501491Y145498D01*
X501475Y145447D01*
X501460Y145395D01*
X501252Y144801D01*
X501232Y144754D01*
X501213Y144706D01*
X501206Y144692D01*
X501200Y144678D01*
X501174Y144635D01*
X501149Y144589D01*
X500811Y144061D01*
X500782Y144021D01*
X500754Y143980D01*
X500743Y143968D01*
X500732Y143954D01*
X500698Y143918D01*
X500665Y143881D01*
X500216Y143442D01*
X500175Y143407D01*
X500135Y143371D01*
X500125Y143364D01*
X500115Y143355D01*
X500069Y143326D01*
X500025Y143295D01*
X499484Y142973D01*
X499438Y142949D01*
X499392Y142924D01*
X499378Y142919D01*
X499366Y142912D01*
X499317Y142895D01*
X499268Y142876D01*
X498668Y142688D01*
X498657Y142685D01*
X498646Y142681D01*
X497849Y142451D01*
X497216Y142105D01*
X496676Y141629D01*
X496186Y140958D01*
X496180Y140951D01*
X496175Y140943D01*
X495736Y140364D01*
X495683Y140304D01*
X495649Y140265D01*
X495649Y140264D01*
X495648Y140264D01*
X495596Y140217D01*
X495550Y140176D01*
X494978Y139732D01*
X494976Y139730D01*
X494974Y139729D01*
X494920Y139692D01*
X494868Y139657D01*
X494866Y139656D01*
X494864Y139655D01*
X494804Y139625D01*
X494749Y139597D01*
X494747Y139596D01*
X494744Y139595D01*
X494075Y139316D01*
X494074Y139316D01*
X494074Y139316D01*
X494074Y139316D01*
X494029Y139301D01*
X493948Y139273D01*
X493948Y139273D01*
X493948Y139273D01*
X493879Y139259D01*
X493818Y139247D01*
X493817Y139247D01*
X493817Y139247D01*
X493817D01*
X493099Y139150D01*
X493098Y139150D01*
X493096Y139150D01*
X493031Y139146D01*
X492966Y139141D01*
X492965Y139141D01*
X492963Y139141D01*
X482664D01*
X482609Y139145D01*
X482554Y139147D01*
X481969Y139211D01*
X481969Y139211D01*
X481969Y139211D01*
X481900Y139223D01*
X481838Y139234D01*
X481838Y139234D01*
X481838Y139234D01*
X481777Y139253D01*
X481711Y139274D01*
X481711Y139274D01*
X481711Y139274D01*
X481163Y139487D01*
X481163Y139487D01*
X481163Y139487D01*
X481162Y139487D01*
X481109Y139512D01*
X481042Y139543D01*
X481042Y139543D01*
X481041Y139544D01*
X480991Y139576D01*
X480930Y139614D01*
X480457Y139960D01*
X480457Y139960D01*
X480456Y139961D01*
X480406Y140003D01*
X480355Y140045D01*
X480355Y140046D01*
X480354Y140047D01*
X480307Y140098D01*
X480265Y140143D01*
X480265Y140144D01*
X480264Y140145D01*
X479896Y140605D01*
X479859Y140658D01*
X479822Y140709D01*
X479821Y140712D01*
X479819Y140714D01*
X479790Y140770D01*
X479760Y140827D01*
X479521Y141363D01*
X479520Y141366D01*
X479519Y141368D01*
X479498Y141426D01*
X479475Y141488D01*
X479475Y141491D01*
X479474Y141493D01*
X479460Y141554D01*
X479446Y141618D01*
X479446Y141621D01*
X479445Y141623D01*
X479356Y142205D01*
X479355Y142216D01*
X479353Y142226D01*
X479349Y142282D01*
X479345Y142338D01*
X479345Y142348D01*
X479344Y142359D01*
Y181358D01*
Y181358D01*
Y181358D01*
X479350Y181446D01*
X479353Y181491D01*
X479353Y181491D01*
Y181491D01*
X479432Y182088D01*
X479445Y182155D01*
X479458Y182217D01*
X479458Y182218D01*
X479458Y182219D01*
X479478Y182278D01*
X479500Y182344D01*
X479729Y182897D01*
X479729Y182899D01*
X479730Y182900D01*
X479758Y182957D01*
X479787Y183017D01*
X479788Y183018D01*
X479789Y183019D01*
X479826Y183074D01*
X479861Y183128D01*
X479862Y183129D01*
X479863Y183130D01*
X480228Y183604D01*
X480228Y183604D01*
X480229Y183604D01*
X480229Y183605D01*
X480272Y183654D01*
X480316Y183704D01*
X480317Y183705D01*
X480317Y183705D01*
X480361Y183743D01*
X480416Y183792D01*
X480891Y184156D01*
X480891Y184156D01*
X480891Y184156D01*
X480894Y184158D01*
X480949Y184194D01*
X481002Y184230D01*
X481003Y184231D01*
X481005Y184232D01*
X481066Y184262D01*
X481121Y184289D01*
X481124Y184291D01*
X481124D01*
X481124D01*
X481675Y184520D01*
X481676Y184521D01*
X481677Y184521D01*
X481743Y184544D01*
X481801Y184563D01*
X481802Y184564D01*
X481803Y184564D01*
X481873Y184578D01*
X481931Y184590D01*
X481932Y184590D01*
X481934Y184590D01*
X482531Y184669D01*
X482531Y184669D01*
X482531D01*
X482568Y184671D01*
X482663Y184678D01*
X482664D01*
X482664D01*
X492963D01*
X493016Y184674D01*
D02*
G37*
G36*
X574131Y184673D02*
X574196Y184669D01*
X574197Y184669D01*
X574198Y184669D01*
X574767Y184592D01*
X574830Y184580D01*
X574893Y184567D01*
X574896Y184567D01*
X574898Y184566D01*
X574959Y184545D01*
X575020Y184525D01*
X575551Y184306D01*
X575553Y184305D01*
X575555Y184305D01*
X575614Y184275D01*
X575670Y184248D01*
X575672Y184246D01*
X575674Y184245D01*
X575728Y184209D01*
X575781Y184174D01*
X575783Y184172D01*
X575785Y184171D01*
X576240Y183821D01*
X576288Y183778D01*
X576336Y183736D01*
X576338Y183734D01*
X576339Y183733D01*
X576381Y183685D01*
X576424Y183636D01*
X576775Y183181D01*
X576776Y183179D01*
X576778Y183178D01*
X576811Y183127D01*
X576849Y183071D01*
X576850Y183068D01*
X576851Y183067D01*
X576878Y183012D01*
X576908Y182951D01*
X576909Y182949D01*
X576910Y182947D01*
X577128Y182416D01*
X577149Y182355D01*
X577170Y182294D01*
X577170Y182292D01*
X577171Y182290D01*
X577183Y182227D01*
X577196Y182164D01*
X577272Y181595D01*
X577272Y181594D01*
X577272Y181593D01*
X577277Y181527D01*
X577281Y181462D01*
X577281Y181461D01*
X577281Y181460D01*
Y165658D01*
X577281Y165655D01*
X577281Y165651D01*
X577276Y165588D01*
X577272Y165525D01*
X577272Y165522D01*
X577271Y165518D01*
X577198Y164989D01*
X577186Y164932D01*
X577175Y164876D01*
X577173Y164868D01*
X577171Y164859D01*
X577152Y164804D01*
X577134Y164750D01*
X576933Y164252D01*
X576907Y164198D01*
X576883Y164145D01*
X576879Y164138D01*
X576875Y164132D01*
X576843Y164082D01*
X576811Y164032D01*
X576496Y163600D01*
X576458Y163555D01*
X576422Y163510D01*
X576416Y163504D01*
X576411Y163498D01*
X576368Y163458D01*
X576325Y163418D01*
X575931Y163090D01*
X575927Y163087D01*
X575927Y163087D01*
X575915Y163076D01*
X575914Y163075D01*
X575913Y163075D01*
X575574Y162770D01*
X575385Y162471D01*
X575287Y162135D01*
Y161782D01*
X575385Y161445D01*
X575573Y161148D01*
X575927Y160831D01*
X575939Y160818D01*
X575945Y160814D01*
X576352Y160461D01*
X576394Y160418D01*
X576437Y160377D01*
X576441Y160372D01*
X576446Y160367D01*
X576483Y160319D01*
X576520Y160273D01*
X576838Y159816D01*
X576868Y159765D01*
X576900Y159713D01*
X576903Y159707D01*
X576906Y159701D01*
X576930Y159647D01*
X576955Y159591D01*
X577151Y159068D01*
X577167Y159015D01*
X577184Y158963D01*
X577186Y158952D01*
X577189Y158940D01*
X577198Y158886D01*
X577208Y158832D01*
X577274Y158278D01*
X577277Y158218D01*
X577281Y158158D01*
Y142359D01*
X577281Y142358D01*
X577281Y142357D01*
X577277Y142292D01*
X577272Y142226D01*
X577272Y142225D01*
X577272Y142224D01*
X577196Y141655D01*
X577183Y141592D01*
X577171Y141529D01*
X577170Y141527D01*
X577170Y141524D01*
X577149Y141463D01*
X577128Y141403D01*
X576910Y140872D01*
X576909Y140871D01*
X576909Y140870D01*
X576881Y140812D01*
X576851Y140752D01*
X576851Y140751D01*
X576850Y140750D01*
X576816Y140699D01*
X576778Y140641D01*
X576777Y140640D01*
X576776Y140640D01*
X576426Y140183D01*
X576425Y140182D01*
X576425Y140181D01*
X576386Y140137D01*
X576338Y140082D01*
X576338Y140082D01*
X576337Y140081D01*
X576286Y140036D01*
X576238Y139994D01*
X576237Y139994D01*
X576237Y139993D01*
X575782Y139645D01*
X575729Y139610D01*
X575674Y139573D01*
X575672Y139572D01*
X575671Y139572D01*
X575618Y139545D01*
X575554Y139514D01*
X575024Y139293D01*
X575022Y139292D01*
X575020Y139291D01*
X574963Y139272D01*
X574898Y139250D01*
X574896Y139250D01*
X574894Y139249D01*
X574833Y139237D01*
X574767Y139224D01*
X574765Y139224D01*
X574763Y139223D01*
X574196Y139150D01*
D01*
D01*
X574194Y139150D01*
X574129Y139145D01*
X574063Y139141D01*
X563662D01*
X563661Y139141D01*
X563659Y139141D01*
X563595Y139146D01*
X563529Y139150D01*
X563528Y139150D01*
X563526Y139150D01*
X562808Y139247D01*
X562807Y139247D01*
X562807Y139247D01*
X562735Y139261D01*
X562677Y139273D01*
X562677Y139273D01*
X562676Y139273D01*
X562615Y139295D01*
X562551Y139316D01*
X562551Y139316D01*
X562550Y139317D01*
X561882Y139596D01*
X561882Y139596D01*
X561881Y139596D01*
X561833Y139620D01*
X561763Y139655D01*
X561763Y139656D01*
X561762Y139656D01*
X561691Y139704D01*
X561653Y139730D01*
X561652Y139730D01*
X561652Y139730D01*
X561078Y140175D01*
X561077Y140175D01*
X561077Y140175D01*
X561021Y140225D01*
X560978Y140263D01*
X560978Y140263D01*
X560977Y140264D01*
X560933Y140315D01*
X560891Y140364D01*
X560890Y140364D01*
X560890Y140364D01*
X560451Y140943D01*
X560441Y140958D01*
X560430Y140971D01*
X559960Y141637D01*
X559450Y142099D01*
X558843Y142445D01*
X558082Y142679D01*
X558065Y142685D01*
X558064Y142685D01*
X558061Y142686D01*
X558059Y142687D01*
X557465Y142859D01*
X557415Y142878D01*
X557366Y142894D01*
X557353Y142900D01*
X557340Y142905D01*
X557293Y142929D01*
X557246Y142952D01*
X556687Y143270D01*
X556644Y143298D01*
X556600Y143325D01*
X556588Y143335D01*
X556576Y143343D01*
X556537Y143376D01*
X556497Y143409D01*
X556030Y143843D01*
X555995Y143880D01*
X555959Y143916D01*
X555949Y143929D01*
X555938Y143940D01*
X555909Y143981D01*
X555877Y144022D01*
X555519Y144555D01*
X555493Y144600D01*
X555465Y144645D01*
X555459Y144658D01*
X555452Y144670D01*
X555432Y144719D01*
X555411Y144767D01*
X555187Y145366D01*
X555172Y145417D01*
X555155Y145466D01*
X555153Y145480D01*
X555149Y145494D01*
X555140Y145545D01*
X555131Y145597D01*
X555052Y146235D01*
X555048Y146298D01*
X555044Y146360D01*
Y177759D01*
X555045Y177775D01*
X555045Y177791D01*
X555050Y177841D01*
X555053Y177892D01*
X555056Y177908D01*
X555058Y177924D01*
X555157Y178528D01*
X555168Y178578D01*
X555179Y178629D01*
X555183Y178643D01*
X555187Y178658D01*
X555205Y178706D01*
X555222Y178755D01*
X555458Y179322D01*
X555481Y179368D01*
X555502Y179415D01*
X555510Y179428D01*
X555517Y179441D01*
X555545Y179483D01*
X555573Y179527D01*
X555934Y180025D01*
X555968Y180066D01*
X556000Y180107D01*
X556010Y180117D01*
X556019Y180128D01*
X556058Y180164D01*
X556095Y180201D01*
X556560Y180599D01*
X556601Y180630D01*
X556640Y180662D01*
X556654Y180670D01*
X556667Y180679D01*
X556711Y180704D01*
X556754Y180730D01*
X557298Y181012D01*
X557345Y181033D01*
X557392Y181055D01*
X557406Y181060D01*
X557420Y181066D01*
X557469Y181080D01*
X557519Y181096D01*
X558095Y181241D01*
X558096Y181241D01*
X558096Y181241D01*
X558100Y181242D01*
X558102Y181242D01*
X558102Y181243D01*
X558881Y181468D01*
X559505Y181810D01*
X560050Y182288D01*
X560541Y182960D01*
X560552Y182972D01*
X560561Y182985D01*
X560985Y183529D01*
X561033Y183583D01*
X561073Y183628D01*
X561073Y183628D01*
X561073Y183628D01*
X561122Y183670D01*
X561174Y183715D01*
X561725Y184131D01*
X561727Y184132D01*
X561728Y184134D01*
X561784Y184170D01*
X561836Y184205D01*
X561838Y184205D01*
X561840Y184207D01*
X561899Y184235D01*
X561956Y184263D01*
X561958Y184263D01*
X561960Y184264D01*
X562597Y184520D01*
X562598D01*
X562598D01*
X562600Y184521D01*
X562662Y184541D01*
X562724Y184561D01*
X562725Y184562D01*
X562727Y184562D01*
X562793Y184574D01*
X562855Y184586D01*
X563538Y184670D01*
X563600Y184674D01*
X563662Y184678D01*
X574063D01*
X574064Y184678D01*
X574066Y184678D01*
X574131Y184673D01*
D02*
G37*
G36*
X474131D02*
X474196Y184669D01*
X474197Y184669D01*
X474198Y184669D01*
X474767Y184592D01*
X474830Y184580D01*
X474893Y184567D01*
X474896Y184567D01*
X474898Y184566D01*
X474959Y184545D01*
X475020Y184525D01*
X475551Y184306D01*
X475553Y184305D01*
X475555Y184305D01*
X475614Y184275D01*
X475670Y184248D01*
X475672Y184246D01*
X475674Y184245D01*
X475728Y184209D01*
X475781Y184174D01*
X475783Y184172D01*
X475785Y184171D01*
X476240Y183821D01*
X476288Y183778D01*
X476336Y183736D01*
X476338Y183734D01*
X476339Y183733D01*
X476381Y183685D01*
X476424Y183636D01*
X476775Y183181D01*
X476776Y183179D01*
X476778Y183178D01*
X476811Y183127D01*
X476849Y183071D01*
X476850Y183068D01*
X476851Y183067D01*
X476878Y183012D01*
X476908Y182951D01*
X476909Y182949D01*
X476910Y182947D01*
X477128Y182416D01*
X477149Y182355D01*
X477170Y182294D01*
X477170Y182292D01*
X477171Y182290D01*
X477183Y182227D01*
X477196Y182164D01*
X477272Y181595D01*
X477272Y181594D01*
X477272Y181593D01*
X477277Y181527D01*
X477281Y181462D01*
X477281Y181461D01*
X477281Y181460D01*
Y165658D01*
X477281Y165655D01*
X477281Y165651D01*
X477276Y165588D01*
X477272Y165525D01*
X477272Y165522D01*
X477271Y165518D01*
X477198Y164989D01*
X477186Y164932D01*
X477175Y164876D01*
X477173Y164868D01*
X477171Y164859D01*
X477152Y164804D01*
X477134Y164750D01*
X476933Y164252D01*
X476907Y164198D01*
X476883Y164145D01*
X476879Y164138D01*
X476875Y164132D01*
X476843Y164082D01*
X476811Y164032D01*
X476496Y163600D01*
X476458Y163555D01*
X476422Y163510D01*
X476416Y163504D01*
X476411Y163498D01*
X476368Y163458D01*
X476325Y163418D01*
X475931Y163090D01*
X475927Y163087D01*
X475927Y163087D01*
X475915Y163076D01*
X475914Y163075D01*
X475913Y163075D01*
X475574Y162770D01*
X475385Y162471D01*
X475287Y162135D01*
Y161782D01*
X475385Y161445D01*
X475573Y161148D01*
X475927Y160831D01*
X475939Y160818D01*
X475945Y160814D01*
X476352Y160461D01*
X476394Y160418D01*
X476437Y160377D01*
X476441Y160372D01*
X476446Y160367D01*
X476483Y160319D01*
X476520Y160273D01*
X476838Y159816D01*
X476868Y159765D01*
X476900Y159713D01*
X476903Y159707D01*
X476906Y159701D01*
X476930Y159647D01*
X476955Y159591D01*
X477151Y159068D01*
X477167Y159015D01*
X477184Y158963D01*
X477186Y158952D01*
X477189Y158940D01*
X477198Y158886D01*
X477208Y158832D01*
X477274Y158278D01*
X477277Y158218D01*
X477281Y158158D01*
Y142359D01*
X477281Y142358D01*
X477281Y142357D01*
X477277Y142292D01*
X477272Y142226D01*
X477272Y142225D01*
X477272Y142224D01*
X477196Y141655D01*
X477183Y141592D01*
X477171Y141529D01*
X477170Y141527D01*
X477170Y141524D01*
X477149Y141463D01*
X477128Y141403D01*
X476910Y140872D01*
X476909Y140871D01*
X476909Y140870D01*
X476881Y140812D01*
X476851Y140752D01*
X476851Y140751D01*
X476850Y140750D01*
X476816Y140699D01*
X476778Y140641D01*
X476777Y140640D01*
X476776Y140640D01*
X476426Y140183D01*
X476425Y140182D01*
X476425Y140181D01*
X476386Y140137D01*
X476338Y140082D01*
X476338Y140082D01*
X476337Y140081D01*
X476286Y140036D01*
X476238Y139994D01*
X476237Y139994D01*
X476237Y139993D01*
X475782Y139645D01*
X475729Y139610D01*
X475674Y139573D01*
X475672Y139572D01*
X475671Y139572D01*
X475618Y139545D01*
X475554Y139514D01*
X475024Y139293D01*
X475022Y139292D01*
X475020Y139291D01*
X474963Y139272D01*
X474898Y139250D01*
X474896Y139250D01*
X474894Y139249D01*
X474833Y139237D01*
X474767Y139224D01*
X474765Y139224D01*
X474763Y139223D01*
X474196Y139150D01*
D01*
D01*
X474194Y139150D01*
X474129Y139145D01*
X474063Y139141D01*
X463662D01*
X463661Y139141D01*
X463659Y139141D01*
X463595Y139146D01*
X463529Y139150D01*
X463528Y139150D01*
X463526Y139150D01*
X462808Y139247D01*
X462807Y139247D01*
X462807Y139247D01*
X462735Y139261D01*
X462677Y139273D01*
X462677Y139273D01*
X462676Y139273D01*
X462615Y139295D01*
X462551Y139316D01*
X462551Y139316D01*
X462550Y139317D01*
X461882Y139596D01*
X461882Y139596D01*
X461881Y139596D01*
X461833Y139620D01*
X461763Y139655D01*
X461763Y139656D01*
X461762Y139656D01*
X461691Y139704D01*
X461653Y139730D01*
X461652Y139730D01*
X461652Y139730D01*
X461078Y140175D01*
X461077Y140175D01*
X461077Y140175D01*
X461021Y140225D01*
X460978Y140263D01*
X460978Y140263D01*
X460977Y140264D01*
X460933Y140315D01*
X460891Y140364D01*
X460890Y140364D01*
X460890Y140364D01*
X460451Y140943D01*
X460441Y140958D01*
X460430Y140971D01*
X459960Y141637D01*
X459450Y142099D01*
X458843Y142445D01*
X458082Y142679D01*
X458065Y142685D01*
X458064Y142685D01*
X458061Y142686D01*
X458059Y142687D01*
X457465Y142859D01*
X457415Y142878D01*
X457366Y142894D01*
X457353Y142900D01*
X457340Y142905D01*
X457293Y142929D01*
X457246Y142952D01*
X456687Y143270D01*
X456644Y143298D01*
X456600Y143325D01*
X456588Y143335D01*
X456576Y143343D01*
X456537Y143376D01*
X456497Y143409D01*
X456030Y143843D01*
X455995Y143880D01*
X455959Y143916D01*
X455949Y143929D01*
X455938Y143940D01*
X455909Y143981D01*
X455877Y144022D01*
X455519Y144555D01*
X455493Y144600D01*
X455465Y144645D01*
X455459Y144658D01*
X455452Y144670D01*
X455432Y144719D01*
X455411Y144767D01*
X455187Y145366D01*
X455172Y145417D01*
X455155Y145466D01*
X455153Y145480D01*
X455149Y145494D01*
X455140Y145545D01*
X455131Y145597D01*
X455052Y146235D01*
X455048Y146298D01*
X455044Y146360D01*
Y177759D01*
X455045Y177775D01*
X455045Y177791D01*
X455050Y177841D01*
X455053Y177892D01*
X455056Y177908D01*
X455058Y177924D01*
X455157Y178528D01*
X455168Y178578D01*
X455179Y178629D01*
X455183Y178643D01*
X455187Y178658D01*
X455205Y178706D01*
X455222Y178755D01*
X455458Y179322D01*
X455481Y179368D01*
X455502Y179415D01*
X455510Y179428D01*
X455517Y179441D01*
X455545Y179483D01*
X455573Y179527D01*
X455934Y180025D01*
X455968Y180066D01*
X456000Y180107D01*
X456010Y180117D01*
X456019Y180128D01*
X456058Y180164D01*
X456095Y180201D01*
X456560Y180599D01*
X456601Y180630D01*
X456640Y180662D01*
X456654Y180670D01*
X456667Y180679D01*
X456711Y180704D01*
X456754Y180730D01*
X457298Y181012D01*
X457345Y181033D01*
X457392Y181055D01*
X457406Y181060D01*
X457420Y181066D01*
X457469Y181080D01*
X457519Y181096D01*
X458095Y181241D01*
X458096Y181241D01*
X458096Y181241D01*
X458100Y181242D01*
X458102Y181242D01*
X458102Y181243D01*
X458881Y181468D01*
X459505Y181810D01*
X460050Y182288D01*
X460541Y182960D01*
X460552Y182972D01*
X460561Y182985D01*
X460985Y183529D01*
X461033Y183583D01*
X461073Y183628D01*
X461073Y183628D01*
X461073Y183628D01*
X461122Y183670D01*
X461174Y183715D01*
X461725Y184131D01*
X461727Y184132D01*
X461728Y184134D01*
X461784Y184170D01*
X461836Y184205D01*
X461838Y184205D01*
X461840Y184207D01*
X461899Y184235D01*
X461956Y184263D01*
X461958Y184263D01*
X461960Y184264D01*
X462597Y184520D01*
X462597D01*
X462598D01*
X462600Y184521D01*
X462662Y184541D01*
X462724Y184561D01*
X462725Y184562D01*
X462727Y184562D01*
X462793Y184574D01*
X462855Y184586D01*
X463538Y184670D01*
X463600Y184674D01*
X463662Y184678D01*
X474063D01*
X474064Y184678D01*
X474066Y184678D01*
X474131Y184673D01*
D02*
G37*
D19*
X192267Y30344D02*
D03*
X182267D02*
D03*
X172267D02*
D03*
X162267D02*
D03*
X152267D02*
D03*
Y85344D02*
D03*
X162267D02*
D03*
X172267D02*
D03*
X182267D02*
D03*
X192267D02*
D03*
X152268Y493276D02*
D03*
X162267D02*
D03*
X172267D02*
D03*
X182267D02*
D03*
X192267D02*
D03*
Y438276D02*
D03*
X182267D02*
D03*
X172267D02*
D03*
X162267D02*
D03*
X152268D02*
D03*
X542267Y85344D02*
D03*
X532267D02*
D03*
X522267D02*
D03*
X512267D02*
D03*
X502267D02*
D03*
Y30344D02*
D03*
X512267D02*
D03*
X522267D02*
D03*
X532267D02*
D03*
X542267D02*
D03*
X502268Y493276D02*
D03*
X512268D02*
D03*
X522267D02*
D03*
X532267D02*
D03*
X542267D02*
D03*
Y438276D02*
D03*
X532267D02*
D03*
X522268D02*
D03*
X512268D02*
D03*
X502268D02*
D03*
D20*
X118663Y361859D02*
D03*
Y261859D02*
D03*
Y161859D02*
D03*
X218663D02*
D03*
Y261859D02*
D03*
Y361859D02*
D03*
X568663Y161859D02*
D03*
X468663D02*
D03*
Y361859D02*
D03*
Y261859D02*
D03*
X568663D02*
D03*
Y361859D02*
D03*
D21*
X142613Y361762D02*
D03*
Y261762D02*
D03*
Y161762D02*
D03*
X242613D02*
D03*
Y261762D02*
D03*
Y361762D02*
D03*
X592613Y161762D02*
D03*
X492613D02*
D03*
Y361762D02*
D03*
Y261762D02*
D03*
X592613D02*
D03*
Y361762D02*
D03*
D22*
X733770Y32118D02*
D03*
Y492118D02*
D03*
X30000D02*
D03*
Y32118D02*
D03*
D23*
X316592Y187309D02*
D03*
Y287388D02*
D03*
X666592Y287309D02*
D03*
Y187309D02*
D03*
Y387309D02*
D03*
X377755Y287259D02*
D03*
Y187259D02*
D03*
Y386731D02*
D03*
X27754Y287459D02*
D03*
Y386731D02*
D03*
Y187459D02*
D03*
X316592Y387257D02*
D03*
D24*
Y161909D02*
D03*
Y136509D02*
D03*
Y261988D02*
D03*
Y236588D02*
D03*
X666592Y261909D02*
D03*
Y236509D02*
D03*
Y161909D02*
D03*
Y136509D02*
D03*
Y361909D02*
D03*
Y336509D02*
D03*
X377755Y261859D02*
D03*
Y236459D02*
D03*
Y161859D02*
D03*
Y136459D02*
D03*
Y361331D02*
D03*
Y335931D02*
D03*
X27754Y262059D02*
D03*
Y236659D02*
D03*
Y361331D02*
D03*
Y335932D02*
D03*
Y162059D02*
D03*
Y136659D02*
D03*
X316592Y361857D02*
D03*
Y336457D02*
D03*
D25*
X570524Y30344D02*
D03*
D26*
X738570Y300218D02*
D03*
Y274818D02*
D03*
Y249418D02*
D03*
D27*
Y224018D02*
D03*
D28*
X532267Y510508D02*
D03*
X512105D02*
D03*
X182365Y18542D02*
D03*
X162203D02*
D03*
X192166Y424498D02*
D03*
X271930Y438175D02*
D03*
X262397D02*
D03*
X501505Y96888D02*
D03*
Y107302D02*
D03*
X405299Y104266D02*
D03*
X386443D02*
D03*
X395976D02*
D03*
X405299Y95884D02*
D03*
X386443D02*
D03*
X395976D02*
D03*
X450800Y87884D02*
D03*
X441477D02*
D03*
X395766Y87502D02*
D03*
X405299D02*
D03*
X386443D02*
D03*
X87178Y16370D02*
D03*
X96711D02*
D03*
X77855D02*
D03*
Y24752D02*
D03*
X96711D02*
D03*
X87178D02*
D03*
X77855Y33134D02*
D03*
X96711D02*
D03*
X87178D02*
D03*
X625995Y16370D02*
D03*
X635528D02*
D03*
X616672D02*
D03*
Y24752D02*
D03*
X635528D02*
D03*
X625995D02*
D03*
X616672Y33134D02*
D03*
X635528D02*
D03*
X625995D02*
D03*
X392126Y16370D02*
D03*
X401658D02*
D03*
X382803D02*
D03*
Y24752D02*
D03*
X401658D02*
D03*
X392126D02*
D03*
X382803Y33134D02*
D03*
X401658D02*
D03*
X392126D02*
D03*
X437836Y33516D02*
D03*
X456692D02*
D03*
X447159D02*
D03*
X261306Y68694D02*
D03*
X280162D02*
D03*
X270629D02*
D03*
Y33134D02*
D03*
X280162D02*
D03*
X261306D02*
D03*
X270629Y24752D02*
D03*
X280162D02*
D03*
X261306D02*
D03*
Y16370D02*
D03*
X280162D02*
D03*
X270629D02*
D03*
X106680Y96126D02*
D03*
Y105524D02*
D03*
Y86614D02*
D03*
X151505Y107302D02*
D03*
Y96888D02*
D03*
X592077Y438175D02*
D03*
X601610D02*
D03*
X563663Y395908D02*
D03*
X554131D02*
D03*
X253074Y438175D02*
D03*
X544808Y395908D02*
D03*
X460231Y87986D02*
D03*
X582754Y438175D02*
D03*
X442598Y441148D02*
D03*
X523990Y127368D02*
D03*
X173990Y127368D02*
D03*
X92710Y416928D02*
D03*
X459416Y315734D02*
D03*
X691388Y85344D02*
D03*
X342254Y85344D02*
D03*
X218751Y454475D02*
D03*
X183642Y454520D02*
D03*
X112776Y468284D02*
D03*
X542544D02*
D03*
X474010Y441148D02*
D03*
Y401448D02*
D03*
X490008D02*
D03*
X490008Y441148D02*
D03*
X568663Y126606D02*
D03*
Y226606D02*
D03*
Y326606D02*
D03*
X218640Y326531D02*
D03*
X218663Y226685D02*
D03*
Y126606D02*
D03*
X140007Y29970D02*
D03*
X124005Y29970D02*
D03*
X220525Y30410D02*
D03*
X182267Y507968D02*
D03*
X124010Y493210D02*
D03*
X218752Y493650D02*
D03*
X204528D02*
D03*
X162105Y507968D02*
D03*
X512267Y18542D02*
D03*
X532430D02*
D03*
X568752Y493650D02*
D03*
X554528D02*
D03*
X474010Y493210D02*
D03*
X490007Y29970D02*
D03*
X474010Y29970D02*
D03*
M02*
